<svg enable-background="new 0 0 38.2 126.3" viewBox="0 0 38.2 126.3" xmlns="http://www.w3.org/2000/svg"><g fill="#841a5e"><path d="m32.1 112.3c.1.5.3.9.2 1.3 0 .2.1.3.3.3.6 0 1.2 0 1.7.1.3 0 .7.2 1 .3.5 0 .9.1 1.4.1s.5 0 .6.5c0 .1.1.2.2.3s.2.1.2.1c.3.2.4.3.1.5-.3.3-.2.6-.2.9s-.1.5-.3.6c-.3.2-.6.1-.7-.2-.1-.2-.1-.3-.3-.1-.5.6-1.1 1.1-1.8 1.4-.1 0-.2.2-.2.2-.6.6-1.3 1.1-1.9 1.7-.4.3-.7.8-1.1 1.2-.1.1-.1.2-.2.2-.8.3-1.2 1-1.7 1.5s-.8 1-1.2 1.5c-.2.2-.2.4-.1.5.2.3 0 .4-.1.5s-.3.2-.4.3c-.3.2-.6.2-.9-.1-.3-.2-.6-.4-1.1-.2-.1.1-.3 0-.4 0-.3-.1-.7 0-1 0-1.5.1-3.1.1-4.6.1-.4 0-.7-.2-1.1-.3-.5-.1-1-.2-1.6-.2-.1 0-.2 0-.3 0-.2 0-.3-.1-.5-.2-.1 0-.3 0-.5 0s-.3-.1-.5-.1c-.7 0-1.4-.1-2-.2-.4.2-.8.1-1.1.1-.8.1-1.6-.2-2.4-.4s-1.6-.4-2.4-.4c-.4 0-.8-.1-1.1-.2s-.6-.2-.9-.2c-1-.2-1.9-.5-2.9-.7-.4-.1-.9-.2-1.3-.3-.4-.2-.8-.4-.7-.9-.3-.7-.1-1.5-.3-2.2.2-.2.1-.5.5-.7.5-.2.9-.5 1.3-.7.8-.4 1.5-.9 2.3-1.4.4-.3.8-.6 1.2-1 .2-.3.5-.3.8-.2.2.1.2 0 .3 0 .7-.5 1.5-.7 2.3-1 .5-.2 1.1-.2 1.6-.5.5-.2.9-.5 1.3-.8.1-.1.3-.3.1-.5 0 0 0-.1 0-.2 0-1.3-.1-2.5-.1-3.8 0-.5-.2-1-.1-1.5s.1-1 .1-1.5c0-.2.1-.5-.1-.7-.1-.1.1-.4.1-.6 0-.7.1-1.3-.1-2 .3-.3 0-.7.1-1.1s0-.8 0-1.2c0-.6-.1-1.2-.1-1.8 0-.2.1-.4 0-.6-.1-1.1-.2-2.3-.1-3.4.2-2.6 0-5.2.1-7.8 0-.2.1-.5-.1-.7v-.2c.2-.3.1-.6.1-.9-.1-.4-.1-.8-.1-1.1 0-.9.1-1.9.2-2.8.1-.5 0-1 0-1.5 0-.3-.1-.6.1-.9 0-.1 0-.2 0-.3-.2-.5-.1-1-.1-1.5 0-.2.1-.4.1-.7 0-.5-.1-1-.2-1.5 0-.6-.3-1.2-.1-1.9.1-.4.1-.9.1-1.4 0-.6 0-1.1 0-1.7 0-1.4.1-2.8.1-4.2 0-1.1-.1-2.2-.1-3.2-.2-.3 0-.7 0-1 0-1.8 0-3.6-.1-5.4-.1-1.2-.1-2.5-.2-3.7-.1-1 0-2.1-.1-3.1 0-1.4-.1-3.2-.1-4.9 0-.5 0-1.1.1-1.6s0-1 0-1.5c.1-.9 0-1.8.1-2.6.2-1.2.1-2.4.1-3.5-.1-1.4 0-2.7-.1-4.1.2-.5.1-1.1.2-1.6.1-.6.1-1.3 0-2-.1-.3-.1-.8 0-1.2.1-.6.1-1.2 0-1.8s-.1-1.1 0-1.6c.1-.6.2-1.3.1-1.9 0-.2 0-.4 0-.6s0-.5 0-.7.1-.4.1-.6c0-.1 0-.2 0-.3-.2-.3-.1-.5-.1-.8 0-.9 0-1.8 0-2.7 0-.8.1-1.6.1-2.4 0-1-.1-2.1-.1-3.1.1-1.2 0-2.3.1-3.5.1-.6.1-1.3.1-1.9 0-.3-.1-.5.1-.7.1-.3.2-.4.4-.4s.3-.1.4-.3c.3-.6.8-1.1 1.4-1.3.5-.2 1-.5 1.5-.6.6-.1 1.2-.4 1.8-.4s1.3-.2 1.9-.3c.4 0 .7 0 1.1.1s.8.2 1.2.2c.8.1 1.4.6 2 1.1.4.3.7.6.9 1 0 .1.1.1.2.2.3.2.3.4 0 .5-.1 0-.1.1-.2.1-.2.1-.3.3-.1.5s.2.5.2.8c-.2.8-.2 1.6 0 2.3 0 .1 0 .3-.1.5-.2.5-.2 1.1-.1 1.6v.2c0 1 0 2 .1 3 .1 1.3 0 2.6.1 3.9.2 1.8.1 3.5.2 5.2 0 .8 0 1.6.1 2.4.1.4 0 .9.1 1.3 0 .1-.1.2-.1.3v.5c0 .1.1.2.1.3 0 .3-.1.5-.1.8 0 .2.1.4 0 .7-.1.2 0 .5.1.8.1.6.1 1.5 0 2.2v.3 1.6c0 .8.1 1.6.2 2.3v.6c-.1.2.3.4 0 .6.3.6-.1 1.3.2 1.9v.4 1.9c0 1.3-.1 2.6-.1 3.8 0 1.1 0 2.2.1 3.3.1.8 0 1.6.1 2.4.1.5.1 1 .2 1.4.1.5.1 1 0 1.6 0 .4-.1.7-.1 1.1 0 1.4-.1 2.9-.1 4.3 0 .4.1.8.2 1.2v.1c.6.3.1.8.1 1.2v1.3 1.1s-.1.1-.1.1c.1.3 0 .6 0 .9s-.1.7 0 1c.1.5.1 1 .1 1.5 0 .3 0 .6-.1.9-.1.2 0 .5.1.8v.2c.2.1.3.4.3.7s.2.6 0 .9c.2.3.1.6.1.9v2.2c0 .2.1.4-.1.6-.1.1 0 .3 0 .4.2.6.1 1.3.1 2 0 .2.2.4 0 .7-.1.2 0 .5 0 .7 0 .5.1.9.2 1.4v.2c0 .3.1.6.1.9s-.1.5-.1.8v.4.7c0 .1-.1.2 0 .3.2.5.2 1 0 1.5v.2c.2.5 0 1 .2 1.4v.3 2c0 1 0 2 .1 2.9.1.8 0 1.5.2 2.3.1.6 0 1.2.1 1.8s-.1 1.2.3 1.7v.1c0 .8.1 1.5.1 2.3 0 .4 0 .8.1 1.2.1.2.1.4 0 .5-.2.7-.1 1.4-.1 2.1 0 .3.1.7.1 1-.2 1.5 0 3.1-.1 4.6 0 .2-.2.5-.1.7.2.6.1 1.2.1 1.7 0 .3.2.7-.1 1 .2.6.1 1.3.1 1.9 0 .1.1.2.2.1.6-.3 1.1-.1 1.6.1.2.1.2.1.2-.2 0-.8.2-1.4.7-2 .3-.4.8-.5 1.1-.2.2.1.3.3.4.5.3.2.4.4.6.7m-15-106.8c-.2-.1-.4-.2-.6-.2s-.4.1-.6.2c-.4.1-.8 0-1.3 0-.2 0-.4-.2-.5-.3 0 0 0-.2 0-.3h.1c.4.1.7 0 .9.1.3.1.6-.1.8 0 .1 0 .2-.1.4-.1.3 0 .5.1.8.1.3-.1.6-.1.9-.1.8 0 1.5-.1 2.3-.1h.2c.7-.4 1.5-.8 2.2-1.1.2-.1.3-.2.2-.4-.1-.4-.1-.8-.5-1-.1-.1-.3-.2-.3-.4 0-.4-.3-.4-.5-.5-.5-.1-1-.2-1.5-.3-.3-.2-.8-.1-1.2-.1-.6 0-1.3.2-1.9.4-.7.2-1.3.4-1.9.8-.5.4-1 .7-1.3 1.3 0 .1-.1.1-.1.2 0 0-.1.1-.1.1-.6.2-.6.2-.6.7v.3c-.2.7-.3 1.4-.3 2.2 0 .5-.1 1.1.1 1.6.1.2-.1.5-.1.8 0 .4.1.9.1 1.3 0 .6.1 1.2.1 1.8 0 1.4.2 2.8-.1 4.2v.3c.1.8.2 1.6.2 2.3 0 .4-.1.9-.1 1.3-.1.8 0 1.6-.1 2.4-.1.7 0 1.4 0 2 0 .2.1.4.1.5-.1.3-.1.6-.1.8 0 .5.1 1 .1 1.5 0 1-.1 1.9-.1 2.9 0 1.7-.1 3.5.1 5.2.1 1.2 0 2.3-.1 3.5v.1c-.2.6-.1 1.2-.2 1.9-.1.5-.1 1.1.1 1.7v.2c-.2.2-.1.4-.1.6 0 .8 0 1.5.1 2.3.1 1.1 0 2.2.1 3.3 0 .3-.1.6-.1.9 0 .8-.1 1.6.1 2.4.1.7 0 1.5.1 2.3.1.7.1 1.3.1 2 0 1.2.1 2.4-.1 3.6-.1.6-.3 1.2 0 1.7-.1 1.5.1 2.9-.1 4.4-.1.5 0 1 0 1.6v1.5c0 .2-.1.4 0 .6 0 .2.1.5 0 .6-.2.5-.1 1.1-.2 1.6-.1.7.1 1.5.2 2.2.1.8.2 1.7-.1 2.5v.4c.1.4.1.9.2 1.3 0 .2-.1.4-.1.7 0 .8.2 1.5.4 2.3.1.4.2.9-.2 1.2-.4.2-.4.5-.4.8.1.3 0 .7 0 1 .2.8.3 1.6.4 2.4 0 .5.2 1.1.1 1.6-.1.4-.1.9 0 1.4.1.7.1 1.4.1 2.2s0 1.5-.1 2.3c0 1-.1 2.1.1 3.1.1.5 0 1.1.1 1.7.1.5 0 1 0 1.5s.1.9 0 1.4c0 .3.1.6.1.9v1.7c0 .2-.1.4-.1.6.2.6.1 1.3.1 2v.4.4c0 .5.2 1 .1 1.6-.1.5-.1 1 0 1.5.1.7.3 1.3.3 2v.4s0 .1.1.1c0 0 .1 0 .1-.1.1-.2.1-.4.2-.6s.6-.5.8-.5c.3 0 .7.6.7.9 0 .5.1 1 .1 1.5 0 .1 0 .2.1.2.4.1.7.3 1 .5.2.2.3.3.3.5-.1.3.1.5.3.5 1.1.3 2.2.4 3.3-.1.5-.2 1-.3 1.6-.4.3 0 .5-.1.8-.3.3-.3.7-.5 1.1-.8.1-.1.3-.3.5-.1s.1.4.1.6c0 0-.1 0-.1.1 0 .3-.2.4-.4.6v.2c.2-.1.5-.1.6-.3.1-.3.1-.6.1-1 0-.3-.2-.6-.3-.8-.2-.6-.1-1 .4-1.2.2-.1.3-.1.3-.3 0-.9.2-1.8.2-2.7.1-1.5 0-3.1.1-4.6.1-.9-.1-1.9.1-2.9.1-.5.1-1.1-.1-1.6 0-.1 0-.2 0-.3.2-.5.2-1 .2-1.5 0-.3 0-.5-.3-.7-.1-.1-.3-.2-.3-.4 0-.3-.2-.5 0-.8.1-.1.1-.3 0-.5s-.1-.5-.1-.7-.1-.5-.1-.7c0-.5 0-1 0-1.5s-.2-.9 0-1.4c0-.1 0-.2-.1-.3-.1-.4-.2-.9-.1-1.3 0-.3 0-.5 0-.8-.1-.7-.1-1.4-.1-2.1 0-1.5 0-3-.1-4.4 0-.1-.1-.2-.1-.3s0-.2 0-.4.1-.3.1-.5c0-1.4 0-2.9 0-4.3 0-.3-.1-.6-.4-.7-.4-.2-.4-.4-.4-.8 0-.6.1-1.3-.1-1.9-.1-.4 0-.8-.1-1.3 0-.4 0-.9-.1-1.3 0-.1 0-.2 0-.3-.2-.7-.1-1.4-.2-2.1 0-.2.2-.5.1-.6-.2-.4 0-.8-.1-1.2-.1-.8 0-1.6-.1-2.4s0-1.7 0-2.5c0-.1.1-.3.1-.4 0-.3.1-.6.1-.9 0-.4 0-.9.2-1.3 0-.1.1-.2.1-.3.2-.5.2-.7.1-1.1 0-.2-.1-.4-.1-.5.1-.2.1-.4.1-.6 0-.5-.1-.9-.1-1.4-.1-.7.1-1.3 0-2 0-.1 0-.1 0-.2.2-.7.1-1.5.2-2.2.1-.8-.1-1.7-.2-2.6-.1-1.1-.1-2.2-.2-3.3-.1-1.2-.1-2.4-.1-3.6 0-.5.1-.9.1-1.4 0-1.3 0-2.7-.1-4-.1-1.1-.1-2.3-.2-3.4 0-.3 0-.6 0-1 0-.3 0-.6 0-1 0-.3 0-.6 0-.9 0-2.5.1-5.1.1-7.6 0-.1 0-.2 0-.3-.2-1-.2-2-.2-3 0-1.2.1-2.4-.1-3.6-.1-.9-.1-1.8-.1-2.7 0-.3.2-.7 0-1 0-.1.1-.3.1-.4-.2-.3-.1-.7-.1-1-.1-.8.1-1.5-.1-2.3-.1-.2 0-.5 0-.7s-.1-.4 0-.6-.1-.4-.1-.7c0-.6 0-1.3 0-1.9 0-.3 0-.7.3-.9v-.1c-.1 0-.1-.1-.2-.1s-.2.1-.3.1c-.5.2-1 .5-1.5.7-.4.1-.9.1-1.4.2-.9.1-1.8 0-2.7-.1m11.4 110.6c-.3.1-.6.1-.9-.1-.1-.1-.3-.2-.6 0-.1.1-.3.1-.5.1-.1 0-.1 0-.2 0-.1.1-.2.1-.2.2.1.1.2.3.3.3.2.1.4.1.6.1.2.1.4.1.5.3.1.3.2.7.2 1 .1.6.1 1.2.1 1.7v.2c.1.4 0 .7-.3.9-.2.1-.4.1-.5.3-.4.4-.4.4-.9.3-.2-.1-.5-.1-.7-.2-.5-.2-.8-.8-.6-1.4.1-.2.2-.5.2-.7 0-.3 0-.7 0-1-.3 0-.6 0-.9 0-.2 0-.4 0-.7.2-.4.3-.9.5-1.4.7-.6.2-1.3.3-2 .2-.3 0-.7 0-1 .1s-.6.3-.9.4c-.4.1-.7.2-1.1.2-.3 0-.6-.2-.9-.3s-.5-.2-.8-.3c-.6-.2-1.3-.1-1.9-.1-.2 0-.3 0-.4-.1-1.1-.2-1.5-1.2-2-2-.2-.4-.2-.4-.6-.2-.1.1-.3.2-.4.2-.4.2-.8.3-1.2.5-.5.3-.9.6-1.4.9-.2.1-.5.2-.4.5v.8.1c.3 0 .5.1.8.1.2 0 .5 0 .6.2.1.3 0 .6-.3.6-.3.1-.6.2-.9.2-.4-.1-.9.1-1.3 0h-.1s.1.1.1.1c.1 0 .2.1.3.1.5 0 1 .1 1.5.3.2.1.4.1.6.1.7.1 1.4.2 2.1.2.8.1 1.6.1 2.4.1.4 0 .8.1 1.3-.1.3-.1.6.1.9.1h1.1c.3 0 .6.1 1 0 .4 0 .9-.3 1.3 0h.1c.6-.2 1.3-.1 1.9-.1.6.1 1.2.2 1.9.2h.5c.2 0 .4.1.7.1.2 0 .5.1.7.1.4 0 .7.1 1.1.1.2 0 .4.1.5.3.2.2.6.3.8 0 .4-.4 1-.5 1.2-1.1.1-.1.2-.2.3-.3.3-.2.7-.5 1-.7.8-.7 1.7-1.5 2.5-2.3.5-.5 1.1-.9 1.7-1.3.8-.4 1.5-.9 2.1-1.5 0-.1.2-.1.1-.2-.1 0-.2 0-.3 0s-.2 0-.3 0c-.8-.1-1.5-.4-2.3-.4-.2 0-.3 0-.3.3s-.1.3-.4.4c-.4.1-.8.1-1.1.5-.1.2-.3.2-.5.1s-.4-.2-.4-.3c-.2-.3-.3-.5-.3-.9 0-.1-.1-.3-.2-.3-.2-.1-.5-.1-.8-.1 0 0-.1.2-.1.2 0 .3-.1.6.1.9.1.1.1.4-.1.5m-16.4 7.9c.3 0 .6-.1.9-.1.5 0 1-.1 1.5.2.8 0 1.6.1 2.4.2l1.5.3c.8.2 1.6.3 2.4.3 1.1 0 2.2-.1 3.3-.1.3 0 .6.1.8-.1h.1c.3 0 .6.1.9.1 0 0 .1 0 .1-.1.1-.4-.2-1.1-.6-1.1-.7 0-1.2-.4-1.9-.4-.5 0-1-.2-1.5-.3-.8-.1-1.5-.1-2.3-.1-1.4 0-2.8-.1-4.2.1-.5.1-1-.1-1.5-.1-1.5 0-3 0-4.5-.1-.7-.1-1.3-.1-2-.1-.1 0-.1 0-.2-.1-.6-.1-1.2-.4-1.8-.4-.3 0-.7-.1-1-.2-.4-.1-.8-.2-1.2-.2-.6-.1-1.2-.1-1.7-.2-.1 0-.2-.1-.3 0 0 .1.1.3.1.3.4.1.8.3 1.2.3.3 0 .6.1.8.2s.4.1.6.2c.5.1 1.1.2 1.6.3.9.3 1.9.3 2.8.4.3 0 .6 0 .9.2s.6.3 1 .2h.4c.5.4.9.5 1.4.4m19.6-4.3c-.5.4-.9.9-1.4 1.3-1 .6-1.7 1.5-2.6 2.1-.1 0-.3.2-.1.4s0 .4-.2.6c-.1.1-.4.1-.3.3 0 .2.1.3.2.5 0 0 .1.2.2 0 .1-.4.4-.6.6-.9.4-.6.8-1.1 1.3-1.6l1.1-1.1c.9-.9 1.8-1.8 2.8-2.7.1 0 .1-.1.2-.2s.2-.2.2-.2c-.1 0-.3.1-.4.1-.1.1-.2.2-.3.3-.5.4-.9.7-1.3 1.1m-23.4-2.9c.1 0 .2-.1.2-.1.3-.3.6-.4 1-.5s.7-.3 1.1-.4c.1 0 .2-.1.2-.2 0-.4.3-.6.6-.7.1 0 .2-.1.3-.2 0 0 0-.1.1-.1h-.1c-.1 0-.1 0-.2.1-.6.3-1.1.6-1.8.7-.6.1-1.1.3-1.6.6-.3.2-.6.4-.9.6-.2.1-.2.3-.2.4s.1.2.1.3c.1.1.1.2.3.1.2-.3.5-.4.9-.6m6.8.3c.2 0 .4.1.6.2s.1 0 .1-.1c-.1-.2-.3-.4-.5-.5-.5-.2-.6-.2-.5-.7 0-.5.1-1 .1-1.5 0-.1 0-.2-.1-.3-.1.1-.1.2-.1.3v.2c-.2.4 0 .9-.3 1.3-.2.3 0 .6.3.8.1.1.3.2.4.3m-1.3 1.2c.1 0 .3.1.4.1h.3s.1-.1.1-.1-.1 0-.1-.1c-.2-.1-.5-.2-.7-.3-.3-.2-.6-.3-.7-.6-.1-.4-.3-.6-.7-.8-.1 0-.1-.1-.2-.1v.3c.4.6.8 1.3 1.6 1.6m-10.6 1c.4-.2.8-.4 1.3-.5.3-.1.1-.2.2-.4-.1 0-.2-.1-.3 0-.1 0-.3.1-.4.2-.5.3-1 .5-1.5.8 0 0-.1.1-.1.1h.1c.2 0 .4 0 .7-.2m23.4.3v.8c0 .1.1.1.1.2 0-.1.1-.1.1-.2 0-.5-.1-1.1-.1-1.6 0-.3-.1-.7-.1-1 0 0-.1-.1-.1-.1s-.1 0-.1.1c0 .3-.2.6 0 1 .1.2.1.4.1.5 0 0 .1.1.1.3m1.3-4.8c0-.1 0-.1.1-.2 0-.1.1-.2.1-.3-.1-.1-.2-.1-.4-.1-.1 0-.3.1-.3.1 0 .2-.1.5.1.6.2.3.3.2.4-.1m-2.1 4.9c0-.1 0-.2 0-.3v-.1c-.1 0-.1.1-.1.1 0 .4-.1.8.1 1.2 0 0 .1.1.1.1v-.1c-.1-.4-.1-.6-.1-.9m-21.1 0s-.1.1-.1.1c.1 0 .1.1.2.1h.7c.1 0 .1 0 .2-.1-.1 0-.1-.1-.2-.1-.3 0-.5 0-.8 0m1.1-2.4c0 .2-.1.3-.1.5 0 0 .1.1.2.1 0 0 .1-.1.1-.2s-.1-.3-.2-.4m14.8 1.1c.2 0 .3-.1.5-.1 0 0 .1-.1.1-.1s0-.1-.1-.1c-.2 0-.4 0-.5.3z"/><path d="m7.6 119.6c0-.1 0 0 0 0z"/><path d="m21.8 124.7c0-.1 0-.1 0 0 .1-.1 0 0 0 0z"/></g></svg>