<svg enable-background="new 0 0 266.7 197.6" viewBox="0 0 266.7 197.6" xmlns="http://www.w3.org/2000/svg"><g fill="#841a5e"><path d="m50.6 35.5c1.5-.3 3-.5 4.5-.8l6.6-1.5c1.8-.4 3.7-.7 5.5-1.1.6-.1 1.2-.1 1.8-.2 1.1-.1 2.2-.1 3.3-.1.6 0 .9-.2.8-.8-.1-.9-.1-1.8-.2-2.7 0-.2-.4-.4-.6-.4-.8.1-1.3-.2-1.7-.9-.1-.3-.4-.5-.7-.7-.7-.5-.6-1.6.1-2 1.6-.9 3.4-1.6 5.2-2 1-.2 1.9-.2 2.8-.7 0 0 .1-.1.1-.1.7.2 1.5.3 2.2.6.6.2.9 1.3.5 1.9-.1.1-.2.2-.2.3.3.9-.5 1.1-1 1.5-.5.3-.9.5-.7 1.3.1.9-.2 1.9-.3 2.9-.1.6-.1 1.2-.1 1.8 0 .1.3.3.4.2.8-.1 1.6-.3 2.4-.5.8-.1 1.5-.3 2.3-.4.9-.1 1.2-.5 1-1.4-.1-.2 0-.6.2-.8.8-.8 1.7-1.4 3-1.4.7 0 1.4-.4 2.2-.6 1.1-.2 2.2-.4 3.2-.6 1.2-.2 2.5-.4 3.7-.6.6-.1 1.1-.1 1.7-.2 2.9-.2 5.7-.2 8.6-.9 1.6-.4 3.4-.5 5-.6 2.2-.2 4.4-.3 6.6-.5.8-.1 1.6-.4 2.4-.4.9 0 1.8.3 2.7.5.4.1.5.1.5-.3-.1-.6-.1-1.3-.1-1.9 0-.2 0-.5.2-.7.4-.5.4-1 .1-1.5-.4-.6-1.5-1-2-.8-.1 0-.2.1-.2.2s.1.2.2.3c.4.2.9.5 1.3.7.1 0 .1.2.1.2-.1 0-.2 0-.3 0-1.2-.1-2.2-.6-2.8-1.6-.1-.2-.5-.6-.4-.7.3-.4.6-.8 1-1 .7-.3 1.4-.3 2.1-.5 2-.5 3.9-1.1 5.9-1.6.3-.1.7-.1.9.1.4.4.7.9 1 1.4 0 0-.1.2-.2.2-.9 0-.3.3-.1.5.5.4.9.9 1.4 1.3.3.3.2.4-.1.4-.4.1-.8.1-1.2.2-.8 0-1.3.5-1.8.9-.1.1-.1.4 0 .4.8.3.6 1 .5 1.5-.2 1.4-.5 2.9-.7 4.3-.1.4 0 .6.5.5 1.3-.2 2.6-.5 3.9-.7.6-.1 1.2-.2 1.9-.2.5 0 .8-.2.9-.7.4-1.5 1.3-1.9 2.9-1.8 1.2.1 2.5-.2 3.7-.3s2.4-.3 3.6-.6c2.1-.4 4.3-.2 6.4-.9.9-.3 1.9-.3 2.8-.3 2.1-.2 4.3-.4 6.4-.6s4.1-.5 6.2-.8c2.4-.4 4.7-.8 7.1-1.2 1.5-.2 3.1-.3 4.6-.5 1.7-.2 3.3-.4 5-.6 1.9-.2 3.7-.5 5.6-.8s3.8-.7 5.8-.9c1.5-.1 3 0 4.5-.1 1.2-.1 2.5-.4 3.7-.5 1.9-.2 3.8-.6 5.7-.2.5.1 1 .4 1.5.7.2.1.4.2.6.2.5.1.8 0 .8-.7 0-1.3.2-2.6.3-4 0-.4-.1-.7-.5-.6-.6 0-.8-.2-.6-.8.2-.4-.8-1.7-1.2-1.4-.8.5-1.3 0-1.7-.4-.6-.5-1.2-1-2.1-1-.2 0-.5-.3-.7-.5.2-.1.4-.1.6-.3.1-.1.3-.4.3-.5-.7-.9.5-.3.5-.7.5 0 .7-.2.8-.7.1-.3.4-.6.6-.7 1.8-.5 3.7-1 5.5-1.4.9-.2 1.9-.3 2.8-.5.7-.2 1.3-.5 2-.8.2-.1.4-.1.6-.1 1.1.1 2.2-.2 3.2-.5.4-.1.9-.4 1 .3 0 .1.1.1.2.2.6.8 1.3 1.6 1.8 2.5.2.2.3.7.1.9-.7 1.1-.1 2 .2 3s.3 1-.7 1c-.2 0-.5 0-.7 0-1.1 0-.9.1-1.3 1.1-.8 2.1-.4 4.3-1.1 6.3-.3.9-.2 2-.3 3-.1 1.1-.3 2.2-.5 3.3-.1 1-.3 1.9-.5 2.9-.2 1.6-.5 3.1-.8 4.7v.7c-.1 1.3-.3 2.6-.5 3.8-.1 1.1-.3 2.3-.5 3.4-.1.7-.2 1.5-.4 2.2 0 .2-.1.4-.1.6 0 .1.1.2.1.3.1-.1.3-.1.4-.2.5-.9 1.1-1.8 1.6-2.7 1.3-2.3 2.6-4.7 4-6.9 2-3.1 4.1-6.1 6.3-9.1 1-1.4 2.2-2.6 3.2-3.9 2-2.7 4-5.4 5.9-8.1.3-.4.9-.8.5-1.3-.2-.2-.9 0-1.4.1-.8.2-1.6.4-2.4.6-.1 0-.2.2-.4.4-.1.1-.3.3-.4.4-.1 0-.3-.2-.3-.2.1-.2.2-.4.3-.5.8-.8 1.9-.9 2.9-1.2 1.9-.7 3.9-1.2 6-1.3 1.4 0 2.8-.5 4.2-.7 1-.2 2-.2 3.1-.3 1.1-.2 2.3-.4 3.4-.6.2 0 .4 0 .6.1.1 0 .2.2.3.2-.1.1-.2.2-.3.2-.4.1-.8.1-1.2.2-.1 0-.3.1-.4.1.1.1.2.3.3.4s.2.2.3.3c-.1 0-.2 0-.4 0-1 0-2.1 0-3.1 0-.4 0-.7.1-1.1.2-.1 0-.1.3-.2.5 0 .1 0 .4-.1.4-1.3.2-1.9 1.3-2.6 2.2-2.5 3.4-4.9 6.9-7.2 10.4-1.1 1.7-1.9 3.6-3.2 5.2-1.7 2.2-3.1 4.6-4.6 6.9-1.8 2.7-3.4 5.5-5.2 8.2-1.1 1.6-2.3 3.2-3.4 4.7-1.8 2.4-3.8 4.7-5.1 7.4-.1.3-.2.6-.2 1 0 .9.1 1.9.1 2.8 0 .5-.1 1-.2 1.5-.1.2-.4.4-.7.5-.4 0-.5.2-.6.6-.1.6-.4 1.1-.7 1.7-.2.4-.6.8-.2 1.3 0 0 0 .2-.1.2-2.4.5-4.9 1.1-7.3 1.5-1.7.3-3.4.5-5.1.8-.7.1-1.3.2-2 .3-.6.1-.5.5-.2.9.4.5.9 1 .2 1.7v.2c.6.7.4 1.6.4 2.3-.1.9.5 1.9 0 2.8-.3.5-.6.6-.9.5-.5 0-1.1-.2-1.2-.8-.1-.3-.1-.6 0-.9.2-.7.1-1.3 0-2.1-.2-1.6-.6-3.3.2-4.9.1-.2.1-.4.2-.5 0-.9 0-.9-.8-.6-.1 0-.2.1-.3 0-.6-.7-1.4-.5-2.1-.5-.8 0-1.5.1-2.3.1-1.6.2-3.2.4-4.8.6-1.4.2-2.9.4-4.3.6-1.8.3-3.6.6-5.4.9-1.2.2-2.5.3-3.8.5-2.2.3-4.3.5-6.5.8-.1 0-.2 0-.3 0-2.4.2-4.9.4-7.3.6-1.5.1-2.9 0-4.4.2-1.9.2-3.8.5-5.8.7-.8.1-1.7.1-2.5.2-1.3.2-2.6.4-3.8.6-.8.1-1.7.1-2.5.2-.2 0-.4.2-.6.4.2.1.4.4.6.4 1.2-.1 2.4-.3 3.7-.4 1.7-.1 3.4-.2 5-.3.3 0 .6-.1.8-.1.4 0 .8-.1 1.2 0 1.4.3 2.8.1 4.1-.2.8-.1 1.6-.4 2.4-.4 2.4-.1 4.8-.2 7.2-.3 1-.1 2-.3 3-.4.9-.1 1.8-.2 2.7-.3 2-.2 4.1-.4 6.1-.6 1.3-.1 2.7-.3 4-.5 1-.1 2-.3 3-.5.1 0 .2-.1.3-.1 1.4-.1 2.8-.2 4.2-.3 1.6-.1 3.2-.1 4.7-.2 1.1-.1 2.2-.3 3.3-.4.2 0 .5.2.7.2-.2.2-.4.4-.7.5-2.3.6-4.7.4-7 .5-2.1.1-4.2.5-6.4.7-1.2.1-2.5.3-3.7.5-2.4.3-4.9.6-7.3.9-.1 0-.2 0-.2 0-1.6.2-3.2.3-4.8.4-1.8.1-3.6.2-5.4.3-1.9.2-3.9.2-5.7.6-1.5.3-3 .4-4.5.4-1.6 0-3.1 0-4.7.2-1.4.1-2.8.5-4.2.7-.7.1-1.4.1-2.1.2-.6 0-.5.3-.3.6.5 1 .5 1-.3 1.7-.4.3-.4.7 0 1.1.3.4.9.7.6 1.3s-1 .5-1.5.4c-.9-.1-1.4-1.1-.7-2 .4-.5.3-.9 0-1.3s-.4-.8 0-1.2c.5-.5 0-.8-.2-1-.2-.3-.5 0-.7.2-.3.3-.8.4-1.2.4-1.9.1-3.8.2-5.7.3-.7 0-1.4 0-2.1 0-.8 0-1.7.1-2.5.1-.6 0-1.1 0-1.7 0-.1 0-.1 0-.2 0-.5-.2-.7-.1-.7.6 0 1.6-.5 3.1 0 4.7.1.2-.1.6-.3.7s-.5 0-.8-.1c-.4-.2-.8-.6-1-.5-.8.4-1.7.1-2.4.9-.5.6-1.2.9-1.8 1.4-.1.1-.3.1-.5 0-.6-.1-1.1-.2-1.7-.4-.1 0-.2 0-.3-.1.1 0 .2 0 .2-.1.1-.1.2-.3.2-.3-.5-.6 0-.4.3-.5.4-.2.8-.6 1.1-.9 0 0 0-.2-.1-.2-.2 0-.4-.1-.6-.1-.4.2-.8.4-1.3.6-3.1.8-6.2 1.7-9.4 2.4-1.6.4-3.3.6-4.9.8-1.5.2-2.9.2-4.4.3-.9.1-1.8.2-2.7.3-.2 0-.5 0-.7 0-.4 0-.7-.1-1.1-.1-.7 0-1.5.1-2.2 0-1.4-.2-2.8.1-4.2.5-1.3.4-2.6.2-3.9-.2-.7-.2-1.5-.4-2.2-.7-.9-.4-1.4-1.1-1.6-2.1-.1-.8-.1-1.7-.2-2.5 0-.8 0-1.5 0-2.3 0-.2-.3-.5-.4-.5-1.1.1-2.2.3-3.3.4-.2 0-.3.1-.4.2-.3.3-.5.1-.8-.2.3.2-.1.2-.4.2-.1 0-.2.1-.3.1-.6.2-1.2.6-1.4-.4 0 0-.1-.1-.1-.1-1-.4-1.2-1.1-.7-2.1 0-.1 0-.2-.1-.3-.1 0-.3-.1-.4 0-1 .7-2.3.8-3.5 1-.8.1-.8.1-.6 1 .1.3 0 .7.1 1 .1.5.2.9.4 1.4s.2.9-.4 1.2-1.2.1-1.3-.5c-.1-.3-.1-.8.1-1.1.4-.7.1-1.1-.5-1.4-.4-.2-.6-.3-.3-.8.1-.2.1-.5-.4-.5-1.5.2-3 .4-4.6.7-.2 0-.3.1-.5.1-1.2-.3-2.4-.1-3.5 0-2 .1-4 .2-6 .3-1.9.1-3.8.1-5.7.3-2.2.2-4.4.6-6.6.9-.2 0-.4 0-.6 0-2.2.1-4.4.2-6.6.3-.1 0-.2.1-.3.1.1.1.1.2.2.2.1.1.3.2.4.2.9.1 1.1.5.6 1.2-.4.6-.7 1.2-.5 2.1.2.5-.4.9-.9 1-.6.1-1-.4-1.1-.9-.2-.6.1-.9.8-1.1.2 0 .4 0 .5-.1.1 0 .1-.2.2-.3-.1 0-.2-.1-.2-.1-.9.2-1.4-.5-1.9-1-.2-.2-.4-.5-.3-.7.2-.7-.1-.8-.7-.8s-1.2 0-1.7 0c-.2 0-.3.1-.5.2.1.1.2.2.3.3.1.2.7.3-.1.6s-1.8.5-1.9 1.7c0 .1-.5.2-.5.2-.3-.3-.7-.6-.8-1-.1-.6-.4-.9-.8-1.2-.3-.2-.7-.7-.7-1-.1-1.2-.2-2.4-.2-3.6 0-1.8.1-3.6.1-5.4 0-1.6-.2-3.2-.1-4.9.1-3.3.2-6.6.3-9.9.1-1.9.1-3.8.1-5.7 0-.3-.1-.7-.1-1 0-.4-.4-1 .6-1 .3 0 .7-1.4.7-1.8-.1-.3 0-.6 0-.9 0-.7 0-1.4 0-2.1 0-.6-.6-.8-1.1-.3-.5.4-.7.2-1-.1-.4-.5-.7-1-1.1-1.5s-.9-1-1.3-1.5c-.1-.1-.1-.3-.1-.4.2 0 .3 0 .5.1s.4.3.5.5c.4.5.9.5 1.3.1 1-1 2.3-1.1 3.5-1.5.2 0 .3-.1.5-.2.1 0 .2-.1.3-.1-.1-.1-.2-.2-.3-.3-.2-.2-.3-.3-.5-.5.2-.1.4-.2.7-.2 1.5-.3 3.1-.6 4.6-.9 1.1-.3 2.1-.7 3.2-1.1.2-.1.6 0 .8.2 1 .6 1 1.7 1.2 2.7.1.2-.5.7-.9.8-.8.3-1.7.5-2.6.8-.8.2-.9.9-1 1.6-.2 1 .1 2.1-.4 3.1 0 .1.3.4.4.4 1.2-.2 2.5-.4 3.7-.7 1.3-.3 2.5-.6 3.8-.9.6-.1 1.3-.2 1.9-.3.3-.1.5-.3.7-.5.9-.9 1.9-1.8 2.8-2.8.6-.6 1.4-1.1 1.7-2 .1-.2.3-.4.5-.5.8-.2 1.4-.7 1.9-1.3.1-.1.4-.2.6-.3 0 .1-.1.3 0 .4 0 .1.2.2.3.1.2-.1.4-.3.6-.2.4.1.7.3 1.1.5-.2.2-.3.4-.5.6-1.3 1.3-2.6 2.6-3.8 3.8-.4.4-.9.9-1.3 1.3-.1.1-.2.3-.3.5.2 0 .4.1.6.1.8-.2 1.5-.4 2.3-.6s2-.4 3.3-.8m163.4-4.2c-.1.2-.3.5-.4.8-.1.5-.2 1-.2 1.5-.2 1.6-.4 3.2-.5 4.8 0 .1.1.2.1.4.1-.1.1-.2.2-.3.1-.8.2-1.6.3-2.4.2-1.6.4-3.1.7-4.7.1-.3.2-.5.3-.8 0-.1-.1-.3-.2-.4 0 0-.2 0-.2.1 0 .2 0 .6-.1 1m1.5-18.7c-.2-.5-.4-1-.7-1.5-.1-.1-.2-.2-.3-.3-.1.1-.1.1-.1.2-.1.5-.1 1-.2 1.4v2.6c0 .3-.2.6-.1.8.6.8.7 1.7.7 2.6 0 .2.1.3.2.4.1-.1.2-.3.3-.4 0-.1 0-.3 0-.5.1-.9.4-1.8.4-2.8 0-.9.5-1.8 0-2.7 0-.4.1-.8.1-1.3 0-.1-.3-.2-.4-.3 0 .2-.2.3-.1.5 0 .6.2 1 .2 1.3m-6.4 38.6c.1-.2.2-.4.3-.6.3-1.3.6-2.7.9-4 .2-1 .5-2 .2-3.1-.1-.2 0-.5 0-.8.1-.7.3-1.3.3-2 0-3.1-.1-6.2-.1-9.3 0-1.6.1-3.2.1-4.8 0-.1 0-.2 0-.2.2-1.7.5-3.5.4-5.2-.1-2-1.6-3.1-3.6-2.9-1.1.1-2.1.5-3.2.6-3 .2-6.1.3-9.2.5-.9.1-1.7.2-2.6.4-1.9.4-3.8 1-5.7.8-.2 0-.5 0-.7 0-1.6.2-3.2.4-4.8.6-.6.1-1.1.2-1.7.3-1.2.2-2.4.3-3.6.5-.4 0-.8-.1-1.2-.1-1.9.3-3.8.6-5.7.8-.8.1-1.5 0-2.3.2-2.1.5-4.3.9-6.4.9-.2 0-.5 0-.7 0-1.4.2-2.7.4-4.1.6-1 .1-2.1.2-3.1.3-1.5.2-2.9.6-4.4.7-2 .2-3.8.7-5.7 1.2-.2.1-.5.1-.7.2s-.3.4-.5.4-.4-.3-.6-.4c-.4-.1-.6.1-.7.4-.3 1-.6 2.1-.9 3.1-.2.6-.3 1.3-.3 1.9.1 2 .5 4 .6 6 .1 1.4-.2 2.7-.3 4.1-.1 2.7-.1 5.4-.2 8.1v.6c-.2 1.3-.6 2.7-.6 4 0 3.1.2 6.2.3 9.3 0 .1 0 .2.1.3s0 .8.4.2c0 0 .2.1.2.2.1.1.1.4.1.4.5.1 1 .2 1.6.2.7 0 1.4-.2 2.1-.3h.8c1.9-.2 3.7-.5 5.6-.7 1.7-.2 3.5-.4 5.2-.6.9-.1 1.8-.1 2.6-.3 2.1-.7 4.2-.6 6.3-.9 1.1-.1 2.1-.1 3.2-.2 2-.1 3.9-.3 5.9-.3 3.7-.1 7.4.1 11.1-.5.9-.2 1.8-.3 2.8-.4 1.5-.2 3.1-.4 4.6-.6 1-.1 2-.2 3-.3 1.2-.2 2.4-.4 3.5-.6 1.7-.2 3.5-.3 5.2-.5 1.4-.2 2.6-.6 3.6-1.7.5-.6.6-1.3.9-2.1.6-1.5 1.2-2.9 1.7-4.4m-148.7 18.7c1.6-.1 3.2-.1 4.7-.2h.2c1.1-.2 2.2-.3 3.2-.6 1.5-.4 2.9-1 4.3-1.5.3-.1.4-.5.6-.8-.3 0-.6 0-.9.1-.5.3-.7.1-.7-.4 0-1.4-.1-2.8 0-4.2 0-.7.8-.9 1.4-.5 0 0 .1.1.1.1s-.1 0-.1.1c-1 .4-.7 1.2-.6 1.9s.4.8 1.1.6c.6-.2.7-.8.7-1.3.2-1.3.2-2.6.3-4 .1-.9.1-1.7.2-2.6.2-2.1.5-4.3.7-6.4.2-1.4-.3-2.8.3-4.1 0-.1 0-.2 0-.3-.5-1.4-.3-2.8 0-4.2.1-.6.2-1.3.2-2-.1-1-.4-2-.6-3-.1-.8-.8-1.5-1.7-1.5-.7 0-1.4.1-2.1.2-1.6.2-3.2.5-4.8.7s-3.3.4-4.9.6c-.3 0-.5.1-.8.1-1.4.2-2.7.4-4.1.7-1.1.2-2.2.3-3.3.5-1.5.3-2.9.7-4.4.8-1.6.1-3.2.1-4.7.5-1.7.4-3.3.7-5 1.1-1.9.4-3.7.9-5.6.9-2.2 0-4.1.9-6 1.9-.3.1-.5.6-.6.9-.3 1.4-.7 2.8-.9 4.2-.1 1.2 0 2.3 0 3.5 0 .5-.1.9-.1 1.4 0 .7-.1 1.4 0 2 .4 1.5.2 3 0 4.5-.2 1.2-.5 2.3-.5 3.5 0 1.6.2 3.1.3 4.7 0 .7.1 1.4.2 2.1.1.4.3.9.5 1.2.5.7 1.5.7 1.9-.2.2-.5.3-1 .5-1.5.4-1.2.7-2.5 1.9-3.2.1-.1.2-.2.3-.4-.2-.1-.3-.1-.5-.2-.5-.1-1-.1-1.4-.2-.1 0-.2-.2-.3-.3.1 0 .3-.1.4-.1.7-.1 1.3-.1 2-.2.6 0 1.2-.1 1.8-.1.2 0 .3.2.5.2-.1.1-.2.2-.3.3-.7.6-1.6 1.2-2 1.9-.7 1.1-1.2 2.4-1.7 3.7-.3.6-.1.7.5.6 2.2-.2 4.3-.4 6.5-.6.7 0 .5-.4.5-.8-.1-.6-.2-1.2-.2-1.8.1-.7.3-1.4.4-2.1s.4-1.3.9-1.8c.9-.7 2.2-.2 2.2.5.1 1.6.2 3.2-.6 4.7-.1.2-.2.6-.1.8s.5.2.7.2c.5 0 1.1-.1 1.6-.1 1.4-.1 2.9-.2 4.3 0 .5.1 1 .2 1.4.1 2.4-.7 4.8-.7 7.3-.9.7 0 1.3.1 2 .1 1 .3 1.8.3 2.9.2m36.9 7.2c.7-.1 1.3-.3 2-.4 1.8-.2 3.6-.3 5.4-.5 2-.2 4-.4 6-.8 1.9-.3 3.8-.9 5.7-1.3.8-.2 1.6-.6 2.4-.6.8.1 1.5-.6 2.3-.2 0 0 .2-.2.3-.4.8-1.5.8-3.1.9-4.7.1-2.9.2-5.7.5-8.6.2-1.6.2-3.3.3-4.9.1-1.9.2-3.8.3-5.7 0-.8 0-1.5 0-2.3.1-1.9.2-3.8.3-5.6 0-.7-.3-.9-1.1-.7-.4.1-.8.2-1.2.2-.7.1-1.5 0-2.2.2-1.4.3-2.7.7-4.1.9-2.1.3-4.3.6-6.4.8-1.9.2-3.8.2-5.7.3-1.2.1-2.3.2-3.5.3-1.9.2-3.8.4-5.7.6-.7.1-1.5.1-2.2.2-1.5.2-3 .5-4.5.7-.5.1-.8.3-.8.8-.1 1-.3 2-.3 3.1.1 2.7-.3 5.3-.5 7.9-.1 1.3 0 2.5 0 3.8v3.2 6.8c0 .7.1 1.4.1 2.1 0 .6-.2 1.2-.1 1.8.2 1.3.6 2.5 2 3.2 1.2.6 2.6.7 3.8.4 1.8-.5 3.9-.2 6-.6m19.3-37c1.3-.2 2.5-.3 3.8-.5.9-.1 1.7-.2 2.6-.3.2 0 .5-.2.5-.4.2-1.3-.1-2.4-1.3-3-.8-.4-1-1-1.1-1.8 0-.2-.1-.3-.2-.5-.1.2-.3.4-.4.6-.1.5-.2 1-.2 1.4s-.1.5-.4.4c-.1 0-.3-.3-.3-.4.2-1.4.5-2.7.8-4.1 0-.1.5-.1.5 0 .2.6.5 1.3.7 1.9.1.4.1.9.2 1.3 0 .1.1.1.2.2.1-.1.2-.2.2-.2.1-.5 0-1 .2-1.4.3-.8.4-1.7 1-2.3.6-.7.7-1.4.7-2.2-.1-1.2-.6-1.7-1.6-1.6-.6.1-1.2.1-1.8.1s-1.2 0-1.8 0c-.5 0-1 .1-1.5.1-2.6.1-5.3.2-7.9.3-.8 0-1.5.3-2.2.4-.8.2-1.6.5-2.5.6-.7.1-1.4.1-2.1.1-1.5 0-2.9 0-4.4 0-.6 0-1.3-.3-1.7-.1-1 .5-2.1.3-3.1.4s-2 .2-2.9.9c-.3.3-.9.3-1.3.5-.3.1-.8.3-1 .5-.3.5-.5 1.1-.6 1.6-.2.9-.3 1.8-.4 2.7-.3 1.9-.6 3.8-.8 5.7-.1.5 0 1.1 0 1.6 0 .3 0 .5-.1.8h.8c1.5-.3 2.9-.7 4.4-.9 2.2-.3 4.4-.5 6.7-.8 1.7-.2 3.3-.4 5-.6 1.6-.2 3.3-.2 5-.3.9-.1 1.8-.1 2.7-.2 1.7.2 3.6.1 5.6-.5m63-19.7c.8-.1 1.7-.1 2.5-.2h.2c1.8-.2 3.5-.5 5.3-.7.8-.1 1.7-.3 2.5-.4 1.9-.3 3.8-.6 5.6-.8 1.1-.1 2.2.2 3.2.1 1.5-.3 2.9-.3 4.4-.4.9 0 1.8-.3 2.7-.4 1-.2 2.1-.3 3.1.1 2.1 1 3.3 3.1 2.9 5.4-.1.4-.2.9-.3 1.3v.9c.1-.2.3-.4.4-.6 0-.1.1-.2.1-.2 0 .1.1.2.1.3 0 .5-.1 1.1-.1 1.6v5.5c0 .2.1.4.1.5.1-.2.3-.4.3-.6.1-1.6.2-3.1.3-4.7.1-.9.3-1.7.3-2.6 0-.8.2-1.7-.4-2.5-.1-.1-.1-.1-.1-.2.1 0 .2 0 .3.1.2.1.4.2.6.3 0-.3.2-.6.1-.8-.5-.9-.4-1.9-.4-2.9 0-.4-.2-.8-.4-1-1.3-1.5-3.2-1.2-4.8-1.3-1.4-.1-2.8.2-4.2.3-.3 0-.5.1-.8.1-.8.2-1.5.4-2.3.5-1.8.2-3.6.3-5.3.5-.9.1-1.9.2-2.8.3-1.1.2-2.2.4-3.3.6-1.4.2-2.9.3-4.3.5-2.1.2-4.2.5-6.4.8-1.3.1-2.5.3-3.8.5-2.3.3-4.5.7-6.8 1-1.1.2-2.1.2-3.2.3-1.7.2-3.4.4-5.1.6-.9.1-1.8.1-2.7.2-1.1.1-2.1.4-3.2.6-1.5.2-3 .3-4.4.5-2 .2-3.9.5-5.9.8-1.1.1-2.3.3-3.4.4-1.3.1-2.3.8-2.6 2-.3 1-.4 2.1-.5 3.2-.1 2.1-.1 4.1-.2 6.2 0 2.3-.1 4.6 0 6.9.1 4.1-.3 8.2-.4 12.3-.1 3.1 0 6.1 0 9.2 0 .2-.1.7-.3.7-.6.2-.5.5-.3.9.3.6.8.9 1.4.9 1.2.1 2.3.3 3.5.3 1.5.1 2.9 0 4.4 0 1 0 2-.2 3-.3 1.7-.2 3.3-.4 5-.6.9-.1 1.8-.1 2.7-.2 1.8-.2 3.6-.4 5.4-.6 1.5-.1 3.1-.2 4.6-.3 2.3-.2 4.7-.3 7-.5 1.2-.1 2.4-.1 3.6-.2.6 0 1.1-.2 1.7-.3.9-.2 1.8-.3 2.7-.5 1.1-.2 2.2-.3 3.3-.5 1.7-.3 3.5-.6 5.2-.9 1-.2 2-.2 3.1-.3 1.3-.2 2.7-.5 4-.6 2.2-.1 4.4-.1 6.6-.2h2.9c1.6-.1 2.7-1.1 3.6-2.3.1-.1-.1-.3-.1-.5-.1 0-.2.1-.3.1-.4.3-.8.6-1.2.8-.1 0-.2 0-.3 0 0-.1 0-.2.1-.3.2-.3.7-.6.7-.8 0-.8.6-1.3.8-1.9.4-1.6.6-3.2.8-4.8 0-.1-.1-.3-.1-.4-.1.1-.2.3-.3.4-.4 1.4-1 2.7-1.3 4.2-.5 2.1-1.5 3.6-3.7 4-1.9.4-3.8.6-5.7.9-.6.1-1.2 0-1.7 0-1.8.2-3.7.4-5.5.6-.8.1-1.6.2-2.4.3-1.1.2-2.1.4-3.2.6-.8.1-1.6.2-2.4.3-1.4.2-2.9.5-4.3.6-4.2.1-8.4-.2-12.6.4-1.5.2-3.1.3-4.6.1-2-.2-4 .4-5.9.8-1.9.3-3.8.6-5.7.9s-3.9.3-5.8.5c-.6 0-1.2-.1-1.7 0-1.1.3-2.1.4-3.2.3-1.4-.1-2.4-1.1-2.4-2.5 0-.9-.1-1.8-.1-2.7-.1-1.7-.3-3.4-.3-5 0-1.2.3-2.4.4-3.6.1-1.5.3-3.1.3-4.6 0-3 .2-6 .5-9 .1-1-.1-2.1-.1-3.1-.1-2.6 0-5.1.8-7.6.5-1.5.4-2.3 2.9-2.3.5 0 1-.2 1.5-.3 1.4-.3 2.8-.8 4.2-.8 1.3 0 2.6-.4 3.9-.6 1.1-.2 2.2-.4 3.3-.5.9-.1 1.8-.1 2.8-.2 1.8-.2 3.7-.4 5.5-.6.7-.1 1.5-.2 2.2-.3.4-.1.8-.2 1.3-.3 2-.2 4-.4 6-.6 1.5-.2 3-.4 4.5-.6.8-.2 1.5-.4 2.4-.5m-44.8 22.6c.1-.6.3-1.2.3-1.8-.3-2.4.5-4.8.5-7.2 0-.8-.2-.9-.9-.8-1.4.3-2.9.6-4.3.9-.4.1-1.1-.2-1.1.8 0 3.5.1 6.9-.4 10.3-.3 2-.1 4.1-.2 6.1v.5c-.1 2-.2 4-.3 6 0 .2.2.5.4.6.4 0 .9 0 1.3-.1 1.2-.3 2.4-.6 3.5-1 .3-.1.6-.5.6-.8.1-.6.1-1.2.2-1.8.1-1.8.2-3.6.3-5.3.1-1.8 0-3.6 0-5.5 0-.2.1-.5.1-.9m93.7-9.1c2.2-3.4 4.5-6.8 6.8-10.1 2.4-3.5 5-6.9 7.5-10.4 1.6-2.3 3.2-4.6 5.7-6.1.1-.1.2-.3.3-.4-.2 0-.3-.1-.5-.1-.1 0-.2.1-.2.1-1.2.7-2.5 1-3.9.9-.8 0-1.3.3-1.6 1-.3.5-.6 1-.9 1.5-1.8 2.4-3.6 4.9-5.4 7.2-2.2 2.7-4.4 5.4-6.3 8.4-1.5 2.5-3.2 5-4.7 7.5-1.1 1.7-2.1 3.5-3.1 5.2-.7 1.2-1.5 2.4-2.1 3.7-.2.4 0 1 0 1.5 0 .7.1 1.5.2 2.2 0 .2.1.4.2.6.1-.2.3-.3.4-.5 1.2-1.8 2.4-3.7 3.5-5.5 1.3-2.1 2.6-4.4 4.1-6.7m-146.6 24.6c.1-1.8.1-3.5.2-5.3 0-.1 0-.2 0-.2.2-1.3.4-2.7.6-4 .1-.8 0-1.7.2-2.4.7-2.6.9-5.2 1-7.9 0-.5.2-1 .2-1.6.1-1.3.3-2.5.4-3.8 0-.1-.4-.4-.5-.4-1.6.4-3.2.8-4.8 1.1-.5.1-.6.4-.5.8.1.7.3 1.4.4 2.2.1.6.6.9 1.2.8 1-.2 2-.3 3.1-.4h.3c-.1.1-.1.2-.2.3s-.3.1-.5.2c-.7.1-1.4.1-2.1.2-.2 0-.5.2-.7.2.2.1.4.3.7.4.2.1.4 0 .5 0h1.5c.2 0 .3.2.4.3-.1.1-.2.3-.4.3-.9.2-1.8.3-2.8.5-.5.1-.9.1-.8.8.1.4.1.9 0 1.4-1 3.4-1.3 6.8-1.3 10.3v6.1c0 1-.1 1.9-.1 2.9 0 .4-.1.8.5.8.8-.1 1.7-.2 2.5-.3s1-.3 1.1-1.1c0-.8-.1-1.4-.1-2.2m139.2-51.6c.3-.5.6-1 .9-1.4.1-.1.4-.2.6-.3 0 .2-.1.4-.2.5s-.2.3-.3.4c-.1.2-.1.3-.1.5.1-.1.3-.1.4-.2.3-.3.6-.6 1-.8.6-.3 1.3-.4 2-.7 0 0 0-.2 0-.3-.5-1-1.1-1.4-2.1-1.2-.4.1-.8.1-1.1.2-.8.1-1.6.2-2.4.3-1.2.2-2.3.3-3.5.5-.2 0-.5.2-.7.3.2.1.4.1.6.2.1.1.2.1.4.2-.1.1-.2.2-.4.2-.5.1-1 .1-1.5.2-1.2.2-2.4.4-3.6.6-.2 0-.4.1-.5.1.2.2.3.4.5.5 1 .4 1.6 1 2.1 2 .1.3.3 1.4.9.2.1-.2.4-.2.7-.3s.6-.2.9-.2c.6-.1 1.3-.3 1.9-.4.2 0 .3.1.5.2-.1.1-.2.2-.4.3-.5.3-1 .5-1.6.8-.3.2-.4.3-.1.6s.7.6.8 1c.1 1.1.2 2.2.2 3.3-.1 1.6-.4 3.2-.6 4.8-.2 1.2-.5 2.5-.7 3.7-.2 1-.4 2-.5 3 0 .2.1.4.2.5.1-.2.2-.3.3-.5.2-.5.3-.9.5-1.4 0-.1.1-.1.2-.2 0 .1.1.1.1.2-.1.7-.3 1.3-.4 2-.2 1.2-.4 2.4-.5 3.6 0 .7.2 1.5.3 2.2.2 1.3.4 2.5.6 3.8.1 1.1 0 2.2.1 3.3 0 .2.2.4.3.5.1-.1.1-.3.2-.4.1-.2.1-.5.2-.7.1-1.1.2-2.2.3-3.3.2-1.9.5-3.8.8-5.7.1-.8.3-1.6.4-2.4.1-1 .3-2 .3-3 0-.8-.3-1.6-.3-2.5 0-1.8.1-3.6.1-5.4 0-2.1 0-4.2.5-6.2-.1-1.2-.1-2.7 1.7-3.2m-123.2 21.2c.3-.1.6-.1.8-.1h4.2c.6 0 1.3 0 1.8-.2 1.8-.8 3.7-.9 5.6-1.1 1.5-.2 2.9-.1 4.4-.2 2.3-.1 4.6-.1 6.9-.2h.3c.9-.2 2.2.3 2.4 1.2.3 1.1.6 2.2.7 3.3.1 1.5-.2 3-.3 4.5-.1 1-.2 1.9-.3 2.9-.1 1.1-.1 2.1-.1 3.2 0 .1.1.3.2.4.1-.1.1-.3.2-.4.1-.6.2-1.2.2-1.8.2-2.1.5-4.3.6-6.4.1-1.4 0-2.9 0-4.3 0-.3.1-.6.1-.9.3-1.4-.3-3.1-2-3.6-1.7-.4-3.5-.3-5.2.1-.8.2-1.6.4-2.4.4-1.4.1-2.8.1-4.3.2-.8.1-1.7.2-2.5.4-1.8.3-3.5.6-5.3.8-1.6.2-3.1 0-4.7.2-2.3.2-4.6.7-6.9.9-1.9.2-3.7.6-5.2 1.9-.9.8-1.8 1.6-1.6 3.1.1 1.1-.1 2.2-.1 3.3 0 .4-.1.9-.1 1.3-.2 1.5-.4 3-.6 4.4-.1.7-.1 1.4-.2 2.1-.2 1.5-.4 2.9-.6 4.4-.1 1.1 0 2.3-.3 3.4-.6 2.1-.4 4.2-.7 6.4-.1 1.1.1 2.2.1 3.3 0 .2.3.3.4.5.1-.2.3-.3.3-.5.1-1 .3-2 .3-3.1 0-2.1.1-4.3.4-6.4.3-1.7.1-3.4.2-5.1 0-.7.1-1.4.2-2.1.2-1.8.4-3.6.6-5.4.1-1.1.3-2.1.5-3.2.1-.8.3-1.7.5-2.5.3-1.4.8-2.8 2.1-3.6.6-.3 1.3-.4 1.9-.6.9-.2 1.8-.5 2.7-.7s1.9-.3 2.8-.4c.4 0 .8.1 1.1.1.4.1.6.1.9.1m-72 20.5c.4-1.7.7-3.5 1.1-5.2.1-.3.4-.6.6-.8.5-.4 1.1-.7 1.5-1.2.2-.2.1-.6.1-.9-.2 0-.5-.1-.7 0-.6.2-1.2.4-1.8.6-.3.2-.8.4-.9.7-.6 1.6-1.3 3.1-1.1 4.9.1 1.7.1 3.3 0 5-.1 1.9-.5 3.8-.6 5.7-.1 4.6 0 9.2 0 13.8 0 .9.9 2.1 1.7 2.1h3.4c2.9-.1 5.7-.3 8.6-.4.5 0 1.1-.1 1.6-.2 1.2-.2 2.5-.5 3.7-.6 2.1-.1 4.2-.1 6.3-.2h.4c1.9-.2 3.8-.4 5.7-.6.9-.1 1.8-.1 2.7-.1.5 0 .9.3 1.4.2 1.9-.2 3.7-.6 5.5-.7 2.2-.1 4.4-.5 6.5-1.2 1.4-.5 2.6-1.2 3.2-2.7.5-1.2.9-2.4.9-3.7 0-.2.1-.5.2-.5.5.1.4-.3.4-.6 0-1.2-.1-2.3 0-3.5.3-2.1.1-4.2.1-6.3 0-.1-.1-.2-.1-.2-.1.1-.2.1-.2.2v.9c-.1 1.4-.2 2.8-.3 4.3 0 .2 0 .5-.1.7-.2 1-.4 2-.5 3-.2 1.3-.2 2.7-.5 4-.4 1.5-.8 3.1-2.8 3.6-2 .4-3.8 1.5-5.9 1.6-1.7.1-3.4.5-5.1.5-2 .1-4 0-6.1 0-.8 0-1.7.1-2.5.2-1.9.2-3.7.4-5.6.6-.9.1-1.9 0-2.8 0-1.4 0-2.8.1-4.3.1-.1 0-.3 0-.4 0-1.8.2-3.6.4-5.4.6-1.4.1-2.9.1-4.3.3-1.5.3-2.7-.2-3.9-.9-.8-.4-1.2-1.3-.9-2.2.4-1.4.2-2.8.3-4.3.1-1.7 0-3.4.2-5.1.2-1.5.2-2.9.2-4.4.1-2.4.3-4.7.5-7.1m45.7-14.1c.6 0 1.1-.1 1.7-.1 1.7 0 2.8 1.2 3 2.9.1 1.3.6 2.5.4 3.8 0 .1 0 .1.1.2s.2.1.2.1c0-.1.1-.1.1-.2.1-.5.2-1.1.1-1.6-.1-1.2-.1-2.5-.3-3.7-.1-.9-.2-1.8-1.3-2.1-.1 0-.2-.2-.3-.3-.3-.2-.7-.5-1.2-.5-.5-.1-1.1.1-1.6.1-2.4.3-4.8.5-7.2.8-1.5.2-2.9.5-4.4.8-1.8.4-3.7.8-5.5 1.2-1.1.2-2.3.3-3.4.5-1.7.3-3.3.7-5 1-1 .2-1.9.3-2.9.5s-2.1.5-3.1.4c-1.1 0-2.2.1-3.2.4-2.1.5-4.2 1.1-6.3 1.2-.4 0-.8.1-1.1.3-.2.2-.4.6-.4.9.1.5.5.3.8.2.5-.2 1-.4 1.5-.5.8-.1 1.5 0 2.3-.2 2.3-.5 4.6-1.1 6.9-1.6 1.3-.3 2.5-.5 3.8-.6 1-.1 2.1-.2 3.1-.3 2-.3 4-.7 6.1-1 1.5-.2 3-.4 4.5-.6 2.3-.3 4.5-.5 6.8-.8 1.1-.1 2.2-.3 3.3-.5.8-.3 1.6-.4 2.5-.7m12.8 40.9c-.2-.8-.4-1.7-.4-2.5-.1-2.6 0-5.3 0-7.9 0-.3.1-.7.1-1 0-.6-.1-1.1-.2-1.7 0-.1-.3-.2-.5-.3-.1.2-.3.3-.2.5.2 1.1-.5 2.2.1 3.2.1.1 0 .3 0 .4-.1 1.5-.3 3-.4 4.4 0 .5.2 1.1.1 1.5-.4 1.4.1 2.6.2 4 .1.6.4.8.9.5.1-.1.2-.1.4-.1 0 .1-.1.2-.1.3-.1.1-.2.3-.4.4-.7.4-.7.4-.1 1 .2.2.4.3.7.4 1.9.9 4 .2 5.9.6h.1c2.2-.8 4.6-.7 6.9-.9 1.8-.1 3.6-.1 5.4-.2.6 0 1.1-.2 1.7-.3.9-.2 1.8-.3 2.8-.5l3-.3c1.7-.2 3.4-.6 5.1-.7 1.5-.1 3-.3 4.1-1.4.2-.2.2-.4.3-.7-.2 0-.4-.1-.6 0-2.2.5-4.4 1.1-6.6 1.6-2.1.4-4.1.6-6.2.9-1.8.3-3.7.6-5.5.7-2.3.2-4.7.5-7 .6-1.6.1-3.2.4-4.8.2-2.2 0-3.7-.8-4.8-2.7m46.7-48.4c-.2 0-.4-.1-.6-.1-.4 0-.9.1-1.3.1 0 .3.1.5.1.8v.5c0 1.2-.1 2.4-.2 3.6-.1.7.3.8.8.7.9-.2 1.7-.5 2.6-.7 1-.2 1.9-.4 2.9-.7.2 0 .4-.3.4-.5.1-1.1.1-2.2.2-3.3 0-.2-.2-.6-.4-.6-1.4.1-2.9.1-4.5.2m10.5 41.4c-1.3-.1-2.6-.2-3.9-.1-.5 0-.9-.1-1.3-.5-.4-.5-.8-1-1.3-1.4-.1-.1-.3-.2-.5-.2v.5c.1.4.2.8.2 1.1 0 .2-.2.6-.4.6-.2.1-.6-.1-.7-.3-.2-.3-.4-.7-.4-1-.1-.5-.2-.7-.7-.6-.4.1-.7.1-1.1.2-1.2.2-2.3.4-3.5.6-.7.1-.3.7-.4 1 .2 0 .3-.1.5-.1.2.1.4.3.4.4 0 .3 0 .6-.2.8-.3.5-.1.7.4.7l6.6-.3h3.7c.8 0 1.5-.3 2.3-.5.2-.1.3-.4.5-.6.1 0 0-.1-.2-.3m-15-50.6c.3.1.6.1.9.2-.1-.3-.1-.6-.2-1 0-.1-.1-.2-.1-.3-.2-.5-.4-.7-1-.4-1 .4-2.1.5-3.1.8-.2.1-.4.3-.6.5.2.1.3.3.5.4.7.4 1.4.8 2.1 1.3.2.2.4.6.4.8-.1 1.1-.3 2.1-.4 3.1 0 .3.1.7.2 1 .1-.3.2-.7.3-1 0-.1 0-.1.1-.2 0 .1.1.1.1.2-.1 1.1 0 2.1 1 2.8.2.1.4.4.6.6 0-.3.1-.6.1-1 0-.1-.2-.2-.2-.3-.2-.4-.5-.9-.5-1.3.2-1.4.5-2.9.8-4.3.1-.4.2-.7-.3-.9-.4-.2-.8-.4-1.1-.7-.2-.2-.4-.4-.5-.6.3 0 .6.1.8.1-.2.1-.1.2.1.2m-1.3 44.3c.1.2.1.3.2.5.1-.1.2-.3.2-.4.1-.4.1-.7.2-1.1.1-.9.1-1.8.2-2.7.1-1.9.2-3.9.3-5.8 0-1.3-.1-2.6-.1-4 0-1.7.1-3.5.1-5.2 0-.2 0-.4 0-.6.1-1.6.3-3.3.4-4.9 0-.1-.1-.3-.2-.4-.1.1-.2.3-.2.4-.2 1.4-.4 2.8-.5 4.2-.1 2.1-.3 4.2-.3 6.3-.1 3.6-.1 7.2-.2 10.8v2.2c0 .2-.1.4-.1.7m7.3-1.9c-.6.1-1.2.1-1.8.1s-1.2 0-1.7 0c-.7 0-1 .3-1.1 1.1 0 .5-.1.9-.1 1.4 0 .4 0 .8.5.7.8-.1 1.6-.4 2.4-.6.7-.2 1.3-.3 2-.5.3-.1.5-.5.7-.7.1-.1 0-.4.1-.6.3-.9.3-.9-1-.9m-51.8 7.3.3.3c-.2.1-.4.2-.6.2s-.4 0-.6.1v.3c.4.1.9.2 1.4.2.1 0 .3-.4.3-.6.1-1 .1-2.1.2-3.1 0-.3 0-.6-.4-.5-.8.2-1.5.4-2.2.6-1.6.4-1.6.4-1.6 2 0 .4.1.4.5.4.8 0 1.7 0 2.7.1m-5.4 3.1c-.2.4-.4.7-.6 1.1 0 .1-.1.2-.1.3.1 0 .2.1.3.1.4 0 .9-.1 1.3-.1h2.7c.6 0 1.3.1 1.8-.1.3-.1.3-.9.5-1.3 0-.1.1-.2.1-.3.1-.4-.1-.5-.5-.5-.6.1-1.1.2-1.7.3-.7.2-1.4.3-2 .6-.8.5-1 .6-1.6-.2.1-.1-.1-.1-.2.1m48.2-4.7c-.1.3-.1.6-.1.8-.1 1.2-.1 2.3-.1 3.5 0 .2.2.5.3.7.2-.2.3-.4.4-.6s.1-.4.2-.6c.1-1.2.1-2.4.2-3.6.1-2.4.1-4.9.2-7.4 0-.1 0-.3-.1-.4-.1.1-.2.3-.2.4-.4 2.4-.6 4.7-.8 7.2m-98.2-32.3c.5.9 1.7 1.3 2.6.8.2-.1.4-.1.5-.2.8-.1 1.3-.8 1.2-1.6 0-.2.2-.4.3-.5.1-.2.3-.3.4-.5-.2 0-.5-.2-.7-.1-1.4.7-2.8 1.4-4.3 2.1m46.2-6.9c.2.3.5.4.9.2.5-.3 1-.5 1.6-.8.5-.2 1-.6 1.6-.2.2.1.6-.1.9-.2-.1-.2-.2-.4-.2-.6 0-.1-.1-.2-.1-.4 0-.7-.5-.9-.9-.7-1.2.5-2.3 1.1-3.4 1.7-.4.3-.4.7-.4 1m3.8.6c.1-.2.2-.4.3-.6 0-.1-.1-.3-.1-.3-.4-.1-1.8.8-1.8 1.2 0 1.2-.1 2.5 0 3.7 0 .5.6.6 1.1.5s.3-.5.2-.7c-.1-1.2-.3-2.5.3-3.8m145.1-17.3c-.1.6 0 1.2-.2 1.8-.6 2.2-.8 4.5-.9 6.7 0 .4-.1.8-.1 1.2v.6c0 .1.1.2.2.3.1-.1.2-.2.2-.3.2-1.8.5-3.7.6-5.5.2-1.8.4-3.7 1-5.4 0-.1-.2-.4-.3-.4-.6-.1-.8.2-.5 1m-4.4-6.8c-.3.1-.6.3-.9.4.4.1.8.2 1.1.1 2.2-.6 4.5-.8 6.8-1 .3 0 .5 0 .8-.2.1-.1.1-.4 0-.6-.1-.1-.4-.2-.6-.2-.9.1-1.7.3-2.6.4-1.5.5-3 .8-4.6 1.1m-178 66.6c.1.2.3.3.3.5.1.5.3.6.6.1.9-1.4 1-3 .9-4.6 0-.1-.3-.3-.3-.3-.3.2-.8.4-.9.7-.2 1.2-.3 2.3-.6 3.6m-8.6-32.4c.2-.7-.3-1.2-.6-1.8 0-.1-.2-.1-.3-.1-.1.7-.6 1.4-.2 2.2.1.3 0 .6-.4.5s-.5.1-.5.5c.1.4.1.8.2 1.1 0 .1 0 .1.1.2.4.1 1.6-.7 1.6-1.2 0-.4 0-.8.1-1.4m48.5 26.2c0 .2-.1.5 0 .5.2.1.5.1.8.1.9-.2 1.8-.4 2.6-.7.2-.1.5-.4.5-.6 0-.4-.2-.7-.7-.6-.9.1-1.7.2-2.6.3-.3 0-.5.2-.7.3.2.1.4.2.7.3.1 0 .2.1.2.1-.1.1-.1.2-.2.2-.2.1-.4 0-.6.1m48.2 1.4c0 .3-.1.7-.1 1v4.1c0 .1.2.2.3.3.1-.1.2-.2.2-.3.1-.7.1-1.3.2-2 .1-1.1.2-2.3.3-3.4 0-.7 0-1.4 0-2.1 0-.1-.1-.2-.2-.4-.1.1-.2.2-.2.3-.1.2-.1.4-.2.6-.2.6-.3 1.2-.3 1.9m-2.4 9.4c0-.7 0-1.3 0-2 0-.1-.2-.3-.3-.4-.1.1-.3.2-.3.3-.4 1.6-.7 3.3-1.7 4.8-.1.1 0 .2 0 .4.1 0 .3-.1.4-.1.7-.9 1.6-1.7 1.9-3m81-11c1.4-.2 2.7-.4 4.1-.6.1 0 .2-.2.2-.2 0-.1-.1-.2-.2-.2-1.4.1-2.8.2-4.2.3-.1 0-.2 0-.3.1-.1.2-.3.5-.4.7.2-.1.4-.1.8-.1m13.9-26.8c0 .3.1.5.1.8.2-.2.5-.3.6-.5.3-1.1.5-2.1.8-3.2 0-.1-.1-.3-.1-.5-.1.1-.3.2-.3.4-.4.9-.7 1.9-1.1 3m-5.2 20.1c-.1.2-.3.3-.3.5v1.8c0 .2 0 .4-.1.7.3-.1.7-.1.9-.3s.3-.5.4-.8c.2-1-.5-1.3-.9-1.9m.4-10.5c0-1.3 0-2.5 0-3.8 0-.2-.1-.5-.2-.7-.1.3-.3.5-.3.8v2.4 1.5c0 .3.2.7.3 1 .1-.3.2-.7.2-1.2m-86.2 7.1c0-1.2 0-2.5 0-3.7 0-.2-.1-.3-.1-.5-.1.1-.2.3-.2.4-.1 1.3-.2 2.7-.3 4 0 .4.1.8.2 1.2.2-.4.3-.8.4-1.4m91.5-5.9c0-.7 0-1.4 0-2 0-.3-.1-.6-.2-.8 0-.1-.1-.2-.2-.2 0 .1-.1.2-.1.2-.1 1.5-.2 3-.3 4.5 0 .1 0 .2.1.3.1 0 .2 0 .3-.1.3-.6.7-1.1.4-1.9m-171.7-15c-.2 0-.5 0-.7.1-.8.6-1.5 1.3-2.2 1.9-.1.1-.3.3-.4.4.3 0 .5.1.8.1.2 0 .4-.2.5-.4.7-.6 1.4-1.3 2-2.1m81.7 33.3c-.4.1-.7-.1-.7-.6 0-.1-.2-.2-.4-.3-.1.3-.2.7-.2 1 0 .1.4.3.6.3 1 0 1.9-.1 2.9-.1.2 0 .4-.2.6-.2-.2-.1-.4-.2-.6-.2-.7-.1-1.4 0-2.2.1m116.2-54c0-.2 0-.4 0-.6-.1 0-.2.1-.2.1-.7.8-1.5 1.7-2.2 2.5-.1.1 0 .3 0 .3h.4c.7-.7 1.3-1.4 2-2.3m-222.3 32.4c.1 1.3.1 2.6.2 3.9 0 .1.1.2.1.3.1 0 .2 0 .2-.1.1-.7.3-1.4.3-2.1 0-.5-.2-1-.3-1.5-.1-.3-.3-.4-.5-.5m189.5 16c0-.3.2-.6.1-.8s-.4-.4-.7-.5c-.2.2-.3.5-.5.7-.1.2-.2.4-.3.6 0 .2.1.4.1.6.2 0 .3-.1.5-.2.3 0 .5-.2.8-.4m-.2-15.3c-.1.1-.1.1-.1.2-.1 1.1-.1 2.1-.2 3.2 0 .1.1.2.1.3.1-.1.3-.2.3-.3.1-.3.1-.7.2-1.1.1-1 .1-2.1.1-3.1 0-.2-.2-.4-.2-.5-.1.2-.2.3-.2.5zm-188.3-10.3c-.6.1-1.2.2-1.8.3-.2 0-.3.1-.5.2.2.1.3.4.5.4.5.1 1 .1 1.5 0s.7-.6.3-.9m104.1 5.8c-.6 1.1-.2 2.3-.4 3.4 0 0 .1.1.1.1.1-.1.1-.1.2-.2.6-1 .2-2.2.4-3.3-.1 0-.2 0-.3 0m-4.1-7.4c0-.5 0-1 0-1.4 0-.1 0-.2 0-.3-.1.1-.2.1-.2.2-.2.4-.5.8-.6 1.2-.1.3.2.7.3 1.1.1-.3.2-.5.5-.8m-56.1 40c0-.3 0-.7-.1-1-.1-.5-.6-.4-.8-.2s-.3.8-.2.9c.2.2.7.2 1.1.3m11.6-40c-.3.1-.6 0-.9.2-.2.1-.4.4-.5.6.2.1.4.2.6.1.5-.1.9-.3 1.4-.5.2-.1.4-.3.6-.5-.3 0-.5 0-.8 0-.1.1-.2.1-.4.1m133.2 28.2c.8 0 1.6-1.1 1.7-1.7 0-.1 0-.1 0-.2-.1 0-.1 0-.2.1-.7.5-1.3 1.1-1.9 1.6-.1.1-.1.2-.1.4.1-.1.2-.1.5-.2m-186.8-20.4c.1-.1.3-.1.4-.1.8-.1.6-.7.6-1.1 0-.1-.3-.2-.3-.2-.4.4-.7.7-1 1.2-.2 0-.3.4.3.2m51.1 2.3c0-.2 0-.4 0-.5s-.1-.2-.1-.3c-.1.1-.3.2-.3.3-.1.6-.1 1.3-.2 1.9 0 .1.1.3.2.4.1-.1.4-.2.4-.4 0-.4 0-.8 0-1.4m6.6 36.6c.3.1.6.1.8.1.1 0 .3 0 .4-.1-.1-.1-.1-.2-.2-.3-.6-.3-1.2-.6-1.9-1-.1 0-.2 0-.2.1v.2c.4.4.7.7 1.1 1m45.9-45.9c.7-.1 1.3-.2 2-.3.1 0 .2-.1.4-.2-.1-.1-.2-.2-.3-.2-.8.1-1.6.3-2.3.5-.1 0 0 .1.2.2m13.3 41.1c.3 0 .7.1 1 .1.1 0 .2-.3.3-.5-.3-.1-.6-.4-.9-.4-.4 0-.7.3-.4.8m-74.4 0c-.2-.2-.4-.5-.6-.7-.2.2-.4.5-.5.7-.1.4.1.6.5.6.4.2.6 0 .6-.6m-25.7-38.1c-.6.1-1.4-.2-1.9.4-.1.1-.1.1-.2.2.1 0 .1.1.2.1.8.1 1.5 0 2.2-.5.1-.1.1-.2.2-.3-.2 0-.3 0-.5.1m-10.2-3.6c.3-.1.6-.2.8-.4.1-.1.2-.4.1-.5s-.4-.2-.5-.2c-.3.2-.6.5-.9.8.2.2.3.3.5.3m-1.3 42.9c.3-.1.6-.1.9-.2.1 0 .3-.2.4-.3 0-.1-.1-.3-.2-.4-.8-.4-1.2-.1-1.1.9m42.6-10.1c.3-.7-.2-.8-.6-.7-.2.1-.4.4-.6.7.2.1.4.2.6.2s.4-.1.6-.2m128.9 5.8c.1-.1.4-.3.4-.4 0-.3-.1-.5-.2-.8-.3.3-.5.5-.8.8.1.2.3.3.6.4m19.6-62.1c-.2.4-.4.8-.5 1.2v.3c.1 0 .2-.1.3-.1.2-.3.4-.7.6-1 .1-.2.2-.3.2-.5-.2 0-.4 0-.6.1m-145.3 15.2c-.1-.3-.1-.6-.2-1 0 0-.4 0-.4.1v1.1s0 0 .1.1.2.3.3.4c.1-.2.1-.3.2-.7m-3 44.7c-.1.1-.2.3-.3.4v.6c.3 0 .6 0 .8-.1.1 0 .1-.4 0-.5 0-.2-.3-.3-.5-.4m1.6-1.3c-.3.2-.6.3-.8.5-.1.1-.2.3-.3.5.2 0 .4-.1.6-.1s.3-.1.5-.1c.5-.1.5-.3 0-.8m67.8 4.1c.1-.2.3-.5.4-.7 0-.1-.1-.2-.2-.3-.2.1-.5.3-.5.5 0 .1.2.4.3.5m.3-3.2c-.2 0-.4-.1-.6 0-.1.1-.3.3-.3.5 0 .1.2.3.3.3.2 0 .4-.1.6-.2 0-.1 0-.3 0-.6m-10.7-4.2c-.2 0-.4 0-.5 0s-.2.2-.2.3.1.3.1.3c.3 0 .7 0 1-.2s0-.3-.4-.4m81.1-29.5c-.1.4-.2.8-.2 1.3 0 .1.1.2.2.2s.3 0 .3-.1c-.1-.5.1-1-.3-1.4m11.1-29.4c-.1 0-.2 0-.3.1-.1.2-.2.3-.3.5.2 0 .4 0 .6-.1h.2c.1-.2.1-.4.2-.6-.1 0-.2 0-.4.1m-194.3 72.6c.4.1.5-.3.8-.5 0 0 0-.2 0-.3-.3 0-.6 0-.9.1-.1 0 0 .4.1.7m-.3-3.6c-.1-.2-.1-.4-.2-.5-.2.1-.5.1-.5.2-.1.2 0 .5 0 .8.2-.1.3-.2.5-.3zm188.3-45.1c-.8.1-.4.7-.5 1.1 0 .1 0 .2.1.3.1-.3.3-.5.4-.8 0-.2 0-.4 0-.6m-96.3 4.8c.1.3.2.5.3.8.1-.3.1-.5.2-.8v-.1c0-.2-.1-.4-.1-.5-.2.1-.3.2-.4.6m79.4 32.6c.1.2 0 .5.2.6.1.1.4.1.6.1v-.1c-.2-.3-.5-.6-.8-.6m-68.2-8.1c-.3 0-.7-.1-1-.1-.1 0-.2.1-.2.1s.1.2.1.2c.4.1.8 0 1.1-.2m-91.4-24c-.1.1-.2.2-.3.3-.1.2-.1.3-.2.5.2 0 .4 0 .5-.1.1-.2.1-.4 0-.7m171.3 3.7c0 .3-.1.6-.1.9 0 0 .2 0 .4.1-.1-.3-.2-.7-.3-1m-188.8 35.3c.1-.1.2-.2.3-.4-.2-.1-.3-.2-.5-.3-.1.2-.2.5-.3.7.1.1.2.1.5 0m177.6-11.3c.1.2.1.4.2.6.1.1.3.1.4.2 0-.2-.1-.4-.1-.6-.1-.3 0-.7-.5-.2m32.6-37.9c0 .1.1.3.1.4.2-.2.4-.4.6-.6 0 0-.1-.2-.1-.3-.2.1-.4.3-.6.5m-15 5.1c.7.1.4-.4.4-.7 0-.1-.1-.2-.2-.3-.1.2-.2.5-.3.7 0 .1.1.1.1.3m.9-5s0 .1 0 0c.1.1.1.1.1 0 .1-.3.1-.6.2-1-.1 0-.2 0-.2 0-.1.4-.2.7-.1 1m-18.8 40.3c.1.1.2.2.3.3.2.2.3.3.5.5 0 0 .2-.1.1-.1-.1-.2-.2-.5-.4-.6-.1-.1-.3-.1-.5-.1m13.5-3.6c.1-.1.1-.2.2-.3-.2 0-.5 0-.7 0 0 0-.1.2-.1.2.1.1.3.1.6.1m5.9-41.8v.6c.1-.1.2-.2.4-.2-.2-.2-.3-.3-.4-.4m.7-3.5c-.1-.2-.1-.4-.2-.5-.1.2-.2.4-.3.5.2 0 .4.1.5 0m.3-4.4c0 .3-.1.5-.1.8.1-.1.2-.1.2-.2 0-.2 0-.4-.1-.6m-145.6 10.8c.2 0 .4.1.6.1 0 0 .1-.1.1-.2-.2 0-.4 0-.7.1m126 46.7c-.2-.2-.4-.3-.5-.5 0 .1-.1.2-.1.3.1.1.3.1.6.2m-132.4-43.9v.6h.4c-.2-.2-.3-.4-.4-.6m64.4 6.6v.4c.2-.1.3-.2.5-.3-.1-.1-.3-.2-.5-.1m-108.9 2.8c.2.1.4.1.6.2 0-.1.1-.2 0-.2-.2 0-.4-.1-.6 0m193.3-9.1c0-.1.1-.2.1-.4-.1 0-.3 0-.4.1.1.2.2.3.3.3m-7.1 23.7c0-.2.1-.3.1-.5-.1 0-.3.1-.3.1 0 .2.1.3.2.4m-81.3-32.8c-.1.1-.3.2-.4.2.1.1.1.1.2.2.1-.1.2-.2.2-.4m71.2 55.6c.1 0 .2.1.3.1 0-.1.1-.2 0-.2-.2-.1-.3-.1-.5-.2.1.1.1.1.2.3m10.8-32.9c0-.2 0-.4 0-.6h-.1c0 .2 0 .4.1.6m.6 8.9c0-.1 0-.3 0-.4-.1 0-.1 0-.2 0 .1.2.1.4.2.4m27.1-31.4c.2-.1.3-.1.5-.2 0-.1-.1-.1-.1-.2-.2.1-.3.2-.4.4m-164.5 14.5c-.1.1-.2.1-.2.2.1 0 .3.1.4.1-.1-.1-.1-.2-.2-.3m137.4 9.2v.4h.2c0-.1-.1-.2-.2-.4m11.3-38.4c0-.1 0-.2 0-.3-.1.1-.2.1-.3.2.1 0 .2.1.3.1z"/><path d="m173 83.1c1.7-.1 3.3-.2 5-.3.9 0 1.9.1 2.8.1 2.4 0 4.7-.1 7.1-.1 1.9-.1 3.8-.2 5.6-.3 2.4-.1 4.9-.2 7.3-.3h.1c.4 0 .9.1 1.2-.1.2-.2.3-.7.4-1.1 0-.2 0-.4-.1-.6-.3-.7-.3-1.3.1-2 .1-.2.1-.6 0-.8-.5-.6-.5-1.3-.2-2 .3-.5.4-.9-.2-1.3-.4-.3-.2-.6 0-.9.1-.2.5-.3.7-.2 1.3.4 1.6.9 1.5 1.5v.3c-1.1.6-.1 1.1.1 1.6.1.4.2.7-.1 1-.5.3-.3.7-.1 1.1.4.6.4 1.1 0 1.7-.5.8.1 2.1 1.1 2.2 1.2.1 2.3.1 3.5.2 1.1.1 2.1-.3 3.1-.7.5-.2 1.2-.2 1.7 0 .9.4 1.8 1 2.6 1.6 1.1 1 1.4 2.4 1.6 3.9.2 1.4-.4 2.8-1.7 3.1-1.1.3-2.1.2-3.1.3-1 0-2 0-3 0-.6 0-1.1.2-1.7.3-2.6.1-5.1.1-7.7.2-2.3.1-4.5.5-6.8.6-1.6.1-3.3-.1-5-.1-.9 0-1.8-.1-2.7-.2-4.4-.5-8.9-.3-13.3-.3-3.5 0-7 .3-10.5.4-1.2.1-2.4.1-3.7.1-1 0-2 0-3 0-1.4-.1-2.8-.3-4.3-.3-1.1 0-2.3.2-3.4.2-.5 0-.9-.1-1.4-.1-2-.1-4.1-.1-6.1-.2-1.3 0-2.7-.1-4-.1-.5 0-1 .2-1.4.1-1.4-.3-1.9-1.6-2.3-2.7-.5-1.4 0-2.5 1-3.5.6-.6 1.2-1.1 1.8-1.6.2-.2.6-.3.8-.3.9.3 1.9.2 2.6.9.1.1.3.2.5.2.1 0 .2 0 .3-.1.4-.6.7-.8 1.6-.8.7 0 1.4-.2 1.9-.7.4-.4.9-.3 1.2.3.2.4.4.7 1 .4.5-.2 1.1 0 1.7 0 2.4-.1 4.7-.3 7.1-.4.3 0 .6.1.9.1h3.2c4-.1 8.1-.2 12.1-.3.9.1 1.7 0 2.6 0m-10.5 7.7c2.4.1 4.8-.1 7.2-.4 1.4-.2 2.9-.2 4.3-.2 2.3 0 4.5.1 6.8.2s4.7.4 7 .4c2.8 0 5.6-.2 8.4-.3 1.7-.1 3.3-.2 5-.3 2-.1 4-.1 6-.2 1.1 0 2.3-.1 3.4-.1.4 0 .4-.1.2-.4-.5-.5-.9-1.1-1.4-1.6-.8-.9-.9-1.7-.3-2.7.2-.4.5-.8.7-1.2.1-.1.1-.3.1-.4-.2 0-.4-.1-.5-.1-1 .1-1.9.3-2.9.4-.7.1-1.3 0-2 0-.5 0-.7.2-.6.6.1.6-.4 1-.7.9s-.5-.6-.8-1c-.1-.1-.2-.3-.4-.3-.2-.1-.5 0-.7 0s-.6.1-.2-.3c.3-.3-.1-.4-.4-.4-1.7.1-3.4.2-5.1.3-1.9.1-3.7.3-5.6.3-3.7.1-7.4.1-11.1.2-.4 0-.8-.2-1.1-.1-1.2.1-2.4.2-3.6.3-1.9.1-3.8.1-5.7.2-.8 0-1.6-.1-2.4 0-1.3.1-2.5.4-3.8.4-1.9 0-3.7-.1-5.6-.1-1 0-2 .1-3 .1-2.5.1-5 .1-7.4.1-1.3 0-1.3.1-1.7 1.2-.1.3-.1.7-.6.6-.5 0-.9 0-1-.6 0-.2-.3-.5-.5-.6-.4-.1-.9-.1-1.4 0-1.4.4-2.8.1-4.1-.5-.6-.2-1.1-.2-1.2.3-.3.9-.7 1.9-.6 2.8.1 1.6 1.5 2.6 3.2 2.7 6 .1 12-.1 18 .3 2-.1 4-.4 6.1-.5m50.3-6.8c-1.1.2-2 .6-2.3 1.8 0 .2 0 .3.1.5.1 0 .3 0 .4-.1.5-.3 1-.6 1.6-.3.1 0 .2 0 .3.1-.1 0-.2.1-.2.1-.3.1-.7.1-1 .3s-.6.5-.9.8c.4.2.7.5 1.1.5.7.1 1.5.1 2.2 0 .3 0 .6-.2.8-.3.7-.6.8-1.3.4-2.2-.6-1-1.4-1.4-2.5-1.2m-78.7 6c.3.5.6 1.1 1.2 1.1h.8c-.1-.3-.2-.6-.4-.8-.8-.6-1.3-1.4-1.4-2.5 0-.2-.1-.3-.2-.5-.1.2-.4.4-.4.6.1.7.3 1.3.4 2.1m80.7-1c-.1.1-.3.2-.4.3s-.2.2-.4.3c.2.1.4.2.5.2.3-.1.7-.2 1-.4.2-.1.4-.4.6-.6-.3 0-.6 0-.9.1-.1 0-.2.1-.4.1m-12.1-11.9c.1.4.3.5.6.3.1-.1.2-.2.4-.4-.2-.1-.4-.4-.6-.4-.2-.1-.4 0-.4.5m.9-2.3c0-.2 0-.4-.1-.6-.1-.1-.4-.2-.6-.3 0 .2-.2.5-.1.6.1.2.2.7.8.3m-59.4 11c-.2 0-.3.1-.5.1.1.1.3.4.4.4.4.1.3-.2.1-.5m58.8-4c.1.1.3.2.4.4 0-.2 0-.4-.1-.6 0 0-.2 0-.3.2m.7-2.3c-.1-.2-.2-.4-.3-.6 0 0-.1.1-.1.1.1.1.2.3.4.5m-32.4 11.2c-.1.1-.2.2-.3.3h.7c-.1-.2-.2-.2-.4-.3m31.8-10.8c.1-.1 0-.1 0-.1-.1.1-.2.2-.4.3.1 0 .1.1.2.1.1-.1.1-.1.2-.3m-35 11.2h.3c-.1-.1-.1-.2-.2-.3 0 .1-.1.2-.1.3z"/><path d="m31.7 86.3c.4.1.7.2 1 .3h2c2.4 0 4.7-.1 7.1-.2.9 0 1.8-.1 2.7-.2 1.5-.2 3-.4 4.4-.6.5-.1 1.1 0 1.6 0 1.8 0 3.7-.1 5.5-.2 1.5-.1 2.9-.2 4.4-.3 1.8-.1 3.6-.2 5.4-.3.4 0 .8.1 1.2.1.1 0 .3-.1.4-.1-.1-.2-.1-.4-.2-.4-.5-.2-.6-.6-.4-1.1.1-.2-.1-.4-.1-.6s.1-.4.1-.6.2-.5.1-.6c-.7-.5-.1-1.2-.1-1.7 0-.3 0-.6-.1-.8-.3-.5-.4-.9 0-1.3.2-.2.3-.5.4-.8.1-.2.1-.4.1-.6.2.1.4.3.7.4.8.4.6 1.2.6 1.8 0 .2-.2.4-.4.5-.5.2-.4.5-.2.9.4.5.9 1 .4 1.8-.1.1-.1.4 0 .4.3.4.2.8.2 1.3-.1.3-.1.8 0 .9.5.3 1 .7 1.5.7 2 0 4.1 0 6.1-.6.9-.3 1.7.1 2.5.3 1.4.3 2.2 1.4 2.2 2.8 0 1-.5 1.9-1.3 2.4-.1 0-.1.1-.2.1-.3.2-.6.4-.8.5.2.2.5.3.7.5.1.1.2.2.3.2-.1.1-.2.3-.4.3-1.1 0-2.1 0-3.2 0-.4 0-.7.1-1.1.1-4.7 0-9.5 0-14.2 0-1.1 0-2.2-.2-3.3-.1-2.2.1-4.5.3-6.7.4-.7 0-1.3 0-2 0s-1.4.1-2.1.1c-1.7 0-3.3 0-5 0s-3.3-.1-5-.1c-.7 0-1.5.1-2.2.1-1.7 0-3.5-.4-5.1-.1s-3.1.4-4.7.4c-1.4 0-2.7-.4-3.2-2-.3-1 0-3.1.7-3.7.2-.1.4-.1.7-.2 1.2-.2 2.2.4 3.3.5s2.2.1 3.1-.6c.3-.2.4-1 .4-1.5 0-1.1.1-2.2.6-3.3.2-.4.1-1.1-.1-1.6-.2-.6.2-.7.5-.8.6-.2 1.5.5 1.7 1.2.1.5-.3 1.6-1 1.7-.3.1-.6.3-.6.5s.3.5.4.7c0 0 .1.1.1.1 1 .8 1 .9-.1 1.6-.1 0-.1.2-.1.3.7 0 .5.8.8 1.1m6.1 1.2c-1.9-.1-3.9-.1-5.8-.2-.5 0-.8 0-.9.6 0 .2-.3.3-.5.4-.1 0-.3-.3-.4-.4-.2-.3-.3-.6-.8-.3-.1.1-.4-.1-.6-.1s-.6 0-.7.2c-.4.8-.9 1.6-.8 2.5s.4 1.1 1.3.9c.4-.1.8-.1 1.3-.1 4.2 0 8.3.1 12.5.1 1.9 0 3.9-.1 5.8-.1 1.8-.1 3.7-.3 5.5-.3 4.3 0 8.7.1 13 .1 1.6 0 3.3-.1 4.9-.1h3.6c1 0 1 0 .6-.8-.6-1.1-.3-2.3-.3-3.5 0-.7-.1-.9-.8-.8-.8.1-1.7.3-2.5.3-.9.1-2-.3-2.8.1-.9.4-1.5.1-2.3 0-1.7-.3-3.5-.2-5.3-.1-1.9.1-3.8.4-5.7.6-1.5.1-3.1.2-4.6.1-1.7 0-3.4.3-5 .5-2 .2-4.1.2-6.2.3-.8 0-1.6 0-2.5.1m-13.1.1c-.7-.7-1.8-.6-2.1.4-.2.8-.4 1.6-.3 2.4.1.5.6 1.1 1.1 1.3.6.2 1.4.1 2.1 0 .3 0 .7-.3 1-.3.7.1.7-.3.4-.7-.7-.9-.4-1.7.1-2.5.3-.5.1-.6-.3-.6-.6 0-1.3 0-2 0m55-.8c-.2-.4-.4-1-.7-1.3-.8-.6-2.5.3-2.5 1.3 0 .8.2 1.5.4 2.3.2.6.8.9 1.4.5.7-.7 1.5-1.4 1.4-2.8m-48.4-6.7c-.3-.3-.5-.1-.5.2v.9c0 .5.4.4.5.2.2-.4.6-.8 0-1.3m36.6-2.1c-.2-.1-.3-.2-.5-.3-.1.3-.2.7-.3 1 .2 0 .5.1.7.1 0-.2 0-.4.1-.8m-37.6 8.6c.2-.2.8-.1.6-.6-.1-.1-.5-.1-.8-.1.1.2.1.4.2.7m.7-2.2c.3-.5-.2-.5-.5-.7-.1 0-.3.2-.4.3.2.2.3.4.5.6.1.1.3 0 .4-.2m36.8-3c0-.3 0-.6 0-.9-.2.1-.5.1-.5.2-.1.3-.2.7.5.7m-.4 2.5c.2 0 .3.1.5.1.1 0 .2-.2.2-.3-.2.1-.4.1-.7.2m.4-1.1c-.1-.2-.2-.3-.2-.5 0 0-.1.1-.1.1 0 .2 0 .3.3.4z"/><path d="m79.5 138.4c.1 1.2.1 2.4.1 3.6 0 .9-.2 1.8-.1 2.7.1 1.3.3 2.6.4 3.9 0 .5-.2 1-.1 1.4.1 1 .2 2.1.4 3.1.1 1 .4 2 0 3.1-.3.7.7 1.6 1.3 1.6.3 0 .7.1 1 .2.2.1.5.2.7.3-.2.2-.3.4-.5.6-1 .8-2 1.7-3 2.4-.8.6-1.8.6-2.7.2-.9-.3-1.8-.6-2.7-.8-.4-.1-.7.3-1.2 0-.6-.3-.4-.6-.1-.9.7-.5 1.4-1.1 2.1-1.6.2-.1.4-.3.4-.5 0-1.7-.1-3.3-.1-5 0-1-.1-2.1-.2-3.1-.2-1.5-.5-2.9-.6-4.4s.1-3 .1-4.5c0-.2 0-.4 0-.6 0-1.8.1-3.6 0-5.4-.1-2-.4-4.1-.4-6.1 0-2.8.2-5.5.3-8.3 0-.9.1-1.8.3-2.6.1-.6 1.7-1.7 2.3-1.6.9.1 1.4.7 1.7 1.6.4 1.1.6 2.2.6 3.4 0 4.5.1 9 .1 13.5 0 .8.1 1.6.1 2.4 0 .3-.1.8-.2 1.4m-.6-1.1c-.1-1.9-.1-3.7-.2-5.6 0-1.3-.1-2.6-.1-3.9-.1-1.7-.1-3.5-.2-5.2 0-.8-.1-1.6-.1-2.4 0-.7-.1-.8-.8-.6-.2.1-.4.1-.6.2-.1.1-.3.2-.4.2.2.1.3.2.5.2.1 0 .3-.1.4-.1h.3c-.1.1-.1.2-.2.2-.4 0-.8.1-1.1 0-.5-.2-.7 0-.8.3-.1.5 0 1.1 0 1.6.2 1.4.5 2.8.5 4.2.1 5.3-.1 10.5.4 15.8.2 1.9.4 3.8.5 5.7.2 3 .2 6 .3 9 0 .4-.1.8 0 1.2.1.3.4.7.7.8.2.1.8 0 .9-.2.1-.3.1-.7.1-1.1 0-.1 0-.4 0-.4.6-.2.3-.7.3-1 0-.6-.1-1.2-.1-1.8 0-.5.1-1.1 0-1.5-.4-1.4-.4-2.8-.1-4.2.1-.3 0-.7 0-1.1-.1-.6-.3-1.2-.3-1.8 0-.8.1-1.7.1-2.5 0-.9-.1-1.8-.1-2.7 0-1 .1-2.1.1-3.3m-3.2 8c0-1 0-2 0-3 0-.2-.1-.4-.2-.6 0 0-.1-.1-.2-.1-.1.5-.4 1-.4 1.5.1 2.2.4 4.4.6 6.6v.5c0 .1.2.2.3.4.1-.2.2-.3.2-.5 0-1.6-.1-3.1-.3-4.8m2.1-27.5c-.6-.3-1.2-.2-1.6.3-.1.1-.2.4-.1.5.2.7 1.5 1 2 .6.1-.1.1-.2.1-.3-.1-.4-.2-.8-.4-1.1m4 41.1c.2-.3.7-.5-.1-.5-.2 0-.4-.2-.6-.2-.1 0-.3 0-.4.1-.1 0 0 .3 0 .4.3.4.2.6-.2.7-.2.1-.3.2-.5.3-.1.1-.2.3-.2.4s.2.2.3.2c.2 0 .4-.1.6-.2.3-.4.6-.8 1.1-1.2m-6 .9c-.4-.2-.7-.6-1.1-.6-.3 0-.5.5-.8.7.2.1.5.2.7.3.3.1.6.2.9.3h.7c-.1-.2-.2-.4-.4-.7m-.1-29.3c0-.2-.1-.3-.1-.5 0-.9 0-1.7 0-2.6 0-.1-.1-.3-.2-.4-.1.1-.2.2-.2.4-.1.2-.2.5-.1.7 0 .5.1 1 .1 1.4.1.5.1 1 .2 1.5 0 .1.1.2.2.2.1-.1.2-.1.3-.2-.1-.1-.2-.2-.2-.5m1.8 30.5h1.6c.2 0 .5-.2.7-.3 0 0 0-.1-.1-.1-.3-.1-.5-.2-.8-.2-.5 0-1 .2-1.5.2-.1 0-.2 0-.4.1.2 0 .3.1.5.3m-1.8-41.6v.5c.2-.1.3-.2.5-.3-.1-.1-.3-.2-.5-.2z"/><path d="m16.8 118.8c0-.4 0-.7 0-1.1 0-.7.5-1 1-1.1h.4c.4-.1 1-.4 1.2-.3.6.3 1 .8 1.5 1.3.1.1.1.4.1.5-.2.8 0 1.6.1 2.4s.1 1.6.2 2.5c.1 2.3.2 4.6.3 6.8.1 1.4.2 2.7.1 4.1s-.3 2.8-.4 4.1c0 .3.1.7.1 1 .1 1.3.1 2.7.2 4 0 1 .1 1.9.2 2.9.1.6.5 1 1.1 1h1.4c.5 0 .5.4.3.5-1.3.7-2.3 1.9-3.8 2-1 0-2-.4-3.1-.6-.6-.1-1.3-.1-1.8-.7-.3-.3-.4-.5.1-.7 0 0 .1-.1.1-.1 1.3-.5 1.5-.8 1.3-2.1-.1-.5-.1-1-.2-1.5-.5-4-.4-8.1-.5-12.2 0-2.6-.2-5.1-.3-7.7 0-.8.3-1.6.3-2.4 0-.7 0-1.4.3-2.1.1.1-.1-.2-.2-.5m2.1 28.8c.5.1 1.1.2 1.6.2.1 0 .3-.2.3-.3.1-.6.2-1.1.2-1.7 0-1.5-.1-2.9-.1-4.4 0-.8-.1-1.7-.2-2.5 0-.3-.2-.6-.1-.9.2-2.2.4-4.3.4-6.5 0-3.5-.3-7-.5-10.6 0-.5-.1-1-.2-1.5 0-.2-.4-.3-.6-.3-.3 0-.5.2-.8.2-.6.1-.7.3-.4.8.1.2.4.6.3.8-.5.7-.4 1.5-.4 2.3-.2 1.8-.5 3.5-.6 5.3s-.1 3.6-.2 5.4c0 .1.2.3.3.4.1-.1.2-.2.2-.3.1-.7.1-1.5.2-2.2 0-.4.1-.8.1-1.2.1.4.2.9.2 1.3-.1 1.3-.2 2.6-.3 3.9v1.4c0 1.1-.2 2.1-.2 3.2s.2 2.3.3 3.4c0 .1 0 .3.1.4.2 1 .5 2.1.4 3.4m3.8.6c.1-.2.1-.5.2-.7-.3.1-.7-.2-1 .3-.4.6-.9 1-1.7.6-.3-.1-.6 0-1 0-.1 0-.2.1-.2.2.1.1.1.2.2.3 1.2.3 2.4.1 3.5-.7m-3.2-30.9c-.5-.2-1 0-1.1.4-.1.2.2.7.4.9s.7.2.9 0c.6-.4.2-.8-.2-1.3m-2.2 31.1c.2-.1.3-.2.5-.3-.1-.2-.3-.3-.4-.5-.1.3-.1.5-.1.8z"/><path d="m1.8 127.5c-.1-2.4-.1-4.7-.2-7.1 0-.7-.3-1.3-.3-2 .1-.9.5-1.7 1.3-2.2 1.1-.7 2-.2 2.5.6.3.5.4 1 .4 1.6.1 2.6.2 5.1.3 7.7v3.8c0 3.3.1 6.7.2 10 0 .4.2.9.3 1.3.2.6.8.9 1.3.8h.1 1.2c-.3.3-.5.8-.8.9-1.2.4-2.2 1-2.9 2-.1.1-.5.1-.7.1-.5 0-1 0-1.5 0-.3 0-.5-.1-.8-.2-.5-.2-1-.4-1.5-.7-.3-.1-.6-.5.1-.5.2 0 .3-.2 0-.3-.2-.1-.4-.3-.6-.5.3-.2.6-.3.9-.5.2-.1.4-.1.5-.2.7-.1.7-.3.4-.9-.2-.5-.4-1-.4-1.5 0-2 0-4 0-5.9 0-.9.1-1.8.1-2.7 0-1.1 0-2.3.1-3.6m1.3.5v2.5c0 .8 0 1.6.1 2.4 0 .8.3 1.7.1 2.5-.6 1.8-.3 3.6-.3 5.4 0 .3-.2 1.1.5 1.1s.4.2.2.5c-.1.3-.2.5-.3.8.3 0 .6-.1.8-.1s.3-.1.4-.1c-.1.1-.2.2-.3.4-.1.1-.2.3-.3.4.2 0 .3.1.5.1.7-.1.7-.6.7-1.1 0-.2.1-.4 0-.5s-.4-.1-.5-.1-.3.1-.4.1c.1-.2.1-.4.2-.5.2-.3.6-.5.6-.8.1-2 .2-4 .2-6.1 0-1.8-.1-3.6-.1-5.5 0-1.4 0-2.9 0-4.3 0-1.3 0-2.5 0-3.8 0-.7-.2-1.5-.3-2.2 0-.1-.5-.3-.7-.2-.4.1-1 .4-1.1.6-.1.8-.1 1.7-.1 2.6.1 1.9.1 3.9.1 5.9m1-11.1c-.8-.2-1 .2-.8.9v.4c.1.2.4.5.4.5.4-.2 1.1 0 1-.7.1-.4-.2-.7-.6-1.1m-1.6 3.9c.7-.5 0-1 .1-1.5 0-.1-.1-.2-.2-.3-.1.1-.2.2-.2.3.1.4.2 1 .3 1.5m-.1 12.5c.1.3.1.6.2.8.1-.3.2-.6.3-.9 0-.3 0-.5-.1-.8 0-.2-.2-.3-.3-.4 0 .1-.1.3-.1.4zm-.7 9.4c-.2.1-.3.1-.5.2.1.1.3.2.4.3s.3 0 .4 0c0-.2-.1-.4-.3-.5m5-.2c-.1.1-.1.3-.2.4.3-.1.6-.1.9-.2.1 0 .1-.1.1-.2h-.1c-.2 0-.4 0-.7 0m-4.4-25v.7c.1 0 .3-.1.3-.1 0-.2-.1-.4-.3-.6m.5 26.7c-.2 0-.3.1-.5.1.1.1.2.2.2.2.2 0 .3-.1.3-.3z"/><path d="m142.9 79.9c.3-.2.7-.4 1.1-.4.1 0 .2.5.3.8s.3.5.4.8c.1.2.3.5.3.6-.2.3-.5.6-.8.7-1.3.2-2-.6-1.5-1.8-.1-.3.1-.5.2-.7m.3 1.5c0 .4.2.7.6.4.1-.1.3-.3.3-.5s-.2-.4-.3-.4c-.3 0-.4.2-.6.5z"/><path d="m142.3 77.5c.1-.4.1-.6.2-.9.1-.4.7-.6 1.1-.4.1 0 .2.1.3.1.5.3 1.1.6.9 1.3-.1.6-1.2 1.2-1.8 1-.5-.2-.8-.5-.7-1.1m1.8-.1c-.1-.2-.1-.4-.2-.6-.2.2-.5.4-.7.6-.1.2-.2.4-.2.7l.6-.3c.1-.1.3-.1.5-.4z"/><path d="m169 44c.4.1.7.2 1.1.2.1 0 .3-.3.3-.4-.2-.9-.4-1.8-.7-2.7-.2-.6 0-1.1.6-1.2 1.2-.2 2.4-.4 3.5-.6h.8 1.3c.2 0 .5 0 .6.1s.1.4.1.6c-.2 1-.4 1.9-.5 2.9-.1.6.3.4.5.3.8-.1 1.5-.3 2.3-.4.5-.1.9.5.6.9-.7.8-1.4 1.6-2.1 2.4-.8.9-1.7 1.7-2.6 2.6-.3.3-.5.6-.8.8-.6.5-1.1 0-1.5-.2-.3-.1-.6-.4-.9-.7-1.2-1.1-2.5-2.1-3.7-3.2-.2-.2-.5-.4-.6-.7-.1-.2-.2-.6 0-.8s.5-.2.8-.2c.3.2.6.3.9.3m8.7 1.1c0-.1 0-.3 0-.4-.1 0-.3 0-.3 0-.3.2-.5.5-.8.8 0 0 .1.1.1.1.4-.1.7-.2 1-.5m-9.3-.2c.4 0 .8-.1 1.2-.1 0 0 .1-.2.1-.3-.2-.2-1.2 0-1.3.4m2.7-1.4c.1.2.2.4.4.5.1-.2.2-.5.2-.7s-.1-.3-.2-.5c-.2.2-.3.3-.4.7m.8 4.1c0 .1-.1.2-.1.4 0 0 .2 0 .2.1 0-.1 0-.3-.1-.5m2-7.5c0 .1-.1.2-.1.3h.2s0-.2-.1-.3z"/><path d="m155 34.6c-.5-1.2-.9-2.4-1.3-3.6-.1-.1-.2-.3-.3-.4-.1.1-.3.3-.3.4-.1.3-.1.7-.2 1.1-.1 1.5-.1 3-.1 4.5 0 .1.2.3.3.4.1.2.3.5.2.6-.2.3-.5.6-.9.7-.3.1-.6-.2-.9-.3v-.2c0-.6-.1-1.2 0-1.9 0-.7.1-1.5.1-2.2 0-1.4-.2-2.7-.1-4.1 0-.8-.1-1.7.7-2.3.4-.3.7-.4 1.2-.2 1.2.4 1.6 1.4 1.8 2.5.4 1.4.8 2.8 1.1 4.2.1.4.2.9.3 1.3 0 .1.1.2.2.3.1-.1.2-.2.2-.4 0-1.1-.1-2.2-.1-3.3 0-1.6.1-3.3.2-4.9 0-.3.3-.5.4-.8.3.4.7.7.7 1.1.1 1.1 0 2.2 0 3.3 0 .7.1 1.4.1 2.1s-.1 1.4-.1 2.1c-.1.8-.1 1.6-.1 2.4 0 .9-.5 1.2-1.4.8-.3-.1-.6-.4-.7-.7-.4-.7-.7-1.6-1-2.5z"/><path d="m183 28.7c-.1 1.5-.1 3-.1 4.5 0 .2.1.5.1.7s-.1.5-.2.5c-.2 0-.6 0-.7-.2-.2-.5-.4-1-.5-1.5 0-2.3 0-4.5 0-6.8 0-.3.1-.6.1-.8 0-.3 0-.7-.1-.8-.6-.4-.2-.5.1-.7.3-.1.7-.3 1.1-.4.1 0 .4.2.5.3.7 1.8 1.3 3.6 2 5.4.1.3.2.7.3 1 0 .1.1.2.2.4.1-.1.2-.3.2-.4 0-.6-.2-1.2-.1-1.8.1-1.4.1-2.9.3-4.3.1-.4.5-.8.8-1.1.1-.1.5 0 .7 0v.5c0 .6.1 1.1.1 1.7 0 .5-.1 1-.1 1.5-.1 1.2-.1 2.3-.2 3.5s-.2 2.4-.3 3.6c0 .2-.2.4-.3.4-.2 0-.6-.1-.7-.2-.5-.9-1.4-1.6-1.6-2.7-.2-.9-.7-1.7-1.2-2.6-.1-.1-.2-.2-.3-.2 0 .2 0 .3-.1.5z"/><path d="m175.9 26.9c.2-.8.4-1.6.6-2.3.1-.4 1.1-.9 1.7-.7.3.1.5.6.5.9.3 1.4.6 2.9.8 4.3.2.9.2 1.8.4 2.7.2 1 .4 2 .6 3.1 0 .3-.1.7-.3.8-.3.2-1.3-.4-1.3-.7-.2-1.1-.5-2.1-.7-3.2-.1-.4-.1-.8-.6-.8s-1 .1-1.2.7c-.3.9-.5 1.7-.7 2.6-.1.4-1.1 1.3-1.5 1.3-.4-.1-.6-.4-.5-.8.5-1.5 1-2.9 1.4-4.4.3-1.2.5-2.3.8-3.5m1.6.4c-.1.1-.3.2-.4.3-.2.8-.3 1.5-.4 2.3-.1.5.1.7.5.5.2-.1.5-.4.5-.6 0-.8-.1-1.6-.2-2.5z"/><path d="m171.1 34.6c-.4-1.2-.8-2.4-1.2-3.6-.1-.4-.5-.9-.6-.9-.5.1-.5.6-.4 1 0 .8.2 1.7.1 2.5 0 .6.2 1.4-.7 1.8-.2.1-.2.7-.2 1 0 .4.1 1-.5 1-.2 0-.4-.6-.6-1-.5-1.2.5-2.3.3-3.5 0-.3.1-.6.1-.8.1-1.8.2-3.7.3-5.5 0-.3-.1-.6-.1-.9-.1-.4 0-.7.4-.8 1.2-.5 2.4-.4 3.7-.1.3.1.6.5.7.9.5 1.3.1 2.8-1.1 3.6-.8.5-.4 1.2-.3 1.8.4 1.4.9 2.7 1.3 4.1.1.4 0 .8-.1 1.2-.3-.3-.6-.5-.9-.8-.1-.4-.1-.7-.2-1m-.3-8.9c-.4-.8-1.1-.4-1.6-.3s-.9.5-.9 1.1c0 .5.1 1 .1 1.5 0 .6.5.9 1 .7 1.4-.5 2-1.7 1.4-3z"/><path d="m199.1 33.5c-.8.2-1.6.3-2.4.5-.3.1-.6.1-.9.1s-.6-.2-.2-.6c.1-.2.3-.4.3-.6.1-.9.1-1.8.2-2.7.1-2 .3-4 .5-6 0-.5.2-.9.5-1.3.1-.2.4-.5.6-.6.9-.4 1.9-.8 2.8-1.2.3-.1.6-.1.9-.1s.5.2.7.4c-.2.2-.3.6-.5.7-.4.2-.9.3-1.3.3-1.1 0-1.7.4-1.9 1.4-.1.5-.1 1.1-.2 1.6-.1.7.4.6.7.4.5-.3.9-.3 1.4-.1.2.1.5.3.5.4 0 .2-.2.5-.4.6-.4.2-.9.5-1.4.6-.8.1-1 .7-1.1 1.3-.1.9-.2 1.9-.3 2.8-.1.5.2.6.6.6.5 0 .9-.1 1.4-.1.6 0 1.2.1 1.8.2.1 0 .2.3.1.5-.2.6-.6.9-1.3.9-.4-.1-.7 0-1.1 0z"/><path d="m145.3 28.1c-.3-.6.1-.8.5-.9.8-.1 1.5-.1 2.3-.2.4 0 .8-.2 1.2-.3.3 0 .5 0 .8.1.1 0 .2.4.1.4-.2.2-.4.4-.6.4-.7.1-1.4.2-2.1.3-.6.1-.8.5-.8 1.1v1.8c0 .8.1.9 1 .9.2 0 .3-.2.5-.1.3.1.5.2.8.3-.2.2-.4.5-.6.7-.2.1-.4 0-.7 0-.5.1-.9.3-.9 1 0 1.1-.1 2.1-.1 3.2 0 .9 0 .8.9.6.5-.1 1.1-.2 1.6-.1.3 0 .5.4.8.6-.2.2-.5.4-.7.5-.5.2-1.1.2-1.7.3-.2 0-.4.1-.5.2-.3.3-.6.6-1.1.3-.6-.4-1.1-.7-1.1-1.5.1-1.6.1-3.2.2-4.8-.1-1.4 0-3.1.2-4.8z"/><path d="m160.7 27.5c-.4-.1-.6-.2-.9-.4-.1-.1-.2-.3-.1-.4 0-.1.3-.2.4-.2 1.4-.3 2.7-.6 4.1-.8.2 0 .5-.1.6-.1.3.1.5.3.7.5 0 .1-.2.4-.4.5-.3.2-.7.4-1.1.6-.5.1-.8.3-.7.9v.5c0 2.6-.1 5.2-.1 7.8 0 .6-.2 1.1-.8 1.2-.4.1-1.2-.5-1.2-1.1 0-1.2.1-2.4.1-3.6 0-.9-.1-1.9-.1-2.8 0-.5.2-1.1.2-1.6.1-.6.1-1.1-.7-1m1.6-.3c-.1.1-.2.1-.2.2.1 0 .3.1.4.1 0-.1-.1-.2-.2-.3z"/><path d="m196.2 52.9c.1-.5.2-1 .3-1.4.1-.2.4-.4.6-.6.1.2.2.5.2.7s-.1.5-.1.7c-.1 1.6-.1 3.2-.2 4.9 0 .6-.2 1.2-.4 1.7 0 .2-.2.3-.4.5-.2-.2-.5-.3-.6-.5-.3-1.6-.6-3.1-.9-4.7 0-.1-.2-.2-.3-.4-.1.2-.3.3-.3.5-.2 1.4-.4 2.8-.6 4.1 0 .2-.2.4-.3.5-.1-.2-.2-.4-.2-.6.1-1 .1-2 .3-3 .1-.9.4-1.8.6-2.7 0-.2.1-.4.2-.5.1-.2.4-.3.5-.3s.3.2.4.4c.2.7.4 1.5.5 2.2.1.4.1.9.2 1.4 0 .1.2.3.3.4 0 0 .3-.1.3-.2 0-1 0-2 0-2.9 0 0-.1 0-.1-.2z"/><path d="m191.1 55.2c.4.6.4.6.1 1.2-.1.2-.1.4-.1.7.1.6.2 1.2.2 1.8 0 .2-.3.4-.4.6-.2-.2-.4-.3-.4-.5-.1-.6-.1-1.3-.1-1.9 0-.4-.1-.8-.5-.9-.4 0-.8-.1-.9.5-.1 1-.4 2.1-.6 3.1 0 .2-.3.3-.5.5-.1-.2-.3-.4-.2-.6.3-2.1.6-4.1.9-6.2.1-.6.3-1.2 1-1.4.6-.2 1.1 0 1.2.6.1.8.2 1.6.3 2.5m-1.7.5c.3-.1.7-.1.7-.2.1-.8 0-1.7 0-2.5 0-.1-.2-.2-.3-.2 0 0-.2.1-.2.2-.2.8-.4 1.6-.6 2.5.1 0 .2.1.4.2z"/><path d="m144.2 63.5c-.1.3-.1.5-.2.7s-.1.3-.2.5c-.2-.2-.5-.3-.5-.5 0-1.1-.3-2.3.4-3.4.2-.3.1-.7.2-1 .3-.7.7-1.3 1.1-2 .1-.1.2-.3.2-.4-.2-.1-.3-.2-.5-.2-.7-.1-1.4-.1-2.1-.2-.2 0-.4-.1-.6-.2-.1-.1-.2-.2-.4-.4h.5c.8-.1 1.6-.3 2.4-.4l2.1-.3c.2 0 .6.1.7.3s0 .6-.1.8c-.6.8-1.3 1.6-1.8 2.5-.4.8-.7 1.7-.9 2.6-.2.5-.2 1.1-.3 1.6z"/><path d="m158.9 57.3c.1.4.2.6.1.9-.1 1.1-.2 2.2-.3 3.4s-1.3 1.7-2.1 1.6c-.4 0-.9-.5-1-.8-.8-2.2-.6-4.3.3-6.4.2-.5.7-.8 1.4-.9.7 0 .9.4 1.2.8.1.4.3.9.4 1.4m-.6-.3c-.2-.4-.3-.8-.6-1.1-.1-.1-.5-.1-.5-.1-.3.5-.6 1.1-.8 1.6-.5 1.4-.6 2.9-.3 4.4.1.3.3.8.6.9.2.1.6-.2.9-.4.7-.5.7-1.2.7-1.9.2-1.2.1-2.2 0-3.4z"/><path d="m192.3 33.3c-.3 0-.6 0-.8 0-1.3-.4-2.1-1.7-2.3-3-.3-1.9.1-3.6.5-5.4.5-1.8 1.6-2.4 3.2-1.9.6.2.9 1.2.5 1.7 0 0-.4-.1-.4-.2-.1-.5 0-1-.7-.9-.6.1-1.2.4-1.4 1-.4 1.3-.9 2.7-1 4-.1.9.1 2 .4 2.9.3 1.1 1.6 1.4 2.6.8.2-.1.5-.2.7-.3-.1.3-.1.7-.3.9-.2 0-.6.2-1 .4z"/><path d="m186.5 59.2c-.4.5-.7.4-.9-.3-.3-.7-.5-1.4-.7-2-.1-.2-.2-.3-.3-.4-.1.2-.3.3-.3.5v2.6c0 .2-.2.4-.3.6-.1-.2-.3-.3-.4-.5s-.2-.5-.2-.7c0-1.4 0-2.8 0-4.2 0-1 .6-1.5 1.4-1.8.5-.2 1.6.7 1.8 1.4 0 .2 0 .6-.2.8-.7.6-.8 1.3-.4 2.1.2.6.3 1.2.5 1.9m-1.4-4.1c.1-.1.2-.1.3-.2.3-.1.5-.4.4-.7s-.5-.5-.7-.6c-.1 0-.4.3-.5.5-.1.3-.1.6-.1.8s.1.4.1.6c.1-.1.2-.2.5-.4z"/><path d="m179.3 58.1c-.2.9-.3 1.7-.5 2.5-.1.3-.2.5-.3.8 0 0-.3-.1-.3-.1-.1-.2-.1-.5-.1-.8.2-1.5.5-3 .8-4.4.1-.7.3-1.4.5-2.1.1-.3.3-.7.9-.3.7.4.9 1 1 1.7.2 1.6.4 3.3.6 4.9 0 .3-.1.6-.2.9-.2-.3-.4-.6-.5-1-.1-.3 0-.7 0-1.1 0-1.1-.4-1.4-1.4-1-.3 0-.4 0-.5 0m.2-1c.1.1.2.4.3.4.3-.1.9-.3.9-.4-.1-.8-.2-1.6-.4-2.3 0-.1-.1-.2-.2-.2-.1.1-.3.2-.3.4-.1.6-.2 1.3-.3 2.1z"/><path d="m202.9 52.2c.5-.1.9-.1 1.4-.1.2 0 .4.1.6.2-.1.1-.3.3-.4.4-.2.1-.4.2-.6.3-.6.2-1 1.3-.6 1.8.1.1.4.2.6.2.1 0 .2-.1.3-.1.4.1.8.2 1.1.2-.3.2-.5.3-.8.5-.2.1-.4.2-.6.2-.6-.1-.7.3-.7.8 0 .9.1 1 1.1 1.1.4 0 .8.2 1.2.3-.4.1-.8.3-1.2.3-1.5.1-2.2-.3-2.2-2 0-1 0-2 0-3 0-.8.2-1 .8-1.1z"/><path d="m198.5 53.5c.2-1.1.6-2 1.6-2.3.2-.1.6 0 .8.2.1.1.1.4.1.5-.1-.1-.2-.2-.3-.2-.2.1-.5.2-.6.4-.3.7-.5 1.5-.6 2.2-.1 1 0 2 .1 3 .1.9.4 1.3 1.5.6.2-.1.4-.2.6-.4-.1.2-.2.5-.4.7-.8 1.1-1.3 1-2.1-.1-.9-1.2-1-2.8-.7-4.6z"/><path d="m173.9 61c-.9-1.9-.5-3.8-.6-5.7 0-.5.3-.9.9-.8h1.3c.1 0 .2.1.4.2-.1.1-.2.1-.3.2-1.3.5-1.6 1-1.4 2.4.1.4.3.6.7.6s.7.2 1.1.2c-.4.1-.7.3-1.1.3-.7 0-.9.5-.9.9 0 1 .5 1.3 1.2 1.2h.4c.3.2.7.3 1 .5-.3.1-.7.2-1 .2-.5 0-1.1-.1-1.7-.2z"/><path d="m166.4 55.3c.1.1.2.1.2.1-.1.1-.2.2-.4.2-.3 0-.9-.3-.9-.2-.3.4-.6 1-.6 1.5-.1 1 0 2.1 0 3.1 0 .6.2 1.1.7 1.3s.9.1 1.3-.3c.1-.1.2-.1.4-.1 0 .1.1.3 0 .4-.3.8-1.2 1-2.2.3-.9-.7-1.4-1.6-1.3-2.8.1-1 0-2 .3-3 .3-1.1 1.1-1.3 2.1-.8.1.2.3.2.4.3z"/><path d="m170.6 60.1c0 1.2 0 1.2 1.2 1.1.1 0 .3.1.4.1-.1.1-.1.3-.2.4-.5.1-1 .2-1.5.1s-.6-.7-.6-1.2c0-1.9.1-3.8.1-5.7 0-.1 0-.2.1-.3.1.1.3.1.4.2.1.3.3.5.3.8-.1 1.3-.2 2.9-.2 4.5z"/><path d="m160.9 55.5c-.2-.2-.3-.4-.4-.6-.1.2-.2.3-.4.4s-.4.2-.6.3c-.1-.2-.3-.5-.3-.7.1-.4.4-.7.6-1.1 0 0 .1-.1.1-.1.5.2 1.1.3 1.5.7.2.2.2.9-.5 1.1z"/><path d="m149.1 56.7c-.2.2-.4.2-.6.3 0-.2 0-.4 0-.7.1-.3.2-.6.3-.9.1-.2.3-.4.4-.6.1.3.3.6.3.8-.1.5-.3.8-.4 1.1z"/><path d="m150.4 59.5c.5 0 .9-.1 1.3-.1v.2c-.4.1-.8.3-1.1.3-.3.1-.7 0-1 0-.1 0-.3-.2-.4-.3.1 0 .3-.1.4-.1.3-.1.5 0 .8 0z"/><path d="m150.1 57c-.1.2-.2.2-.3.3-.1-.1-.2-.3-.2-.4.2-.5.4-.9.6-1.4 0-.1.1-.1.2-.1 0 .1.1.1.1.2-.2.4-.3.9-.4 1.4z"/><path d="m44.9 55.6c.3-.1.6-.3.9-.2.5.1 1.1.3 1.6.5.2.1.4 0 .6 0-.1-.2-.1-.5-.2-.7-1.2-.8-1.4-2.2-2-3.4-.1-.1 0-.2 0-.3h.4c.2.1.3.1.4.3.4.5 1 .5 1.4.2 1.7-1 3.5-1.2 5.3-1 .4 0 .6 0 .3.6-.4.9-.5 2-.7 3-.1.4.2.3.5.2.6-.3 1.2-.6 1.8-.8.2-.1.4-.1.6-.1-.1.2-.1.4-.2.6-.4.7-.7 1.5-1.2 2-1.2 1.1-2.5 2.1-3.8 3-.4.3-.9.3-1.3-.1-1.2-1-2.4-1.9-3.6-2.9-.5-.3-.6-.6-.8-.9m5.5-3.6c.3 0 .6.1.9 0 .1 0 .1-.2.2-.3-.4.1-.7.1-1.1.3m-2 1.2c-.2 0-.3-.1-.5-.1 0 .2.1.3.1.4.1.1.2.2.3.2s.1-.2.1-.5m1 4.8s0 .1 0 0c.1 0 .1 0 .2-.1s.2-.3.3-.4c-.2 0-.4-.1-.5 0s-.2.3-.3.5zm1.8-2.9c0 .1.1.1.1.2.1-.1.1-.2.2-.4-.1.1-.2.1-.3.2z"/><path d="m56.8 46.7c0 .4.1.8.1 1.1 0 .2-.1.3-.2.5 0 0-.3-.1-.3-.2-.2-.3-.4-.6-.4-1-.1-.7-.1-1.4-.2-2.1 0-.5-.4-.5-.8-.5-.2 0-.6-.1-.5.5.1.9-.2 1.8-.4 2.8 0 .1-.3.2-.4.2-.2-.1-.4-.3-.4-.4.1-.9.2-1.8.3-2.8s.3-1.9.4-2.9c.1-.8.2-1.7.3-2.5 0-.2.2-.4.3-.5.1.1.3.2.4.3.7.6 1 1.4 1.1 2.4 0 .6.1 1.2.2 1.8.1.4.2.9.9.6.4-.2 1 0 1.2-.2.2-.3.1-.9.1-1.3.1-.9.2-1.7.3-2.6 0-.2.4-.5.7-.6.5-.2.8.1.9.5.5 1.5.9 2.9 1.4 4.4 0 .1.1.3.2.4.1-.2.3-.4.2-.5-.2-1.5 0-2.9.3-4.3 0-.1.2-.2.3-.3.1.1.3.3.3.4 0 2.1-.1 4.3-.1 6.4 0 .2-.1.5-.2.5-.2 0-.6 0-.7-.1-.4-.7-.8-1.5-1.1-2.3-.4-1-.6-2.1-.9-3.2 0-.1-.2-.2-.3-.3 0 .1-.1.3-.1.4 0 1.9.1 3.8.1 5.7 0 .2-.1.5-.3.7-.1.1-.5 0-.6-.2-.2-.2-.4-.7-.3-.8.6-.8-.2-1.6-.1-2.4 0 0-.2-.1-.2-.1s-.1.1-.1.1c-.5.2-1.2.3-1.4.7-.3.4-.1 1.1 0 1.7m-1.2-3.7c-.1-.8-.1-1.6-.2-2.5 0-.1-.2-.2-.2-.3-.1.2-.3.3-.4.5-.1 1.1-.1 2.1-.1 3.2 0 .1.3.4.4.4.7.1.8-.3.5-1.3z"/><path d="m37.2 51.5c-.2-.4-.5-.7-.5-1 0-2 .1-3.9.1-5.9 0-.6.1-1.2.2-1.8 0-.2.2-.4.4-.6.2.1.5.3.7.5.9 1.2 1.1 2.7 1.4 4.2.1.5.2 1 .3 1.5 0 .1.2.1.3.2 0-.1 0-.2 0-.3.2-2.2.4-4.4.6-6.6 0-.2.4-.3.5-.5.1.2.3.4.3.6-.2 1.8-.4 3.6-.6 5.4-.1.9-.2 1.7-.4 2.6-.1.3-.2.8-.7.6-.3-.1-.5-.4-.6-.7-.3-.9-.4-1.8-.6-2.8-.2-.9-.3-1.8-.5-2.7 0-.1-.2-.3-.3-.4-.1.1-.3.3-.3.4 0 1.7.1 3.5.1 5.2 0 .6-.1 1.2-.2 1.8.1.2-.1.2-.2.3z"/><path d="m66.3 64c0-.8 0-1.4 0-2.1 0-.3.3-.5.4-.8.2.2.5.4.6.6.2.8.2 1.6.3 2.4.1.6.1 1.2.2 1.7 0 .1.1.2.2.3.1-.1.1-.2.1-.3 0-.6 0-1.3 0-1.9s.1-1.2.2-1.8c0-.2.3-.3.5-.5.1.2.3.4.3.5-.1.7-.2 1.4-.3 2.1v.5c.1.2.2.3.3.5.1-.2.3-.3.3-.5.1-.7 0-1.5.2-2.2.1-.3.4-.7.7-.9.1-.1.6.2.8.4.1.1 0 .4 0 .6-.1-.1-.2-.2-.3-.3-.1 0-.4-.1-.4 0-.1.2-.2.5-.2.7 0 1.1.1 2.2.1 3.3 0 .4.2.3.5.2.1 0 .3 0 .3.1.1.1 0 .3 0 .3-.3.2-.7.6-.8.5-.3-.2-.5-.6-.7-.9-.1-.2-.2-.5-.3-.7-.1.3-.3.5-.4.8-.1.2-.1.5-.2.7-.2.2-.5.5-.7.6-.5 0-.7-.3-.8-.8 0-.6-.1-1.2-.2-1.8 0-.1-.2-.2-.3-.3 0 .1-.1.3-.1.4 0 .5.1 1 .1 1.5 0 .2-.2.3-.4.5-.1-.2-.2-.3-.2-.5.2-1 .2-1.9.2-2.9z"/><path d="m70.7 41.1c.4-.1.7-.2 1-.2.2 0 .4.2.6.2-.1.1-.2.4-.3.4-.6.1-1.3.2-1.9.1s-.8 0-.8.6c0 .9-.2 1.7-.3 2.6 0 .4 0 .7.5.6s1.1-.3 1.6-.4c.2 0 .4.1.6.2-.1.2-.1.5-.3.5-.6.1-1.2.2-1.8.3-.2.1-.5.2-.7.2-.2.1-.5.2-.7.1 0 .1-.2-.3-.2-.5 0-1 0-2.1 0-3.1 0-.9-.1-1.8-.1-2.7-.1-1.9.5-2.2 2-2.7.5-.2 1.1-.3 1.7-.3.3 0 .5.2.8.4-.2.2-.3.4-.5.5-.6.2-1.3.4-1.9.6-.5.2-.9.3-.9 1 0 1.1.1 1.3 1.2 1.4.1.1.2.2.4.2z"/><path d="m50.7 44.9c-.2-.4-.3-.8-.5-1.2 0-.1-.4 0-.4 0 0 .6-.1 1.2-.1 1.8v2.8c0 .1-.3.2-.4.2-.2-.1-.5-.2-.5-.3 0-1.7.1-3.3.1-5 0-.7-.1-1.3-.1-2-.1-.7.2-1.3.8-1.5s1.2-.1 1.7.5c.8.9 1 1.8.4 2.7-.2.3-.6.6-.6.9 0 .4.3.9.4 1.3.3.7.5 1.4.7 2.1v.5c-.2-.1-.5-.1-.6-.2-.2-.9-.5-1.7-.9-2.6m-.7-1.8c1.1-.6 1.3-1.6.7-2.6-.1-.1-.3-.3-.4-.3s-.3.3-.3.4v1.6z"/><path d="m59.7 63.1c.5-1.3 1.6-1.7 2.4-.7.5.7-.2 1.1-.4 1.6-.1.2-.4.3-.4.4-.1.3-.1.6 0 .9.2.4.6.7.8 1 .1.2 0 .6.1.9-.2-.1-.4-.2-.5-.3-.4-.3-.7-.6-1.1-.9-.1.5-.2 1-.3 1.5v1.3c0 .3 0 .7-.5.7s-.6-.3-.5-.7c.1-1.7.2-3.3.3-5-.1-.2 0-.4.1-.7m1.1.8c.7-.2.6-.7.3-1.2 0-.1-.2-.1-.2-.1-.1.4-.2.8-.1 1.3z"/><path d="m54.5 68.7c.4-1.8.7-3.4 1.1-5.1.1-.3.1-.6.3-.8s.6-.5.9-.4c.2 0 .5.4.6.7.1.5 0 1 0 1.4 0 .3-.2.7.4.8 0 0 .1.3.1.4-.1.7-.2 1.4-.3 2.2 0 .2-.1.4-.2.6-.2-.1-.6-.2-.7-.3-.1-.4-.1-.9-.2-1.3-.1-.3-.2-.5-.3-.8-.1.2-.3.4-.4.7-.2.8-.4 1.5-.7 2.3 0 .1-.3.2-.4.2-.1-.1-.1-.3-.2-.6m1.5-3.4c0 .1.1.2.1.2.1-.1.3-.1.3-.2 0-.2-.1-.3-.1-.5 0 .1-.2.2-.3.5z"/><path d="m30.3 49.2c.2-1 .3-1.9.4-2.8s.1-1.8.2-2.7.9-1.6 1.8-1.6c.7 0 1.5-.3 2 .5.1.1.1.2.1.4-.1 0-.3.1-.4.1-.7.1-1.5.1-2.2.3-.2.1-.5.5-.5.7-.1.5-.1 1.1-.2 1.7-.1.8.4.6.7.6.3-.1.6-.3 1-.4.1 0 .3.1.5.1-.1.1-.2.2-.3.3-.5.2-1.1.4-1.6.6-.2.1-.4.3-.4.5-.1.8-.3 1.6-.3 2.4 0 .2 0 .8.6.7s1.3-.2 1.9-.2c.1 0 .3.1.5.2-.1.1-.2.3-.3.3-.7.1-1.3.1-2 .2-.1 0-.2.1-.3.1-.9.3-1.2 0-1.2-.9 0-.6 0-.8 0-1.1z"/><path d="m64.8 63.7c.1.3.2.5.3.7.2.3.3.5 0 .9-.2.2-.1.7-.1 1 0 .6.1 1.2.1 1.7 0 .1-.3.2-.5.3-.1-.1-.2-.3-.2-.4-.1-.7-.1-1.4-.2-2.1 0-.1-.3-.2-.4-.3-.1.1-.2.3-.2.4v1.7c0 .3-.3.6-.5.8-.3-.2-.7-.3-.6-.9.2-1.3.2-2.5.3-3.8.1-.5.1-1.1.3-1.6.1-.2.4-.5.7-.6.1 0 .4.3.5.5.4.5.4 1.1.5 1.7m-.7.9c0-.2.1-.5.1-.7 0-.1-.1-.2-.1-.2-.1 0-.2.1-.2.1 0 .4 0 .7.1 1.1 0-.1 0-.2.1-.3z"/><path d="m44.5 46.6c.1-.2.1-.4.1-.5 0-1.1 0-2.2 0-3.2 0-.9-.1-1.1-1.1-1.1-.1 0-.2 0-.2 0-.2-.1-.4-.1-.7-.2.2-.1.4-.2.6-.2.5-.1 1-.3 1.4-.3 1-.1 2.1.1 3.1-.4.1 0 .3.1.4.2-.1.1-.2.3-.3.4-.6.2-1.3.4-1.9.4-.5.1-.5.3-.5.6 0 2.3-.1 4.5-.2 6.8 0 .2.2.7-.3.6-.3-.1-.6-.4-.7-.7.2-.9.3-1.6.3-2.4z"/><path d="m66.5 45.6c.1.1.2.3.2.3-.2.1-.4.3-.6.3-1-.1-1.9-1.2-2.1-2.2-.3-1.7 0-3.4.5-5.1.3-1 1.3-1.5 2-1.1.1.1.2.2.3.3-.1 0-.3.1-.4.1-.2.2-.6.4-.7.7-.5 1.3-.8 2.7-.5 4.1.1.3 0 .6 0 .9.1 1.3.2 1.5 1.3 1.7z"/><path d="m51.1 64.3c.6-.6 1.2-.5 1.8-.3.1 0 .2.2.2.3-.1 0-.2.1-.3.1-.6 0-.8.3-.7.8v.7c0 .9 0 .9.9.6.4-.1.7-.2 1.1-.4-.3.3-.5.7-.8 1-.2.2-.4.3-.6.3-.3 0-.7 0-.7.5s0 .9.6 1.1c.2.1.4.2.6.4-.3.1-.5.2-.8.2-.9 0-1.6-.7-1.6-1.7 0-1.1.1-2.1.2-3.2-.1-.1 0-.2.1-.4z"/><path d="m43.9 64.7c.8-.8 1.4-.8 1.9-.2.1.1 0 .4 0 .4-1.2.1-1 1.1-1.1 1.8-.1.6 0 1.3.1 1.9s.6.8 1.1.4h.5c-.1.2-.1.5-.3.6-.7.7-2.3.3-2.6-1-.4-1.3-.1-2.6.4-3.9z"/><path d="m48.9 65.7c-.1.9-.3 1.7-.3 2.4 0 .2.3.6.5.7s.5.1.8.2c.1 0 .2.2.3.3-.1 0-.2.1-.3.1-.3 0-.5 0-.8 0-1.6-.2-1.6-.3-1.5-1.9.1-1.1.2-2.1.3-3.2 0-.2 0-.5.2-.7.1-.2.3-.3.5-.4.1.2.3.3.3.5.1.7.1 1.3 0 2z"/><path d="m33.3 68.2c.3-.1.5 0 .8 0 .6 0 1.1-.1 1.7-.1.1 0 .3.1.4.1-.1.1-.1.3-.2.3-.9.5-1.8.5-2.7-.3z"/><path d="m35.3 64.4c-.4-.6-.1-1.1.1-1.7 0-.1.3-.2.3-.1.1.2.4.4.3.6-.1.4-.3.8-.4 1.2.1.8-.1 0-.3 0z"/><path d="m36.5 64.2c0-.3 0-.5 0-.7 0-.1.2-.2.3-.3.1.2.3.3.3.5s-.2.4-.3.6c-.2.5-.3.2-.3-.1z"/><path d="m104.7 51.1c1.7-.2 3.4-.3 5-.4.5 0 .9.2 1.4.1.6 0 1.2-.2 1.8-.3.5-.1 1-.3 1.4-.4 1.2-.1 2.3-.7 3.6-.6.5.1 1.1-.2 1.6-.3h.5c0 .2 0 .4-.1.5s-.4.3-.5.3c-1.7-.4-3.1.7-4.7 1.1-.4.1-.9.3-1.3.3-1.2.1-2.4.1-3.6.2-2.3.1-4.6.1-6.8.5-1.7.3-3.4.4-5.1.6-1.8.2-3.6.6-5.5.9-1.1.1-2.2 0-3.4 0-.1 0-.2-.1-.3-.1.1-.1.2-.2.3-.2.6-.2 1.1-.3 1.7-.5 1-.2 1.9-.4 2.9-.6.1 0 .2-.1.2 0 1.9.7 3.7-.3 5.6-.5 1.7-.1 3.4-.4 5.3-.6z"/><path d="m115.4 47.9c.1-.5.1-.9.1-1.4 0-.1 0-.3-.1-.4-.1 0-.3.1-.4.1-.9.4-.5 1.1-.5 1.7 0 .4.1.8.1 1.1 0 .1 0 .2-.1.3-.1-.1-.3-.2-.4-.3-.1-.2-.2-.4-.3-.6s-.2-.3-.2-.4c-.1.2-.2.3-.3.5-.1.1-.1.3-.1.4-.1-.2-.3-.3-.3-.5.1-.6.1-1.3.3-1.8.2-.6-.1-.6-.4-.5-1.4.2-1.6.5-1.6 2 0 .5-.1 1.1-.2 1.6 0 .1-.1.2-.2.3-.1-.1-.3-.2-.3-.3 0-1.3 0-2.5 0-3.8 0 0 .1-.1.1-.1-.2-1.3.6-1.5 1.6-1.8.9-.2 1.7-.4 2.6.2.2.1.4.1.6.2.5.1 1-.3 1.5.1.1.1.5-.2.7-.3.3-.2.6-.5.9-.7.1-.1.3.1.5.1-.1.2-.1.4-.2.5-.2.3-.6.5-.7.8-.2.4-.3.8.4.9.2 0 .3.1.4.2-.1.1-.2.3-.3.3-.9.1-.5.8-.6 1.3 0 .2-.1.5-.1.7 0 0-.3.1-.3 0-.2-.3-.4-.6-.4-.9-.1-.3 0-.6 0-.9-.3.1-.8.1-1 .3s-.3.7-.4 1c0 .3.2.6.3.8-.1 0-.3.1-.3.1.1-.1-.2-.4-.4-.8m-1.9-2.5c.2-.2.4-.3.6-.5.1-.1.1-.3.2-.5-.2 0-.4-.2-.5-.1-.5.1-1 .3-1.5.4-.3.1-.4.3-.3.7.1.5.3.3.6.2.2 0 .5 0 .9-.2m2.9 0c0 .2-.1.4-.1.6.3 0 .7.2.9.1.3-.2.4-.6.5-.9 0-.1-.1-.3-.2-.3-.3.1-.9-.3-1.1.5m-1.5.1c0-.2-.1-.3-.1-.5-.1.1-.3.2-.3.3-.1.3 0 .6-.1.9.2-.2.4-.4.5-.7z"/><path d="m96.9 50.4c-.1.3-.3.4-.4.6-.1-.2-.1-.4-.2-.6-.2-1.3.4-2.5.6-3.7.1-.2 0-.5 0-.8-.3.1-.6.1-.8.2-.7.3-1 1-.9 1.7v2.4c0 .2-.3.3-.4.5 0-.2 0-.3 0-.5 0-.9-.1-1.7-.1-2.6 0-.1-.1-.1-.2-.2-.1.1-.2.2-.2.2-.8.8-.5 1.8-.4 2.8v.8c-.2-.2-.4-.4-.5-.7-.1-.2-.1-.4-.2-.6 0-.1-.1-.2-.1-.4-.1.1-.2.2-.3.4-.1.1 0 .3 0 .4 0 .2-.1.5-.2.7-.1-.3-.3-.6-.3-.8 0-.6.2-1.2.3-1.8.1-.5.2-1 .3-1.5.1-.3.2-.7.4-.7.2-.1.6.1.8.3.2.1.2.3.4.4h.3c.2-1 1.2-1 1.8-1.3.5-.3 1.2-.2 1.8-.3.1 0 .2.1.3.1-.1.1-.1.3-.2.3-1 .2-.9 1.1-1 1.8-.2.8-.3 1.8-.6 2.9m-2.8-3.3c0-.5-.3-.6-.5-.2-.2.3-.3.8-.4 1.2.1 0 .2.1.2.1.2-.3.4-.6.6-.9 0-.1 0-.1.1-.2z"/><path d="m93.7 64.5c.1.1.2.1.3.1-.1.1-.2.2-.3.3-.2 0-.4-.1-.5-.1-.2 0-.4.2-.6.3l.6.6c.1.1.3.1.5.1-.2.1-.3.1-.5.2-.7.2-1.1-.1-1-.8 0-.8.1-1.7.1-2.5 0-.1-.2-.2-.3-.3-.2.3-.5.5-.5.8-.1.7-.1 1.5-.2 2.2 0 .2-.1.3-.2.4-.1-.2-.2-.3-.2-.5 0-.3 0-.6 0-.8s0-.4-.1-.7c-.2.1-.5.2-.6.4-.2.4-.2.8-.3 1.2 0 .2-.1.4-.2.6 0-.2-.1-.3-.1-.5v-.1c-.1-.4-.3-.7-.4-1.1-.2.3-.5.6-.6 1s-.1.8-.7.9c-.6 0-.6-.4-.7-.8-.1-.2-.3-.5-.4-.7-.1.3-.1.5-.2.8-.1.4-.2.8-.2 1.3-.1-.4-.2-.7-.2-1.1 0-.1.1-.2.1-.2.2-.9.4-1.9.6-2.8 0-.2.1-.4.3-.6s.5-.3.7-.4c0 .3.1.5.1.8-.1.5-.5.9-.5 1.4 0 .6.2 1.3.3 1.9.1 0 .3 0 .4-.1.1-.4.2-.8.2-1.1-.1-.9.5-1.5.9-2.2 0 0 .3 0 .3.1.1.3.2.6.3.9.1.2.2.4.4.5.3-.2.6-.4.8-.6 0 0-.3-.4-.4-.6-.1-.1-.3-.1-.4-.2.2-.1.3-.2.5-.2.9 0 1.8-.1 2.7-.1.2 0 .3.2.5.3-.1 0-.3.1-.4.1-.6-.1-.6.3-.6.6-.1.3-.2.8.4 1-.2 0 0 .2.3.3m-6.2-1.4c0-.3-.1-.5-.1-.8-.1.2-.3.4-.4.6 0 0-.1 0 0 .1 0 .2.1.4.1.5.1-.1.2-.2.4-.4m1.3.6c.2 0 .3 0 .5-.1-.1-.2-.2-.4-.2-.5-.1.2-.2.3-.3.6z"/><path d="m105.9 45.4c-.2 1.1-.4 2.2-.6 3.2 0 .1.1.2.2.2.2 0 .5-.1.6-.2.5-.8.8-1.6.8-2.6 0-.2.2-.4.3-.6 0 .2.2.4.1.6-.2.9-.4 1.7-.6 2.5-.2.5-1 .9-1.5.8-.1 0-.3-.1-.3-.3-.1-.2-.2-.4-.4-.6-.2.2-.3.4-.5.6-.3.4-.7.7-1.2.4s-.6-.7-.4-1.3.3-1.3.5-2c.2-.5.4-.9.7-1.3.1-.1.4-.3.4-.2.2.2.4.4.5.7.1.4 0 .9 0 1.3 0 .1.1.3.2.4.1-.1.2-.2.3-.4.2-.5.3-1 .4-1.5.2-.4.3.1.5.3m-2.7 3.8c1.1-.9.7-2.1.8-3.2 0-.1-.1-.1-.2-.2-.1.1-.2.2-.3.3-.2.9-.4 1.8-.6 2.7-.1.2.1.3.3.4z"/><path d="m98.1 60.9c.7.4.4 1.1.5 1.7 0 .2.2.5.2.7.1-.2.3-.4.4-.7s.1-.7.3-1c.1-.2.4-.4.5-.4.2.1.5.4.5.6 0 .4-.2.8-.4 1.1-.4.6-.5 1.2-.5 1.9v.4c-.1.2-.1.4-.2.7-.1-.2-.2-.4-.2-.6 0-.5 0-1 0-1.5 0-.1-.1-.2-.1-.3-.1.1-.2.1-.3.2-.1.3-.2.6-.4.8-.1.1-.2.2-.2.3-.1-.1-.2-.2-.2-.4 0-.1 0-.2 0-.3-.1-.2-.1-.3-.2-.5-.1.2-.2.3-.2.5-.2.6-.3 1.2-.5 1.8 0 .1-.1.2-.2.3 0-.1-.1-.2-.1-.3.2-1 .3-2 .5-3 .1-.6.3-1.2.4-1.8 0-.2.3-.2.4-.2m-.4 1.7c.1.2.2.4.3.7.1-.2.2-.4.2-.7 0-.2-.1-.4-.1-.5-.2.1-.3.2-.4.5m2.4-.8c-.2.1-.3.3-.5.4.2 0 .3.1.5.1.1-.1 0-.2 0-.5z"/><path d="m105.9 73.2c0 .2 0 .3-.1.4-.1-.1-.4-.3-.4-.4 0-.9.1-1.7.2-2.6 0-.5.1-1.1.1-1.6 0-.2.1-.3.2-.5.1.2.2.3.2.5.2 1 .8 1.3 1.7.8.2-.1.5-.1.8-.1.1 0 .2.2.3.3-.1 0-.3 0-.4.1-.2.2-.4.4-.5.6 0 .1.3.3.5.4.1.1.3.1.5.1-.1.1-.3.2-.4.3-.2.2-.4.4-.4.5 0 .2.3.4.4.5s.2.2.3.2c-.1 0-.3.1-.4.1-.7.1-1.1-.2-1-1 0-.3 0-.7 0-1-.1-.7-.7-1-1.3-.6-.1.1-.2.4-.1.6.1.6.4 1.3.5 1.9.1.2 0 .4 0 .7-.1-.2-.3-.3-.4-.5s-.3-.3-.4-.4c.2.3.1.5.1.7z"/><path d="m87 56.2c.1-.4.2-.7.7-.7.6.1.4.5.4.8 0 .4 0 .9-.5 1.1-.1.1-.2.5-.1.7.1.4.2.8.4 1.1.1.1.2.2.3.4.1-.1.3-.3.3-.4.3-1 .5-2 .8-2.9 0-.1.2-.3.2-.4.1.1.2.3.3.4.5 1 .4 2.1.4 3.2 0 .1-.1.2-.2.3-.1-.1-.2-.2-.2-.4s0-.5 0-.8c0-.1-.2-.4-.3-.4s-.3.1-.4.3c-.2.4-.2.8-.4 1.2-.1.2-.3.3-.4.5-.1-.2-.3-.3-.4-.5-.2-.4-.3-.8-.5-1.2 0-.1-.2-.2-.3-.3 0 .1-.1.2-.1.3 0 .5 0 1-.1 1.5 0 .2-.1.3-.1.4-.1-.1-.3-.3-.3-.4 0-.9.1-1.7.2-2.6-.1-.3.1-.8.3-1.2m.3 1c.2-.1.4-.3.5-.4.1-.2.1-.4.1-.6 0-.1-.3-.2-.4-.1-.2.1-.4.3-.4.5 0 .1.1.3.2.6m2.3-.5c-.1.1-.3.1-.3.2-.1.2-.1.5-.1.7 0 0 .2.1.3.1.1-.2.1-.4.2-.7 0 0 0-.1-.1-.3z"/><path d="m118.8 60.1c.1-.2.1-.3.2-.4.1.2.2.3.2.5.1.1.1.3.2.4.1-.1.2-.2.3-.4.1-.3.2-.6.3-.9 0-.1.2-.2.4-.2.1 0 .2.1.2.2.3.6.2 1-.3 1.5-.1.1 0 .6.1.9.2.5.6.9.8 1.3.1.1 0 .3 0 .4-.1-.1-.3-.1-.4-.2-.3-.3-.5-.7-.8-1-.2-.4-.4-.1-.4.1-.1.2-.1.5-.1.7-.1.2-.2.3-.3.5-.1-.2-.2-.4-.2-.7 0-.2 0-.4-.1-.5-.1.1-.3.2-.4.3-.2.1-.4.3-.6.2-.1 0-.3-.3-.3-.5.1-.7.2-1.4.3-2.1 0-.1.2-.2.4-.3 0 .1 0 .2-.1.4-.1.6-.2 1.2-.3 1.8 0 .1.1.2.2.4.1-.2.3-.3.4-.5.2-.6.2-1.3.3-1.9z"/><path d="m105.3 56.9c-.2.5-.4.9-.7 1.2-.1.1-.3.3-.5.3-.1 0-.3-.2-.3-.4 0-1.1.1-2.2.2-3.3 0-.2.5-.4.7-.4s.4.2.5.4c.1.1 0 .3.1.5.1.1.2.3.2.4.1-.1.2-.2.3-.3.1-.3.2-.6.4-.8.1-.1.2-.3.2-.3.2.1.4.1.5.3.6.9.5 2.9-.2 3.7-.1.1-.6.2-.7 0-.4-.3-.6-.8-.5-1.3 0-.1-.1-.2-.2-.3.1.1 0 .1 0 .3m-.5.1c.1-.6.2-1.2.2-1.7 0-.2-.2-.4-.3-.5-.1.2-.4.4-.4.6-.1.6-.2 1.2-.2 1.8 0 .3.1.5.1.8.2-.2.3-.4.5-.6 0-.1 0-.2.1-.4m1.6.8h.2c.1-.6.3-1.2.3-1.8 0-.4-.2-.8-.3-1.2-.1.4-.3.8-.4 1.2 0 0-.1.1-.1.1 0 .5.1 1.2.3 1.7z"/><path d="m109.1 46.7c-.3 1 .2 1.7.5 2.6.1.2.1.4.1.6-.2-.1-.4-.2-.5-.3-.2-.4-.3-.8-.5-1.2-.1-.2-.2-.5-.4-.7-.1.2-.2.4-.2.6 0 .4.1 1.2-.5 1.1-.4 0-.3-.7-.1-1.2.2-1 .4-2 .6-3 .1-.3.5-.7.5-.7.4.2.8.4 1 .8.1.2.1.7 0 1-.2.1-.4.2-.5.4m-.6-.6c.1 0 .2.1.4.1.1-.3.2-.6.2-.9 0-.1-.1-.2-.2-.3-.1.1-.3.2-.3.3-.1.3-.1.5-.1.8z"/><path d="m121.9 57.3c-.2-.3-.3-.5-.5-.8-.2-.5-.4-.9-.7 0 0 .1-.1.1-.2.2-.4-.7-.6.1-.9.1s-.8.2-.8-.3c0-.8 0-1.7.1-2.5 0-.1.2-.3.3-.4v.5 2.2c0 .1.2.2.2.2.1-.1.3-.2.4-.4.1-.7.2-1.4.3-2.1 0-.2.1-.3.1-.4.1.2.2.3.2.5 0 .3-.1.6-.1.8 0 .1 0 .2.1.3.1-.1.3-.1.4-.2.1-.2.1-.5.2-.8 0-.2 0-.5.2-.7s.5-.3.8-.5c0 .3.2.7.1.9-.6.9-.3 1.7 0 2.5 0 .3-.1.6-.2.9m-.3-3.4c0-.2-.1-.3-.1-.5-.1.2-.2.3-.3.5.1.1.3.1.4 0z"/><path d="m94.7 56c0 .1-.1.3-.3.3-.8.1-.7.8-.6 1.3 0 .1.4.3.6.4.1.1.3.1.4.1-.1.1-.2.3-.3.3-.2.1-.5 0-.7.1s-.3.3-.3.4c0 .2.1.4.2.6.1.1.4.2.5.3-.2.1-.4.4-.6.3-.2 0-.6-.3-.6-.4 0-.8.1-1.6.1-2.4 0-.3 0-.6-.1-.7-.2-.1-.5-.1-.8 0-.1-.1-.2.2-.2.4-.1.8-.1 1.5-.2 2.3 0 .2-.1.3-.2.4-.1-.2-.2-.3-.2-.5 0-.7.1-1.3.1-2 0-.4 0-.8-.6-.7-.1 0-.2-.2-.4-.3.1-.1.2-.1.3-.1l3.3-.3c.2 0 .4.1.6.2z"/><path d="m101.2 47c.3-.4.4-.8.6-1.2.1-.3.2-.6.4-.9 0 .3.1.7.1 1-.1 1.2-.3 2.4-.5 3.6 0 .1-.1.2-.2.4-.1-.1-.2-.3-.2-.4 0-.5.1-.9.1-1.4 0-.2-.1-.5-.1-.5-.2 0-.6 0-.7.2-.2.4-.3.9-.4 1.4-.1.3-.1.8-.2.8-.6 0-.4-.5-.4-.8.1-1.1.3-2.2.4-3.3 0-.1.1-.3.2-.4.2-.2.5-.3.7-.4v.8c0 .2-.2.5-.3.7 0 .3 0 .5.5.4z"/><path d="m107.1 62.8c.1-.7.1-1.4.1-2.1 0-.6.5-1 1-.7s.9.9.8 1.4c-.3 1.1-.9 2.1-1.4 3.1-.1.1-.5 0-.8 0 0-.2.1-.3.1-.5.1-.3.1-.7.2-1.2m.8-.7c.1.3.1.6.2.8.1-.3.3-.6.4-.8.1-.1.1-.3.1-.4s-.1-.2-.2-.3c0 0-.2 0-.2.1-.1.2-.2.4-.3.6z"/><path d="m104.5 64.2c0 .6.2 1-.7.8-1-.2-1.1-.1-1.1-1.2 0-.8.1-1.6.2-2.4 0-.1.2-.3.3-.4.1.2.1.3.1.5v2.9c0 .1.2.2.2.2.1 0 .2-.1.3-.2.1-.6.2-1.1.3-1.7.1-.5.2-1 .3-1.6 0-.1.2-.2.2-.3 0 .1.1.3.1.4-.1 1-.1 1.9-.2 3z"/><path d="m112.7 70.7c-.4-.9-.4-1.7.2-2.5.1-.2.4-.2.7-.3.1.2.2.4.2.6v1.2c0 .7-.1 1.3-.2 2 0 .1-.2.2-.2.2-.5-.1-.9-.3-1.4-.5-.1 0-.1-.3-.1-.4.1 0 .2.1.3.1.1-.1.3-.2.5-.4z"/><path d="m93.3 74.3c-.1.2-.2.3-.3.4-.2.1-.5.3-.6.2-.2-.1-.4-.4-.4-.6.1-1 .1-2.1.3-3.1.1-.3.4-.6.7-.9s.5-.2.7.2c.4 1.2.4 2.5-.4 3.8m-.7.2c.1-.1.3-.2.4-.4.4-.9.6-1.9.3-2.9 0-.2-.1-.3-.2-.5-.1.1-.3.3-.3.4-.2 1.1-.4 2.2-.6 3.2.1.1.2.1.4.2z"/><path d="m114.2 61.4c0-.4 0-.7.1-1.1 0-.1.2-.3.3-.4.1.1.1.3.1.4v.5c0 .2.1.3.2.5.1-.2.1-.4.2-.6.2-.2-.4-.7.3-.8 0 0 .1.1.1.2-.1 1.2-.1 2.4-.2 3.5 0 .1-.2.4-.2.4-.3-.1-.8-.2-.8-.3-.1-.8-.1-1.5-.1-2.3z"/><path d="m112 59.3c.2.7.3 1.4.4 2.1.1.2.4.3.6.5.1.1.2.1.3.1-.1.1-.1.2-.2.2-1.2.3-.6 1.1-.6 1.8 0 .2-.1.4-.2.6-.1-.2-.3-.3-.3-.5 0-.3 0-.7 0-1 0-.2-.2-.6-.3-.6-.6-.1-.6-.5-.5-.9 0-.8 0-1.6.8-2.3m-.2 2.7c0-.3 0-.5 0-.8-.1.1-.2.1-.3.2-.1.3-.3.6.3.6z"/><path d="m109.8 56.1c-.2-.1-.4-.2-.4-.1-.2.6-.3 1.3-.5 1.9 0 .1-.1.2-.1.3-.1-.1-.2-.2-.2-.3 0-.7.1-1.5.2-2.2 0-.1.3-.1.4-.2.1-.3.2-.6.3-.9-.2-.1-.4-.1-.5-.2-.1 0-.1 0-.2.1 0-.1 0-.2 0-.3.1-.1.3-.3.4-.2.2.1.6.2.6.4.1.4.1.9.7.3.1-.1.4 0 .5 0-.1.1-.1.3-.3.4-.7.5-.7.9 0 1.4.1.1.2.2.3.3-.1 0-.2 0-.4 0-.1 0-.2.1-.4.1.1.1.1.1.2.2.1 0 .3.1.4.1-.1.1-.2.3-.3.3s-.3 0-.5 0c-.3-.4-.4-.8-.2-1.4z"/><path d="m99.2 57.5c-.1.3-.1.6-.2.8 0 .1-.1.2-.2.4 0-.1 0-.2-.1-.3 0 0-.2 0-.3.1s-.3.3-.4.4c0-.2-.1-.4-.1-.6.1-1 .2-1.9.3-2.9 0-.2.4-.4.6-.6.2.3.6.5.6.8.1.6-.1 1.2-.2 1.9m-.6-1.8v.4c0 .1.2.2.2.3.1-.2.1-.5.2-.7-.1 0-.2 0-.4 0z"/><path d="m115 56.7c-.1.2-.1.4-.2.5 0 .1 0 .1-.1.2 0-.1-.1-.2-.1-.2-.1-.4-.1-.9-.1-1.3 0-.6.1-1.1.2-1.7 0-.2.3-.4.5-.5 0 .2.1.3.1.5.1.3.2.7.3 1 .2-.3.4-.6.5-.9s.2-.6.3-.9c0 .3-.1.7-.1 1v2.8c0 .2-.1.3-.2.5-.1-.1-.2-.3-.2-.4-.1-.4 0-.8-.1-1.2 0-.2-.2-.3-.2-.5-.1.1-.4.2-.4.3-.2.3-.2.5-.2.8z"/><path d="m96.9 70.1c.6.1 1 .1 1.5.2.1 0 .2.1.3.1-.1.1-.2.1-.2.2-.2.3-.6.6-.6.9-.2 1.1-.2 2.2-.3 3.3 0 .2-.1.3-.2.5-.2-.3-.4-.4-.4-.6 0-.9 0-1.7.2-2.6.1-.8.3-1.4-.4-2-.1 0 0 0 .1 0z"/><path d="m112.7 53.6c.9.2.6.9.3 1.3-.5.6-.2 1.1-.1 1.6.1.2.2.3.2.5s-.1.3-.1.5c-.1-.1-.2-.1-.4-.2v-.1c-.1-.3-.3-.7-.4-1-.1.4-.2.8-.4 1.1 0 .1 0 .2-.1.3-.1-.1-.2-.2-.2-.3 0-.4-.1-.7 0-1.1.3-.9.2-2 1.2-2.6m-.2 1.2c.1-.2.3-.4.4-.6 0 0-.1-.1-.1-.2-.1.2-.3.3-.4.5-.1 0-.1.2.1.3z"/><path d="m102.1 60.9c.3.2.5.2.3.7-.5 1.1-1.1 2.1-1.1 3.4 0 .1-.1.2-.2.3-.1-.1-.3-.2-.3-.3 0-.8 0-1.6.1-2.4 0-.3.1-.6.1-.9.1-.8.3-.9 1.1-.8m-.2 1.4c.1-.1.2-.3.1-.4 0-.2-.2-.4-.3-.6-.1.2-.3.5-.3.7.1.1.3.2.5.3z"/><path d="m101.5 58.5c-.2.4-.3.6-.5.9 0-.3-.1-.6-.1-1s.2-.8.3-1.2 0-.8-.4-1.1c.3-.2.7-.2.7-.8.1-.5.1-.7-.5-.7-.2 0-.3-.1-.5-.2.2-.1.3-.2.5-.2.4 0 .8 0 1 .2.1.1.1.6 0 .8-.1.4-.6.9.3 1v.3c-1.1.2-.8 1.2-.8 2z"/><path d="m89.5 46.3c.6-.1 1-.1 1.5-.1.1 0 .2.1.3.1-.1.1-.2.1-.2.2-.3.1-.7.3-1 .3-.4 0-.5.2-.6.6-.2.4-.2.6.5.6.2 0 .4.2.6.3-.2.1-.4.2-.6.2-1.1-.1-.7.8-.8 1.3-.2.5-.1 1.1-.2 1.7 0 .1 0 .1-.1.2 0-.1-.1-.1-.1-.2 0-.3 0-.6 0-.9 0-.4 0-.8-.1-1.2-.1-.5-.1-.9.2-1.3.2-.3.1-.8.2-1.2 0-.2.2-.4.4-.6z"/><path d="m102.6 70c-1.4.2-1 1.4-1.2 2.3-.1.6-.2 1.2-.3 1.8-.1.5-.3.1-.3 0-.1-.5-.1-1-.2-1.5 0-.8-.1-1.6-.1-2.3 0-.1 0-.2 0-.3.7-.1 1.4 0 2.1 0z"/><path d="m116.9 60.1c.6.7.6 2.3 0 2.9-.1.1-.4.3-.6.2s-.5-.4-.5-.6c0-.8.1-1.7.3-2.5.2-.4.5-.5.8 0m-.1 1.1c0-.2 0-.3 0-.5-.1.1-.3.3-.3.4 0 .5 0 1 .1 1.6h.2c.1-.4.2-.8.2-1.2-.1-.1-.2-.1-.2-.3z"/><path d="m117.1 54.5c0-.5 0-1 .7-.9.2 0 .5.3.6.4 0 .9.1 1.9-.4 2.7-.2.2-.4.3-.6.5-.2-.2-.4-.5-.4-.7-.1-.7 0-1.3.1-2m.4 2.1c.5-.4.7-2 .4-2.4 0-.1-.1-.1-.2-.2 0 .1-.1.2-.1.2-.2.7-.3 1.4-.4 2.1-.1.1.1.2.3.3z"/><path d="m106.2 62.3h.4c0 .1 0 .2-.1.2-.2.1-.3.2-.5.2-.6.1-.5.6-.6 1 0 .6.4.3.6.3.1 0 .2 0 .3.1 0 .1-.1.2-.1.3-.2.1-.4.3-.5.2-.2-.1-.5-.3-.5-.4 0-.9-.1-1.8 0-2.7.1-.4.6-.8 1-1.1.1-.1.3.1.5.1-.1.1-.2.2-.3.3-.7.3-.9.6-.6 1.3 0 .2.2.2.4.2z"/><path d="m121 69.5c-.1.5 0 1-.2 1.4-.1.3-.4.5-.7.7-.1-.3-.4-.6-.3-.9.1-.6.3-1.3.4-1.9 0-.2-.1-.3-.1-.5 0-.1-.1-.2-.1-.2.1-.1.2-.1.2-.1.2.2.5.4.7.7.2.1.1.4.1.8m-.6.3v.8h.1c0-.3 0-.6-.1-.8z"/><path d="m117.1 72.5c-.1.2-.3.3-.4.4 0-.2.1-.4.1-.5.2-.7.3-1.3-.2-2-.1-.1.1-.6.2-.8.4-.4.1-.7-.1-1-.1-.1-.1-.2-.2-.3.2 0 .4-.1.5-.1.2.3.5.6.6 1 .1.7.1 1.3 0 2-.1.4-.4.8-.5 1.3z"/><path d="m96 57c-.4-1-.1-1.9.7-1.8.2 0 .3.1.5.2-.1.1-.2.2-.3.3-.6.3-.7.5-.3 1.7.3.6 0 1.5-.6 1.9-.2.1-.4 0-.6 0 .1-.1.2-.3.3-.4.6-.6.6-1.2.3-1.9z"/><path d="m110.3 73.5c-.1-1.2-.1-2.4 0-3.5 0-.6-.3-.5-.7-.6-.2 0-.4 0-.7-.1.2-.1.4-.2.7-.2.5-.1 1.1-.1 1.6-.2.1 0 .2.1.3.1-.1 0-.2.1-.2.1-.5.1-.7.4-.7.9v3.1c0 .2-.2.3-.3.4z"/><path d="m94.5 66c-.1 0-.2 0-.3 0 0-.1 0-.2.1-.2 1.6-.6.7-1.6.5-2.5-.2-.8.1-1.4.9-1.6.2 0 .3.1.5.1-.1.1-.2.1-.3.2-.7.3-.8.7-.5 1.4.6 1.7.5 2.2-.6 2.8-.2-.1-.2-.1-.3-.2z"/><path d="m95 73.9c-.2.1-.4.2-.6.2.1-.2.2-.4.3-.5.8-.7.3-1.5.2-2.2-.1-.9.5-1.7 1.2-1.7.1 0 .2.1.3.2-.1 0-.2.1-.3.1-.7.1-.9.8-.7 1.6.3.9.4 1.7-.4 2.3z"/><path d="m119 72c-.2 0-.4 0-.4 0-.1-1.1-.1-2.2-.1-3.2 0-.2.5-.3.7-.5.1.2.3.4.3.6 0 .9-.1 1.7-.1 2.6-.1.1-.2.3-.4.5m-.2-.8c.2 0 .3 0 .5.1 0-.7 0-1.4 0-2.1 0-.1-.1-.2-.2-.3-.1.1-.2.2-.2.4-.1.5-.1 1.1-.1 1.9z"/><path d="m109.7 63.2c.3-.7.5-1.3.7-2 0-.1-.1-.3-.1-.5-.2.1-.3.1-.5.2-.1 0-.2.1-.3.2 0-.1-.1-.3 0-.4.3-.2.6-.5.9-.5s.6.3.3.8c-.3.7-.5 1.5-.8 2.3v.4h.7.4c-.1.1-.2.2-.3.2-.1.1-.3.1-.4.1-.2 0-.5 0-.7 0 .1-.1.1-.4.1-.8z"/><path d="m90.6 75.1c.2.1.4.1.6.2-.1.1-.3.1-.4.2-1 .3-1.1.3-1.1-.7 0-.9.1-1.7.2-2.6 0-.2.1-.3.2-.5.1-.1.2-.2.3-.3 0 .1.1.3.1.4-.1.9-.2 1.9-.3 2.8-.1.3-.1.5.4.5z"/><path d="m115.8 69.8c-.4.7-.8 1.5-1.1 2.2-.1.1-.1.4 0 .4.1.1.3.1.4.1.4-.1.7-.5 1.1-.2-.3.1-.7.3-1 .4s-.7.1-1 .1c.1-.4.3-.7.4-1.1.3-.7.7-1.4 1-2.1 0-.1-.1-.4-.1-.4-.2 0-.4 0-.6.1-.1 0-.3.1-.4.1.1-.1.2-.2.4-.3.3-.1.7-.2 1-.4-.1.3-.1.7-.1 1.1z"/><path d="m103.9 70.8c.1-.2.1-.5.2-.6.2-.3.6-.4.8-.7-.1.2-.3.5-.4.7-.1.9-.2 1.7-.3 2.6-.1.5.3.3.5.3.1 0 .2 0 .4.1-.1.1-.2.2-.3.2-.7.2-1.2-.1-1.2-.8 0-.6.2-1.2.3-1.8z"/><path d="m91.1 49.2c.1-.5.2-1 .3-1.5.1-.2.2-.4.4-.6.1-.1.2-.1.4-.1 0 .1.1.2 0 .4-.2 1-.4 2-.6 3.1 0 .1-.1.2-.2.3-.1-.1-.3-.2-.3-.4-.1-.5-.1-.8 0-1.2z"/><path d="m102.6 70.1c.4.2.5.4.3 1s0 1.4-.1 2.1c0 .1-.2.3-.3.4-.1-.1-.3-.3-.3-.4.1-1 .3-2 .4-3.1z"/><path d="m103.5 68.3c-.1 0-.2 0-.3 0 0-.1 0-.2 0-.2h.4s0 .1-.1.2c.1-.1.1-.1 0 0z"/><path d="m118 72.3c-.1.1-.2.1-.2.1 0-.1.1-.3.1-.4 0 .1.1.2.1.3z"/><path d="m106 36c.3-1.2.5-2.4.9-3.5.2-.6.4-1.1.6-1.6.1-.4.3-.4.7-.2.8.4 1.5.9 1.3 1.9 0 .1.1.2.1.4.1-.1.2-.2.2-.3.3-.4.5-.9.7-1.4 0-.1 0-.2 0-.3 0-.2 0-.4 0-.6.2.1.6.1.7.3.2.5.4 1.1.5 1.7.1.8.1 1.6-.2 2.4s-.3 1.8-.5 2.7c0 .2-.2.3-.3.5-.1-.2-.3-.4-.3-.5 0-.7.1-1.4.2-2.1 0-.2 0-.3 0-.5-.3.1-.7.1-.8.3-.4.8-.7 1.6-1.1 2.4-.1.2-.2.3-.4.4-.1-.2-.3-.5-.2-.7.3-1 .7-2.1 1.1-3.1 0-.1 0-.3 0-.4-.1.1-.3.1-.4.2-.4.2-.9.4-1.2.7-.2.2-.5.4-.5.7-.3 1.5-.5 3.1-.8 4.6 0 .1 0 .3-.1.4-.1-.1-.4-.2-.4-.4-.1-.5-.2-1.1-.2-1.6.2-.9.3-1.6.4-2.4m2.6-4.5c-.3-.4-.3-.5-.4-.2-.2.6-.4 1.2-.6 1.8-.1.4.2.5.5.4.7-.2 1-1.3.5-2m2.4 1.6c-.1-.2-.2-.5-.4-.1-.2.3-.2.7-.2 1 0 .1.1.1.2.2.2-.3.3-.5.5-.8-.1-.1-.1-.2-.1-.3z"/><path d="m95.5 32.1c.5-.4 1.1-.3 1.4.2.2.4.2 1 0 1.4-.4.6-.5 1.1-.5 1.8.1.6-.4 1.3-.7 1.9-.2.4-.6.7-1 1-.2.1-.5.3-.6.2-.2-.1-.3-.4-.3-.6 0-.4.2-.9.2-1.3 0-.2 0-.4 0-.6-.1.1-.3.2-.4.3-.6.7-1 1.5-1.7 2.1-.2.2-.8.3-1.1.2s-.6-.6-.5-.9c0-.7.2-1.5.4-2.2.3-.8.7-1.6 1.1-2.4.1-.2.3-.2.5-.4 0 .2.1.4.1.5-.4 1.2-.9 2.5-1.4 3.7 0 .1-.1.2-.1.3 0 .3.1.6.1.9.2-.2.4-.3.6-.5 1.5-1.4 2.3-3.1 2.3-5.1 0-.1.2-.2.2-.3.1.1.2.2.2.3.1.3.1.6.2.9.1-.3.2-.6.4-.9.2 0 .4-.3.6-.5m.2 3.2c-.1-.2-.2-.4-.4-.5 0 0-.2 0-.2.1-.2.7-.4 1.5-.6 2.2 0 .1.1.2.1.2.1 0 .3 0 .3-.1.3-.6.6-1.2.8-1.9m.2-1.4c.2-.3.4-.7.5-1 .1-.1 0-.3.1-.4-.2 0-.4-.1-.5 0-.4.1-.6 1.2-.4 1.5 0 .1.1 0 .3-.1z"/><path d="m118.8 31.9c.2-.4.3-.7.5-1.1.1.4.3.8.2 1.1-.4 1.6-.8 3.3-1.2 4.9-.2.6-.6.8-.9.5-.1-.1-.1-.3-.1-.4.1-.5.1-1.1.2-1.6.1-.7-.4-.9-.9-1-.4-.1-.6.1-.6.5 0 .5-.2 1-.3 1.5 0 .1-.2.2-.4.4-.1-.1-.2-.3-.2-.4.1-.9.2-1.8.2-2.8s.8-1.8.4-2.9c-.1-.2.2-.5.3-.8.2.3.4.5.5.8s.1.6.2.9c.2-.2.5-.3.7-.5.1-.1.3-.1.5-.1s.3.1.5.1c-.1.1-.1.3-.2.4-.4.4-.9.8-1.3 1.3-.2.3-.4.8-.3 1 .2.3.6.5 1 .7.1 0 .4-.2.5-.4.3-.7.5-1.4.7-2.1z"/><path d="m113 36.6c-.1.2-.1.3-.2.4-.1.2-.2.3-.4.5-.2-.3-.5-.5-.5-.8.4-2 .9-3.9 1.3-5.9.1-.5.4-.9.9-.8.4.1.9.6.9.9 0 .7-.2 1.4-.6 1.9-.4.6-.7 1.1-.3 1.8.1.1.2.3.1.5 0 .2-.1.3-.2.5-.1-.1-.3-.2-.4-.3s-.2-.3-.3-.4c-.1.2-.2.3-.3.5.1.5.1.8 0 1.2m1-4.9c.1.2.1.4.2.6.1-.2.3-.4.4-.7v-.1c-.1-.3-.2-.6-.3-.8-.1.2-.2.4-.3.6-.1.1-.1.2 0 .4z"/><path d="m102.4 37.1c-1.1-1.9-.7-4.2 1.2-5.3.2-.1.4-.2.5-.2.2.1.5.2.7.3-.1.1-.2.3-.3.4-1.2.8-1.7 1.9-1.3 3.4v.7c.1.2.2.4.4.6.1.1.2.2.4.4-.2.1-.4.3-.5.2-.4-.1-.7-.3-1.1-.5z"/><path d="m96.8 36.9c.5-1.6 1.1-3.1 1.7-4.6.1-.2.3-.4.5-.6.1.3.5.6.4.8-.4 1.4-1 2.9-1.5 4.3-.2.5-.2.8.4 1 .2.1.4.3.6.5-.3 0-.7.2-1 0-.5-.3-1.3-.4-1.1-1.4z"/><path d="m90.7 34.1c0 .7-.3 1.3-.9 1.4-1 .3-1.1 1-1.2 1.8-.1.6-.2 1.2-.3 1.8 0 .2-.2.3-.3.5-.1-.2-.4-.5-.4-.7.1-.7.3-1.4.4-2.1.2-1 .5-2 .8-3 .1-.6.6-.9 1.1-.9.6.1.9.6.8 1.2m-1.5.6c.1.2.2.3.3.5.2-.4.4-.8.6-1.2 0-.1-.1-.3-.2-.3s-.4 0-.4.1c-.1.2-.2.5-.3.9z"/><path d="m100.6 32.5c.1-.3.2-.4.3-.6.2.2.5.4.5.6 0 .9-.1 1.8-.3 2.7s-.4 1.9-.6 2.8c0 .2-.2.4-.2.6-.2-.2-.5-.5-.5-.7 0-1 .1-1.9.3-2.9 0-.9.3-1.6.5-2.5z"/><path d="m120 29.3c-.2-.1-.3-.2-.5-.3.1-.1.1-.1.2-.2.1.2.3.4.3.5z"/><path d="m213.4 7.5c.7-.3 1.3-.7 1.9-.9.1-.1.4.1.6.2-.1.1-.2.3-.3.4-.6.3-1.2.5-1.8.7-.1 0-.3-.2-.4-.4z"/><path d="m222.1 4.4h.4c-.1.1-.1.1-.2.2-.2.1-.4.2-.6.3-.3.1-.6.2-1 .2.3-.2.6-.3.9-.5.2 0 .3-.1.5-.2z"/><path d="m68.3 87.1c.2 0 .4.1.5.2-.2.1-.3.1-.5.2.1-.1 0-.3 0-.4z"/><path d="m3.8 138v.5s-.1 0-.2 0c.1-.2.1-.3.2-.5z"/><path d="m169.2 26.4c0 .1 0 .2-.1.3 0 0-.1 0-.2 0 .1-.1.2-.2.3-.3z"/><path d="m263 189c.1.3.2.5.1.8 0 .1 0 .2.2.2.4 0 .7 0 1.1.1.2 0 .4.1.6.2.3 0 .6.1.9.1s.3 0 .4.3c0 .1.1.1.1.2 0 0 .1 0 .1.1.2.1.2.2.1.3-.2.2-.1.4-.1.6s0 .3-.2.4-.4.1-.4-.1c0-.1-.1-.2-.2 0-.3.3-.7.7-1.1.8-.1 0-.1.1-.1.1-.4.4-.8.7-1.2 1-.3.2-.5.5-.7.7 0 0-.1.1-.1.1-.5.2-.7.6-1.1.9-.3.3-.5.6-.8.9-.1.1-.1.2-.1.3.1.2 0 .2-.1.3s-.2.1-.3.2c-.2.1-.4.1-.6 0s-.4-.3-.7-.1c-.1 0-.2 0-.2 0-.2 0-.4 0-.6 0-.9 0-1.9.1-2.8.1-.2 0-.5-.1-.7-.2-.3-.1-.6-.1-1-.2-.1 0-.1 0-.2 0s-.2-.1-.3-.1-.2 0-.3 0-.2 0-.3 0c-.4 0-.8 0-1.2-.1-.2.1-.5 0-.7.1-.5 0-1-.1-1.5-.2s-1-.3-1.5-.2c-.2 0-.5-.1-.7-.1s-.4-.1-.5-.1c-.6-.1-1.2-.3-1.8-.5-.3-.1-.5-.1-.8-.2-.2-.1-.5-.2-.4-.6-.2-.4-.1-.9-.2-1.3.1-.1.1-.3.3-.4.3-.1.5-.3.8-.4.5-.2.9-.6 1.4-.9.3-.2.5-.4.7-.6.1-.2.3-.2.5-.1h.2c.4-.3.9-.4 1.4-.6.3-.1.7-.1 1-.3.3-.1.6-.3.8-.5.1-.1.2-.2.1-.3v-.1c0-.8 0-1.5-.1-2.3 0-.3-.1-.6 0-.9s0-.6 0-.9c0-.1 0-.3 0-.4s.1-.2 0-.4c0-.4.1-.8-.1-1.2.2-.2 0-.4 0-.7.1-.2 0-.5 0-.8 0-.4-.1-.7-.1-1.1 0-.1 0-.2 0-.4-.1-.7-.1-1.4-.1-2.1.1-1.6 0-3.2.1-4.8 0-.1.1-.3-.1-.4v-.1c.1-.2.1-.4 0-.5-.1-.2 0-.5-.1-.7 0-.6 0-1.2.1-1.7 0-.3 0-.6 0-.9 0-.2 0-.4.1-.5 0 0 0-.1 0-.2-.1-.3 0-.6-.1-.9 0-.1.1-.3.1-.4 0-.3-.1-.6-.1-.9 0-.4-.2-.8 0-1.2.1-.3.1-.6.1-.9 0-.4 0-.7 0-1.1 0-.9.1-1.7.1-2.6 0-.7 0-1.3-.1-2-.1-.2 0-.4 0-.6 0-1.1 0-2.2-.1-3.3-.1-.8-.1-1.5-.1-2.3-.1-.6 0-1.3 0-1.9 0-1-.1-2.1-.1-3.1 0-.3 0-.7 0-1s0-.6 0-.9c.1-.5 0-1.1.1-1.6.1-.7.1-1.4 0-2.2s0-1.7 0-2.5c.1-.3.1-.7.1-1 .1-.4 0-.8 0-1.2 0-.2 0-.5 0-.7.1-.3.1-.7 0-1.1 0-.3-.1-.7 0-1 .1-.4.1-.8.1-1.2 0-.1 0-.2 0-.3s0-.3 0-.4 0-.2.1-.4c0-.1 0-.1 0-.2-.1-.2-.1-.3-.1-.5 0-.6 0-1.1 0-1.7 0-.5.1-1 .1-1.5 0-.6-.1-1.3 0-1.9 0-.7 0-1.4.1-2.1 0-.4 0-.8 0-1.2 0-.2-.1-.3.1-.5.1-.1.1-.2.2-.2s.2 0 .3-.2c.2-.3.5-.7.9-.8.3-.1.6-.3.9-.4.4 0 .7-.2 1.1-.3.4 0 .8-.1 1.2-.2.2 0 .4 0 .7.1.2 0 .5.1.7.1.5.1.9.4 1.2.6.2.2.4.3.5.6 0 0 .1.1.1.1.2.1.2.2 0 .3 0 0-.1 0-.1.1-.2.1-.2.2-.1.3s.1.3.1.5c-.1.5-.1 1 0 1.4v.3c-.1.3-.1.7 0 1v.1c0 .6 0 1.2.1 1.8.1.8 0 1.6.1 2.4.1 1.1.1 2.2.1 3.2 0 .5 0 1 .1 1.5v.8.2.3.2c0 .2-.1.3-.1.5 0 .1.1.3 0 .4 0 .1 0 .3.1.5.1.4.1.9 0 1.3v.2 1c0 .5 0 1 .1 1.4v.4c0 .1.2.2 0 .3.2.4 0 .8.1 1.1v.2 1.2c0 .8-.1 1.6-.1 2.4 0 .7 0 1.4.1 2 .1.5 0 1 .1 1.5 0 .3.1.6.1.9.1.3 0 .6 0 1 0 .2-.1.4-.1.6 0 .9-.1 1.8-.1 2.6 0 .2.1.5.1.7v.1c.4.2.1.5.1.7v.8.7.1c.1.2 0 .4 0 .5v.6c.1.3 0 .6.1.9v.5.5.2c-.1.2-.1.3 0 .5 0 .2.1.4 0 .5.1.2.1.4.1.5v1.3c0 .1 0 .2-.1.3v.2c.1.4.1.8.1 1.2 0 .1.1.3 0 .4s0 .3 0 .4c0 .3 0 .6.1.8v.1.6.5.2.4.2c.1.3.1.6 0 .9v.1c.1.3 0 .6.1.9v.2 1.3c0 .6 0 1.2.1 1.8.1.5 0 .9.1 1.4.1.4 0 .7.1 1.1.1.3-.1.7.2 1v.1c0 .5.1.9.1 1.4 0 .3 0 .5.1.7v.3c-.1.4 0 .9-.1 1.3 0 .2.1.4.1.6-.1 1 0 1.9-.1 2.9 0 .1-.1.3-.1.4.1.4.1.7 0 1.1 0 .2.1.4 0 .6.1.4 0 .8.1 1.2 0 .1 0 .1.1.1.3-.2.7 0 1 .1.1 0 .1 0 .1-.1 0-.5.1-.9.4-1.2.2-.2.5-.3.7-.1.1.1.2.2.3.3.4.2.5.4.6.6m-9.2-65.6c-.1 0-.2-.1-.3-.1s-.2.1-.3.1c-.3.1-.5 0-.8 0-.1 0-.2-.1-.3-.2 0 0 0-.1 0-.2h.1c.2.1.3 0 .5.1s.3 0 .5 0h.2c.2 0 .3.1.5 0s.4 0 .5-.1c.5 0 .9 0 1.4-.1h.1c.5-.2.9-.4 1.4-.7.1 0 .2-.1.1-.2-.1-.2-.1-.5-.3-.6-.1-.1-.2-.2-.2-.2 0-.2-.2-.3-.3-.3-.3-.1-.6-.1-.9-.2s-.5-.1-.8 0c-.4 0-.8.1-1.2.3-.4.1-.8.2-1.2.5-.3.2-.6.4-.8.8 0 0-.1.1-.1.1s0 .1-.1.1c-.3.1-.3.1-.3.4v.2c-.1.4-.2.9-.2 1.3v1c0 .2-.1.3-.1.5 0 .3 0 .5.1.8v1.1c0 .8.1 1.7 0 2.6v.2c.1.5.1 1 .1 1.4 0 .3 0 .5-.1.8 0 .5 0 1-.1 1.5-.1.4 0 .8 0 1.3 0 .1.1.2.1.3-.1.2-.1.3-.1.5 0 .3.1.6.1.9v1.8 3.2c.1.7 0 1.4-.1 2.2-.2.4 0 .8-.1 1.1s-.1.7 0 1v.1c-.1.1-.1.2-.1.3v1.4c.1.7 0 1.4.1 2.1 0 .2-.1.4-.1.6 0 .5 0 1 .1 1.5s0 .9.1 1.4c.1.4 0 .8.1 1.2 0 .7.1 1.5 0 2.2 0 .3-.2.7 0 1.1 0 .9.1 1.8-.1 2.7v1 .9.3.4c-.1.3-.1.7-.1 1-.1.5.1.9.1 1.4s.1 1 0 1.6v.3c0 .3.1.5.1.8 0 .1-.1.3-.1.4 0 .5.1.9.2 1.4 0 .3.1.6-.1.7s-.3.3-.2.5v.6c.2.5.2 1 .2 1.5 0 .3.1.7 0 1s0 .6 0 .9c.1.4.1.9.1 1.3v1.4c0 .6-.1 1.3 0 1.9.1.3 0 .7.1 1s0 .6 0 .9v.9c0 .2.1.4.1.5v1c0 .1-.1.3-.1.4.1.4 0 .8.1 1.2v.2.2c0 .3.1.6 0 1-.1.3-.1.6 0 .9.1.4.2.8.2 1.2v.3.1h.1c0-.1.1-.2.1-.3.1-.1.3-.3.5-.3s.4.3.4.5c0 .3 0 .6.1.9 0 .1 0 .1.1.1.2 0 .4.2.6.3.1.1.2.2.2.3-.1.2 0 .3.2.3.7.2 1.4.3 2-.1.3-.1.6-.2 1-.3.2 0 .3-.1.5-.2.2-.2.4-.3.7-.5.1-.1.2-.2.3-.1s.1.2.1.4c0 .2-.1.3-.2.4v.1c.1-.1.3-.1.3-.2.1-.2.1-.4.1-.6s-.1-.3-.2-.5c-.1-.3-.1-.6.2-.8.1 0 .2-.1.2-.2 0-.5.1-1.1.1-1.6.1-.9 0-1.9.1-2.9.1-.6 0-1.2.1-1.8 0-.3.1-.7 0-1 0-.1 0-.1 0-.2.1-.3.1-.6.1-.9 0-.2 0-.3-.2-.4-.1-.1-.2-.1-.2-.2 0-.2-.1-.3 0-.5 0-.1 0-.2 0-.3-.1-.1 0-.3-.1-.4 0-.1-.1-.3-.1-.4 0-.3 0-.6 0-.9s-.1-.6 0-.9c0 0 0-.1 0-.2 0-.3-.1-.6-.1-.8s0-.3 0-.5c-.1-.4-.1-.9-.1-1.3 0-.9 0-1.8-.1-2.7 0-.1 0-.1 0-.2s0-.1 0-.2.1-.2.1-.3c0-.9 0-1.8 0-2.6 0-.2-.1-.4-.2-.4-.2-.1-.2-.3-.2-.5 0-.4 0-.8-.1-1.2-.1-.3 0-.5 0-.8s0-.5 0-.8c0-.1 0-.1 0-.2-.1-.4-.1-.8-.1-1.3 0-.1.1-.3 0-.4-.1-.3 0-.5 0-.8-.1-.5 0-1-.1-1.5s0-1 0-1.6c0-.1 0-.2.1-.3 0-.2.1-.4.1-.6 0-.3 0-.5.1-.8 0-.1 0-.1.1-.2.1-.3.1-.4 0-.7 0-.1-.1-.2 0-.3s.1-.2.1-.3c0-.3 0-.6-.1-.9 0-.4.1-.8 0-1.2v-.1c.1-.4.1-.9.1-1.4.1-.5-.1-1-.1-1.6 0-.7-.1-1.3-.1-2-.1-.7-.1-1.5-.1-2.2 0-.3.1-.6.1-.9 0-.8 0-1.6 0-2.5-.1-.7 0-1.4-.1-2.1 0-.2 0-.4 0-.6s0-.4 0-.6 0-.4 0-.5c0-1.6 0-3.1.1-4.7 0-.1 0-.1 0-.2-.1-.6-.1-1.2-.1-1.9s0-1.5-.1-2.2c-.1-.5 0-1.1-.1-1.7 0-.2.1-.4 0-.6 0-.1.1-.2 0-.3-.1-.2 0-.4-.1-.6 0-.5.1-.9-.1-1.4 0-.1 0-.3 0-.5 0-.1-.1-.3 0-.4.1-.2 0-.3 0-.4 0-.4 0-.8 0-1.2 0-.2 0-.4.2-.6v-.1h-.1c-.1 0-.1 0-.2.1-.3.1-.6.3-.9.4s-.6.1-.9.1c-.7.7-1.2.6-1.8.6m7 67.9c-.2 0-.4.1-.6-.1-.1-.1-.2-.1-.3 0s-.2.1-.3.1h-.1c-.1 0-.1.1-.2.1.1.1.1.2.2.2s.2 0 .4.1c.1 0 .2.1.3.2.1.2.1.4.1.6 0 .4 0 .7.1 1.1v.1c.1.2 0 .4-.2.5-.1.1-.2.1-.3.2-.3.2-.3.2-.5.2-.1 0-.3 0-.5-.1-.3-.1-.5-.5-.4-.9 0-.1.1-.3.1-.4 0-.2 0-.4 0-.6-.2 0-.3 0-.5 0-.1 0-.3 0-.4.1-.3.2-.6.3-.9.4-.4.1-.8.2-1.2.1-.2 0-.4 0-.6.1s-.4.2-.5.2c-.2.1-.4.1-.7.1-.2 0-.3-.1-.5-.2s-.3-.1-.5-.2c-.4-.1-.8 0-1.2-.1-.1 0-.2 0-.3-.1-.7-.2-.9-.7-1.2-1.2-.1-.2-.2-.3-.4-.1-.1.1-.2.1-.2.1-.3.1-.5.2-.8.3-.3.2-.6.4-.8.6-.1.1-.3.1-.3.3v.5.1c.2 0 .3.1.5 0 .2 0 .3 0 .3.1 0 .2 0 .3-.2.4s-.4.1-.5.1c-.3 0-.5.1-.8 0h-.1s0 .1.1.1h.2c.3 0 .6.1 1 .2.1 0 .2.1.4.1.4 0 .8.1 1.3.1s1 .1 1.5.1h.8c.2-.1.4 0 .5 0h.7.6c.3 0 .5-.2.8 0h.1c.4-.1.8-.1 1.2 0 .4 0 .8.1 1.1.1h.3c.1 0 .3 0 .4.1.1 0 .3 0 .4.1.2 0 .4 0 .7.1.1 0 .2.1.3.2.2.1.4.2.5 0 .2-.2.6-.3.8-.7 0-.1.1-.1.2-.2.2-.2.4-.3.6-.4.5-.5 1-.9 1.5-1.4.3-.3.7-.6 1.1-.8.5-.3.9-.5 1.3-.9 0 0 .2-.1.1-.1 0 0-.1 0-.2 0s-.1 0-.2 0c-.5-.1-.9-.3-1.4-.2-.1 0-.2 0-.2.2s-.1.2-.2.2c-.2 0-.5.1-.7.3-.1.1-.2.1-.3.1-.1-.1-.2-.1-.3-.2-.1-.2-.2-.3-.2-.5 0-.1 0-.2-.1-.2s-.3-.1-.5-.1c0 0-.1.1-.1.2 0 .2-.1.4.1.5-.1-.1-.1 0-.2.1m-10.1 4.9c.2 0 .4-.1.6-.1.3 0 .6 0 .9.1.5 0 1 .1 1.5.1.3.1.6.1.9.2.5.1 1 .2 1.5.2.7 0 1.3 0 2-.1.2 0 .3.1.5-.1h.1.6s.1 0 .1-.1c.1-.3-.1-.7-.4-.7-.4 0-.7-.3-1.1-.2-.3 0-.6-.1-.9-.2-.5 0-.9-.1-1.4-.1-.9 0-1.7-.1-2.6 0-.3 0-.6 0-.9-.1-.9 0-1.9 0-2.8-.1-.4 0-.8 0-1.2-.1h-.1c-.4-.1-.7-.2-1.1-.2-.2 0-.4-.1-.6-.1s-.5-.1-.7-.1c-.4-.1-.7-.1-1.1-.1-.1 0-.1-.1-.2 0 0 .1 0 .2.1.2.2.1.5.2.7.2s.4 0 .5.1c.1 0 .2.1.4.1.3.1.7.1 1 .2.6.2 1.1.2 1.7.2.2 0 .4 0 .5.1.2.1.4.2.6.1h.3c.1.5.3.6.6.6m12.1-2.7c-.3.3-.5.6-.9.8-.6.4-1 .9-1.6 1.3 0 0-.2.1-.1.3.1.1 0 .3-.1.4s-.2 0-.2.2c0 .1.1.2.1.3 0 0 .1.1.1 0 .1-.2.3-.4.4-.6.2-.3.5-.7.8-1 .2-.2.4-.5.7-.7.6-.5 1.1-1.1 1.7-1.6 0 0 .1-.1.1-.1s.1-.1.1-.1c-.1 0-.2 0-.2.1-.1 0-.1.1-.2.2-.2.1-.5.3-.7.5m-14.4-1.8s.1 0 .1-.1c.2-.2.4-.3.6-.3s.4-.2.7-.3c.1 0 .1-.1.1-.1 0-.2.2-.3.4-.4.1 0 .1-.1.2-.1v-.1h-.1-.1c-.3.2-.7.4-1.1.5-.3.1-.7.2-1 .4-.2.1-.4.3-.6.3-.1.1-.1.2-.1.3s0 .1.1.2c0 .1.1.1.2 0s.4-.2.6-.3m4.2.2c.1 0 .2 0 .4.1.1.1.1 0 .1-.1-.1-.1-.2-.3-.3-.3-.3-.1-.3-.1-.3-.5 0-.3 0-.6.1-.9 0-.1 0-.1 0-.2 0 .1-.1.1-.1.2v.1c-.1.3 0 .5-.2.8-.1.2 0 .4.2.5-.1.2 0 .2.1.3m-.8.8h.2.2s0 0 .1-.1h-.1c-.1-.1-.3-.1-.4-.2-.2-.1-.4-.2-.4-.4-.1-.2-.2-.4-.4-.5 0 0-.1-.1-.1-.1v.2c.1.5.4.9.9 1.1m-6.6.6c.3-.1.5-.2.8-.3.2 0 .1-.2.1-.2-.1 0-.1 0-.2 0s-.2.1-.3.1c-.3.2-.6.3-1 .5 0 0 0 0-.1.1h.1c.3-.1.5-.1.6-.2m14.4.1v.5s.1.1.1.1v-.1c0-.3 0-.7-.1-1 0-.2 0-.4-.1-.6 0 0 0-.1-.1-.1h-.1c0 .2-.1.4 0 .6.1.1 0 .2.1.3.2.1.2.2.2.3m.8-2.9v-.1c0-.1.1-.1.1-.2-.1 0-.1-.1-.2-.1s-.2 0-.2.1-.1.3 0 .4c.2.1.3.1.3-.1m-1.3 3c0-.1 0-.1 0-.2v-.1s-.1 0-.1.1c0 .2-.1.5.1.7 0 0 0 0 .1.1v-.1c0-.2-.1-.3-.1-.5m-12.9 0c-.1.1-.1.1 0 0-.1.1 0 .1 0 .1h.4.1s-.1-.1-.1-.1c-.1 0-.2 0-.4 0m.7-1.5c0 .1 0 .2-.1.3 0 0 .1.1.1.1s.1-.1.1-.1c0-.1-.1-.2-.1-.3m9.1.7c.1 0 .2 0 .3-.1 0 0 .1 0 .1-.1v-.1c-.3.1-.4.1-.4.3z"/><path d="m256.7 196.6c0-.1 0-.1 0 0 0-.1 0 0 0 0z"/></g></svg>