<?xml version="1.0" encoding="utf-8"?>
<!-- Generator: Adobe Illustrator 26.2.1, SVG Export Plug-In . SVG Version: 6.00 Build 0)  -->
<svg version="1.1" id="Layer_1" xmlns="http://www.w3.org/2000/svg" xmlns:xlink="http://www.w3.org/1999/xlink" x="0px" y="0px"
	 viewBox="0 0 96.9 176.1" style="enable-background:new 0 0 96.9 176.1;" xml:space="preserve">
<style type="text/css">
	.st0{fill:#fff;}
</style>
<g>
	<path class="st0" d="M55.6,80.9c-0.5,0.1-0.9,0.1-1.4,0.2c-0.1,0-0.1,0-0.2,0c-1.1,0-2.3,0.1-3.4,0.1c-0.6,0-1.2,0.1-1.9,0.2
		c-0.1,0-0.2,0-0.3,0c-0.4,0-0.9,0-1.3,0c-0.7,0-1.4,0.1-2.1,0.2c-0.1,0-0.3,0-0.4,0c-1.3,0-2.5,0-3.8,0.1c-0.6,0.1-1.2,0.1-1.8,0.3
		c-0.3,0.1-0.6,0-0.9,0c-0.4,0.1-0.7,0-1,0c-0.4,0-0.8,0-1.1,0c-0.3,0-0.5-0.1-0.8-0.1c-0.4-0.1-0.8-0.2-1.2-0.2c-0.4,0-0.8,0-1.3,0
		c-0.5,0-0.9,0-1.4,0c-0.4,0-0.7-0.1-1.1,0.1c0,0,0,0-0.1,0c-0.4-0.2-0.8,0-1.3,0c-0.3,0-0.7,0-1,0.1c-0.2,0-0.3,0.3-0.4,0.4
		c-0.3,0.4-0.9,0.5-1.3,0.3c-0.4-0.2-0.7-0.5-0.7-1c-0.1-1.2-0.1-2.3-0.1-3.5c0-0.5,0-0.9,0-1.4c0-0.4,0-0.8-0.4-1.1
		c0,0,0-0.2,0-0.2c0.2-0.1,0.2-0.3,0.2-0.5c0-0.5,0-1.1,0-1.6c0-0.4,0-0.5,0.5-0.4c0.2,0.1,0.2-0.1,0.2-0.2c0-0.5,0.1-1,0.4-1.4
		c0.2-0.3,0.5-0.6,0.7-0.9c0.4-0.6,0.8-1.1,1.2-1.7c0.6-0.9,1.2-1.7,1.8-2.6c0.5-0.7,0.9-1.3,1.3-2c0.3-0.4,0.6-0.8,0.9-1.2
		c0.1-0.2,0.2-0.4,0.3-0.5c0.1-0.1,0.1-0.3,0.2-0.4c0.7-0.4,1.1-1.1,1.5-1.7c0.5-0.6,0.9-1.2,1.4-1.9c0.5-0.6,1-1.3,1.4-1.9
		c0.2-0.3,0.5-0.6,0.7-0.9c0.1-0.2,0.3-0.4,0.4-0.5c0.8-0.7,1.3-1.6,1.9-2.5c0.4-0.5,0.7-1,1.1-1.5c0.7-0.9,1.4-1.8,2.1-2.8
		c0.4-0.5,0.9-1.1,1.3-1.6c0.7-0.9,1.4-1.9,2.1-2.8c0.4-0.5,0.7-1,1-1.5c0.4-0.6,0.9-1.2,1.3-1.7c0.5-0.7,1.1-1.5,1.6-2.3
		c0.4-0.6,0.8-1.2,1.2-1.8c0.1-0.2,0.3-0.4,0.1-0.7c-0.2-0.2,0.1-0.3,0.2-0.4c0-0.1,0.1-0.1,0.2-0.1c0.5,0,0.8-0.4,1-0.8
		c0.3-0.3,0.5-0.7,0.8-1c0.3-0.4,0.5-0.9,0.8-1.4c0.5-0.9,1.1-1.7,1.6-2.6c0.5-0.9,1.4-1.4,2.1-2.2c0.2-0.3,0.5-0.4,0.8-0.6
		c0.2-0.1,0.5-0.1,0.6,0.1c0.2,0.1,0.3,0.1,0.5,0.1c1.2,0,2.3,0.1,3.5,0c0.9-0.1,1.8-0.1,2.7-0.1c0.4,0,0.8,0.2,1.3,0.2
		c0.6,0.1,0.8,0.6,0.9,1c0.1,0.3,0.1,0.7-0.2,1c-0.2,0.1-0.1,0.4,0.1,0.5c0.2,0.2,0.3,0.3,0,0.5c-0.1,0.1-0.1,0.3-0.1,0.5
		c0,0.5,0,0.9,0,1.4c0,0.1,0,0.2,0,0.3c-0.2,0.3-0.1,0.4,0.2,0.4c0.2,0,0.3,0.1,0.3,0.3c0,0.2,0,0.4-0.3,0.4c-0.3,0-0.4,0.2-0.4,0.5
		c0,0.9,0.2,1.8,0.1,2.7c-0.1,1.6,0,3.3-0.1,4.9c-0.1,1.4-0.2,2.8-0.2,4.1c0,0.9,0,1.8-0.1,2.6c-0.1,0.6-0.1,1.2-0.1,1.9
		c0,0.2-0.1,0.5,0.1,0.7c0,0,0,0.2,0,0.2c-0.3,0.5-0.2,1.2-0.3,1.8c-0.1,0.9,0,1.8-0.1,2.7c-0.1,0.6,0,1.1-0.1,1.7
		c0,0.3,0.1,0.4,0.3,0.6c0.3,0.2,0.2,0.4-0.1,0.5c-0.1,0-0.2,0.2-0.2,0.3c0,0.8,0,1.5,0,2.3c0,0.3,0.2,0.2,0.3,0.1
		c0.1,0,0.2-0.1,0.3,0c0.1,0,0.2,0.2,0.2,0.3c0.1,0.2,0,0.4-0.3,0.5c-0.2,0.1-0.4,0.1-0.5,0.2c-0.1,0.2,0,0.4,0,0.6
		c0,0.6,0,1.2,0,1.7c0,0.1,0,0.2,0,0.3c0.4,0.5,0,0.8-0.1,1.3c-0.1,0.3-0.1,0.7,0,1.1c0,0.2,0.2,0.2,0.4,0.2c0.2,0,0.3,0,0.5,0.1
		c0.2,0.2,0.1,0.3,0.1,0.5c0,0.1-0.2,0.2-0.3,0.2c0,0,0,0-0.1,0c-0.2,0-0.4,0-0.5,0.1c-0.1,0.2-0.1,0.4-0.1,0.7
		c0,0.2,0.1,0.3,0.1,0.5c0,0.6,0.3,0.7,0.8,0.4c0.1-0.1,0.3-0.1,0.5-0.2c0,0.2,0,0.4,0,0.5c0,0.1-0.1,0.1-0.1,0.2c0,0,0,0.1,0,0.1
		c0.3,0,0.5,0.1,0.8,0.1c1.1,0,2.2,0,3.4,0c1,0,2,0.1,2.9,0.1c0.4,0,0.9,0.1,1.3,0.2c0.5,0.2,1,0.5,1.2,1.1c0,0,0.1,0.1,0.1,0.1
		c0,0.4,0.1,0.8,0.1,1.3c0,0.5,0.2,1-0.1,1.5c0,0.1,0,0.2,0,0.3c0,0.5,0,1.1,0,1.6c0,0.7-0.1,1.4-0.2,2.1c0,0.5-0.2,0.8-0.7,0.9
		c-0.1,0-0.3,0.2-0.3,0.3c-0.2,0.3-0.2,0.4-0.6,0.4c-0.5,0.1-1.1,0.2-1.6,0.3c-1.8,0.1-3.6,0.1-5.4,0.1c-0.4,0-0.9-0.1-1.3-0.1
		c-0.3,0-0.3,0-0.2,0.2c0,0.2,0.1,0.3,0.1,0.5c0,0.3,0,0.7,0,1c0.1,0.3,0,0.6,0,0.9c0.1,1.1,0.1,2.2,0.1,3.4c0,0.4,0.1,0.5,0.5,0.5
		c0.8,0,1.6,0.1,2.3,0c0.8-0.1,1.7,0,2.5-0.1c0.6-0.1,1.2,0.1,1.7-0.2c0.1-0.1,0.3,0.1,0.5,0.1c0.6-0.1,1.3,0,1.9-0.2c0,0,0,0,0.1,0
		c0.7,0,1.3-0.1,2-0.1c0.9,0,1.8,0,2.7-0.1c0.5-0.1,1-0.1,1.5-0.1c0.8-0.1,1.5-0.1,2.3-0.2c0.8-0.1,1.6-0.2,2.5-0.2
		c0.7,0,1.3-0.1,2-0.2c0.8-0.2,1.6-0.3,2.3-0.8c0.6-0.3,1-0.8,1.3-1.4c0,0,0-0.1,0-0.2c0,0-0.1,0-0.1-0.1c-0.1-0.1-0.2-0.3-0.3-0.4
		c0.1-0.1,0.3-0.1,0.4-0.2c0.4-0.4,0.9-0.1,1.3-0.2c0.3,0,0.6,0.1,0.9,0.2c0.5,0.1,0.8,0.5,0.8,1c0,0.3,0.1,0.5,0.1,0.8
		c0,0.5,0,1-0.1,1.5c-0.1,0.3-0.3,0.6-0.6,0.7c-0.3,0.1-0.5,0.2-0.6,0.5c0,0.1-0.1,0.1-0.1,0.2c-0.9,0.3-1.7,1-2.7,1
		c-0.6,0-1.1,0.2-1.7,0.2c-0.7,0-1.3,0.1-2,0.2c-0.4,0.1-0.8,0.1-1.2,0.1c0,0-0.1,0-0.1,0c-0.2,0-0.4,0-0.5,0.1c-0.1,0,0,0.3,0,0.5
		c0,0,0,0,0,0.1c0,3.9,0.2,7.8,0.1,11.7c0,2.1,0,4.2-0.1,6.3c0,0.4-0.1,0.7-0.1,1.1c0.2,2.2,0,4.3,0.1,6.5c0,0.4-0.1,0.8-0.1,1.3
		c0,0.3-0.1,0.6,0.1,0.8c0,0,0,0.2,0,0.2c-0.2,0.3,0,0.6-0.1,1c-0.1,0.3,0,0.7,0,1c0,0.2,0,0.4-0.1,0.6c-0.3,1.1-0.1,2.2-0.2,3.2
		c-0.1,1.1,0.1,2.2-0.2,3.3c0.2,0.3-0.1,0.6,0.1,0.9c0.1,0.3,0,0.7,0,1.1c0,0.7,0,1.4,0.1,2.1c0.2,0.9,0,1.7,0.1,2.6
		c0,0.2-0.1,0.5-0.1,0.7c0,0.2,0.1,0.4,0.1,0.6c-0.2,1,0,2-0.1,2.9c-0.1,1.5-0.1,2.9-0.1,4.4c0,0.3,0.1,0.6,0,0.9
		c-0.1,0.3,0,0.6,0,0.9c0,0.3,0,0.7,0,1c0,0.3,0,0.6,0,0.9c0,1.3,0,2.7,0.1,4c0.1,1,0,2.1,0.1,3.1c0,0.4,0,0.7-0.1,1.1
		c-0.1,0.3,0,0.7,0,1c0,1.2,0,2.4,0,3.6c0,0.4,0.1,0.8,0.1,1.3c0,0.2,0.1,0.5-0.1,0.7c0,0.1,0.1,0.3,0.1,0.4c0,0.5-0.1,0.9-0.1,1.4
		c-0.3,0.1-0.2,0.3-0.2,0.5c-0.1,0.2,0.1,0.3,0,0.5c-0.1,0.4,0,0.8,0,1.2c0,0.4,0,0.8,0,1.2c0,0.4,0,0.8,0,1.2c0,0.1,0,0.3,0.1,0.4
		c0.3,0.4,0.2,0.9,0.1,1.3c-0.1,0.6-0.3,1.2-0.3,1.8c0,0.7-0.1,1.4-0.1,2.1c0,0.1-0.1,0.2-0.1,0.3c0,0.1-0.1,0.2,0,0.3
		c0.1,0.1,0.1,0.3,0.1,0.4c0,0-0.1,0.1-0.2,0.1c-0.4,0.1-0.5,0.2-0.3,0.5c0.2,0.4,0.2,0.7-0.1,1c-0.1,0.1-0.2,0.3-0.2,0.5
		c-0.1,0.2-0.2,0.3-0.4,0.2c-0.1,0-0.2-0.1-0.3-0.2c-0.2-0.2-0.5-0.3-0.8-0.2c-0.2,0.1-0.4-0.1-0.7,0c-0.2,0-0.4,0.1-0.7,0.1
		c-0.2,0-0.4-0.1-0.6-0.1c-0.2,0-0.3,0.3-0.5,0c-0.6,0.3-1.3,0-1.9,0.2c-0.2,0.1-0.5-0.2-0.7,0c-0.3-0.3-0.7,0.2-1-0.1
		c-0.7,0.2-1.4,0.1-2.1,0.1c-0.5,0-1.1-0.1-1.6,0c-1.6,0.2-3.1,0.1-4.7,0.1c-1,0-2.1,0-3.2-0.1c-1.3-0.1-2.7-0.2-4-0.1
		c-1.2,0.1-2.4,0-3.6,0.1c-1.4,0.1-2.8,0.1-4.3,0.1c-0.9,0-1.9-0.1-2.8-0.1c-0.6,0-1.2,0.1-1.9,0.1c-0.3,0-0.6,0-1-0.1
		c-0.4-0.1-0.7,0-1.1,0c-0.6-0.1-1.3,0-1.9,0c-0.2,0-0.3,0.1-0.4,0.1c-0.1,0-0.2,0-0.3,0c-0.9-0.2-1.8-0.1-2.7-0.1
		c-0.8,0.1-1.6,0.1-2.4,0.1c-0.9,0-1.8,0.1-2.7,0.2c-0.4,0-0.8,0.1-1.3,0.1c-3.1-0.3-6.1-0.1-9.2-0.1c-0.3,0-0.6-0.1-0.9-0.1
		c-0.2,0-0.5,0.1-0.7,0.1c-0.8-0.1-1.5,0-2.3-0.1c-1.2-0.2-2.4-0.2-3.5-0.2c-0.7,0-1.4,0.1-2.1,0.1c-0.6,0-1.3-0.2-1.9-0.3
		c-0.4,0-0.8,0-1.1,0c-0.6-0.1-1.2-0.1-1.7-0.2c-0.5-0.1-0.9-0.1-1.3,0c0,0-0.1,0-0.1,0c-0.5,0-1.1,0.1-1.6,0.1
		c-0.1,0-0.3-0.1-0.4-0.1c-0.3,0-0.7,0-1,0.1c-0.2,0-0.4,0.1-0.7,0.1c-0.3,0-0.6,0-1,0c-0.3,0-0.6,0-0.8,0c-0.4,0-0.7,0.1-1.1,0.2
		c-0.3,0.1-0.6,0.1-0.8-0.2c-0.2-0.3-0.5-0.6-0.3-1c0-0.1,0.1-0.2,0.1-0.2c0-0.8,0.1-1.6,0.1-2.4c0-0.2-0.1-0.4,0.1-0.7
		c0.1-0.1-0.1-0.4-0.1-0.6c0-0.4,0.1-0.9-0.2-1.3c0-0.1,0-0.2,0-0.3c0-0.2,0.1-0.3,0.1-0.5c0-1.2,0-2.4,0-3.6c0-0.6,0-1.2-0.1-1.8
		c-0.1-0.4-0.1-0.8-0.1-1.3c0-0.2,0.1-0.4,0.1-0.6c0-0.2,0-0.3,0-0.5c0,0,0-0.1-0.1-0.1c0-0.7-0.2-1.5-0.1-2.2
		c0.1-0.9,0.1-1.8,0.1-2.7c0-1.1,0-2.2,0-3.3c0-0.6,0.1-1.3,0.1-1.9c0-0.5,0.1-1-0.1-1.5c0,0,0-0.1,0-0.2c0.2-0.2,0.1-0.4,0.1-0.6
		c0-2.1,0-4.3,0.1-6.4c0.1-2,0-4,0.1-6c0-0.3,0.1-0.5,0-0.8c-0.1-0.2,0.1-0.5,0.1-0.8c0-0.3,0-0.6,0-0.9c0.2-0.9,0.2-1.8,0.2-2.7
		c0-0.8,0.2-1.6,0.3-2.4c0-0.4,0.1-0.7,0.1-1.1c0.1-1.5,0-3,0.1-4.6c0.1-1.3,0-2.7,0.1-4c0-0.6,0-1.3,0.1-1.9c0.1-0.7,0-1.3,0.1-2
		c0.1-0.8,0-1.5,0.1-2.3c0.1-0.5,0.1-1.1,0.1-1.6C5,110.2,5,109.4,5,108.7c0-0.9,0.1-1.9,0.2-2.8c0.1-0.5,0.1-1.1,0.1-1.6
		c0.1-0.6,0.2-1.1,0.2-1.7c0.1-0.8,0.1-1.6,0.1-2.3c0-0.4,0-0.8,0.1-1.2c0.1-0.3,0.1-0.6-0.1-1c-0.1-0.3,0-0.8,0-1.2
		c0-0.2,0-0.5,0-0.7c0-0.1-0.1-0.2-0.1-0.3c0-1.1-0.1-2.2,0-3.2c0.1-0.8,0-1.6,0.1-2.3c0-0.3-0.1-0.3-0.3-0.4
		c-0.4-0.1-0.9-0.2-1.3-0.2c-0.7,0-1.3-0.1-1.8-0.6c-0.1-0.1-0.2-0.2-0.3-0.2c-0.5-0.2-0.9-0.5-1.2-0.9c0,0-0.1-0.1-0.1-0.1
		c0.1-0.6-0.3-1-0.5-1.4c-0.4-1-0.1-1.8,0.4-2.6c0.3-0.4,0.8-0.5,1.3-0.6c0.9-0.1,1.9-0.1,2.8-0.1c0.4,0,0.6,0.1,0.9,0.3
		c0.2,0.2,0.2,0.1,0.4-0.1c0.2-0.4,0.2-0.8,0.1-1.1c-0.1-0.5-0.1-1-0.1-1.5c0-1.1,0-2.3,0.1-3.4c0.1-0.7,0.2-1.5,0.2-2.2
		c0.1-0.8,0.1-1.6,0.2-2.4c0.1-0.8,0-1.6,0.1-2.4c0.1-0.7,0-1.3,0.1-2c0.2-1.2,0.1-2.3,0.2-3.5C7.1,63.8,7,62.9,7,62
		c0-0.7,0.1-1.4,0.2-2.1c0,0,0-0.1,0-0.1c0-1,0.1-2,0.1-3c0-0.3,0-0.5,0.1-0.8c0.1-0.2-0.1-0.5-0.1-0.7c0.1-1.7,0-3.3,0.1-5
		c0.1-1.1,0.2-2.2,0.2-3.3c0-0.5,0-0.9,0.1-1.4c0.2-0.9,0-1.9,0.1-2.8c0-0.2-0.1-0.4,0-0.7c0.1-0.2,0-0.5,0-0.8c0-0.3,0-0.5,0-0.8
		C7.9,40.3,8,40,8,39.7c-0.1-0.5,0-1,0-1.5c0-0.5,0-1,0-1.6c0-0.5,0-1,0-1.5c0-0.5,0-1,0-1.6c0-0.5,0-1,0-1.6c0-1.2-0.2-2.3-0.1-3.5
		c0-0.5,0.1-1,0.2-1.4c0-0.1,0-0.3,0-0.4c0-0.9,0-1.7,0-2.6c0-0.6,0.1-1.1,0.2-1.7c0.1-0.2-0.1-0.5-0.1-0.8c0-0.8,0-1.6,0-2.4
		c0-0.6,0-1.2,0.1-1.8c0.1-0.7,0.3-1.4,0.4-2.1c0.1-0.3,0-0.7,0.1-1C9,13.7,9,13.1,9.1,12.5c0.1-0.4,0-0.8,0-1.1
		c0-0.5,0.1-0.6,0.6-0.8c0.1,0,0.2-0.1,0.4-0.1c0.3-0.1,0.6-0.1,0.6-0.5c0-0.1,0.2-0.2,0.3-0.2c1-0.1,2-0.2,2.9-0.1
		c1,0.1,2.1,0,3.1,0.1c0.4,0,0.7-0.2,1.1-0.1c0.7,0.2,1.4,0.1,2,0.1c0.8-0.1,1.5-0.1,2.3-0.1c0.8,0,1.5,0,2.3,0.1
		c0.4,0.1,0.9,0.1,1.3,0.1c0.3,0,0.6-0.1,0.9-0.1c0.3,0,0.6,0.1,0.9-0.1c0.1,0,0.2,0,0.3,0c1,0,2.1,0,3.1-0.2c0.3-0.1,0.7-0.1,1-0.1
		c0.8-0.1,1.6-0.1,2.4-0.2c1.1-0.2,2.2-0.2,3.3-0.2c0.6,0,1.1,0,1.7,0c0.3,0,0.6-0.1,0.9,0c0.3,0.1,0.7-0.1,1-0.1c0.3,0,0.7,0.1,1,0
		c1-0.2,2-0.1,3-0.1c0.6,0,1.3,0,1.9,0.1C48.3,8.8,49,8.9,49.7,9c0.9,0.1,1.8,0.2,2.7,0.3c0.5,0.1,1.1,0,1.6,0.1
		c0.3,0,0.4-0.2,0.4-0.4c0.1-0.4,0.1-0.4,0.5-0.5c0.5-0.1,1.1-0.2,1.6-0.3c0.5-0.1,1-0.1,1.5-0.1c0.2,0,0.3-0.1,0.5-0.1
		c0,0,0.1,0,0.1-0.1c0,0-0.1,0-0.1,0c-0.3,0.1-0.7,0-1,0c-0.6,0-1.1,0-1.7-0.1c-0.7-0.1-1.4-0.2-2-0.5c-0.1-0.1-0.4-0.1-0.5,0.2
		c0,0.1-0.2,0.1-0.4,0.1c-0.6,0-1.2,0.1-1.8,0.1c-0.3,0-0.7-0.2-1-0.4C50,7.2,49.9,6.9,50,6.6c0.1-0.4,0.2-0.7,0.2-1.1
		c0-0.4,0.1-0.9,0.8-1c0.4,0,0.7-0.3,1.1-0.3c0.1,0,0.2,0,0.2,0c0.3,0.3,0.7,0.2,1,0.1c0.3-0.1,0.7,0,1-0.1c0.6-0.2,1.3-0.2,2-0.3
		c0.5-0.1,1.1-0.2,1.6-0.3c0.3-0.1,0.7-0.1,1-0.1c1-0.1,2-0.3,2.9-0.5c1.2-0.2,2.3-0.6,3.4-0.9c0.5-0.1,1-0.2,1.5-0.2
		c0.4-0.1,0.8-0.2,1.3-0.2c0.1,0,0.2,0,0.2-0.2c0-0.2,0.2-0.4,0.2-0.6c0-0.4,0.2-0.6,0.6-0.6c0,0,0.1,0,0.1-0.1
		c0.4-0.5,0.8-0.2,1.2-0.1c0.6,0.1,1.2,0.2,1.7,0.2c0.3,0,0.6,0.1,0.9,0.1c0.2,0,0.4,0.3,0.3,0.5c-0.3,0.4-0.1,0.9-0.3,1.4
		C73,2.6,73,2.7,72.8,2.7c-0.3,0.1-0.6,0.1-0.9,0.2c0,0-0.1,0-0.1,0.1c-0.3,0.4-0.8,0.3-1.2,0.5c-0.3,0.1-0.5,0.1-0.8,0.1
		c-0.7,0-1.3,0.1-2,0.1c-1.1,0.1-2.1,0.2-3.2,0.4c-1,0.3-2.1,0.5-3.2,0.8c-0.4,0.1-0.7,0-1.1,0.1c-0.7,0.2-1.4,0-2,0.3
		c-0.3,0.1-0.7,0.1-1.1,0.1c-0.1,0-0.2,0-0.3,0c-0.1,0-0.2,0.1-0.2,0.1c0.1,0,0.2,0,0.3,0c1,0,1.9-0.1,2.9-0.1
		c0.9,0.1,1.9,0,2.8,0.1c0.9,0.1,1.7,0.2,2.6,0.2c0.4,0,0.8,0.1,1.1,0.1c0.5,0,0.7-0.4,0.4-0.8c-0.2-0.2-0.1-0.4,0.1-0.5
		c0.1-0.1,0.2-0.2,0.3-0.3c0.4-0.4,0.9-0.5,1.5-0.2c0.2,0.1,0.4,0.4,0.5,0.6c0.1,0.2,0.1,0.4,0,0.7c-0.1,0.3-0.1,0.7,0.1,1
		c0.1,0.3,0,0.6,0,0.9c0,0.4,0,0.4,0.4,0.4c0.5,0,1,0.1,1.5,0.2c0.1,0,0.2,0,0.3,0C73.2,8,75,8,76.8,8.1c0.5,0,0.9,0.2,1.2,0.5
		c0.6,0.4,1,1,1.3,1.6c0,0.1,0.1,0.1,0.1,0.2c0,0.8,0.1,1.7,0.1,2.5c0,0.5-0.1,1-0.1,1.5c0,0.2-0.3,0.4-0.5,0.4
		c-0.2,0-0.4-0.1-0.6-0.1c-0.1,0-0.3-0.1-0.3-0.1c-0.1,0.2,0.2,0.1,0.2,0.2c0,0.1,0.1,0.2-0.1,0.3c-0.2,0-0.3,0.1-0.5,0.2
		c-0.6,0.1-1.2,0.1-1.7-0.1c-0.1,0-0.1-0.1-0.2-0.1c-0.2-0.2-0.2-0.3,0.1-0.4c0,0,0.1,0,0.1-0.1c0.5,0,1.1-0.1,1.6-0.1
		c0.3,0,0.7-0.1,1-0.1c0.2,0,0.3-0.3,0.2-0.5c-0.1-0.3-0.1-0.6,0-0.9c0.1-0.3,0-0.6,0-0.9c0-0.1-0.1-0.3-0.1-0.4
		c0-0.6,0-1.2-0.1-1.7c-0.1-0.3-0.3-0.7-0.5-0.9c-0.2-0.2-0.6-0.4-1-0.2c-0.1,0.1-0.2,0-0.4,0c-0.4,0-0.9,0-1.3,0
		c-0.4,0-0.9-0.1-1.3-0.2c-0.1,0-0.2,0-0.4,0c-0.5,0-1,0-1.5,0c-0.5,0-0.9-0.1-1.4-0.2c-0.5-0.1-1.1-0.2-1.6,0.1
		c-0.2,0.1-0.3,0-0.3-0.1c-0.2-0.2-0.5-0.2-0.7-0.2c-0.2,0-0.4,0.1-0.6-0.1c-0.1-0.1-0.3-0.1-0.5,0c-0.8,0.2-1.6,0.2-2.3,0.1
		c-1-0.2-2-0.2-3.1-0.2c-0.8,0.1-1.6,0-2.3,0.3c-0.3,0.1-0.5-0.1-0.8,0.1C58.2,8.8,58,9,58,9.2c0,0.2,0,0.5,0,0.7
		c0,0.5-0.1,1.1-0.2,1.6c0,0,0,0.1,0,0.2c0,1.1-0.1,2.2-0.1,3.4c0,0.2,0,0.3-0.1,0.5c0,0,0,0.1,0.1,0.2c0,0,0.1,0,0.1-0.1
		c0.1-0.1,0.1-0.3,0.2-0.5c0-0.1,0.1-0.1,0.1-0.2c0.1,0.1,0.1,0.1,0.2,0.2c0,0.1,0,0.1,0,0.2c-0.1,0.3-0.2,0.6-0.3,0.9
		c-0.1,0.3-0.4,0.4-0.6,0.2c-0.2-0.2-0.3-0.4-0.3-0.6c0,0,0-0.1,0-0.1c0,0-0.1,0.1-0.1,0.1c-0.2,0.3-0.5,0.6-0.7,0.9
		c-0.2,0.2-0.1,0.4,0.2,0.4c0.3,0,0.6-0.1,0.9,0.1c0.1,0,0.2-0.1,0.3-0.1c0.1-0.1,0.1-0.2,0.2-0.2c0.1,0,0.2,0,0.3-0.1
		c0,0.1,0.1,0.2,0,0.3c-0.1,0.2-0.1,0.3,0.1,0.2c0,0,0.1,0,0.1,0c0.3,0,0.3,0,0.2-0.3c0-0.1-0.1-0.2-0.1-0.2c0-0.1,0.2-0.2,0.2-0.2
		c0.4,0.2,0.8-0.2,1.1,0.2c0,0.1,0.2,0,0.4,0c1.6,0,3.3,0.1,4.9,0c1-0.1,2,0,3-0.1c0.8-0.1,1.6,0,2.5-0.1c0.4,0,0.8-0.2,1.2-0.1
		c0.4,0.1,0.8,0.1,1.2,0.1c0.7,0,1.4,0,2.2,0c0.2,0,0.4,0.1,0.7,0.1c0.2,0,0.4-0.1,0.7-0.1c0.6,0.1,1.1,0,1.6,0
		c0.3,0,0.6-0.1,0.9-0.1c0.2,0,0.3-0.1,0.3-0.3c0-0.2,0-0.4,0-0.5c0,0,0.1-0.1,0.1-0.1c0,0,0,0.1,0.1,0.1c0,0.1,0.1,0.2,0.1,0.2
		c0,0,0.1,0,0.1,0c0-0.3,0.2-0.6,0-1c-0.1-0.3,0-0.8,0.1-1.2c0.2-0.6,0.3-1.2,0.3-1.8c0-0.8,0-1.7,0-2.5c0-0.3-0.3-0.7-0.6-0.8
		c-0.4-0.1-0.9-0.2-1.3-0.3c-0.1,0-0.2-0.1-0.2-0.1c-0.1-0.1-0.1-0.2-0.2-0.3c0.1-0.1,0.2-0.2,0.3-0.2c0.6,0,1.1,0,1.6,0.3
		c0.4,0.2,0.8,0.3,1.2,0.5c0.3,0.2,0.6,0.1,0.9,0c0.7-0.3,1.1-0.3,1.8-0.1c0.1,0,0.3,0.1,0.4,0.1c0.7,0,1.3,0,2,0
		c0.4,0,0.8,0.1,1.2,0.4c0.2,0.2,0.5,0.3,0.7,0.4c0.3,0.2,0.4,0.4,0.4,0.7c0,0.8-0.1,1.5-0.2,2.3c-0.1,0.4,0,0.9-0.1,1.3
		c-0.1,0.6,0,1.2-0.2,1.8c0,0.1,0,0.1,0,0.2c0,0.7,0,1.5-0.1,2.2c-0.2,1.6,0,3.1-0.1,4.7c0.2,0.6,0,1.3,0.2,2c0,0.1,0,0.2,0,0.3
		c0,0.8,0,1.7,0,2.5c0,0.3,0,0.7-0.1,1c-0.1,0.3,0,0.7,0.1,1c0,0.1,0,0.2,0,0.3c-0.2,0.6,0.1,1.2,0,1.8c-0.1,0.7,0,1.4-0.1,2.1
		c-0.1,0.7,0,1.4-0.1,2.1c-0.1,0.9,0,1.7-0.1,2.6c-0.1,1.3-0.2,2.5-0.2,3.8c0,0.9,0,1.8,0.1,2.7c0.1,0.7,0,1.4,0.1,2.1
		c0,0.3,0,0.6,0.1,1c0.1,0.2,0.1,0.5-0.1,0.8c0,0.1,0,0.2,0,0.3c0,2.1-0.1,4.1-0.1,6.2c0,0.8,0,1.7-0.1,2.5
		c-0.1,0.7-0.1,1.5-0.1,2.2c0,1.1,0,2.1-0.1,3.2c-0.1,0.7,0,1.4-0.1,2.1c0,0.5-0.2,1-0.1,1.5c0.1,0.9,0.1,1.7,0.1,2.6
		c0,1.3-0.1,2.6-0.1,4c0,0.2-0.1,0.4-0.1,0.7c0,0.2,0.2,0.4,0,0.6c0.3,0.7-0.1,1.5,0.2,2.2c0,0,0,0.1,0,0.1c0,1,0.1,2,0.1,3
		c0,0.8-0.1,1.5-0.1,2.3c0,0.4-0.2,0.7,0,1c-0.2,0.9,0,1.8-0.1,2.7c0,0.1-0.1,0.3-0.2,0.4c-0.2,0.2-0.5,0-0.5-0.2
		c0-0.4,0.1-0.8-0.1-1.1c0.2-0.4-0.1-0.8,0-1.2c0.2-0.9,0-1.8,0.1-2.7c0.1-1.1,0.1-2.1,0.1-3.2c0-0.8,0-1.6-0.1-2.4
		c-0.1-0.9-0.1-1.8-0.1-2.6c0.1-1,0-2,0.1-3c0.1-0.8,0.1-1.7,0.1-2.5c0-0.3-0.1-0.7-0.1-1c0-1.1,0-2.2,0.1-3.3
		c0.1-1.1,0-2.2,0.1-3.3c0-1,0-2.1,0.1-3.1c0.2-1.6,0.1-3.2,0.2-4.7c0-0.7,0-1.4,0.1-2.1c0.1-0.6,0.1-1.1,0.1-1.7
		c0-0.3,0-0.6-0.1-0.8c-0.1-0.3,0-0.6,0-0.8c0-1,0-2-0.1-2.9c-0.2-1.2,0-2.3-0.1-3.5c0.2-0.5,0-1,0.2-1.5c0-0.1,0-0.2,0-0.3
		c0-1.2,0-2.5,0.1-3.7c0.4-3.3,0.1-6.5,0.2-9.8c0-0.5,0.1-1,0-1.5c-0.2-1.5-0.1-3.1-0.1-4.6c0-0.9,0-1.7,0.2-2.6c0-0.1,0-0.2,0-0.3
		c0-0.7,0.1-1.4,0.2-2c0-0.1,0-0.1,0-0.2c0-0.7,0-1.4,0.1-2.1c0.1-0.4,0.1-0.8,0.1-1.3c0-0.1,0-0.2-0.1-0.3
		c-0.1-0.1-0.2-0.1-0.3-0.1c0,0.1,0,0.1,0.1,0.2c0.1,0.2-0.1,0.4-0.1,0.6c-0.1,0.4-0.1,0.8-0.1,1.2c0,0.3-0.2,0.3-0.4,0.4
		c0,0-0.1,0-0.1,0c-0.2,0-0.4-0.1-0.5,0c-0.1,0.2-0.2,0.4-0.2,0.6c0,0.5-0.1,1,0.1,1.5c0.1,0.4,0.1,0.9,0.1,1.4c0,1.6,0,3.2,0,4.8
		c0,0.7,0,1.4-0.1,2.1c-0.1,0.5-0.1,0.9,0,1.4c0.1,0.4,0,0.8-0.1,1.1c-0.1,0.7-0.1,1.3,0,2c0.2,1.1,0.1,2.3,0.1,3.4
		c0,0.6,0,1.2-0.1,1.8c-0.1,0.5,0,1-0.1,1.5c-0.2,1.8,0,3.5-0.1,5.3c0,0.3-0.1,0.6-0.1,0.9c0.1,0.8,0,1.6,0.2,2.5c0,0,0,0,0,0.1
		c-0.2,0.5,0.1,1.1,0,1.6c0,0.3-0.1,0.7-0.1,1c0.2,1.2,0,2.4,0.1,3.6c0.2,1.6,0,3.1,0.1,4.7c0,0.2,0,0.4-0.1,0.6
		c-0.1,0.3-0.1,0.6-0.1,1c0,0.4,0,0.8-0.1,1.3c-0.1,0.2,0.1,0.5,0.1,0.8c0,1.3,0.1,2.6,0,4c-0.1,1.1,0,2.1-0.1,3.2
		c0,0.5-0.1,1-0.1,1.5c0,0.3,0.1,0.6,0.1,0.9c0,0.3-0.1,0.6,0.1,0.9c0,0.1,0,0.2,0,0.3c0,0.5-0.1,1,0.1,1.5c0,0.1,0,0.2,0,0.3
		c-0.2,0.8-0.1,1.6-0.1,2.4c0,1.2,0.1,2.4,0,3.6c-0.2,2.9,0,5.8-0.1,8.7c0,0.3,0.1,0.6,0,0.9c-0.1,0.3-0.2,0.6-0.3,1
		c0,0.1-0.1,0.3-0.2,0.2c-0.1,0-0.2-0.2-0.2-0.2c0,0,0-0.1,0-0.2c0-0.1,0-0.2,0-0.3c0-0.4,0-0.8,0-1.1c0-0.4,0-0.8,0-1.2
		c0-0.4,0-0.8,0-1.1c0-0.4,0-0.7,0-1c0-0.4,0-0.8,0-1.2c0-0.4,0-0.8,0-1.1c0-2.6,0-5.2,0.1-7.9c0.1-1.2,0.1-2.3,0.1-3.5
		c-0.1-1.2-0.1-2.5-0.1-3.7c0-1.1,0-2.1,0.1-3.2c0.1-1.2,0-2.4,0.1-3.6c0-0.1-0.1-0.2-0.1-0.4c0-0.1,0-0.3,0-0.4c0-0.4,0.1-0.7,0-1
		c-0.1-0.7-0.1-1.3,0-1.9c0-0.1,0-0.3,0-0.4c0-1.3,0.1-2.7,0-4c-0.2-2.3,0-4.6-0.1-6.8c0-0.8-0.1-1.5-0.1-2.3c0.2-2,0-4,0.1-5.9
		c0.1-1.6,0.2-3.2,0.2-4.8c0-0.5,0.1-1.1,0.1-1.6c-0.2-1.6,0-3.2-0.1-4.7c0-0.4,0-0.8,0.1-1.2c0.1-0.4-0.1-0.8,0.1-1.2
		c0.1-0.2-0.1-0.5-0.1-0.7c0-1.3,0-2.6,0-3.9c0-1-0.1-2-0.1-3c0-0.1-0.1-0.3-0.2-0.4c-0.2-0.3-0.2-0.3,0.1-0.5
		c0.1-0.1,0.2-0.2,0.2-0.3c0-0.1,0-0.3-0.1-0.3c-0.2,0-0.1,0.2-0.1,0.3c0,0.1-0.1,0.2-0.1,0.2c-0.3,0.4-0.3,0.5-0.3,1
		c0,0.4-0.1,0.8-0.2,1.2c0,0.1-0.1,0.1-0.2,0.2c0-0.1-0.1-0.1-0.1-0.2c-0.1-0.3-0.3-0.6-0.4-1c0-0.1,0-0.2,0.1-0.3
		c0.1-0.1,0.3-0.2,0.4-0.3c0,0,0-0.2,0-0.2c-0.2-0.1-0.4-0.1-0.6-0.1c-0.5,0-1,0-1.6,0c-0.2,0-0.4,0-0.6-0.1c-0.1,0-0.1-0.2-0.2-0.3
		c0,0,0.1-0.2,0.2-0.2c0.3-0.1,0.6-0.2,1-0.2c0.3,0,0.6,0,0.9,0c0.3,0,0.6,0,0.9,0c0.1,0,0.3,0,0.3-0.1c0.3-0.3,0.7-0.6,1.1-0.8
		c0.1,0,0.1-0.2,0.1-0.3c0,0-0.1-0.1-0.1-0.1c-0.1-0.5-0.1-0.5-0.6-0.4c0,0-0.1,0-0.1,0c-0.9,0-1.7,0.1-2.6,0.1
		c-0.4,0-0.8-0.1-1.1-0.1c-0.2,0-0.2,0.1-0.2,0.2c0,1.1,0,2.2,0,3.3c0,0.2,0.1,0.4,0.1,0.6c0,0.2-0.1,0.3-0.2,0.2
		c-0.1-0.1-0.2-0.1-0.3,0.1c-0.1,0.3-0.2,0.5-0.3,0.8c0,0.5-0.2,1-0.3,1.5c0,0.2,0,0.4,0,0.6c0,0.1,0,0.3-0.1,0.3
		c-0.4,0.1-0.3,0.5-0.5,0.7c-0.1,0.2-0.2,0.3-0.4,0.4c-0.3,0-0.5,0.2-0.7,0.3c-0.3,0.1-0.6,0.2-0.9,0.2c-1.2,0.1-2.4,0.2-3.6,0.1
		c-1.8-0.1-3.6,0-5.4-0.1c-0.5,0-1-0.2-1.5-0.1c-0.6,0-1.3-0.1-1.9,0.1c-0.1,0-0.3,0-0.4,0c-0.6,0-1.3,0-1.9,0.2c0,0-0.1,0-0.1,0
		c-0.4-0.4-0.9-0.1-1.3-0.1c-0.5,0.1-1,0-1.5,0.2c0,0-0.1,0-0.1,0c-1,0-2.1,0.1-3.1,0.1c-0.4,0-0.8-0.3-0.8-0.6
		c0-0.4-0.2-0.4-0.5-0.5c-0.3-0.1-0.6-0.2-0.8-0.4c-0.4-0.2-0.5-0.6-0.5-1c-0.1-0.9,0-1.8,0-2.7c0-0.4,0.1-0.8,0.1-1.3
		c0-0.2,0.1-0.4-0.1-0.6c0,0,0-0.2,0-0.2c0.2-0.4,0.2-0.8,0.3-1.1c0.1-0.3,0-0.4-0.3-0.4c-0.5,0-1,0-1.6,0c-0.3,0-0.5-0.1-0.8-0.1
		c-0.4,0-0.7-0.1-1.1-0.1c-0.6,0-1.2-0.1-1.8-0.2c-0.4-0.1-0.9-0.1-1.3-0.1c-0.6,0-1.1-0.1-1.7-0.1c-0.6,0-1.1,0.1-1.7-0.1
		c-0.2-0.1-0.4,0.1-0.6,0.1c-1.6,0-3.2,0-4.8,0c-1,0-2,0-3,0.1c-0.7,0.1-1.4,0.2-2.1,0.2c-0.6,0.1-1.2,0.1-1.9,0.2
		c-1.1,0.2-2.2,0.2-3.3,0.2c-0.4,0-0.8,0-1.2,0.2c-0.6-0.1-1.2,0.2-1.8-0.1c0,0-0.1,0-0.2,0c-0.8,0-1.6-0.1-2.3-0.1
		c-2.6,0-5.2,0-7.7,0c-0.2,0-0.4,0-0.5,0.1c-0.1,0.1-0.4,0.1-0.6,0c-0.2,0-0.4-0.2-0.6-0.3c-0.1,0-0.2,0-0.3,0.1c0,0-0.1,0-0.1,0.1
		c0,0,0.1,0.1,0.1,0.1c0.2,0,0.3,0,0.4,0.2c0,0.1,0.1,0.2,0.1,0.2c-0.1,0.1-0.2,0.2-0.3,0.2c-0.5-0.2-1.1-0.1-1.6-0.1
		c-0.2,0-0.5,0-0.7,0.1c-0.1,0-0.2,0.1-0.2,0.1c-0.2-0.2-0.4,0-0.5,0c-0.1,0.1-0.2,0.3-0.2,0.5c0,0.5-0.1,1.1,0,1.6
		c0,0.4,0,0.8,0,1.2c-0.1,0.4,0,0.8-0.2,1.2c-0.2,0.6-0.2,1.3-0.3,1.9c-0.1,0.3-0.1,0.7-0.1,1c0,0.9-0.1,1.8-0.1,2.7
		c0,0.4,0.1,0.8,0.1,1.1c0,0.7,0,1.4-0.2,2.1C9,24.6,8.6,25,8.9,25.3c0,0.7-0.1,1.3-0.1,2c0,0.1,0,0.1,0,0.2
		c-0.2,1.4-0.1,2.9-0.1,4.3c0,0.4,0.2,0.9,0.1,1.3c-0.1,0.5-0.1,1-0.1,1.4c0.1,0.8,0.1,1.6,0.1,2.5c0,0.3-0.1,0.7-0.1,1
		c0,0.6,0.1,1.2,0.1,1.9c0,1,0,2.1-0.1,3.1c0,0.5,0.1,1,0,1.5c-0.1,0.9,0,1.8-0.1,2.7c-0.1,0.7,0,1.4-0.1,2c-0.1,0.6,0,1.2-0.1,1.8
		c-0.2,1.8,0,3.7-0.1,5.5c-0.1,1.1,0,2.1-0.1,3.2c0,0.5-0.2,1-0.2,1.5c0,0.4,0,0.8-0.2,1.1c-0.3,0.5-0.2,0.9-0.1,1.4
		c0,0.2,0.1,0.4,0,0.5c-0.1,0.3-0.1,0.6-0.1,0.8c0,0.4,0,0.9,0,1.3c0,0.8,0,1.6-0.2,2.5c0,0.1,0,0.2,0,0.3c0,1.6-0.1,3.1-0.1,4.7
		c0,0.9-0.1,1.7-0.2,2.6c-0.2,1.3-0.2,2.6-0.2,4c0,0.3-0.1,0.6-0.1,0.9c0.2,1.5,0,3,0.1,4.5c0,0.1-0.1,0.3-0.1,0.4
		c0,0.3-0.2,0.3-0.4,0.3c-0.2,0-0.3-0.2-0.3-0.4c0-0.4,0-0.8,0-1.1c0-0.2,0-0.2-0.2-0.1c-0.3,0.2-0.7,0.3-1,0.4
		c-0.1,0-0.2,0.1-0.2,0.2c0,0.2,0,0.3,0,0.5c0,0.7,0.2,0.9,0.9,0.9c1.2,0,2.5,0.1,3.7,0.1c0.7,0,1.4,0.1,2,0.2c0.1,0,0.2,0,0.3,0
		c0.8,0,1.5,0,2.3,0c2.2,0,4.4,0,6.6-0.1c1-0.1,2,0,2.9-0.1c1.2-0.2,2.4,0,3.6-0.1c1.2-0.1,2.4,0,3.5-0.1c0.3,0,0.7-0.1,1-0.1
		c0.3,0,0.6,0.2,0.8,0c0.2,0.2,0.5,0.1,0.7,0.1c1.2,0,2.5,0,3.7,0.1c1.2,0.1,2.4,0.1,3.6,0.2c1.1,0.1,2.3,0.2,3.4,0.2
		c0.3,0,0.5-0.2,0.7,0c0.2,0.1,0.4-0.1,0.7,0c0.3-0.2,0.6,0,0.8,0c0.3,0,0.6-0.1,0.9-0.1c0.7,0,1.5,0,2.2,0.1c0.6,0.1,1.2,0,1.7,0.1
		c0.2,0,0.4,0.1,0.7,0.1c1-0.1,2.1,0,3.1-0.1c0.9-0.1,1.7,0,2.6-0.1c0.1,0,0.2,0,0.3,0c0.2,0.1,0.3,0,0.3-0.2c0-0.8,0-1.7,0-2.5
		c0-0.1,0-0.1-0.1-0.2c-0.2-0.2-0.2-0.4,0-0.6c0.1-0.1,0.1-0.3,0.1-0.4c0-0.6,0.1-1.2,0.1-1.7c0-0.1,0.1-0.3,0.2-0.3
		c0.4,0,0.3-0.3,0.2-0.4c-0.1-0.1,0-0.5-0.4-0.4c-0.3,0.1-0.6,0.2-0.8,0.2C56.6,80.8,56.1,80.8,55.6,80.9 M67.5,172
		c0.4-0.1,0.9-0.1,1.3-0.2c1.2-0.1,2.4-0.1,3.6-0.1c1,0,2-0.1,2.9-0.2c0.7-0.1,1.5-0.2,2.2-0.3c0.3,0,0.6-0.1,0.8,0
		c0.3,0.1,0.5-0.2,0.8,0c1.2-0.2,2.4-0.2,3.6-0.2c0,0,0.1,0,0.1,0c0.2,0,0.3-0.1,0.4-0.2c0.3-0.6,0.4-1.2,0.4-1.8
		c0.1-1.7,0-3.4,0.1-5.2c0-0.5-0.1-1.1,0.1-1.6c0.1-0.2,0.1-0.5-0.2-0.6c-0.1,0-0.1-0.1-0.1-0.2c0-0.3,0.1-0.7,0-1
		c-0.1-0.3-0.1-0.6-0.1-0.9c0-0.3-0.1-0.7-0.1-1c0-0.5,0-0.9,0-1.4c0-0.2-0.1-0.4,0.2-0.5c0,0,0.1-0.1,0.1-0.2
		c-0.2-0.2-0.2-0.4,0-0.7c-0.2-0.2-0.1-0.5-0.1-0.8c0-1.2,0-2.4,0.1-3.6c0.1-1.3-0.1-2.7,0.1-4.1c0.1-0.7-0.1-1.5,0.1-2.2
		c0-0.2,0.1-0.5,0-0.7c0-0.2,0-0.5,0-0.8c0-0.3,0.1-0.5,0.1-0.8c0-1,0.1-2.1,0.1-3.1c0-1.1,0-2.2,0-3.3c0-0.1,0-0.2,0-0.3
		c0.2-0.8,0.2-1.6,0.2-2.3c0-2,0-4-0.1-6c-0.1-2.2-0.1-4.5,0.1-6.7c0-0.1,0-0.1,0-0.2c0-2.3,0.1-4.5,0.1-6.8c0-0.4,0.1-0.8,0.2-1.2
		c0.1-0.4,0.2-0.9,0.1-1.3c-0.1-0.3-0.1-0.7-0.1-0.9c0.1-0.3,0.1-0.6,0.1-0.9c0-0.3,0.1-0.6,0-0.9c-0.1-0.2,0-0.5-0.1-0.7
		c-0.1-0.5,0-1.1,0.1-1.6c0.1-1.6,0-3.2,0.1-4.8c0.1-0.8,0-1.7-0.1-2.5c-0.1-1-0.1-2-0.1-2.9c0-1.3,0-2.6,0-4c0-0.2,0.1-0.4,0-0.6
		c0-0.5-0.1-0.9,0-1.4c0.2-0.8-0.1-1.2-0.9-1c-0.5,0.1-1,0.2-1.5,0.2c-1.4,0-2.8,0-4.1,0.1c-0.7,0.1-1.5,0-2.2,0.1
		c-0.1,0-0.2,0-0.3,0.1c-0.9,0.4-1.8,0.5-2.8,0.4c-0.6-0.1-1.2,0.3-1.8,0c0,0-0.1,0-0.1,0c-0.4,0.2-0.8,0.1-1.1,0.1
		c-0.5,0-1.1,0.1-1.6-0.1c-0.2-0.1-0.4,0.1-0.4,0.2c0,0.7,0,1.4,0,2.1c0.3,0.4-0.1,0.9,0.1,1.3c-0.2,0.4-0.1,0.9-0.1,1.4
		c0,0.3,0,0.7,0.4,0.8c0.2,0.1,0.2,0.4-0.1,0.5c-0.1,0-0.3,0-0.4,0.1c-1.1,0-2.2,0.1-3.3,0.1c-0.1,0-0.1,0-0.2,0
		c-0.4,0.2-0.9,0.2-1.4,0.2c-0.5,0-0.9,0.1-1.4,0.1c0,0-0.1,0-0.1,0c-0.4,0.1-0.8,0.2-1.2,0.2c-0.5,0-1,0-1.5,0c-0.6,0-1-0.4-1-1
		c0-0.8,0-1.5,0-2.3c0-0.1,0-0.2,0-0.3c-0.2-0.5-0.1-0.9-0.1-1.4c0-0.1,0.1-0.3,0.1-0.4c-0.1-0.3-0.1-0.6,0-0.9
		c0.1-0.2-0.1-0.4-0.4-0.4c-0.5,0-0.9,0-1.4,0.1c-0.8,0-1.6,0.1-2.4-0.1c-0.3-0.1-0.6,0-0.9,0.1c-0.1,0-0.3,0.1-0.4,0
		c-0.3-0.2-0.6-0.1-0.9-0.1c-1-0.1-2,0.1-3-0.1c-0.8-0.1-1.6-0.1-2.4-0.1c-0.7,0-1.3-0.1-2-0.1c0,0,0,0-0.1,0
		c-0.3-0.2-0.7-0.1-1.1-0.1c-0.4,0-0.7-0.1-1.1,0c-1,0.1-2.1,0.1-3.1,0.1c-0.8,0-1.6,0-2.4-0.1c-1.1-0.1-2.3-0.1-3.4-0.1
		c-0.5,0-1,0.1-1.5,0c-0.3,0-0.7,0.1-1,0.1c-0.6,0-1.2-0.1-1.9,0.1c-0.1,0-0.2,0-0.3,0c-0.2-0.2-0.5-0.1-0.7-0.1
		c-0.6,0-1.2,0.1-1.9,0.1c-2.6,0.1-5.2,0-7.9,0.1c-0.7,0-1.5,0.1-2.2-0.1c-0.1,0-0.2,0-0.2,0c-0.2,0.2-0.4,0.1-0.6,0.1
		c-0.9,0.1-1.8-0.1-2.7,0.1c-0.2,0-0.4,0.1-0.6,0.1c-0.3-0.1-0.6,0-0.9,0c-0.3,0-0.7,0-1,0c-0.3,0-0.4,0.1-0.3,0.4
		c0,0.6,0.1,1.3,0.1,1.9c0,1.1,0,2.3,0,3.4c0,1.1-0.1,2.2-0.1,3.4c0,0.7,0,1.5-0.1,2.2c-0.2,1.3-0.2,2.6-0.2,4
		c0,1.1,0.1,2.1-0.1,3.2c-0.1,1-0.1,2.1-0.1,3.1c0,0.5-0.1,1-0.1,1.5c0,1-0.1,2-0.2,3c0,0.8,0.1,1.6-0.1,2.4c-0.1,0.5-0.1,1-0.1,1.5
		c-0.1,1.1-0.1,2.1-0.1,3.2c0,0.7-0.1,1.3-0.1,2c0,0,0,0,0,0.1c-0.2,0.3-0.1,0.7-0.1,1.1c0,0.4-0.1,0.7-0.1,1.1c0,0.3,0,0.6,0,0.9
		c0,0.3,0.1,0.6,0,0.9c-0.1,0.3,0,0.6,0,0.8c0,0.7,0,1.4,0,2.1c0,0.5,0,1.1-0.3,1.5c-0.1,0.2-0.1,0.3,0,0.5c0.1,0.4,0,0.8,0,1.2
		c0,0.2-0.1,0.3,0,0.5c0.1,0.2,0.1,0.5,0.1,0.7c0,0.5-0.1,1.1-0.1,1.6c0,1.3-0.2,2.6,0.1,3.9c0,0.1,0,0.2,0,0.2
		c-0.2,0.2-0.1,0.4-0.1,0.6c0,0.8-0.1,1.6,0.1,2.3c0.1,0.7,0,1.5,0.1,2.3c0.1,1.1,0.1,2.2,0.1,3.3c0,1.3,0,2.7,0,4
		c0,0.2,0,0.5,0,0.7c0.1,0.3-0.1,0.7,0,1c0.1,0.4,0.1,0.7,0,1.1c-0.1,0.5-0.1,1,0,1.5c0.1,0.4,0,0.8-0.2,1.2c0,0.1-0.1,0.2-0.1,0.2
		c-0.4,0.1-0.4,0.4-0.2,0.7c0.1,0.1,0,0.3,0,0.4c0,0.6-0.1,1.2,0,1.7c0.1,0.7,0.2,1.4,0.2,2.1c0,0.4-0.1,0.8,0.1,1.2
		c0,0.1,0,0.2-0.1,0.3c-0.2,0.3-0.1,0.6,0,1c0.2,0.4,0.4,0.8,0.2,1.3c0,0.1,0,0.2,0.1,0.2c0.1,0.2,0.2,0.5,0,0.7
		c-0.2,0.2,0,0.2,0.1,0.2c0.8,0,1.7,0.1,2.5,0.1c0.1,0,0.2,0,0.3,0c0.4,0.1,0.7,0.2,1.1,0.2c0.3,0,0.5-0.1,0.8-0.1
		c1.2,0,2.4,0,3.6-0.1c0.9-0.1,1.8-0.1,2.8-0.1c0,0,0.1,0,0.1,0c0.7-0.2,1.4-0.2,2.1-0.2c1.3,0,2.7,0,4,0.2c0.7,0.1,1.4,0,2.1,0.1
		c1.1,0.1,2.2,0,3.4,0.1c1.3,0.1,2.7-0.1,4,0.1c0.7,0.1,1.4,0.1,2.1,0.1c0.1,0,0.1,0,0.2,0c0.5,0.2,1,0.1,1.4,0.2
		c0.4,0.1,0.8,0,1.1,0.1c0.6,0.2,1.2,0.2,1.8,0.2c0.2,0,0.5,0,0.7,0c0.8,0.1,1.6,0.1,2.4,0.1c0.5,0,0.9,0,1.4,0.1
		c0.7,0.1,1.5,0.2,2.2,0.2c3.1,0,6.2,0,9.3,0c0.5,0,1,0,1.5-0.1c0.7-0.1,1.4-0.1,2.1-0.1c1.4-0.1,2.8,0.1,4.2-0.1
		C65.8,172.1,66.6,172.1,67.5,172 M6.5,150.3c0-0.2,0.1-0.3,0.1-0.5c0-0.8-0.2-1.7-0.2-2.5c0-3-0.1-5.9,0.1-8.9c0-0.6,0-1.3,0-1.9
		c0-0.7,0-1.3,0-1.9c-0.1-0.6,0.1-1.2,0-1.9c0-0.1,0-0.3,0-0.4c-0.1-0.1,0.1-0.2,0.1-0.4c0-0.6,0-1.1,0-1.7c0.1-0.9,0.1-1.9,0.1-2.8
		c0-0.1,0-0.2,0-0.3c0.2-0.6,0-1.2,0.2-1.9c0.1-0.6,0-1.2,0.1-1.8c0.1-0.6,0-1.2,0.1-1.8c0.1-0.6,0-1.1,0.1-1.7c0.1-1,0.1-2,0.1-3
		c0-0.6,0-1.2,0.1-1.7c0.1-0.7,0.1-1.4,0.1-2.2c0-0.8,0-1.6,0-2.4c0-0.1,0-0.2,0-0.3c0.2-0.7,0.1-1.5,0.2-2.2
		c0.1-0.8-0.1-1.7,0.1-2.6c0-0.1,0-0.1,0-0.2c0-0.2-0.1-0.3-0.1-0.5c0-0.9,0.1-1.8,0.1-2.7c0-0.1,0-0.1,0-0.2
		c0.2-0.5,0.1-1.1,0.2-1.6c0.1-0.9,0-1.9,0.1-2.9c0.1-1.1,0-2.1,0.1-3.2c0.1-1.1,0-2.3-0.1-3.4c0-0.3-0.1-0.4-0.4-0.5
		c-0.3-0.1-0.6-0.1-0.9-0.2c-0.5-0.1-0.5-0.1-0.5,0.3c0,1.9-0.1,3.9,0.1,5.8c0,0.3,0,0.6,0,0.9c0,0.3,0.1,0.6,0,0.8
		c-0.2,0.3,0.1,0.5,0,0.8c-0.1,0.7,0.1,1.5-0.2,2.1c0.2,0.5,0,1.1,0,1.6c-0.1,0.6-0.1,1.2-0.1,1.7c0,0,0,0.1,0,0.1
		c-0.2,0.7-0.3,1.5-0.3,2.3c0,0.3,0,0.7,0,1c0,0.3-0.2,0.7,0,1c0,0,0,0.1,0,0.2c-0.2,0.2-0.1,0.4-0.1,0.6c0,0.6,0.1,1.2,0.1,1.8
		c0,1.5-0.1,3-0.1,4.6c0,0.7-0.1,1.4-0.1,2.1c0,0,0,0.1,0,0.1c-0.2,0.6-0.2,1.2-0.2,1.8c-0.1,1.7,0,3.4-0.1,5.1
		c-0.1,0.9-0.1,1.9-0.1,2.8c0,0.5,0,1-0.1,1.4c-0.1,0.7-0.2,1.4-0.2,2.1c0,0.4,0,0.9-0.1,1.3c-0.1,0.6-0.1,1.3-0.1,1.9
		c-0.1,1.8,0,3.7-0.1,5.5c-0.1,1.4,0,2.8-0.1,4.2c-0.1,1.4,0,2.7-0.1,4.1c-0.1,2.4-0.1,4.8-0.1,7.3c0,0.4,0,0.7,0,1.1
		c0,0.3,0,0.5,0,0.8c0,0.3-0.1,0.5,0,0.7c0.1,0.3-0.1,0.5,0,0.7c0.1,0.3,0.1,0.6,0.1,0.9c0,0.6,0.1,1.2,0.1,1.7
		c0,0.3,0.2,0.6,0.2,0.9c0,0.4,0.2,0.8-0.2,1.1c-0.1,0-0.1,0.2-0.1,0.3c0.2,0.6,0.2,1.3,0.3,1.9c0.1,0.8,0.1,1.5,0.1,2.3
		c0.1,1.9,0,3.9,0,5.8c0,0.2,0,0.3-0.1,0.5c-0.1,0.2,0,0.3,0.2,0.3c0.1,0,0.2,0,0.4,0c1.1,0,2.2-0.1,3.3-0.1c1,0,2,0,3-0.2
		c0.2,0,0.5,0,0.7,0c0.6,0.2,1.2,0.3,1.8,0.3c0.3,0,0.6-0.1,0.9,0c0.8,0.2,1.7,0.3,2.5,0.3c1.2,0,2.4-0.1,3.6-0.1c0.1,0,0.3,0,0.4,0
		c0.5,0.2,1.1,0,1.7,0.2c0.4,0.1,0.9,0,1.3,0c0.5,0,0.9,0,1.4,0c0.4,0,0.8,0.1,1.3,0c0.3-0.1,0.6,0,0.9,0c0.3,0,0.5,0,0.8,0
		c3.1-0.1,6.1,0.1,9.2-0.1c0.8-0.1,1.7,0,2.6-0.1c1.9-0.1,3.9,0,5.8-0.1c0.5,0,1.1,0.1,1.6,0.1c3.2-0.1,6.4,0.1,9.5-0.1
		c1.3-0.1,2.6,0.1,3.9-0.1c0.6-0.1,1.2,0,1.7,0c0.5,0,1,0.1,1.6,0c0.4,0,0.8,0.1,1.2,0.1c1.4,0,2.8,0.1,4.2,0.1c0.9,0,1.8,0,2.8,0
		c0.1,0,0.2,0,0.3,0c0.7-0.2,1.5-0.1,2.2-0.2c0.4,0,0.8,0,1.2,0c1.4-0.1,2.8,0,4.2-0.1c1.2-0.1,2.3,0.1,3.5-0.1c0.2,0,0.4,0,0.5-0.1
		c0.1-0.1,0.1-0.4,0.1-0.5c0-0.2,0-0.4,0-0.6c0-0.5-0.3-0.8-0.5-1.1c0-0.1-0.2-0.1-0.2-0.1c-0.3-0.1-0.6,0.1-0.8-0.1
		c-0.2-0.2-0.5,0.3-0.8,0c-0.6,0.1-1.2,0.2-1.8,0.2c-0.7,0.1-1.4,0-2.2,0.1c-0.6,0.1-1.2,0.1-1.8,0.1c-0.1,0-0.1,0-0.2,0
		c-0.5,0.1-1,0.2-1.5,0.3c-1,0.1-2,0.1-2.9,0.1c-0.8,0-1.6,0-2.3,0.1c-0.9,0.1-1.8,0.1-2.7,0.2c-1,0.1-2.1,0.1-3.1,0.1c-1,0-2,0-3,0
		c-0.1,0-0.2,0-0.3,0c-0.8,0.1-1.6,0.2-2.4,0.2c-3.1,0-6.2,0-9.3,0c-0.6,0-1.2,0-1.8-0.1c-0.4-0.1-0.7,0-1-0.1
		c-0.6-0.1-1.3-0.2-1.9-0.2c-0.8,0-1.5,0-2.3,0c-0.1,0-0.2,0-0.3,0c-0.7-0.1-1.4-0.2-2.1-0.3c-0.4-0.1-0.8-0.1-1.1-0.1
		c-0.8-0.1-1.6-0.2-2.4-0.3c-0.7-0.1-1.5-0.1-2.2-0.1c-1-0.1-2,0-2.9-0.1c-1-0.1-2.1,0-3.1-0.1c-0.7-0.1-1.4,0-2.1-0.1
		c-0.8-0.1-1.5-0.1-2.3-0.1c-0.1,0-0.3,0-0.4,0c-0.3-0.2-0.5-0.1-0.8-0.1c-0.5,0.1-1,0.1-1.5,0.1c-0.1,0-0.2,0-0.3,0
		c-1.1,0.2-2.1,0.2-3.2,0.2c-0.1,0-0.3,0-0.4,0c-0.5,0.2-1,0.1-1.5,0.2c-0.5,0.1-1.1,0-1.7,0c-0.5,0-1.1,0-1.6,0
		c-0.7,0-1.3-0.2-1.9-0.3c-0.4-0.1-0.8-0.1-1.2-0.1c-0.3,0-0.5,0.1-0.8,0.1c-0.2,0-0.4,0.1-0.5,0.2c-0.1,0.1-0.1,0.2-0.2,0.3
		c-0.5,0.5-0.9,1.1-1.4,1.6c-0.1,0.1-0.2,0.1-0.3,0.2c-0.2,0.1-0.3,0.1-0.4-0.1c-0.1-0.1-0.1-0.3,0.1-0.4c0.1-0.1,0.2-0.2,0.3-0.3
		c0.3-0.4,0.7-0.8,0.6-1.4c0-0.2,0.1-0.4,0.2-0.6c0.2-0.3,0.3-0.5,0.2-0.9c-0.1-0.3-0.1-0.7,0-1c0.1-0.7,0.2-1.4-0.1-2
		c0-0.1-0.1-0.2-0.1-0.3c0.1-1.4-0.1-2.9,0.1-4.3c0-0.1,0.1-0.3,0-0.4c-0.2-0.3-0.1-0.5-0.1-0.8c0-0.3,0.1-0.7,0.1-1
		c0-0.3,0.1-0.5,0.1-0.8c0-0.2,0.1-0.4,0.1-0.6c-0.1-2.6,0.1-5.2-0.1-7.8C6.5,151.3,6.5,150.8,6.5,150.3 M57.8,67.1c0-2,0-3.9,0-5.9
		c0-0.5,0.1-0.9,0-1.4c0-0.2,0.2-0.3,0.1-0.6c-0.1-0.3,0-0.6-0.3-0.9c0,0,0.1-0.2,0.1-0.3c0-0.3,0.2-0.5,0.1-0.8
		c-0.1-0.4-0.1-0.8-0.1-1.2c0-0.3,0-0.5-0.2-0.8c-0.1-0.1-0.1-0.3,0-0.4c0.2-0.1,0.1-0.3,0.1-0.5c0-1.3-0.1-2.5-0.1-3.8
		c0-0.1,0-0.3,0-0.4c0.2-0.5,0.1-1.1,0.2-1.7c0.1-0.5,0-1.1,0.1-1.7c0.1-0.8,0.1-1.6,0.1-2.4c0-0.2-0.1-0.4,0.1-0.6c0,0,0-0.1,0-0.1
		c-0.1,0-0.1,0-0.2,0.1c-0.1,0.2-0.2,0.4-0.3,0.5c-0.7,0.8-1.2,1.8-1.9,2.6c-0.4,0.5-0.8,1.1-1.2,1.6c-0.4,0.5-0.9,1-1.2,1.6
		c-0.6,0.9-1.2,1.9-2,2.7c-0.3,0.3-0.6,0.6-0.8,0.9c-0.4,0.7-0.9,1.3-1.4,1.8c-0.2,0.2-0.4,0.3-0.5,0.5c-0.5,0.5-0.9,1.1-1.4,1.7
		c-0.2,0.2,0,0.1,0.1,0.2c0.2,0.1,0.2,0.3,0,0.4c-0.1,0.1-0.3,0.1-0.4,0.1c-0.2,0.1-0.4,0.2-0.5,0.4c-0.6,0.9-1.3,1.7-2,2.5
		c-0.2,0.2-0.3,0.3,0,0.5c0.1,0.1,0.2,0.2,0.2,0.3c0.1,0.3,0,0.4-0.2,0.4c-0.1,0-0.1,0-0.2,0c-0.5,0-0.9,0.1-1.3,0.5
		c-0.4,0.4-0.8,0.8-1.1,1.3c-0.2,0.2-0.3,0.4-0.4,0.6c0,0-0.2,0.1,0,0.2c0.4,0.1,0.7,0.1,1.1,0.1c0.3,0,0.5,0.1,0.8,0.1
		c0.1,0,0.1,0.1,0.1,0.1c0,0.1-0.1,0.1-0.1,0.1c-0.3,0.1-0.5,0.1-0.8,0.1c-0.5,0-1,0-1.5,0.1c-0.2,0-0.5,0.1-0.6,0.4
		c-0.1,0.2-0.3,0.4-0.5,0.7c-0.2,0.3-0.5,0.6-0.7,0.9c-0.3,0.4-0.7,0.8-1,1.3c-0.5,0.7-1.1,1.4-1.6,2.2c-0.1,0.1-0.1,0.2-0.1,0.4
		c0.1,0,0.2,0,0.4,0c0.2,0,0.5,0.1,0.7,0.1c1,0,2,0.1,2.9,0.1c0.9,0,1.8,0,2.7-0.1c0.5-0.1,1-0.1,1.5-0.1c0.7-0.1,1.5-0.3,2.2-0.3
		c1-0.1,2-0.1,2.9-0.1c1.4-0.1,2.9,0.1,4.3-0.1c0.8-0.1,1.6-0.1,2.4-0.1c0.5,0,0.9-0.1,1.4-0.1c0.2,0,0.3-0.2,0.3-0.4
		c-0.2-0.6-0.1-1.1-0.1-1.7c0-0.3,0.1-0.6,0.1-0.8C57.8,67.8,57.8,67.5,57.8,67.1 M76.1,75.4c-1.2,0.1-2.4-0.1-3.5,0.1
		c-0.7,0.1-1.4,0.1-2.1,0.2c-0.7,0.1-1.4,0.1-2.2,0.1c-0.3,0-0.7,0-1,0c-0.3,0-0.7,0-1,0c-0.4,0-0.7,0-1.1,0c-0.3,0-0.7,0-1,0
		c-0.3,0-0.6,0-0.9,0c-0.8,0-1.6,0-2.4,0.1c-1.7,0.1-3.4,0.1-5,0.1c-0.8,0-1.7,0-2.5-0.1c-0.5-0.1-1,0-1.6,0c-0.5,0-1,0.1-1.5,0
		c-0.5-0.1-1,0-1.4-0.1c-0.7-0.1-1.4,0-2.1-0.1c-1.1-0.1-2.3-0.1-3.5-0.1c-0.8,0-1.6-0.1-2.4,0.1c-0.2,0-0.4-0.1-0.7-0.1
		c-0.2,0-0.5,0.1-0.7,0.1c-1.7,0-3.3,0-5,0.1c-1,0-2,0-3,0c-0.1,0-0.2,0-0.3,0c-0.7,0.2-1.5,0.1-2.2,0.2c-0.4,0.1-0.8,0-1.2,0
		c-0.4,0-0.9,0.1-1.2-0.2c-0.2-0.1-0.1,0-0.1,0.1c0,0.6,0,1.2,0.1,1.9c0.1,1.1,0.1,2.2,0.1,3.3c0,0.2-0.1,0.4,0.3,0.2
		c0.1-0.1,0.4-0.1,0.6-0.1c0.1,0,0.3,0,0.4,0c0.7-0.3,1.5-0.3,2.3-0.3c0.2,0,0.5,0.1,0.6,0c0.4-0.2,0.8-0.1,1.1-0.1
		c0.6,0.1,1.2,0,1.7,0.1c0.1,0,0.3,0,0.4,0c0.7,0.1,1.3,0.2,2,0.2c0.1,0,0.3,0,0.4,0c0.7,0.3,1.5,0,2.2,0c0.5,0,1.1-0.2,1.6-0.2
		c0.5,0,1,0.1,1.5,0c0.7-0.1,1.3-0.2,2-0.2c1.3,0,2.6-0.1,3.9-0.1c0.1,0,0.2-0.1,0.3-0.1c0.1,0,0.1-0.1,0.2-0.1c-0.1,0-0.1,0-0.2,0
		c-1.3,0-2.6,0-3.8,0c-0.4,0-0.8-0.2-1.2,0c-0.6-0.3-1.2-0.1-1.8-0.2c-1.1-0.1-2.1-0.1-3.2-0.1c-0.5,0-1,0-1.5,0
		c-0.2,0-0.4-0.1-0.6-0.1c-0.4,0-0.7,0.2-1.1,0.2c-0.6,0.1-1.2,0.1-1.8,0.1c-0.6,0-1.1,0-1.7,0.1c-0.4,0-0.8,0-1.3,0
		c-0.6,0-1.2-0.1-1.8-0.2c-0.4-0.1-0.8-0.3-0.9-0.7c-0.1-0.2,0-0.3,0.2-0.4c0.2,0,0.5,0,0.7,0c0.4,0,0.7,0.2,1.1,0.2
		c1.4,0,2.8-0.1,4.2-0.1c0.1,0,0.1,0,0.2,0c0.4-0.2,0.8-0.1,1.3-0.2c0.4-0.1,0.8,0,1.2,0c1.5,0,2.9,0,4.4,0.2c1,0.1,2,0.1,3,0.1
		c0.1,0,0.3,0,0.4,0c0.7,0.2,1.4,0,2,0.2c1.8-0.1,3.5,0.1,5.3-0.1c0.9-0.1,1.8-0.1,2.7-0.2c1-0.1,2-0.1,3.1-0.2
		c1-0.1,2.1-0.1,3.1-0.1c0.7,0,1.3-0.1,2-0.1c0,0,0.1,0,0.1,0c0.5-0.2,1-0.1,1.5-0.2c0.7-0.1,1.4,0,2.1-0.1c1-0.1,2-0.1,2.9-0.1
		c1,0,2.1,0.1,3.2-0.1c0.1,0,0.2,0,0.3,0c0.2,0.2,0.5,0.1,0.7,0.1c1.4,0,2.7,0.1,4.1-0.1c0.3,0,0.4-0.1,0.4-0.4c0-0.5-0.1-1,0.1-1.5
		c0.1-0.2,0-0.7-0.1-0.8C76.8,75.2,76.5,75.3,76.1,75.4 M33.3,72.9c-0.6,0.2-1.2,0-1.8,0.1c-1,0.1-2,0.1-3,0.1
		c-0.2,0-0.4-0.1-0.5-0.1c-0.3,0.1-0.7,0.1-1,0.1c-0.2,0-0.4,0.1-0.4,0.4c0,0.2-0.1,0.3-0.1,0.5c0,0-0.1,0-0.1,0
		c-0.1-0.1-0.1-0.2-0.2-0.3c0,0-0.1,0-0.1,0c0,0,0,0,0,0.1c0,0.3,0.1,0.5,0.1,0.8c0,0.2,0.1,0.3,0.2,0.2c0.2,0,0.4-0.1,0.7-0.1
		c0.9,0,1.7,0,2.6-0.1c1.5-0.1,3.1,0,4.6-0.1c1.4-0.1,2.8,0,4.2-0.1c1.4-0.1,2.8,0.1,4.2-0.1c0.3,0,0.5,0.1,0.8,0.1
		c1.3,0.1,2.6,0,3.9,0.1c1.5,0.1,2.9,0,4.4,0.1c2.1,0.1,4.1,0.1,6.2-0.1c1.5-0.1,2.9,0,4.4-0.1c0.9-0.1,1.8,0,2.7,0.1
		c0.8,0.1,1.6,0.1,2.4-0.1c0.9-0.2,1.9-0.2,2.8-0.2c0.6,0,1.2,0,1.7-0.1c0.9-0.1,1.8,0,2.7-0.1c0.6-0.1,1.3,0,1.9,0
		c0.3,0,0.4-0.1,0.4-0.4c0-0.5,0-0.9,0-1.4c0-0.2-0.1-0.3-0.3-0.3c-0.4,0-0.8-0.1-1.2-0.1c-1.3,0-2.7,0-4-0.1c-0.6-0.1-1.2,0-1.7,0
		c-0.1,0-0.3,0-0.4,0c-0.6-0.2-1.2-0.1-1.8,0c-0.2,0-0.4,0.1-0.6,0.1c-0.7,0-1.4-0.1-2.1-0.1c-0.1,0-0.3,0-0.4,0
		C64.3,72,63.9,72,63.5,72c-0.2,0-0.3,0-0.5,0c-0.6,0.2-1.2,0.1-1.8,0.2c-0.9,0.1-1.7,0-2.6,0c-0.8,0.1-1.6-0.2-2.5-0.1
		c-0.4,0.1-0.8,0-1.2,0.1c-0.7,0.1-1.4,0.1-2.1,0.1c-0.6,0-1.2,0.1-1.8-0.1c-0.3-0.1-0.7,0.1-1,0.1c-0.3,0-0.7,0-1,0
		c-0.3,0-0.6,0-0.9,0c-0.5,0-1.1,0.1-1.6,0.2c-0.7,0.1-1.4,0.1-2,0.2c-0.7,0.1-1.4,0.2-2.1,0.2c-1.9,0-3.9-0.1-5.8-0.1
		c-0.1,0-0.3-0.1-0.4-0.1c-0.3,0-0.6-0.2-0.9-0.1C34.6,72.9,34,72.9,33.3,72.9 M24.2,87.7c-1.2,0-2.5,0.1-3.7,0.1
		c-0.9,0-1.8-0.1-2.8,0.1c-0.5,0.1-1,0-1.5,0c-0.5,0-1,0-1.5,0c-0.5,0-1,0.1-1.5,0c-0.5-0.1-0.9,0-1.4-0.1c-0.6-0.1-1.1-0.1-1.7-0.1
		c-1.2-0.1-2.5,0-3.7-0.1c-0.3,0-0.7,0-1-0.1c-0.6-0.2-1.2-0.2-1.5-0.9c0-0.1-0.1-0.1-0.2-0.2c-0.8-0.6-1-1-0.6-2
		c0.1-0.2,0-0.2-0.1-0.2c-0.3,0-0.6,0.1-0.9,0c-0.3-0.1-0.4,0-0.5,0.2c-0.2,0.3-0.3,0.6-0.6,0.8c-0.6,0.5-0.4,1-0.2,1.5
		c0.1,0.2,0.3,0.5,0.4,0.7c0.4,0,0.7,0.4,1.2,0.3c0.1,0,0.2,0,0.3,0.1c0,0.1-0.1,0.2-0.1,0.3c0,0.1-0.1,0.1-0.2,0.1
		c0.1,0,0.1,0.1,0.2,0.1c0.5,0.1,1,0.1,1.4,0.2c0.5,0.1,1,0.2,1.4,0.3c0.5,0.2,0.9,0.2,1.4,0.2c0.1,0,0.3,0.1,0.4,0.1
		c0.6,0.1,1.2,0.5,1.9,0.3c0.1,0,0.2,0.1,0.2,0.1c0.2,0,0.3,0,0.5,0c0.1,0,0.3-0.1,0.4-0.1c0.9,0,1.7-0.1,2.6,0.1
		c0.5,0.1,1,0,1.5-0.1c0.6-0.1,1.2,0.1,1.8,0.1c1.2,0,2.4-0.1,3.6-0.1c0.3,0,0.6-0.2,0.8,0c0,0,0.1,0,0.2-0.1c0.1,0,0.3-0.1,0.4,0
		c0.3,0.2,0.6,0.1,0.9,0.1c2.2,0,4.4-0.1,6.7-0.1c0.3,0,0.7-0.3,1,0c0,0,0,0,0,0c0.7-0.1,1.4-0.2,2-0.2c0.3,0,0.6-0.1,0.9,0
		c0.3,0,0.6,0.1,0.9,0.1c1,0,2.1,0,3.1,0.1c0.8,0.1,1.6,0.1,2.4-0.1c0.7-0.1,1.4,0,2.1-0.1c0.8-0.1,1.7,0,2.5,0.1
		c0.5,0.1,1,0.1,1.5,0.2c0.7,0.1,1.4,0,2.1,0.1c1.1,0.1,2.2,0.1,3.3,0.1c1,0,1.9,0,2.9,0c0.1,0,0.3,0,0.4,0c0.3,0,0.6,0.1,0.8,0.1
		c0.2,0,0.6,0,0.8,0.1c0.2,0.1,0.4,0.1,0.5,0.1c0.4,0,0.8,0,1.1-0.1c0.1,0,0.3-0.1,0.3-0.4c0-0.2,0-0.4,0-0.6c0-0.4,0-0.4-0.4-0.6
		c0,0-0.1,0-0.1,0c-0.2-0.1-0.5-0.1-0.7-0.2C56.3,88,56,87.9,55.7,88c-0.5,0.1-0.9,0.2-1.4,0.2c-0.6,0.1-1.3,0.1-1.9,0.1
		c-0.5,0-1,0-1.5-0.1c-0.9-0.1-1.9,0-2.8-0.1c-0.5-0.1-1.1,0-1.6,0c-0.6,0-1.1,0-1.7,0c-0.5,0-1,0-1.5,0c-0.9,0-1.9-0.1-2.8-0.2
		c-0.9-0.1-1.8,0-2.7-0.1c-0.7-0.1-1.3,0-2,0c-0.1,0-0.2,0-0.3,0c-0.5-0.2-1,0-1.5-0.2c-1.8,0.1-3.7-0.1-5.5,0.1
		C27,87.7,25.6,87.7,24.2,87.7 M85.5,97c0,0.5,0,1,0.1,1.5c0.1,0.8,0.1,1.7,0.1,2.5c0.1,0.8,0.1,1.6-0.1,2.4c-0.1,0.5,0,1,0,1.6
		c0,0.5,0,1,0,1.5c0,0.5-0.1,1,0,1.5c0.1,0.3,0.1,0.6-0.1,0.9c-0.1,0.1,0.1,0.4,0.1,0.6c0,1.2,0.1,2.5-0.1,3.7c0,0.1,0,0.2-0.1,0.3
		c-0.2,0.3-0.3,0.7-0.2,1.1c0,0.3-0.1,0.6-0.1,0.9c0,2,0,4,0,6c0,2-0.1,3.9,0.1,5.9c0.1,1.9,0.1,3.8,0.1,5.6c0,0.3,0,0.6,0,0.9
		c0,0.3-0.2,0.6,0,0.8c-0.3,0.5-0.1,1.1-0.2,1.6c-0.1,1.1-0.1,2.2-0.1,3.3c-0.1,1.2,0.1,2.5-0.1,3.7c-0.1,0.5,0,1-0.1,1.5
		c-0.1,0.5-0.1,1.1-0.1,1.7c-0.1,1.7-0.1,3.4-0.1,5.1c0,0.2-0.1,0.3-0.1,0.5c0,0.1,0,0.2,0,0.2c0.2,0.3,0.1,0.6,0.1,0.9
		c0,0.4,0,0.8-0.1,1.3c-0.1,0.5,0.1,1,0.1,1.5c0.1,2.7-0.1,5.5,0.1,8.2c0.1,0.9,0,1.8,0,2.8c0,0.1,0,0.3,0,0.4
		c0.1,0.5,0.1,1.1,0.1,1.7c0,0.1-0.1,0.3-0.2,0.3c-0.4,0.1-0.2,0.4-0.2,0.6c0,0.1,0.1,0.2,0.1,0.3c0,0.3,0.1,0.6,0.1,0.9
		c0,0.1,0.1,0.2,0.2,0.2c0-0.1,0.1-0.2,0.1-0.3c-0.1-0.3,0.1-0.5,0.4-0.6c0.2-0.1,0.3-0.2,0.3-0.4c0.1-0.7,0.2-1.3,0.2-2
		c0-0.3-0.1-0.6,0-0.8c0.2-0.7,0.2-1.4,0.2-2.1c0.1-1.9,0-3.8,0-5.7c0-1.9,0-3.8,0.1-5.8c0.1-1.5,0.1-3-0.1-4.6
		c-0.1-1.1,0-2.2-0.1-3.3c-0.1-0.6,0-1.3,0-2c0-0.4,0.1-0.9,0.1-1.3c0.1-2.2-0.1-4.4,0.1-6.6c0.1-1.1,0-2.2,0.1-3.3
		c0.1-0.7,0.1-1.5-0.1-2.3c-0.1-0.6-0.1-1.2-0.1-1.8c0-1.9-0.1-3.8,0.1-5.8c0-0.1,0-0.1,0-0.2c0.2-0.7,0-1.5,0.2-2.2
		c0.1-0.2-0.1-0.5-0.1-0.8c0-1.3-0.1-2.7,0.1-4c0.1-1,0-2,0.1-3c0.1-0.8-0.1-1.7-0.1-2.6c0-1.4,0.1-2.9,0.1-4.3
		c0-1.4-0.1-2.7,0.1-4.1c0.1-1.2,0.1-2.4,0.1-3.6c0-0.3-0.1-0.7-0.1-1c0-2.2-0.1-4.3-0.1-6.5c0-0.3,0.1-0.6,0.1-0.9
		c0-0.2,0-0.3,0-0.5c-0.1,0-0.3,0.1-0.4,0.1c0,0-0.1,0-0.1,0c-0.2,0-0.4,0-0.5,0c0,0.2,0.1,0.4,0.1,0.5C85.4,92.3,85.3,94.6,85.5,97
		 M37.1,58.6c-0.2-0.5-0.1-0.7,0.4-0.7c0.2,0,0.4,0,0.5,0c1.6,0,3.2-0.1,4.8-0.1c0.1,0,0.1,0,0.2,0c0.8-0.3,1.6,0,2.4,0
		c0.3,0,0.4,0,0.6-0.2c0.5-0.6,0.9-1.2,1.4-1.7c0,0,0.1-0.1,0.1-0.1c-0.1,0-0.1-0.1-0.2-0.1c-0.9,0-1.7,0.1-2.6,0
		c-0.1,0-0.2,0-0.2,0c-0.5,0.2-1,0.1-1.5,0.1c-0.7-0.1-1.3-0.2-2-0.2c-0.7,0-1.4,0.1-2-0.1c-0.1,0-0.2,0-0.2,0.1
		c-0.4,0.4-0.8,0.9-1.2,1.4c-0.5,0.6-0.9,1.3-1.4,2c-0.7,0.9-1.4,1.8-2,2.7c0,0.1-0.1,0.2-0.1,0.2c0,0,0.1,0.1,0.2,0.1
		c0.4,0,0.7,0,1.1,0c0.4,0,0.7,0,1,0c0.5,0,0.9-0.1,1.4-0.1c0.3,0,0.5,0.1,0.8,0.1c0.3,0,0.6-0.1,0.8-0.1c0.8,0,1.6,0,2.4,0
		c0.4,0,0.7,0,1-0.4c0.4-0.5,0.8-1.1,1.3-1.6c0.2-0.3,0.5-0.6,0.7-0.8c0,0,0-0.1,0.1-0.2c0,0-0.1,0-0.1,0c-0.1,0-0.2,0-0.3,0
		c-0.8,0-1.7,0-2.5,0.1c-0.8,0.1-1.7,0.1-2.5,0c-0.6,0-1.3,0-1.9,0C37.4,58.9,37.2,58.9,37.1,58.6 M63.8,29.9c0.2,0,0.4,0,0.6,0
		c0.1,0,0.1,0.1,0.2,0.1c0.3,0,0.7-0.1,1-0.1c0.5,0.1,1,0.1,1.5,0c0.2,0,0.2-0.1,0.2-0.2c0-0.3,0-0.5,0-0.8c0-0.2-0.1-0.5,0-0.7
		c0,0-0.1-0.1-0.1-0.1c-0.1,0-0.1,0-0.2,0c-1.6,0.1-3.2-0.1-4.8,0.1c-0.5,0.1-0.9-0.1-1.4-0.1c-0.3,0-0.6-0.1-0.8-0.2
		c-0.2-0.1-0.4-0.4-0.6-0.3c-0.2,0.1-0.4,0.3-0.6,0.4c-0.1,0.1-0.1,0.2-0.2,0.2c-0.1,0.1-0.3,0.3-0.4,0.3c-0.2,0-0.4,0.2-0.5,0.3
		c-0.5,0.8-1.2,1.3-1.7,2.2c-0.4,0.7-0.8,1.4-1.2,2.1c-0.1,0.1-0.1,0.3,0.2,0.3c0.4,0,0.7-0.1,1.1-0.1c0.8,0,1.6-0.1,2.4-0.2
		c0.8-0.1,1.7-0.1,2.6-0.1c0.8,0,1.6,0.1,2.3,0.1c0.4,0,0.7,0.1,1.1,0c0.4-0.1,0.7,0.3,1,0c0.5,0.2,1.1,0,1.6,0
		c0.1,0,0.3-0.1,0.3-0.2c0.1-0.6,0.1-1.1,0.1-1.7c0-0.3-0.1-0.2-0.3-0.2c-0.2,0-0.4,0.1-0.5,0.1c-0.4-0.1-0.8-0.1-1.2-0.1
		c-0.2,0-0.4,0.2-0.5,0.1c-0.4-0.3-0.8,0.2-1.2-0.1c-0.4,0.2-0.7,0.1-1.1,0.1c-0.4,0-0.8,0-1.2,0c-0.7,0-1.4,0-2.2,0
		c-0.1,0-0.3,0-0.4,0c-0.6,0.2-1.2,0.2-1.8,0.2c-0.1,0-0.3,0-0.4-0.1c-0.2-0.1-0.3-0.3-0.3-0.5c0-0.3,0.3-0.3,0.5-0.3
		c0.5-0.1,1-0.2,1.5-0.2c0.8-0.1,1.5-0.1,2.3-0.1c0.6,0,1.2,0,1.7,0.1C62.9,30.1,63.3,30,63.8,29.9 M55.8,40c-1.5,0-3-0.1-4.4-0.1
		c-0.2,0-0.5,0-0.7-0.2c-0.1-0.1-0.2-0.1-0.2,0.1c-0.3,0.5-0.6,0.9-0.9,1.4c-0.2,0.3-0.5,0.7-0.7,1c0,0.1-0.1,0.2,0,0.2
		c0.1,0,0.1,0.1,0.2,0.1c0.2,0,0.4-0.1,0.6-0.1c0.3,0,0.5,0.1,0.8,0.1c1.1,0,2.1,0.1,3.2-0.1c0.5-0.1,1,0,1.6-0.1
		c0.6-0.1,1.2-0.1,1.8,0c0.6,0.1,1.2-0.1,1.8,0c1.1,0.1,2.2,0.1,3.3,0.1c0.3,0,0.5,0,0.8-0.1c0.2-0.1,0.5,0.1,0.8,0.1
		c0.9,0,1.8,0,2.7,0c0.1,0,0.3,0,0.4,0c0.3,0.2,0.3,0,0.3-0.2c0.1-0.7,0.1-1.4,0.1-2.1c0-0.2-0.1-0.2-0.2-0.2c-1,0-2.1,0-3.1,0
		c-0.3,0-0.5,0.1-0.8,0.1c-0.2,0-0.4-0.1-0.6-0.1c-1.1,0-2.2,0.1-3.3,0.1c-0.2,0-0.3,0.1-0.5,0.1C58.4,40,58.2,40,58,40
		c-0.7,0-1.3,0.1-2-0.1C56,39.8,55.9,39.9,55.8,40 M33,72c0.5,0,1-0.1,1.5-0.1c0.1,0,0.2-0.1,0.3-0.2c0.5-0.8,1-1.7,1.8-2.4
		c0,0,0-0.1,0.1-0.1c-0.1,0-0.1,0-0.2,0c-0.5,0.1-1.1,0.1-1.6,0.2c-0.3,0.1-0.6,0-0.9,0.1c-0.3,0-0.6,0.1-0.9,0.1
		c-0.2,0-0.4,0-0.6,0c-0.2,0-0.4,0-0.6,0c-0.2,0-0.4,0.1-0.5,0.1c-0.3-0.1-0.7-0.1-1-0.1c-0.3,0-0.6-0.1-0.9-0.1
		c-0.1,0-0.2-0.1-0.3-0.2c-0.2-0.3,0.1-0.7,0.5-0.7c0.6,0,1.1,0,1.7,0.1c0.5,0.1,1.1,0,1.6-0.1c1.3-0.1,2.6,0,3.9-0.1
		c0.3,0,0.4-0.1,0.6-0.3c0.1-0.2,0.3-0.4,0.4-0.6c0.4-0.4,0.7-0.8,1.1-1.2c0,0,0.1-0.1,0.1-0.1c-0.1,0-0.1-0.1-0.2-0.1
		c-0.3,0-0.6,0.1-0.9,0.1c-0.6,0-1.1,0.1-1.7,0c-0.3,0-0.7,0.1-1,0.1c-0.3,0-0.5,0.1-0.8,0.1c-0.4,0-0.9,0.1-1.4-0.1
		c-0.4-0.1-0.8-0.2-1.2-0.2c-0.2,0-0.4,0-0.6,0c-0.3,0-0.4,0.1-0.6,0.3c-0.4,0.6-0.8,1.1-1.1,1.6c-0.2,0.3-0.4,0.5-0.5,0.8
		c-0.5,0.7-1,1.5-1.5,2.2c-0.2,0.3-0.4,0.6-0.6,0.9c-0.1,0.2-0.1,0.3,0.2,0.3c0.3,0,0.6-0.1,0.9-0.1c0.9-0.1,1.9,0.1,2.8-0.1
		C31.5,72,32.2,72.1,33,72 M53.8,38.9c0.8,0,1.6,0,2.4,0c0.1,0,0.3,0,0.4,0c0.7,0.2,1.3,0.1,2,0.1c0.3,0,0.6,0,0.9-0.1
		c0.3,0,0.6-0.1,0.9-0.1c0.8,0,1.6,0.1,2.4,0.1c1,0,2,0,3,0c0.3,0,0.5,0,0.8,0.1c0.2,0.1,0.4,0,0.4-0.3c0-0.6,0.1-1.2,0.1-1.8
		c0-0.4,0-0.4-0.4-0.3c-0.1,0-0.1,0-0.2,0c-0.6,0-1.2,0.1-1.9,0.1c0,0-0.1,0-0.1,0c-0.5,0.2-1,0.2-1.4,0.2c-1.9,0-3.8,0.1-5.6-0.1
		c-1.2-0.1-2.4-0.1-3.6-0.1c-0.1,0-0.3,0-0.4,0c-0.3-0.2-0.6-0.1-0.8-0.1c-0.2,0-0.3,0-0.4,0.2c-0.3,0.5-0.6,0.9-0.9,1.4
		c-0.1,0.2-0.3,0.3-0.4,0.5c0,0,0,0.2,0,0.2c0.3,0.1,0.5,0.1,0.8,0.1c0.4,0,0.9,0,1.3,0C53.4,38.9,53.5,39,53.8,38.9 M40.9,52.8
		c0,0,0,0.1,0,0.1c-0.3,0.5-0.7,0.9-1,1.4c-0.1,0.1-0.1,0.2-0.2,0.4c0.1,0,0.2,0.1,0.3,0.1c0.5,0,1.1-0.1,1.6,0
		c0.8,0.2,1.6,0.2,2.5,0.2c0.4,0,0.8,0,1.2,0c0.4,0,0.9,0,1.3,0c0.2,0,0.3,0.1,0.5,0.1c0.4,0,0.8,0.1,1.2,0c0.2,0,0.4-0.3,0.6-0.6
		c0.5-0.8,1.1-1.5,1.8-2.2c0.1-0.1,0.1-0.2,0.2-0.2c0,0-0.1-0.1-0.1-0.1c-0.7,0.1-1.5,0.1-2.2,0c-0.1,0-0.2,0-0.3,0
		c-0.4,0.1-0.8,0.2-1.2,0.2c-1.3,0-2.6,0.1-3.9-0.1c-0.3,0-0.7-0.1-0.9-0.3c-0.1-0.1-0.2-0.1-0.3,0c-0.1,0.1-0.3,0.3-0.4,0.4
		C41.2,52.3,41.1,52.5,40.9,52.8 M70.7,89.5c0.5,0,1.1,0,1.6,0c0.3,0,0.6,0.1,0.8-0.3c0,0,0.1,0,0.1-0.1c0.8-0.2,1.6-0.4,2.4-0.3
		c0.4,0,0.7,0,1.1,0s0.7,0,1.1,0s0.7,0,1.1,0c0.3,0,0.7,0,1,0c1,0,1.9,0.1,2.9-0.1c0.8-0.1,1.6-0.1,2.3-0.1c0.1,0,0.1,0,0.2,0
		c0,0,0,0,0.1-0.1c0,0-0.1,0-0.1,0c-0.1,0-0.2,0-0.2-0.1c-0.1,0-0.1-0.1-0.2-0.1c0.1,0,0.1-0.1,0.2-0.1c0.2,0,0.4,0,0.6,0
		c0.7-0.2,1.4-0.3,2.1-0.3c0.2,0,0.3,0.1,0.5,0c0.4-0.2,0.9-0.1,1.3-0.2c0.8-0.1,1.5-0.2,2.3-0.4c0.9-0.2,1.8-0.5,2.7-0.6
		c0.1,0,0.2-0.1,0.3-0.1c0.5-0.2,0.7-0.6,0.3-1c-0.2-0.2-0.5-0.4-0.8-0.7c-0.1-0.1-0.3-0.1-0.4,0c-0.2,0.3-0.5,0.7-0.5,1.1
		c0,0.3-0.1,0.4-0.4,0.5c-0.2,0-0.4,0.1-0.6,0.1c-0.5,0-1-0.1-1.4,0.1c-0.6,0.3-1.3,0.4-1.9,0.4c-1,0.1-1.9,0.2-2.9,0.3
		c-0.8,0.1-1.6,0.1-2.5,0.2c-0.9,0.1-1.8,0.1-2.8,0.1c-0.7,0-1.4,0-2.1,0.1c-0.8,0.1-1.6,0.1-2.4,0.1c-0.7,0-1.5,0-2.2,0
		c-0.1,0-0.3,0-0.4,0c-0.3,0.3-0.8,0.2-1.1,0.3c-1.1,0.1-2.2,0.1-3.3,0.1c-0.4,0-0.8,0-1.1,0c-0.8,0-0.7,0.1-0.7,0.7
		c0,0.3,0.1,0.4,0.4,0.4C69,89.5,69.8,89.5,70.7,89.5 M44.7,48c-0.6,0.7-1.2,1.4-1.8,2.1c-0.2,0.3-0.4,0.6-0.6,0.8
		c-0.1,0.1-0.1,0.2,0.1,0.2c0.1,0,0.2,0,0.3,0c1.6-0.1,3.2,0.1,4.8-0.1c0.9-0.1,1.8,0,2.7,0c0.2,0,0.4,0,0.6,0.1
		c0.2,0.1,0.4,0.1,0.6,0c0.1,0,0.2-0.3,0.3-0.4c0.5-0.6,0.8-1.4,1.4-2c0,0,0-0.1,0.1-0.2c-0.1,0-0.1,0-0.2,0c-0.2,0-0.4,0.1-0.6,0.1
		c-0.4,0-0.8,0-1.2,0c-1.8,0-3.7,0.1-5.5-0.2C45.3,48.4,45.1,48.2,44.7,48 M58.9,54.8c0.6,0,1.3-0.1,1.9-0.1c0.8,0,1.6,0,2.3,0.1
		c1,0.1,2,0.1,2.9-0.1c0.2,0,0.3-0.1,0.3-0.3c0-0.7,0.1-1.5,0.1-2.2c0-0.1,0-0.2,0.1-0.2c0.1-0.1,0-0.2-0.1-0.2
		c-0.6,0-1.2-0.1-1.7-0.1c-0.8,0-1.7,0.1-2.5,0.2c-0.8,0.1-1.5,0.1-2.3,0.1c-0.1,0-0.3,0-0.4,0c-0.2,0.1-0.4,0.1-0.6,0
		c-0.3-0.1-0.5,0-0.5,0.4c0,0.7,0.1,1.4,0.1,2.2C58.5,54.6,58.7,54.7,58.9,54.8 M60.5,35.7c0.8,0,1.6,0,2.4-0.1c1.1-0.1,2.2,0,3.2,0
		c0.3,0,0.5,0.1,0.8,0.1c0.1,0,0.4-0.3,0.3-0.4c-0.2-0.4-0.1-0.7-0.1-1.1c0-0.2-0.1-0.3-0.3-0.3c-0.8,0-1.7,0.1-2.5-0.1
		c-0.6-0.1-1.2-0.1-1.9-0.1c-0.8-0.1-1.6,0-2.4,0.1c-1,0.1-2,0.1-3,0.2c-0.8,0.1-1.5,0.1-2.3,0.1c-0.2,0-0.4,0.2-0.7,0
		c0,0-0.1,0-0.1,0.1c-0.2,0.3-0.5,0.6-0.7,0.9c-0.1,0.1-0.1,0.2,0.1,0.2c0.4,0,0.7,0.1,1.1,0.1c0.6,0,1.3,0,1.9,0.1
		c0.8,0.1,1.6,0.1,2.4,0.1C59.4,35.7,59.9,35.7,60.5,35.7 M58.9,92.9c-0.1,0.2,0,0.5,0.1,0.7c0,0.1,0.1,0.2,0.3,0.1
		c0.4-0.1,0.8-0.1,1.2-0.2c0.5,0,1.1-0.1,1.6-0.1c0,0,0.1,0,0.1,0c0.6-0.1,1.1-0.3,1.7-0.3c0.8-0.1,1.7-0.1,2.5-0.1
		c0.3,0,0.4,0,0.4-0.4c0-0.6,0-1.3,0-1.9c0-0.4,0-0.4-0.4-0.4c-0.7,0-1.3,0-2,0.1c-0.7,0.1-1.5,0.1-2.2,0.2
		c-0.5,0.1-1.1,0.1-1.6,0.1c0,0-0.1,0-0.1,0c-0.4,0-0.8,0.1-1.2,0.1c-0.3,0-0.4,0-0.4,0.3C58.8,91.7,58.8,92.3,58.9,92.9 M63.6,80.5
		c0.5,0,0.9-0.1,1.4-0.1c0.4,0,0.8-0.1,1.3-0.1c0.1,0,0.2-0.1,0.3-0.2c0.3-0.4,0.3-0.4,0.7-0.2c0.1,0,0.2,0.1,0.2,0.1
		c0.1,0.2,0.3,0.2,0.5,0.2c0.4,0,0.8-0.1,1.1-0.1c1,0,1.9,0,2.9,0c0.8,0,1.7,0,2.5-0.1c0.2,0,0.7,0.1,0.8-0.4c0,0,0.1-0.1,0.2,0
		c0.2,0,0.5,0,0.7,0.1c0.5,0.2,0.8-0.1,0.8-0.6c0-0.3,0-0.3-0.3-0.2c-0.2,0.1-0.5,0.1-0.8,0.1c-0.9,0-1.8,0-2.7,0
		c-0.1,0-0.2,0-0.3,0c-0.7-0.1-1.5-0.2-2.2-0.2c-0.5,0-0.9,0-1.4,0.1c-0.8,0.1-1.7,0-2.6,0.1c-0.2,0-0.4,0.2-0.7,0.1
		c-0.2-0.1-0.5,0-0.8,0.1c-0.8,0.1-1.7,0.1-2.5,0.2c-0.6,0.1-1.3,0.1-1.9,0.1c-1.6,0.1-3.1,0.1-4.7,0.1c-0.1,0-0.3,0-0.4,0
		c-0.4,0.1-0.8,0.2-1.3,0.2c-0.4,0-0.8-0.1-1.3,0.1c-0.1,0-0.2,0-0.2,0.1c0,0,0.1,0.1,0.2,0.1c0.7-0.1,1.4-0.1,2.1-0.1
		c0,0,0.1,0,0.1,0c0.3-0.2,0.6-0.1,1,0c0.2,0.1,0.4,0,0.6,0c0.5-0.1,1-0.2,1.5-0.2c0.3,0,0.7,0.1,0.8,0.5c0,0.1,0.1,0.1,0.2,0.2
		c0.3,0.1,0.7,0.1,1,0.1c0.8,0,1.7,0,2.5,0C63.1,80.6,63.3,80.5,63.6,80.5 M60,51.2c0.6,0,1.1,0,1.7-0.1c0.6-0.1,1.1-0.2,1.7-0.2
		c0.9,0,1.8-0.1,2.8,0.1c0.5,0.1,0.6-0.1,0.4-0.6c0-0.1,0-0.1,0-0.2c0.2-0.5,0-1,0.1-1.5c0-0.1,0-0.2-0.2-0.2
		c-0.6,0-1.3-0.1-1.9-0.1c-0.5,0-1,0-1.6,0c-1.3,0-2.7,0.1-4,0.1c-0.3,0-0.4,0.1-0.4,0.4c0,0.7-0.1,1.3-0.1,2c0,0.1,0,0.2-0.1,0.2
		c0,0.2,0.1,0.3,0.2,0.3C59.1,51.4,59.5,51.3,60,51.2 M36.9,65.4c0.3,0,0.6,0,1-0.1c0.5,0,1,0,1.5,0c0.3,0,0.4-0.1,0.5-0.3
		c0.4-0.6,0.9-1.2,1.4-1.7c0.1-0.1,0.2-0.2,0.3-0.3c0,0,0-0.1,0.1-0.2c-0.1,0-0.2-0.1-0.2,0c-0.2,0.1-0.4,0.1-0.6,0
		c-0.1-0.1-0.4-0.1-0.5,0c-0.3,0.2-0.6,0.1-0.9,0.1c-0.3-0.1-0.6-0.1-0.9-0.1c-1.4,0-2.9,0.1-4.3,0.1c-0.3,0-0.5,0-0.8,0
		c-0.3,0-0.4,0.1-0.6,0.3c-0.1,0.1-0.1,0.2-0.2,0.3c-0.4,0.6-0.9,1.2-1.3,1.7c0,0,0,0.1,0,0.2c0,0,0.1,0,0.1,0
		c0.2-0.1,0.5-0.1,0.7,0c0.3,0.1,0.6,0.1,1,0.1c0.4,0,0.8,0,1.2-0.1C35.3,65.3,36,65.3,36.9,65.4 M58.6,63.4c0,0.1,0.1,0.2,0.1,0.3
		c0,0.5,0,1,0,1.5c0,0.2,0,0.2,0.2,0.2c0.3-0.1,0.7-0.1,1.1-0.2c0.8-0.1,1.5-0.1,2.3-0.1c0,0,0.1,0,0.1,0c0.2-0.2,0.5-0.1,0.8-0.1
		c0.3,0,0.5-0.1,0.8-0.1c0.7,0,1.3-0.1,2-0.1c0.1,0,0.2,0,0.2-0.2c0-0.6,0-1.3,0-1.9c0-0.2-0.1-0.3-0.3-0.3c-1.2,0-2.4,0.1-3.5-0.1
		c-0.4,0-0.7,0-1.1,0c-0.7,0-1.5,0.1-2.2,0.1c-0.2,0-0.3,0.1-0.3,0.3C58.6,62.9,58.6,63.1,58.6,63.4 M62,86.3c1,0,1.9,0,2.9,0
		c0.4,0,0.9-0.1,1.3-0.2c0.3-0.1,0.3-0.2,0.3-0.6c0-0.3-0.1-0.5,0-0.8c0.2-0.5,0-0.9,0.1-1.4c0-0.1,0-0.2-0.1-0.1
		c-0.1,0.1-0.2,0.2-0.4,0.2c-0.5,0.1-0.9,0.2-1.4,0.2c-1.4,0.1-2.8,0.1-4.2,0.1c-0.5,0-1,0-1.5,0c-0.3,0-0.4,0.1-0.4,0.4
		c0,0.5,0.1,1.1,0,1.6c0,0.2,0,0.4,0.2,0.4c0.5,0,0.9,0,1.4,0c0.2,0,0.4-0.1,0.5-0.1C61.2,86.4,61.6,86.3,62,86.3 M59.5,59
		c-0.2,0-0.3,0-0.5-0.1c-0.2,0-0.3,0-0.3,0.3c0,0.7,0,1.4,0,2.1c0,0.2,0,0.2,0.2,0.2c0.3,0,0.6-0.1,0.9-0.1c0.4,0,0.8,0,1.2,0
		c1.5,0,3,0,4.5,0c0.4,0,0.5,0,0.5-0.5c0-0.5,0-1,0-1.5c0-0.5,0-0.5-0.5-0.5c-1.3,0-2.6-0.1-3.9,0.1C61,59.1,60.3,59,59.5,59
		 M65.3,57.9c0.2,0,0.4,0,0.6,0c0.1,0,0.2,0,0.2-0.2c0.1-0.6,0.1-1.2,0.1-1.8c0-0.2,0.1-0.4,0.1-0.6c0-0.2-0.1-0.2-0.2-0.2
		c-0.2,0.1-0.3,0.2-0.5,0.2c-0.5,0.1-0.9,0.2-1.4,0.2c-0.7,0-1.4,0-2.1-0.1c-1.1,0-2.2,0.1-3.3,0.1c-0.1,0-0.2,0-0.2,0
		c-0.1,0-0.2,0.2-0.2,0.2c0.2,0.2-0.1,0.3,0,0.5c0.2,0.3,0.1,0.7,0.1,1c0,0.5,0,0.6,0.6,0.6C61.2,57.9,63.2,57.9,65.3,57.9
		 M59.2,96.7c0.5,0,1.1,0,1.6-0.1c0.4-0.1,0.8,0,1.2-0.1c0.7-0.1,1.4-0.2,2.1-0.3c0.6-0.1,1.3-0.1,2-0.1c0.4,0,0.5-0.2,0.5-0.5
		c0-0.5-0.1-1,0.1-1.5c0.1-0.2,0-0.2-0.3-0.2c-0.3,0-0.6,0-0.9,0c-0.1,0-0.3,0-0.4,0c-0.5,0.1-1.1,0.2-1.6,0.3
		c-0.6,0.1-1.2,0.1-1.9,0.2c-0.7,0.1-1.4,0.1-2.1,0.1c-0.7,0-0.7,0-0.6,0.7c0,0.1,0,0.2,0,0.3C59.2,95.8,59.2,96.2,59.2,96.7
		 M63.3,71.1c0.3,0,0.6-0.1,0.9-0.1c0.4,0,0.8,0,1.1,0c0.4,0,0.7-0.2,1.1,0c0.1,0,0.2,0,0.4,0c-0.1-0.1-0.2-0.1-0.2-0.2
		c-0.1-0.1-0.2-0.2-0.2-0.3c-0.1-0.4-0.2-0.8-0.2-1.2c-0.1-0.5-0.2-0.7-0.7-0.6c-0.6,0.1-1.2,0.2-1.8,0.3C63,69,62.3,69,61.6,69
		c-0.6,0-1.2,0-1.8,0c-0.3,0-0.6,0.1-0.9,0.1c0,0-0.1,0.1-0.1,0.1c0,0.3-0.2,0.5-0.1,0.8c0.1,0.3,0.1,0.6,0.1,0.9
		c0,0.5,0,0.5,0.5,0.5c0.6,0,1.2-0.1,1.8-0.1c0,0,0,0,0.1,0C61.9,71.1,62.6,71.1,63.3,71.1 M66.5,47.6c0.2,0,0.3-0.1,0.3-0.3
		c0-0.4,0-0.9,0-1.3c0-0.3-0.1-0.3-0.3-0.3c-0.5,0-1-0.1-1.5-0.1c-1.4,0-2.9,0-4.3,0.1c-0.1,0-0.1,0-0.2,0.1c-0.4,0-0.9,0.2-1.3-0.1
		c-0.1-0.1-0.2-0.1-0.2,0.1c0,0.5-0.1,1-0.1,1.5c0,0.1,0,0.2,0,0.3c-0.1,0.2,0.1,0.3,0.2,0.2c0.3-0.1,0.6-0.1,0.8-0.1
		c0.9-0.1,1.9-0.1,2.8-0.1C63.8,47.5,65.1,47.6,66.5,47.6 M48.6,47.5c0.4,0.2,0.9,0.1,1.4,0.1c0.7,0,1.3-0.1,2-0.1
		c0.6,0,1.2,0.1,1.7,0.1c0.3,0,0.4-0.1,0.6-0.3c0.3-0.4,0.5-0.8,0.8-1.2c0.1-0.1,0.1-0.2,0.1-0.3c-0.1,0-0.2-0.1-0.3-0.1
		c-0.1,0-0.2,0-0.3,0c-0.4-0.1-0.9-0.1-1.3,0c-0.8,0.1-1.5,0.2-2.3,0.2c-0.8,0-1.7,0.1-2.5-0.1c-0.7-0.1-1.4,0.1-2.1-0.1
		c-0.1,0-0.3,0.1-0.3,0.2c-0.3,0.4-0.6,0.8-0.8,1.2c-0.1,0.1-0.1,0.2-0.1,0.3c0.1,0,0.2,0,0.3-0.1c0,0,0,0,0.1,0
		c0.6,0.2,1.3,0.1,2,0.1c0.1,0,0.3,0,0.4,0C48,47.7,48.3,47.7,48.6,47.5 M64.6,67.8c0.1,0,0.2-0.1,0.3-0.1c0.3,0,0.6-0.1,0.9-0.1
		c0.1,0,0.1-0.1,0.1-0.1c0-0.5,0.1-1,0.1-1.5c0-0.1-0.1-0.2-0.1-0.2c-0.4,0-0.8-0.1-1.2,0C64.1,66,63.4,66,62.8,66
		c-1.3,0.1-2.6,0.1-3.8,0.1c0,0-0.1,0-0.1,0c0,0-0.1,0.1-0.1,0.1c0,0.7,0,1.3,0,2c0,0.1,0.2,0.2,0.3,0.2c0.3,0,0.7-0.2,1-0.2
		c0.8-0.1,1.6-0.1,2.4-0.2c0.3,0,0.6-0.1,1-0.1C63.8,67.9,64.1,67.9,64.6,67.8 M56.2,44.5c0.3-0.3,0.5-0.7,0.8-1
		c0-0.1,0.1-0.1,0.1-0.2c-0.1,0-0.1,0-0.2,0c-0.4,0-0.8,0.1-1.1,0.1c-0.4,0-0.8-0.1-1.2,0c-0.7,0.1-1.3,0.2-2,0.2
		c-0.4,0-0.9-0.1-1.3-0.1c-0.8,0-1.7-0.1-2.5-0.1c-0.1,0-0.3,0-0.3-0.1c-0.2-0.2-0.3-0.1-0.4,0c-0.3,0.4-0.6,0.8-0.9,1.3
		c-0.1,0.1-0.2,0.3-0.3,0.4c0,0,0,0.1,0,0.2c0.1,0,0.1-0.1,0.2-0.1c0.1,0,0.1,0,0.2,0c2.4,0,4.7-0.1,7.1-0.1c0.3,0,0.7,0,1,0
		c0.2,0,0.4,0.2,0.5,0C56,44.9,56.1,44.7,56.2,44.5 M66.2,80.9c-0.8,0.3-1.7,0.5-2.5,0.5c-0.9,0.1-1.8,0-2.7,0
		c-0.1,0-0.2-0.1-0.4-0.1c-0.4-0.1-0.8-0.1-1.2-0.1c0,0-0.1,0.1-0.1,0.1c0,0.5-0.1,0.9-0.1,1.4c0,0.3,0.1,0.3,0.4,0.3
		c0.9,0,1.8,0,2.7,0c1.5,0,2.9,0,4.4-0.4c0.2-0.1,0.3-0.1,0.3-0.3c0-0.4-0.1-0.8-0.1-1.3C66.6,80.8,66.6,80.8,66.2,80.9 M62.7,44.7
		c1.2,0,2.5,0.1,3.7,0.1c0.4,0,0.4,0,0.4-0.4c0-0.4-0.1-0.9,0.1-1.3c0,0-0.1-0.2-0.1-0.1c-0.1,0-0.2,0.1-0.3,0.1
		c-0.1,0-0.3,0.1-0.4,0.1c-1.1,0-2.2-0.1-3.3,0.1c-0.4,0.1-0.9,0-1.3-0.1c-0.8-0.1-1.7,0-2.5,0c-0.1,0-0.1,0.1-0.2,0.1
		c0,0.5,0,1,0,1.6c0,0.2,0.1,0.2,0.3,0.1c0.6-0.1,1.3-0.2,1.9-0.2C61.6,44.8,62.1,44.9,62.7,44.7 M66.5,6.6
		c-0.1-0.2-0.3-0.2-0.5-0.2c-0.5,0-1,0.1-1.5,0c-0.7-0.1-1.4-0.2-2.1-0.2c-1,0-2,0.1-3-0.1c-0.2,0-0.4-0.1-0.6,0
		c-0.2,0-0.4,0.1-0.6,0.1c-1,0.1-2,0-3-0.2c-0.7-0.2-1.1,0-1.6,0.3c-0.1,0.1-0.1,0.1,0,0.2c0.1,0,0.2,0.1,0.3,0.1
		c0.3,0,0.6-0.1,0.9-0.1c0.5,0,1,0,1.6,0c0.4,0,0.6,0.1,0.8,0.5c0.1,0.1,0.2,0.2,0.3,0.2c0.6,0,1.1,0,1.7,0.1c0.6,0.1,1.1,0,1.7,0.1
		c1.1,0.1,2.2,0.1,3.4,0.1c0.4,0,0.8-0.3,1.3,0c0,0,0.1-0.1,0.1-0.1C66.1,7.3,66.3,7,66.5,6.6 M63.8,3C63.8,3,63.8,3,63.8,3
		c-0.9,0.2-1.8,0.4-2.6,0.7C60.1,4,59.1,4,58,4.2c-0.5,0.1-0.9,0.1-1.4,0.2c-0.5,0.1-1,0.3-1.6,0.4C54.5,4.8,54,5.2,53.4,5
		c-0.1,0-0.2,0.1-0.3,0.1c0,0,0,0.1,0,0.1c0,0,0.1,0.1,0.1,0.1c0.3,0,0.7,0,1-0.1c0.4-0.1,0.9-0.3,1.4-0.3c0.4,0,0.8-0.1,1.3-0.1
		c0.3,0,0.5-0.1,0.7-0.2c0.5-0.1,1-0.2,1.5-0.3c0.6,0,1.2-0.1,1.8-0.2C62,4.1,63,3.7,64.1,3.5c0.7-0.2,1.5-0.4,2.3-0.4
		c0.5,0,1,0.1,1.5,0C68.3,3,68.8,3,69.2,2.9c0.4-0.1,0.9-0.1,1.4-0.1c0.1,0,0.2,0.1,0.3,0c0,0-0.1-0.1-0.2-0.2c-0.1,0-0.1,0-0.2,0
		c-0.5,0-0.9-0.2-1.4-0.3c-0.2,0-0.4-0.1-0.7-0.1c-0.2,0-0.4,0.1-0.6,0.1c-0.4,0-0.8,0.1-1.2,0.1c-0.3,0-0.5,0.1-0.8,0.2
		C65.1,2.7,64.5,2.9,63.8,3 M58.9,89.8c0.4,0,0.8,0,1.3-0.1c0.5-0.1,1,0,1.5-0.1c1-0.1,1.9-0.1,2.9-0.1c0.6,0,1.2-0.1,1.8-0.1
		c0,0,0,0,0.1,0c0.2,0,0.4-0.3,0.3-0.6c0-0.3-0.2-0.3-0.4-0.3c-0.3,0-0.7,0.1-1,0.1c-0.6,0-1.2-0.1-1.9-0.1c-0.5,0-1.1,0-1.6-0.1
		c-0.5-0.1-1,0.1-1.5,0.1c-0.4-0.1-0.9,0-1.3-0.1c-0.1,0-0.4,0.3-0.3,0.4C59,89.1,58.8,89.4,58.9,89.8 M71.6,17.2
		c-0.7,0-1.4,0-2.1,0.1c-1,0.1-2,0.1-2.9,0.1c-0.4,0-0.8,0-1.2,0c-0.1,0-0.2,0-0.3,0c-0.1,0-0.1,0.1-0.2,0.1c0.1,0,0.1,0.1,0.2,0.1
		c1.1,0,2.2-0.1,3.3,0.1c0.4,0.1,0.9,0,1.3,0c0.4,0,0.8,0,1.2,0c0.4,0,0.9,0,1.3,0c0.4,0,0.8,0,1.2,0c0.4,0,0.8,0.1,1.2,0
		c0.6-0.1,1.2-0.1,1.8-0.1c0.1,0,0.2-0.1,0.2-0.2c0-0.1-0.1-0.1-0.2-0.1c-0.6,0-1.3-0.1-1.9-0.1C73.6,17.2,72.6,17.2,71.6,17.2
		 M62.9,87.1c-0.2,0-0.4,0.1-0.6,0.1c-0.3,0-0.7-0.1-1-0.1c-0.8,0-1.5,0.1-2.3,0.1c0,0,0,0-0.1,0c0,0.1-0.1,0.1-0.1,0.2
		c0,0.2,0,0.3,0.2,0.3c0.7-0.1,1.5,0,2.2-0.1c0.4-0.1,0.9,0,1.4,0.1c1.3,0.1,2.5,0.1,3.8-0.1c0.1,0,0.2-0.2,0.3-0.3
		c0-0.2,0.1-0.4-0.1-0.6c0,0-0.1,0-0.1,0c-0.5,0.4-1.2,0.4-1.8,0.4c-0.5,0-0.9-0.1-1.4,0.1C63.2,87.2,63.1,87.2,62.9,87.1
		 M56.9,13.9c0-0.4,0-0.9,0-1.3c0,0,0-0.1,0-0.1c-0.1,0-0.1,0.1-0.1,0.1c0,0.1-0.1,0.2-0.1,0.2c-0.6,0.7-1.1,1.4-1.7,2
		c-0.2,0.2-0.4,0.5-0.5,0.7c-0.1,0.3,0,0.6,0,0.9c0,0.3,0.5,0.7,0.7,0.6c0.2,0,0.3-0.2,0.2-0.3c0,0-0.1,0-0.1,0
		c0,0.2-0.2,0.1-0.3,0.1c0-0.1-0.1-0.2-0.1-0.4c0.1-0.4,0.4-0.7,0.6-1C55.8,14.9,56.2,14.3,56.9,13.9 M56.6,12.4
		c0.4-0.4,0.4-0.8,0.4-1.3c0-0.1,0-0.2-0.1-0.3c-0.1,0.1-0.1,0.1-0.2,0.2c-0.6,0.7-1.1,1.4-1.7,2.1c-0.4,0.4-0.8,0.8-0.6,1.4
		c0,0.1-0.1,0.3-0.1,0.4c0,0,0,0.1,0.1,0.1c0.1,0,0.1,0,0.2-0.1C55.1,14,55.8,13.2,56.6,12.4 M69.6,1.7c0.2,0,0.6-0.1,0.7,0.2
		c0.1,0.3,0.3,0.3,0.5,0.3c0.2,0,0.4,0.1,0.7,0.1c0,0,0.1,0,0.1-0.1c0.1-0.2,0.2-0.4,0.2-0.7c0-0.2,0-0.3-0.2-0.4
		c-0.5-0.2-0.9-0.4-1.4-0.4c-0.6-0.1-0.9,0.3-0.8,0.8C69.3,1.8,69.4,1.7,69.6,1.7 M56.8,9.8c-0.6,0.6-1.2,1.3-1.8,1.9
		c-0.4,0.4-0.4,1-0.4,1.5c0,0,0,0.1,0,0.1c0,0,0.1,0,0.1-0.1c0.3-0.4,0.6-0.8,1-1.2c0.4-0.5,0.7-1,1.1-1.4c0.2-0.2,0.4-0.4,0.4-0.8
		c0-0.1,0-0.3,0.1-0.4C57.1,9.5,57,9.6,56.8,9.8 M55.2,10.5c-0.3,0.2-0.5,0.5-0.4,0.9c0,0,0,0.1,0,0.1c0,0,0.1,0,0.1-0.1
		c0.2-0.2,0.3-0.4,0.5-0.6c0.5-0.5,1.1-1.1,1.6-1.6c0.1-0.1,0.2-0.3,0.3-0.5c0,0-0.1-0.2-0.1-0.2c-0.3,0-0.5,0.1-0.8,0.1
		c0,0,0,0.1,0,0.1c-0.1,0.1-0.1,0.3-0.2,0.4C55.8,9.7,55.5,10.1,55.2,10.5 M50.9,6c0,0.1,0,0.3,0,0.4c0,0.2,0.1,0.3,0.2,0.2
		c0.1,0,0.3-0.1,0.4-0.1c0.1-0.1,0.3-0.2,0.4-0.3c0.1,0,0.2-0.1,0.2-0.1c0.1,0.1,0.1,0.2,0.2,0.3c0,0.1,0,0.2,0,0.3
		c0,0.1,0,0.1,0,0.2c0.1-0.1,0.1-0.1,0.2-0.2c0.2-0.3,0.1-0.6,0-0.9c-0.1-0.3-0.2-0.4-0.5-0.3c-0.2,0-0.4,0.1-0.6,0.1
		C51.1,5.5,51,5.6,50.9,6 M63,17.7c0.1-0.1,0.2-0.1,0.4,0c0.1,0.1,0.3,0.1,0.5-0.1c0,0,0-0.2,0-0.2c-0.5,0-0.9,0-1.4,0
		c-0.5,0.1-1.1,0.1-1.6,0c-0.3-0.1-0.7,0-0.9,0.3c0,0,0,0.1,0,0.1c0.1,0,0.1,0,0.2,0c0.1,0,0.2-0.1,0.2-0.1
		C61.2,17.9,62.1,17.8,63,17.7 M67.3,5.6c0,0.1,0.1,0.3,0.1,0.4c0.1-0.1,0.2-0.1,0.3-0.2c0.1-0.1,0.2-0.1,0.3-0.2
		c0.4-0.1,0.4-0.4,0.4-0.7c0-0.3-0.2-0.5-0.5-0.3C67.5,4.7,67.3,5,67.3,5.6 M95.9,85.9c0.1,0,0,0.4,0.2,0.1c0.2-0.2,0.1-0.4,0.2-0.6
		c0.2-0.5-0.1-1.2-0.5-1.5c0,0-0.1,0-0.1,0c0,0,0,0.1,0,0.1c0.1,0.2,0.2,0.3,0.3,0.5c0.2,0.4,0.2,0.7,0,1.1
		C95.9,85.6,95.8,85.7,95.9,85.9 M55.3,9.7c0.2-0.2,0.4-0.5,0.6-0.7c0,0,0-0.1,0-0.1c0,0,0,0-0.1,0c-0.4,0-0.8,0.4-0.9,0.8
		c0,0.1-0.1,0.2-0.1,0.4c0,0,0,0.1,0.1,0.2c0,0,0.1,0,0.1-0.1C55.1,9.9,55.2,9.8,55.3,9.7 M56.7,15.4c0.1,0,0.2-0.1,0.2-0.1
		c0-0.2,0-0.4-0.1-0.7c0,0,0-0.1-0.1-0.1c0,0-0.1,0-0.1,0.1c-0.3,0.4-0.5,0.7-0.8,1.1c0,0,0,0.1,0,0.1c0,0,0.1,0,0.1,0
		C56.3,15.6,56.5,15.5,56.7,15.4 M72.2,1.1c-0.1,0.4-0.1,0.8-0.2,1.2c0,0,0,0.1,0,0.1c0,0,0.1,0,0.1-0.1c0.4-0.3,0.3-0.8,0.2-1.2
		C72.4,1,72.4,1.1,72.2,1.1 M86.3,11c0,0.1-0.1,0.3-0.1,0.4c0,0.1,0,0.1,0,0.2c0.1,0,0.1-0.1,0.2-0.1c0.2-0.3,0.1-0.7,0.1-1
		c0-0.2,0-0.3-0.1-0.5c0,0.2-0.1,0.3-0.1,0.5C86.2,10.6,86.3,10.7,86.3,11 M43.5,75.1c0.1,0,0.2,0,0.3,0c0.1,0,0.1-0.1,0.2-0.1
		c-0.1,0-0.1-0.1-0.2-0.1c-0.4,0-0.8,0-1.1,0c-0.1,0-0.1,0-0.2,0c0.1,0,0.1,0.1,0.2,0.1C42.9,75,43.2,75,43.5,75.1 M58.9,18
		c0.3-0.1,0.5-0.3,0.6-0.6c0,0,0,0,0,0C59.1,17.4,59,17.6,58.9,18 M58,17.8C58,17.8,58.1,17.8,58,17.8C58.1,17.8,58.1,17.8,58,17.8
		c-0.2-0.1-0.4-0.1-0.5-0.1c-0.1,0-0.1,0.2-0.2,0.2c0.1,0,0.2,0.1,0.2,0.1C57.7,18,57.8,18,58,17.8 M40.9,74.9c-0.3,0-0.5,0-0.8,0
		c0,0-0.1,0.1-0.2,0.1c0.1,0,0.1,0.1,0.2,0.1C40.3,75,40.6,75,40.9,74.9 M78.4,16.9c-0.1,0.1-0.2,0.3-0.2,0.4c0,0,0,0.1,0,0.1
		c0,0,0.1,0,0.1,0c0.1-0.2,0.2-0.4,0.2-0.6C78.5,16.9,78.5,16.9,78.4,16.9 M67.1,6.6C67.2,6.7,66.9,7,67.2,7c0,0,0.1-0.2,0.1-0.4
		c0,0,0-0.1,0-0.1c0-0.1,0-0.1-0.1-0.2C67.2,6.4,67.1,6.5,67.1,6.6 M5,84.2c-0.2,0-0.4,0-0.6,0c0,0-0.1,0.1-0.1,0.1
		c0,0,0,0.1,0.1,0.1C4.6,84.4,4.8,84.5,5,84.2 M56.7,18c0.1-0.1,0.1-0.2,0.2-0.3c-0.1,0-0.2,0-0.3,0.1C56.4,18,56.4,18.1,56.7,18
		 M77.4,17.3C77.4,17.3,77.3,17.3,77.4,17.3c-0.1,0.2-0.2,0.2-0.2,0.3c0,0,0.1,0.1,0.1,0c0.1-0.1,0.2-0.1,0.2-0.2
		C77.5,17.4,77.5,17.3,77.4,17.3 M43.8,61.8c-0.1,0.1-0.3,0.2-0.1,0.3c0,0,0.1,0.1,0.1,0.1c0-0.1,0-0.2,0-0.3
		C43.9,61.9,43.9,61.9,43.8,61.8 M68.4,7c0,0,0.1-0.1,0-0.1c0,0-0.1-0.1-0.1-0.1c-0.1,0-0.1,0.1-0.2,0.2C68.2,7,68.3,7,68.4,7
		 M84.3,12.6c0-0.1,0-0.1,0-0.2c0,0,0-0.1-0.1-0.1C84.3,12.5,84.1,12.6,84.3,12.6 M37,79.1c0.1,0,0.2,0,0.3,0.1c0,0,0.1,0,0.1,0
		c0,0-0.1-0.1-0.1-0.1C37.2,79.1,37.1,79.1,37,79.1 M6.5,77.1C6.5,77.1,6.5,77,6.5,77.1C6.5,77,6.4,77,6.5,77.1
		c-0.1,0.1-0.1,0.2-0.1,0.3c0,0,0,0.1,0.1,0.1c0,0,0-0.1,0-0.1C6.5,77.2,6.5,77.2,6.5,77.1 M41.2,74.9c0.1,0,0.2,0,0.2,0.1
		c0,0,0.1,0,0.1,0c0,0-0.1-0.1-0.1-0.1C41.3,74.8,41.3,74.8,41.2,74.9 M41.5,79.5c0.1,0,0.1,0,0.2,0c0,0,0,0,0-0.1
		C41.7,79.4,41.6,79.4,41.5,79.5 M68.3,33.5c0,0,0-0.1,0-0.1c0,0-0.1,0-0.1,0C68.2,33.4,68.2,33.5,68.3,33.5 M26.5,81.6
		c0.1,0,0.1,0,0.2,0c0,0,0,0,0-0.1C26.6,81.6,26.6,81.6,26.5,81.6 M38.2,79.3c0,0,0.1,0,0.1,0c0,0,0-0.1,0-0.1
		C38.3,79.2,38.2,79.2,38.2,79.3 M68.3,6.2c0,0,0,0.1,0,0.1c0,0,0.1,0,0.1,0C68.4,6.3,68.3,6.2,68.3,6.2 M38.5,75c0,0-0.1,0-0.1,0
		c0,0,0,0.1,0,0.1C38.5,75,38.5,75,38.5,75 M44.2,79.6c-0.1,0-0.1,0-0.2,0c0,0,0,0,0,0.1C44.1,79.6,44.1,79.6,44.2,79.6 M6.6,76.6
		C6.6,76.6,6.7,76.7,6.6,76.6C6.7,76.6,6.7,76.6,6.6,76.6 M20.1,90C20.1,90,20.1,90,20.1,90C20.1,90,20.1,89.9,20.1,90 M58.3,57.9
		C58.3,57.9,58.3,57.9,58.3,57.9C58.2,57.9,58.2,57.9,58.3,57.9 M42.2,74.8C42.2,74.9,42.2,74.9,42.2,74.8
		C42.2,74.9,42.2,74.9,42.2,74.8 M41.7,74.9C41.7,74.9,41.7,74.9,41.7,74.9C41.7,74.9,41.7,74.9,41.7,74.9z"/>
	<path class="st0" d="M20.8,12.5c-0.2,0-0.3,0.1-0.5,0.1c-0.6,0-1.2,0-1.8,0.1c-1,0.1-2,0.1-3,0.1c-0.5,0-0.9,0.1-1.4,0.2
		c-0.5,0.1-1,0.3-1.4,0.4c-0.1,0-0.3,0.1-0.3,0.2c-0.1,0.5-0.4,0.9-0.5,1.4c0,0.8-0.2,1.5-0.3,2.3c0,0.1,0.1,0.3,0.1,0.4
		c-0.1,0.6,0.1,1.3-0.1,1.9c0,0.1-0.1,0.3,0,0.4c0.2,0.3,0.1,0.6,0.1,0.9c0,0.3,0.1,0.6-0.1,0.9c-0.1,0.3,0,0.6,0,1
		c0,0.3,0.1,0.7,0.1,1c-0.1,0.4-0.1,0.8-0.1,1.1c0.1,0.5,0,0.9-0.1,1.3c0,0,0,0.1,0.1,0.2c0,0,0.1,0,0.1-0.1c0.2-0.5,0.3-1,0.2-1.5
		c0-0.1-0.1-0.3,0-0.4c0.1-0.3,0.1-0.6,0.1-0.8c0.1-0.9,0.1-1.9,0.4-2.7c0.2-0.4,0.2-0.9,0.1-1.3c-0.1-0.5,0.5-1.3,1.1-1.5
		C13.8,18,14,18,14.3,18c0.6-0.1,1.2,0,1.7-0.1c0.3-0.1,0.7,0,1.1,0.1c0.3,0.1,0.6,0.1,0.8,0c0.1-0.1,0.2,0,0.4,0
		c0.4,0,0.8,0.2,1.1,0.1c0.4-0.1,0.8-0.1,1.2-0.1c0.7,0,1.3,0,2,0.1c0.6,0.1,1.1,0.2,1.7,0.3c0.1,0,0.2,0,0.3,0
		c0.4-0.3,0.6,0,0.9,0.2c0.7,0.6,0.8,1.4,0.9,2.2c0,0.3,0.1,0.6,0.1,0.9c0,0.9,0,1.9-0.1,2.8c-0.1,0.6,0,1.1-0.1,1.7
		c-0.2,1.5,0,3-0.1,4.6c0,0.6-0.1,1.1-0.1,1.7c0,0.7,0.1,1.5,0.1,2.2c0,0.5,0,0.9,0,1.4c0,0.5,0.1,1.1-0.2,1.5c0.2,0.3,0,0.7,0,1
		c0,0.4-0.1,0.8-0.3,1.2c-0.1,0.2-0.3,0.3-0.4,0.4c-1.1,0.7-2.3,0.7-3.5,0.6c-0.3,0-0.6-0.2-0.9-0.3c-0.4-0.3-0.7-0.3-1.1-0.1
		c-0.2,0.1-0.5,0.1-0.7,0c-0.6-0.1-1.1-0.1-1.6,0c-0.4,0.1-0.7,0-1.1-0.1c-0.1,0-0.1,0-0.2,0c-0.8,0.3-1.5,0-2.3-0.2
		c-0.5-0.1-0.9-0.3-1.3-0.6c-0.3-0.3-0.5-0.7-0.5-1.1c0-0.7,0-1.5-0.1-2.2c-0.1-0.5,0-1-0.1-1.5c-0.1-0.5,0.1-1,0-1.5
		c0-0.3,0-0.6-0.2-0.9c-0.1-0.2,0-0.5-0.1-0.7c0-0.1-0.1-0.1-0.1-0.2c0,0.1-0.1,0.2-0.1,0.2c0,0.8,0,1.6,0,2.4c0,0.7,0,1.5,0,2.2
		c0,0.7,0,1.5-0.1,2.2c-0.2,1.3-0.1,2.5-0.2,3.8c-0.1,1-0.1,2-0.1,3c0,0.6,0.1,1.3,0.1,1.9c0,0.8,0,1.6-0.1,2.4
		c-0.1,0.7-0.2,1.5-0.3,2.2c-0.1,0.7-0.1,1.4-0.1,2.1c0,1.7-0.1,3.4-0.1,5c0,0.3-0.1,0.6-0.3,0.8c-0.2,0.3-0.3,0.7-0.3,1
		c0,0.4,0,0.8,0,1.2c0,0.3-0.1,0.7-0.1,1c0,0.6,0,1.2,0.1,1.8c0.1,0.5,0,0.9,0.1,1.4c0.1,0.6,0.1,1.2,0.1,1.7
		c-0.1,1.3,0,2.6-0.1,3.9c-0.1,1,0,2-0.1,2.9c0,0.2-0.1,0.4-0.1,0.6c0,0.2,0.1,0.3,0,0.5c-0.1,0.1,0,0.3,0,0.4
		c-0.1,0.7-0.1,1.4-0.1,2.1c0,1,0,2-0.2,3c0,0.1,0,0.3,0,0.4c0,0.7,0,1.4,0,2.1c0,0.6-0.1,1.3-0.2,1.9c-0.1,0.4-0.4,0.6-0.8,0.5
		c-0.2-0.1-0.4-0.2-0.3-0.5c0.1-0.4,0.2-0.9,0.2-1.3c0-0.1,0-0.1,0-0.2c0-1.1,0-2.3,0.1-3.4c0.1-0.7,0-1.3,0.1-2
		c0.1-1.1,0.1-2.2,0.2-3.3c0.1-0.8,0.1-1.7,0.1-2.5c0-1.5,0-2.9,0.1-4.4c0.1-0.8,0.1-1.6,0.1-2.4c0-0.7,0-1.4-0.1-2
		c-0.2-0.9-0.1-1.8-0.1-2.7c0.1-0.8,0-1.7,0.1-2.5c0-0.5,0.2-1,0.3-1.5c0-0.2,0.1-0.3,0.1-0.5c0-1.6,0-3.2,0.1-4.8
		c0-0.7,0.2-1.4,0.3-2.1c0.1-0.5,0.1-0.9,0.1-1.4c0-0.9,0.2-1.7,0.1-2.6C10,44.9,9.9,43.9,10,43c0.1-1.1,0-2.3,0.1-3.4
		c0.1-1,0.2-1.9,0.2-2.9c0-0.5,0-1.1,0.1-1.6c0-0.3-0.1-0.6,0.1-0.9c-0.2-0.3-0.1-0.5,0-0.8c0-0.2-0.1-0.4-0.1-0.6
		c0-0.9,0-1.8,0.1-2.7c0.2-1.3,0.2-2.5,0.2-3.8c0-0.2,0.1-0.4,0.1-0.7c0-0.3,0-0.6,0-0.9c0-0.2-0.1-0.4-0.1-0.7c0-2,0-4,0-6.1
		c0-0.7,0-1.4,0.2-2.1c0.1-0.4,0.1-0.8,0.1-1.2c0.1-0.3,0.2-0.6,0.3-1c0-0.1,0.1-0.1,0.1-0.2c0.1-0.7,0.7-0.8,1.2-0.9
		c0.2-0.1,0.5-0.1,0.7-0.2c0.2-0.1,0.4-0.1,0.7,0c0.2,0.1,0.4,0.2,0.7,0c0,0,0.2,0,0.3,0c0.9,0,1.9-0.1,2.8-0.3c0.2-0.1,0.5,0,0.8,0
		c1,0,2.1-0.1,3.1-0.2c0.1,0,0.2,0,0.3,0c1.6,0,3.3,0,4.9,0c0.6,0,1.1-0.2,1.7-0.1c0.6,0.1,1.2,0.1,1.7,0.1c0.9,0,1.7,0,2.6-0.1
		c0.6-0.1,1.3,0,1.9-0.1c2.1-0.2,4.2,0,6.3-0.1c0.6-0.2,1.2,0,1.8-0.2c0.1,0,0.3,0,0.4,0c0.8,0,1.6,0,2.4,0c1,0,2,0,3,0.1
		c0.7,0.1,1.3,0,2,0.1c0.2,0,0.4,0.1,0.6,0.1c0.3,0,0.7,0,1-0.1c0.4-0.1,0.8,0,1.2,0.1c0,0,0.1,0.1,0.1,0.1c0,0.1,0,0.2-0.1,0.2
		c-0.3,0.1-0.6,0.3-1,0.3c-0.5,0-1,0.1-1.4,0.1c-1-0.1-2,0-3-0.1c-0.8-0.1-1.6-0.1-2.4-0.1c-1.1,0.1-2.2,0-3.3,0.1
		c-0.9,0.1-1.8,0.2-2.8,0.2c-0.4,0-0.9-0.2-1.3-0.1c-0.4,0.1-0.7,0.1-1.1,0.1c-0.7-0.1-1.4-0.1-2.1-0.1c-3.8,0.2-7.7,0-11.5,0.1
		C22.6,12.5,21.8,12.5,20.8,12.5 M12.4,27.8c0,1.8-0.1,3.5,0.2,5.3c0.1,0.7,0,1.4,0.1,2.1c0.1,0.5,0,1,0.1,1.5
		c0.1,0.7,0.1,1.4,0.1,2.2c0,0.4,0.2,0.6,0.6,0.7c0.2,0,0.4,0.1,0.6,0.2c0.5,0.2,0.9,0.3,1.4,0.1c0.1,0,0.3,0,0.4,0
		c0.2,0,0.4,0.1,0.7,0.1c0.5,0,0.9-0.1,1.4-0.1c0.4,0,0.8,0.1,1.2,0.1c0.4,0,0.8-0.1,1.1-0.1c0.5,0,1,0,1.5-0.2
		c0.4-0.2,1-0.2,1.3-0.6c0,0,0.2,0,0.2,0c0.1,0,0.1,0.2,0.1,0.2c-0.1,0.2-0.1,0.4-0.4,0.5c-0.3,0.1-0.6,0.2-0.9,0.3
		C22,40,22,40,21.9,40c0,0,0.1,0,0.1,0c0.8,0.1,1.4-0.4,2-0.7c0.3-0.1,0.3-0.2,0.3,0.1c0,0,0,0.1,0,0.1c0,0,0.1,0,0.1-0.1
		c0.1-0.3,0.3-0.5,0.4-0.8c0.1-0.4,0-0.8,0.2-1.2c0-1.1,0-2.3,0.1-3.4c0.1-0.5,0-1.1-0.1-1.6c-0.1-0.4,0.1-0.8,0.1-1.3
		c0-1.1,0.1-2.3,0.1-3.4c0-0.8,0-1.5,0.1-2.3c0.1-1.1,0.1-2.3,0.2-3.4c0.1-0.7,0-1.4-0.1-2.1c0-0.2-0.1-0.4-0.2-0.7
		c-0.1-0.2-0.3-0.3-0.5-0.3c-0.4,0-0.8,0-1.2-0.1c-0.7-0.2-1.3-0.2-2-0.2c-0.1,0-0.3,0-0.4,0c-0.4-0.2-0.8-0.1-1.2,0
		c-0.2,0.1-0.5,0.1-0.7,0c-0.3-0.1-0.7-0.1-1,0c-0.3,0.1-0.7,0-1-0.1c-0.4-0.1-0.8-0.2-1.2-0.1c-0.5,0.1-1.1,0.1-1.6,0
		c-0.3-0.1-0.4,0-0.5,0.3c0,0.1-0.1,0.2-0.2,0.2c-0.4,0.2-0.6,0.6-0.7,1c-0.1,0.3,0,0.7-0.2,1c-0.2,0.6-0.3,1.2-0.4,1.8
		c-0.1,0.8-0.1,1.7-0.1,2.6c0,0.2,0.1,0.4,0.1,0.5C12.4,26.5,12.4,27.1,12.4,27.8 M11.5,30.7C11.5,30.7,11.5,30.7,11.5,30.7
		c0-0.1,0.1-0.2,0.1-0.3c0,0-0.1,0-0.1,0c0,0.1-0.1,0.2-0.1,0.3C11.4,30.6,11.4,30.7,11.5,30.7 M9.5,76C9.5,76,9.5,76,9.5,76
		C9.5,76,9.5,76,9.5,76z"/>
	<path class="st0" d="M74.1,40c0,0-0.1-0.1-0.1-0.1c0,0,0,0,0.1,0C74.1,39.9,74.1,40,74.1,40z"/>
	<path class="st0" d="M46.8,174.1C46.9,174,46.9,174,46.8,174.1C46.9,174.1,46.9,174.1,46.8,174.1z"/>
	<path class="st0" d="M25.7,174.7C25.7,174.7,25.6,174.7,25.7,174.7C25.6,174.7,25.6,174.7,25.7,174.7z"/>
	<path class="st0" d="M35.5,63.8C35.5,63.8,35.5,63.8,35.5,63.8c-0.1-0.1-0.2-0.1-0.3-0.1c0,0,0.1,0,0.1,0
		C35.4,63.6,35.6,63.5,35.5,63.8z"/>
	<path class="st0" d="M13.9,27.8c0-1,0.3-1.8,1-2.5c0.2-0.2,0.5-0.3,0.2-0.6c-0.1-0.1,0.2-0.3,0.4-0.2c0.3,0.2,0.5,0.1,0.7-0.1
		c0.6-0.4,1.3-0.5,2.1-0.6c0.5-0.1,0.9-0.1,1.4-0.1c0.9,0.1,1.8,0.4,2.6,0.8c0.8,0.4,1.5,0.9,1.9,1.8c0.1,0.3,0.3,0.6,0.3,1
		c0,0.4,0.1,0.8,0.2,1.2c0,0.2,0.1,0.4,0,0.7c-0.1,0.7-0.3,1.5-0.6,2.1c-0.1,0.4-0.4,0.7-0.6,1c0,0.1-0.1,0.1-0.1,0.2
		c0.1,0.4-0.1,0.4-0.4,0.4c-0.1,0-0.2,0-0.3,0.1c-0.4,0.4-1,0.6-1.5,0.8c-1,0.4-2,0.4-3.1,0.3c-0.6,0-1.2-0.3-1.7-0.6
		c-0.6-0.2-1.1-0.7-1.6-1.1c-0.3-0.3-0.5-0.7-0.6-1.2c-0.2-0.9-0.4-1.8-0.3-2.8C13.8,28.3,13.8,28.1,13.9,27.8 M15.7,30.9
		c0.2,0.3,0.5,0.7,0.7,1c0.4,0.6,1,1,1.7,1c0.7,0.1,1.4,0.1,2.1-0.1c0.2,0,0.3-0.1,0.5-0.1c0.5,0,0.9-0.3,1.2-0.5
		c0.1-0.1,0.1-0.1,0-0.2c-0.5-0.5-1-1-1.4-1.5c-0.1-0.1-0.3-0.3-0.4-0.3c-0.4,0-0.9-0.1-1.3,0c-0.8,0.2-1.6,0.1-2.5,0.2
		c-0.5,0-1.1-0.5-1-1c0-0.2,0.1-0.2,0.2-0.2c0.5-0.1,1-0.1,1.5-0.2c0.2-0.1,0.3,0.1,0.3,0.2c-0.2,0.3,0,0.2,0.1,0.2
		c0.4-0.1,0.8-0.2,1.3-0.2c0.1,0,0.1-0.1,0.2-0.1c0-0.1-0.1-0.1-0.1-0.2c-0.1-0.1-0.3-0.3-0.4-0.4c-0.7-0.7-1.3-1.5-2-2.2
		c-0.3-0.3-0.5-0.3-0.7,0.1c-0.1,0.2-0.2,0.5-0.4,0.8c-0.4,0.6-0.3,1.2-0.4,1.9c0,0.1,0.1,0.3,0.1,0.4C15,29.8,15.3,30.3,15.7,30.9
		 M23.4,29.3c0-0.1,0.1-0.2,0.1-0.2c-0.1-0.6,0.2-1.2,0-1.9c-0.3-1.2-0.9-2-2.1-2.2c-0.4-0.1-0.8-0.2-1.2-0.3
		c-0.3-0.1-0.7-0.1-1-0.1c-0.4,0-0.7,0.2-1,0.2c-0.6,0-1.1,0.3-1.6,0.5c-0.2,0.1-0.2,0.1-0.1,0.3c0.1,0.1,0.2,0.2,0.3,0.3
		c0.5,0.5,1,0.9,1.4,1.4c0.5,0.6,0.9,1.2,1.7,1.5c0.3,0.1,0.7,0.2,1,0.1c0.7-0.1,1,0.1,1.1,0.7c0.1,0.4-0.1,0.6-0.6,0.5
		c-0.2,0-0.3,0-0.5,0.1c0.1,0.1,0.2,0.2,0.3,0.3c0.1,0,0.1,0.1,0.2,0.2c0.3,0.4,0.6,0.7,1,1.1c0.1,0.1,0.3,0.2,0.3,0.2
		c0.1-0.1,0.3-0.3,0.4-0.4C23.1,30.6,23.4,30,23.4,29.3 M15.1,31.6c0.1,0.2,0.3,0.3,0.4,0.5c0.2,0.5,0.7,0.8,1.2,1
		c0.2,0.1,0.5,0.1,0.7,0.2c0.1,0,0.2,0.3,0.3,0c0.1-0.2-0.2-0.1-0.3-0.2c-0.6-0.2-1.1-0.4-1.5-0.9c-0.3-0.5-0.7-0.9-1-1.4
		c-0.1-0.1-0.1-0.2-0.2-0.3c0,0.1-0.1,0.3,0,0.4C14.8,31.2,15,31.4,15.1,31.6 M17,29.5c0,0.1-0.2,0.2,0,0.2c0.6,0,1.2-0.1,1.8-0.1
		c0,0,0,0,0.1,0c0,0,0.1-0.1,0.1-0.1c0,0,0-0.1,0-0.1c-0.1,0-0.2,0-0.3,0C18.1,29.4,17.6,29.4,17,29.5 M21.1,29.4c0.1,0,0.1,0,0.2,0
		c0.1,0,0.1,0,0.2-0.1c-0.1,0-0.1-0.1-0.2-0.1C21.2,29.2,21.1,29.3,21.1,29.4 M16,29.7c0,0.2,0.1,0.2,0.2,0.1c0.1,0,0.1-0.1,0.2-0.1
		c-0.1,0-0.2,0-0.3-0.1C16.2,29.7,16.1,29.7,16,29.7z"/>
	<path class="st0" d="M23.1,27c-0.3,0.4-0.6,0.8-0.9,1.1c-0.2,0.2-0.4,0.2-0.7,0.3c0,0-0.1-0.2-0.1-0.3c0,0,0.1-0.1,0.2-0.1
		c0.1-0.1,0.3-0.3,0.2-0.5c-0.1-0.2-0.2-0.4-0.4-0.3c-0.1,0-0.2,0-0.3,0c-0.4,0.1-0.4,0.1-0.6-0.3c-0.1-0.2-0.3-0.4-0.5-0.5
		c0,0-0.1,0-0.2-0.1c0,0.1-0.1,0.2,0,0.2c0.3,0.3,0.6,0.6,0.8,0.9c0,0,0.1,0,0.1,0.1c0.1,0.1,0.3,0.3,0.2,0.4
		c-0.2,0.2-0.3,0-0.4-0.1c-0.2-0.2-0.4-0.3-0.6-0.5c-0.4-0.4-0.7-0.8-0.7-1.4c0-0.1-0.1-0.2-0.1-0.3c0-0.1,0-0.1,0-0.2
		c0.1,0,0.2-0.1,0.3,0c0.2,0.2,0.5,0.4,0.7,0.6c0,0,0.1,0.1,0.2,0.1c0-0.1,0-0.1,0-0.2c0-0.2,0-0.3,0-0.5c0-0.2,0.1-0.3,0.4-0.3
		c0.2,0,0.3,0.1,0.2,0.4c-0.1,0.5,0,1.1,0.5,1.3c0.1,0,0.2,0.1,0.2,0.1c0.3,0,0.6,0.1,0.7,0.4c0.1,0.3,0.2,0.2,0.4,0.1
		c0.5-0.4,0.4-1.1-0.2-1.4c-0.2-0.1-0.4-0.3-0.6-0.5c0,0,0-0.1,0-0.1c0,0,0.1,0,0.1,0c0,0,0.1,0,0.1,0c0.3,0.2,0.5,0.4,0.8,0.6
		C23.1,26.1,23.1,26.5,23.1,27z"/>
</g>
</svg>
