<?xml version="1.0" encoding="utf-8"?>
<!-- Generator: Adobe Illustrator 26.1.0, SVG Export Plug-In . SVG Version: 6.00 Build 0)  -->
<svg version="1.1" id="Layer_1" xmlns="http://www.w3.org/2000/svg" xmlns:xlink="http://www.w3.org/1999/xlink" x="0px" y="0px"
	 viewBox="0 0 305.7 305.7" style="enable-background:new 0 0 305.7 305.7;" xml:space="preserve">
<style type="text/css">
	.st0{fill:#2760FF;}
	.st1{fill:#FFFFFF;}
	.st2{fill:#2D65FA;}
</style>
<path class="st0" d="M183.9,148.9l0-136.7c0-5.8-4.7-10.6-10.6-10.6l-39.6,0c-5.8,0-10.6,4.7-10.6,10.6l0,136.8
	c0,6.3-5.5,11.2-11.8,10.5l-28.3-3.2c-8.7-1-14.8,8.5-10.2,16l71,117.3c4.1,6.8,14,6.8,18.1,0l71-117.3c4.5-7.5-1.5-17-10.2-16
	l-27,3C189.4,160.1,183.9,155.2,183.9,148.9z"/>
</svg>
