<?xml version="1.0" encoding="utf-8"?>
<!-- Generator: Adobe Illustrator 26.1.0, SVG Export Plug-In . SVG Version: 6.00 Build 0)  -->
<svg version="1.1" id="Layer_1" xmlns="http://www.w3.org/2000/svg" xmlns:xlink="http://www.w3.org/1999/xlink" x="0px" y="0px"
	 viewBox="0 0 153.4 96.9" style="enable-background:new 0 0 153.4 96.9;" xml:space="preserve">
<style type="text/css">
	.st0{fill:#2760FF;}
	.st1{fill:#2760FF;}
	.st2{fill:#2760FF;stroke:#2760FF;stroke-width:7;stroke-linecap:round;stroke-linejoin:round;stroke-miterlimit:10;}
	.st3{fill:none;stroke:#2760FF;stroke-width:7;stroke-linecap:round;stroke-linejoin:round;stroke-miterlimit:10;}
</style>
<g>
	<polyline class="st3" points="3.5,3.9 3.5,93.4 149.9,93.4 149.9,3.9"/>
	<path class="st0" d="M87.7,32V3.7c0-2-1.7-3.7-3.7-3.7H70c-2,0-3.7,1.7-3.7,3.7V32c0,2.2-1.9,4-4.2,3.7l-10-1.1
		c-3.1-0.4-5.2,3-3.6,5.6l25.1,31.4c1.4,2.4,4.9,2.4,6.4,0L105,40.2c1.6-2.6-0.5-6-3.6-5.6l-9.5,1.1C89.6,35.9,87.7,34.2,87.7,32z"
		/>
</g>
</svg>
