<?xml version="1.0" encoding="utf-8"?>
<svg version="1.1" id="location" xmlns="http://www.w3.org/2000/svg" xmlns:xlink="http://www.w3.org/1999/xlink" x="0px" y="0px"
	 viewBox="0 0 247.8 364.9" style="enable-background:new 0 0 247.8 364.9;" xml:space="preserve">
<style type="text/css">
	.st0{fill:transparent;}
	.st1{fill:#ffffff;}
</style>
<g id="ZG0D5C.tif_00000157279642305358141550000014550182550694504894_">
	<g>
		<path class="st1" d="M140.2,337.6c-7.5,12.4-25.4,12.5-33,0.1c-0.1-0.1-0.1-0.2-0.2-0.3l-30.9-55.6
			c-19.4-31.1-38.7-62.3-58.2-93.4C-12.4,140.3-3.5,73,38.5,34.2C65.2,9.5,96.7-1.9,133,0.2c54.5,3.2,103.1,46.6,112.7,100.4
			c5.7,31.9,0.2,61.5-16.6,89.2L140.2,337.6z M176.4,113.7c2-30.7-22.2-56.3-52.3-56.4c-28.6-0.1-52.8,23.8-52.8,52.2
			c-0.1,31.2,26,56.1,57.2,53.3C154.2,160.5,174.8,139.5,176.4,113.7z"/>
	</g>
</g>
</svg>
