<?xml version="1.0" encoding="utf-8"?>
<!-- Generator: Adobe Illustrator 26.1.0, SVG Export Plug-In . SVG Version: 6.00 Build 0)  -->
<svg version="1.1" id="Layer_1" xmlns="http://www.w3.org/2000/svg" xmlns:xlink="http://www.w3.org/1999/xlink" x="0px" y="0px"
	 viewBox="0 0 305.7 305.7" style="enable-background:new 0 0 305.7 305.7;" xml:space="preserve">
<style type="text/css">
	.st0{fill:#2760FF;}
	.st1{fill:#FFFFFF;}
	.st2{fill:#2D65FA;}
</style>
<g>
	<circle class="st0" cx="152.9" cy="152.9" r="152.9"/>
	<path class="st1" d="M210.5,99.9c-4.7-7.7-10.7-13.3-18.1-16.8c-7.4-3.5-17.1-5.3-29.3-5.3h-37.3c-9.4,0-17,7.6-17,17v134.6
		c0,7.2,5.8,13,13,13c7.2,0,13-5.8,13-13v-41.6c0-9.3,7.6-16.9,16.9-16.9h14.3c11.5,0.2,21-1.9,28.6-6.3c7.6-4.3,13.3-10,17.1-17.1
		c3.8-7,5.7-14.9,5.7-23.6C217.5,115.6,215.2,107.6,210.5,99.9z M171,144.9L171,144.9l-14.7,0c-12,0-21.8-9.8-21.8-21.8
		c0-10.4,8.4-18.8,18.8-18.8H171v0c11.2,0,20.3,9.1,20.3,20.3S182.2,144.9,171,144.9z"/>
</g>
</svg>
