<svg enable-background="new 0 0 258 361.6" viewBox="0 0 258 361.6" xmlns="http://www.w3.org/2000/svg"><path d="m18.5 0c-10.2 0-18.5 8.3-18.5 18.5v324.5c0 10.2 8.3 18.5 18.5 18.5h220.9c10.2 0 18.5-8.3 18.5-18.5v-274.4l-68.6-68.6z" fill="#841a5e"/><path d="m208.5 67.1c-9.7 0-17.6-7.9-17.6-17.6v-45.9l63.5 63.5z" fill="#fff"/><path d="m192.3 7.2 58.4 58.4h-42.3c-8.9 0-16.1-7.2-16.1-16.1zm-3-7.2v49.5c0 10.6 8.6 19.1 19.1 19.1h49.6z" fill="#841a5e"/><path d="m62.8 147v89.6h146.4v-89.6" style="fill:#841a5e;stroke:#fff;stroke-width:7;stroke-linecap:round;stroke-linejoin:round;stroke-miterlimit:10"/><path d="m147 175.1v-28.2c0-2-1.7-3.7-3.7-3.7h-14c-2 0-3.7 1.7-3.7 3.7v28.3c0 2.2-1.9 4-4.2 3.7l-10-1.1c-3.1-.4-5.2 3-3.6 5.6l25.1 31.4c1.4 2.4 4.9 2.4 6.4 0l25.1-31.4c1.6-2.6-.5-6-3.6-5.6l-9.5 1.1c-2.4.2-4.3-1.6-4.3-3.8z" fill="#fff"/></svg>