<?xml version="1.0" encoding="utf-8"?>
<!-- Generator: Adobe Illustrator 26.1.0, SVG Export Plug-In . SVG Version: 6.00 Build 0)  -->
<svg version="1.1" id="Layer_1" xmlns="http://www.w3.org/2000/svg" xmlns:xlink="http://www.w3.org/1999/xlink" x="0px" y="0px"
	 viewBox="0 0 109.6 14.9" style="enable-background:new 0 0 109.6 14.9;" xml:space="preserve">
<style type="text/css">
	.st0{fill:#D68E8E;}
</style>
<g>
	<path class="st0" d="M3,14.9c-0.2,0-0.3,0-0.4,0c-0.3,0-0.5-0.1-0.8,0c-0.4,0.1-0.6,0-0.9-0.3c-0.2-0.3-0.4-0.5-0.6-0.8
		c-0.3-0.3-0.3-0.4,0-0.7c0.1-0.1,0.2-0.3,0.1-0.5c0-0.6,0.1-1.1-0.1-1.7c-0.1-0.2,0.1-0.4,0.1-0.6c0-0.2-0.1-0.4-0.1-0.6
		c0-0.4-0.1-0.7-0.1-1.1c0-0.3,0-0.7,0-1c0-0.4,0-0.8,0-1.1c0-0.1-0.1-0.3-0.1-0.4c0-0.1,0-0.3,0-0.4c0-0.1,0.1-0.1,0.1-0.2
		c0-1.1,0.1-2.2,0.1-3.3c0-0.2,0-0.3-0.1-0.5C0,1.5,0,1.3,0.2,1.1c0.2-0.2,0.3-0.4,0.3-0.6c0-0.4,0.3-0.6,0.7-0.3
		c0.2,0.1,0.4,0.2,0.7,0.1c0.2-0.1,0.6-0.1,0.8,0c0.3,0,0.5,0.2,0.8,0.2C4,0.3,4.3,0.7,4.7,0.9C5,1.2,5.3,1.6,5.6,2
		C5.6,2,5.7,2,5.7,2C6.3,2.6,6.3,3.2,6.2,4C6.1,4.6,5.9,5.1,5.8,5.7C5.7,6.2,5.3,6.5,5.1,6.8C4.8,7.2,4.6,7.6,4.3,7.9
		C4.2,8.1,4.2,8.2,4.5,8.2c0.2,0,0.4,0.1,0.6,0.1C5.7,8.7,6.4,9.1,6.5,10c0.1,0.5,0.2,1,0.3,1.5c0.1,0.4,0,0.8-0.3,1.2
		c-0.7,0.7-1.5,1.4-2.4,1.8C3.8,14.7,3.4,14.8,3,14.9 M1.5,4.1c0,0.1,0.1,0.2,0.1,0.4c0,0.5,0,1,0,1.4c-0.1,0.5,0.2,0.9,0,1.4
		C1.6,7.5,1.8,7.8,1.9,7.7C2.2,7.5,2.6,7.4,2.8,7C2.8,6.8,3,6.7,3.1,6.5c0.5-0.7,1-1.4,1.2-2.4c0-0.3,0-0.5,0.1-0.7
		c0.3-0.6,0-1-0.3-1.4C3.9,1.7,3.6,1.6,3.2,1.7C2.8,1.8,2.4,1.9,2.1,2C1.6,2.2,1.2,2.6,1.4,3c0.1,0.3,0.1,0.5,0,0.7
		C1.4,3.8,1.4,3.9,1.5,4.1 M4.9,9.6C4.8,9.5,4.8,9.4,4.7,9.3c-0.5-0.1-1-0.1-1.5-0.1c-0.3,0-0.7-0.1-1-0.1c-0.2,0-0.3,0.2-0.3,0.4
		c0.1,0.6,0.2,1.1,0.2,1.7c0,0.2,0.1,0.4,0.1,0.6c0,0.4,0.3,1-0.3,1.3c0,0-0.1,0-0.1,0.1c0,0.1-0.1,0.2-0.1,0.2
		c0.1,0,0.2,0.1,0.3,0.1c0.6-0.1,1.1-0.2,1.7-0.6c0.7-0.5,1.3-1,1.7-1.8c0.1-0.1,0.1-0.3,0.1-0.4C5.2,10.3,5.1,10,4.9,9.6z"/>
	<path class="st0" d="M53.6,9.3c0-0.7,0-1.4,0-2.1c0-0.2,0.1-0.4-0.1-0.6c-0.1-0.1,0-0.3,0-0.5c0-0.1,0.1-0.3,0.1-0.4
		c-0.1-0.5,0-0.9-0.1-1.4c-0.1-0.4,0.1-0.7,0.1-1.1c0-0.1,0-0.2,0.1-0.3c0.1-0.1-0.1-0.3,0.1-0.4c0.2-0.1,0.4-0.3,0.7-0.2
		c0.5,0.1,0.9,0.3,1,0.7c0,0.3,0,0.6-0.1,0.9c-0.2,0.6-0.1,0.9,0.4,1.2c0.3,0.2,0.5,0.4,0.8,0.6c0.2,0.2,0.4,0.4,0.6,0.6
		c0.4,0.4,0.8,0.8,1.1,1.2c0.7,0.8,1.5,1.6,2.2,2.4c0.1,0.1,0.1,0.1,0.2,0.1c0-0.1,0-0.1,0-0.2c0-0.7,0.1-1.4,0-2.1
		c-0.2-0.8,0.1-1.5-0.2-2.3c0.2-0.5-0.1-1.1,0-1.6c0.1-0.4,0.1-0.8,0.1-1.3C60.7,2.3,61.1,2,61.6,2c0.4,0,0.8,0.4,0.8,0.8
		c0,0.4,0,0.8,0,1.3c0,0.4,0,0.8,0,1.2c0.1,0.4,0,0.8,0.1,1.2c0.2,0.8,0,1.6,0.1,2.5c0,0.3,0,0.7,0.1,1c0.1,0.3-0.2,0.6,0,0.9
		c-0.2,0.4,0,0.9-0.1,1.4c-0.1,0.5-0.8,1-1.3,0.8c-0.3-0.1-0.5-0.3-0.6-0.6c-0.1-0.3-0.3-0.6-0.5-0.8c-0.7-0.7-1.3-1.4-2-2.1
		C57.5,8.7,56.8,7.8,56,7c-0.1-0.1-0.1-0.3-0.2-0.4c-0.1-0.1-0.2-0.2-0.3-0.2c-0.3-0.2-0.3-0.2-0.3,0.2c0.1,0.6,0,1.3,0.2,1.9
		c0,0.1,0,0.2,0,0.3c0,0.8,0,1.6,0.1,2.4c0.1,0.4,0.1,0.8,0.1,1.3c0,0.7-0.1,0.8-0.8,1.1c-0.2,0.1-0.4,0.2-0.6,0.1
		c-0.2-0.2-0.6-0.4-0.6-0.6c0-0.4-0.1-0.8,0-1.2c0.1-0.3,0-0.6,0-0.8c0-0.1,0-0.3,0-0.4C53.6,10.2,53.6,9.8,53.6,9.3z"/>
	<path class="st0" d="M27.2,11.2c-0.4-0.4-0.7-0.9-0.9-1.4c-0.1-0.3-0.3-0.5-0.4-0.7c0,0-0.1-0.1-0.2-0.1c0,0.1-0.1,0.2,0,0.2
		c0.2,0.4,0.1,0.7,0.1,1.1c0.1,0.7,0,1.4,0,2c0,0.2,0.1,0.3,0.1,0.5c0,0.6,0.1,1.3-0.3,1.9c-0.1,0.1-0.1,0.2-0.2,0.2
		c-0.7,0-1.5-0.6-1.4-1.3c0.1-0.6-0.1-1.2,0.1-1.8c-0.2-0.5-0.1-0.9-0.1-1.4c0-0.2,0.2-0.5,0.1-0.7c-0.1-0.3,0.1-0.6,0-0.9
		c0-0.3,0-0.6,0-0.9c0-0.6,0.1-1.2,0-1.8c0-0.3,0-0.6,0-0.9c0-0.3,0-0.7,0-1c0.1-0.3,0.2-0.5,0-0.8c0.2-0.3,0.1-0.6,0.1-0.9
		c0-0.1,0-0.3-0.1-0.4c-0.3-0.6-0.2-1,0.6-1.1c1-0.2,1.9,0,2.8,0.4c0.4,0.2,0.7,0.3,1,0.6c0.3,0.3,0.5,0.5,0.5,0.9
		c0,0.3,0.1,0.7,0.1,1c0.1,0.7-0.2,1.3-0.6,1.8c-0.3,0.4-0.6,0.9-0.9,1.2c-0.2,0.3-0.6,0.4-0.9,0.7c-0.1,0.1-0.3,0.2-0.1,0.4
		c0.7,0.6,1.1,1.4,1.6,2.2c0.5,0.8,1,1.7,1.7,2.5c0.3,0.3,0.5,0.7,0.7,1.1c0.1,0.2,0.2,0.4,0.1,0.6c-0.1,0.2-0.6,0.3-0.9,0.2
		c-0.4-0.2-0.9-0.4-1.1-0.9c-0.2-0.5-0.5-0.9-0.8-1.3C27.7,12,27.5,11.6,27.2,11.2 M25.9,6.4c0.3-0.4,0.6-0.9,0.9-1.3
		c0.5-0.6,0.6-1.4,0.6-2.2c0-0.5-0.3-0.8-0.8-0.9c-0.2,0-0.4-0.1-0.6-0.1c-0.3-0.1-0.4,0.1-0.3,0.3c0.3,0.5-0.2,0.9,0.1,1.4
		c-0.2,0.9,0,1.9-0.1,2.8C25.6,6.4,25.7,6.4,25.9,6.4 M27.2,6.4c0,0,0,0.1,0,0.1c0.1-0.1,0.1-0.1,0.2-0.2
		C27.4,6.4,27.3,6.4,27.2,6.4z"/>
	<path class="st0" d="M103.6,8.6c0.1,0.6-0.1,1.1,0.1,1.7c0,0.1-0.1,0.3-0.1,0.5c0,0.4,0.1,0.9,0.2,1.3c0,0.1,0,0.3,0,0.4
		c0,0.3-0.1,0.4-0.4,0.4c-0.3-0.1-0.6-0.1-0.8-0.2c-0.2-0.2-0.2-0.5-0.3-0.8c-0.3-1.1-0.2-2.2-0.3-3.3c0-0.8,0-1.7-0.1-2.5
		c-0.1-0.8,0-1.7-0.1-2.5c0-0.3,0.1-0.6,0.3-0.8c0.3-0.3,0.7-0.2,1-0.1c0.3,0.1,0.5,0.3,0.7,0.6c0.2,0.4,0.5,0.8,0.8,1.2
		c0.3,0.5,0.6,1,0.9,1.5c0.3,0.7,0.7,1.3,1.1,1.9c0.3,0.5,0.5,1.1,0.7,1.6c0,0.1,0.1,0.2,0.1,0.3c0,0.1,0.1,0.1,0.1,0.1
		c0-0.1,0.1-0.1,0.1-0.2c0-0.3,0-0.5,0-0.8c-0.1-0.4,0.1-0.8,0-1.2c-0.1-0.4,0-0.8,0-1.3c0-0.3,0-0.6-0.1-0.9c0-0.3,0-0.6,0-0.8
		c0-0.3,0-0.7,0.1-1c0-0.3,0-0.7,0.1-1c0.1-0.2,0.1-0.4,0.4-0.4c0.3,0,0.6,0,0.7,0.3c0.1,0.2,0.1,0.4,0.2,0.7c0,0.2,0.1,0.3,0.1,0.5
		c0,0.3-0.1,0.6-0.1,0.9c0,0.2-0.1,0.4-0.1,0.5c0,0.4,0.2,0.8,0.2,1.2c0,0.1,0,0.2-0.1,0.4c0,0.1,0,0.2,0,0.2
		c0.3,0.2,0.2,0.4,0.2,0.7c0,0.5,0.1,0.9,0,1.4c-0.1,0.9,0,1.8-0.1,2.7c0,0.4-0.1,0.8-0.1,1.2c0,0.3,0,0.6-0.3,0.7
		c-0.2,0.1-0.6,0-0.7-0.1c-0.6-0.6-1.3-1.1-1.7-2c-0.2-0.5-0.5-0.9-0.7-1.4c-0.2-0.3-0.3-0.7-0.4-1c-0.2-0.5-0.4-1-0.7-1.5
		c-0.4-0.7-0.8-1.3-1.1-2.1c0-0.1-0.1-0.2-0.2-0.3c-0.1-0.1-0.2-0.1-0.2-0.1c0,0.1-0.1,0.1-0.1,0.2c0,0.6,0,1.3,0.2,1.9
		c0.1,0.2,0,0.5,0,0.7C103.5,8.2,103.6,8.4,103.6,8.6z"/>
	<path class="st0" d="M94.8,13.1c-0.7,0.7-1.1,0.6-1.8,0.3c-0.7-0.3-1.5-0.6-2.2-0.9c-0.7-0.4-1.2-0.9-1.5-1.7
		C89,10,89,9.2,88.8,8.4c-0.1-0.4-0.1-0.8-0.2-1.2c-0.1-0.4,0.1-0.9,0.2-1.4c0.1-0.6,0.3-1.1,0.7-1.5c0.1-0.1,0.3-0.2,0.4-0.4
		c0.8-1,1.3-1.3,2.3-1.6c0.5-0.2,0.9-0.3,1.4-0.4c0.2,0,0.4,0,0.6,0.1c0.4,0.1,0.8,0.2,1.1,0.4c0.5,0.2,0.9,0.4,1,1.1
		c0.1,0.8,0.4,1.6,0.6,2.4c0.1,0.5,0.2,1,0.2,1.5c0,0.3-0.1,0.6-0.1,0.9c-0.1,0.5-0.1,1-0.2,1.4c-0.2,0.7-0.3,1.4-0.7,1.9
		C95.7,12.1,95.5,12.8,94.8,13.1 M90.5,8c0,0-0.1,0.1-0.1,0.1c0,0.3,0.1,0.5,0.1,0.8c0.1,0.6,0.3,1.2,0.4,1.8
		c0.1,0.5,0.3,0.9,0.8,1.1c0.4,0.2,0.7,0.4,1.1,0.6c0.2,0.1,0.4,0.1,0.6-0.1c0.4-0.4,0.8-1,1.1-1.5c0.4-0.8,0.6-1.6,0.8-2.5
		c0.2-0.9,0.1-1.8-0.1-2.7C95,5,94.8,4.3,94.7,3.5c0-0.3-0.3-0.4-0.5-0.3c-0.1,0-0.2,0.1-0.4,0.1c-0.5,0.2-1.1,0.2-1.5,0.6
		C92.1,4,92,4.2,91.8,4.4c-0.4,0.4-0.8,0.8-1.2,1.2c-0.1,0.1-0.2,0.2-0.2,0.4c0,0.6-0.1,1.1-0.1,1.7C90.4,7.7,90.4,7.9,90.5,8z"/>
	<path class="st0" d="M12,9.2c-0.1-0.4-0.2-0.8-0.2-1.2c-0.1-1.4-0.1-2.8-0.1-4.2c0-0.3,0.1-0.7,0.1-1c0-0.1,0-0.3-0.1-0.4
		c-0.1-0.3,0-0.4,0.2-0.5c0.2-0.1,0.3-0.1,0.5,0c0.2,0.2,0.4,0.3,0.7,0.4c0.3,0.1,0.4,0.3,0.4,0.6c0,0.9,0.1,1.9-0.2,2.8
		c0,0.1,0,0.2,0,0.2c0.2,0.4-0.1,0.9,0.1,1.3c0.1,0.1-0.2,0.3,0,0.4c-0.2,1.1,0.3,2.2,0.5,3.3c0.1,0.3,0.2,0.7,0.5,0.9
		c0.2,0.3,0.5,0.5,0.8,0.7c0.1,0,0.2,0,0.3-0.1c0.3-0.3,0.6-0.6,0.8-1c0.3-1.1,0.7-2.2,0.8-3.4C17,6.7,17,5.3,17.1,4
		c0-0.4,0-0.8,0-1.2c0-0.5,0.1-0.6,0.6-0.7c0.4-0.1,0.6,0,0.9,0.1c0.2,0.1,0.4,0.2,0.5,0.4C19.1,2.7,18.9,3,19,3.1
		c0.1,0.6-0.2,1.1,0,1.7C19.1,5.2,19,5.6,19,6c-0.2,0.7-0.2,1.5-0.2,2.2c0,0.6-0.1,1.2-0.3,1.8c-0.1,0.2-0.2,0.4-0.2,0.7
		c0,0.6-0.5,1.1-0.5,1.8c-0.3,0.3-0.6,0.7-0.9,1c-0.4,0.3-0.8,0.6-1.3,0.5c-0.3,0-0.6,0-0.9-0.1c-0.3-0.1-0.5-0.2-0.7-0.5
		c-0.1-0.2-0.4-0.4-0.6-0.5c-0.8-0.6-1-1.4-1.3-2.3C12.1,10.1,12.1,9.7,12,9.2z"/>
	<path class="st0" d="M70.6,12.3c0.3-0.3,0.4-0.6,0.4-0.9c0-0.4,0-0.9,0.1-1.3c0.1-0.3-0.1-0.3-0.2-0.3c-0.3-0.1-0.6-0.1-0.9-0.1
		c-0.5,0.1-0.8-0.2-1.3-0.2c-0.3,0-0.2-0.2-0.1-0.3c0.2-0.2,0.4-0.3,0.5-0.5c0.1-0.1,0.2-0.3,0.3-0.1c0.1,0.1,0.3,0.1,0.4,0.2
		c0.7,0.1,1.3,0.1,2,0.1c0.4,0,0.6,0.2,0.8,0.5c0,0,0,0.1,0,0.1c-0.2,0.3,0,0.7,0,1c0,0.8-0.1,1.6-0.6,2.3c-0.4,0.5-0.7,1-1.4,0.9
		c-0.2,0-0.4,0-0.6,0.1c-0.8,0.4-1.5,0.3-2.2-0.1c-0.4-0.2-0.7-0.3-1.1-0.5c-1-0.5-1.5-1.4-1.8-2.5c-0.3-1-0.4-2.1-0.3-3.1
		c0-0.6,0.1-1.2,0.3-1.8c0.1-0.6,0.3-1.1,0.6-1.7c0.3-0.6,0.6-1.2,1.1-1.6c0.6-0.5,1.2-0.8,1.9-0.9c0.7-0.1,1.3,0,2,0.1
		c0.7,0,1.4,0.3,2,0.7C72.9,2.4,73,2.6,73,2.7c0,0.1-0.4,0.3-0.6,0.3C72.2,3,72.1,3,72,2.9c-0.6-0.4-1.1-0.2-1.7-0.1
		c-0.6,0.1-1.1,0.2-1.5,0.4C68.4,3.4,68.2,3.6,68,4c-0.1,0.3-0.5,0.5-0.6,0.9c-0.1,0.4-0.3,0.7-0.3,1.1c0,0.2-0.1,0.3-0.1,0.5
		c-0.1,1-0.2,2-0.2,3c0,0.7,0.2,1.3,0.4,2c0.1,0.3,0.1,0.7,0.4,0.9c0.6,0.5,1.5,0.7,2.3,0.4C70.1,12.6,70.4,12.5,70.6,12.3z"/>
	<path class="st0" d="M36.2,12.9c0.1,0.4,0.2,0.5,0.5,0.5c0.8-0.2,1.5-0.1,2.3,0c0.1,0,0.3-0.1,0.4-0.1c0.5,0,1,0,1.4,0
		c0.3,0,0.8,0.4,0.8,0.6c0,0.1-0.2,0.3-0.4,0.4c-0.1,0.1-0.2,0-0.3,0c-0.7,0.1-1.5-0.1-2.2,0.1c0,0-0.1,0-0.1-0.1
		c-0.3-0.1-0.7-0.1-1,0.1c-0.4,0.2-0.9,0.3-1.3,0.4c-0.3,0.1-0.7,0.1-1-0.2c-0.1-0.1-0.3-0.2-0.4-0.3c-0.3-0.3-0.3-0.6-0.4-1
		c-0.1-0.9,0-1.9-0.1-2.8c-0.1-0.7,0-1.3-0.1-2C33.9,6.7,34,4.9,34,3.1c0-0.5,0.1-1,0.2-1.5c0-0.1,0.1-0.4,0.4-0.3
		c0.4,0.1,0.7,0.1,1.1,0.2c0.1,0,0.2,0.1,0.3,0.2c0.2,0.2,0.4,0.4,0.3,0.8c-0.2,0.7-0.4,1.4-0.4,2.2c0,0.3-0.1,0.7-0.1,1
		c0,0.4,0,0.7,0,1.1c0,0.7,0,1.5,0.1,2.2c0.1,0.6,0,1.1,0.1,1.7C36.2,11.4,36.1,12.1,36.2,12.9z"/>
	<path class="st0" d="M82.2,6c0,0.5,0,1,0.1,1.5c0.1,0.9,0,1.9,0.3,2.9c0.1,0.2,0,0.3,0,0.5c0,0.6,0.1,1.3,0.2,1.9
		c0.1,0.5-0.4,1-0.9,0.8c-0.4-0.2-0.8-0.4-0.8-0.9c0-0.4-0.1-0.7-0.1-1.1c0-0.8-0.1-1.6-0.3-2.4c0-0.1,0-0.3,0-0.5
		c0-1.1,0-2.3-0.1-3.4c-0.1-0.5-0.1-1.1-0.1-1.6c0-0.3-0.2-0.5-0.5-0.4c-0.2,0-0.4,0.1-0.6,0.1c-0.2,0-0.5,0.1-0.7,0.1
		c-0.2,0-0.3,0-0.5,0c-0.2,0-0.4-0.1-0.6-0.1c-0.3,0-0.5-0.2-0.8-0.4c0,0,0-0.2,0-0.2c0.4-0.1,0.7-0.4,1.1-0.4
		c0.8,0,1.5-0.1,2.3-0.2c0.5,0,1,0.1,1.5,0.1c0.2,0,0.3-0.1,0.5-0.1c0.9,0,1.8-0.1,2.4,0.7c0.2,0.2,0.2,0.4-0.1,0.5
		c-0.2,0.1-0.4,0.2-0.6,0.1c-0.5-0.2-1-0.2-1.5-0.2c-0.4,0-0.4,0-0.3,0.4c0,0.2,0,0.3,0,0.5C82.1,4.9,82.2,5.4,82.2,6z"/>
	<path class="st0" d="M47.8,3.6c0,0.1-0.1,0.2-0.1,0.3c0,0.1,0.1,0.3,0.1,0.4c-0.1,0.5-0.2,0.9-0.2,1.4c0,0.3,0,0.7,0.1,1
		c0.1,0.2,0.1,0.4,0.1,0.6c0,1.2-0.2,2.5-0.1,3.7c0,0.4,0,0.9,0.1,1.3c0.1,0.4-0.1,0.7-0.4,1c-0.3,0.3-0.6,0.3-0.9,0
		c-0.4-0.2-0.5-0.6-0.5-1c0-0.8-0.1-1.5,0-2.3c0.1-0.8,0.2-1.6,0.2-2.4c0-0.5-0.1-0.9-0.2-1.4c0-0.1,0-0.3,0-0.4c0-0.8,0-1.6,0-2.3
		c0-0.2-0.1-0.4-0.1-0.6c0-0.1,0-0.2,0-0.3c0.2-0.3,0.4-0.6,0.6-0.9c0.1-0.2,0.4-0.4,0.6-0.2c0.2,0.1,0.3,0.3,0.4,0.6
		C47.6,2.6,47.7,3.1,47.8,3.6z"/>
	<path class="st0" d="M33.3,14.2c0-0.2,0-0.2,0-0.3c0-0.1,0-0.2,0.1-0.2c0.1,0,0.2,0,0.3,0.1c0,0,0.1,0.1,0.1,0.1
		C33.6,14,33.4,14.2,33.3,14.2z"/>
</g>
</svg>
