<?xml version="1.0" encoding="utf-8"?>
<!-- Generator: Adobe Illustrator 26.2.1, SVG Export Plug-In . SVG Version: 6.00 Build 0)  -->
<svg version="1.1" id="Layer_1" xmlns="http://www.w3.org/2000/svg" xmlns:xlink="http://www.w3.org/1999/xlink" x="0px" y="0px"
	 viewBox="0 0 12.5 72.2" style="enable-background:new 0 0 12.5 72.2;" xml:space="preserve">
<style type="text/css">
	.st0{fill:#D68E8E;}
</style>
<g>
	<g>
		<path class="st0" d="M5.6,4.2c-0.7,0.5-1.4,1-2,1.5C3.4,5.8,3.2,5.9,3,6L2.9,6.1C3,6.1,3,6.2,3.1,6.2c0.6,0,1.2,0,1.8,0.1
			C5.4,6.4,6,6.4,6.5,6.4C7,6.3,7.4,6.3,7.8,6.3c0.1,0,0.3,0.1,0.4,0.1c0.3,0,0.5,0.1,0.8,0.1c0.2,0,0.3,0,0.5,0
			c0.5,0,0.7,0.1,0.7,0.5S9.9,7.8,9.5,7.8c-1.7,0-3.4,0-5.1,0c-0.7,0-1.3,0-2-0.1c-0.5,0-1-0.2-1.4-0.3C0.5,7.3,0.3,6.6,0.6,6.2
			c0-0.1,0.1-0.1,0.2-0.1c0.8-0.2,1.5-0.7,2.1-1.2C3,4.5,3.5,4.3,3.9,4C4.5,3.6,5,3.2,5.6,2.8C6,2.5,6.3,2.2,6.7,1.9
			c0.1-0.1,0.1-0.1,0.2-0.2c-0.1,0-0.2-0.1-0.2,0c-0.3,0.1-0.5,0-0.7,0c-0.5,0-1,0-1.4,0c-0.4,0.1-0.9,0-1.3,0c-0.5,0-0.9,0-1.4,0
			c-0.4,0-0.7,0-1.1-0.1c-0.2,0-0.3-0.1-0.3-0.4c0-0.4,0-0.7,0.4-1c0.1,0,0.2-0.1,0.3-0.1c0.5,0.2,1,0.2,1.4-0.1
			c0.1-0.1,0.2,0,0.3,0c0.9,0,1.9,0.1,2.8,0.1C6,0.1,6.4,0,6.7,0s0.7,0.1,1-0.1C7.8-0.2,8,0,8.2,0c0.6,0,1.2,0,1.7-0.2
			c0.1,0,0.3-0.1,0.3,0.2l0,0c0.3,0.5,0.3,0.6,0.2,0.9s-0.3,0.6-0.6,0.7C9.6,1.7,9.4,1.9,9.2,2C8.8,2.3,8.4,2.5,8,2.7
			C7.1,3.2,6.3,3.6,5.6,4.2z"/>
		<path class="st0" d="M2.1,44.7c-0.2,0-0.3,0-0.4,0c-0.2,0-0.2-0.1-0.2-0.3c0.1-0.3,0.1-0.7,0.2-1c0.1-0.2,0.4-0.5,0.6-0.6
			C2.9,42.4,3.5,42,4,41.7c0.4-0.2,0.7-0.5,1.1-0.8c0.1-0.1,0.3-0.2,0.4-0.3c0.6-0.2,1.1-0.6,1.6-1c0.2-0.1,0.4-0.2,0.6-0.3
			c0.1,0,0.1-0.1,0.2-0.2c-0.1,0-0.2-0.1-0.2,0c-0.5,0.2-1.1,0.1-1.6,0.1c-0.9,0-1.8,0.1-2.7,0c-0.7,0-1.3-0.1-2-0.1
			c-0.5,0-0.7-0.2-0.7-0.7c0-0.3,0-0.3,0.4-0.4c0.2,0,0.5-0.2,0.7-0.2c0.1,0,0.3,0,0.5,0h0.1c0.9,0,1.7,0.1,2.6,0.1
			c0.3,0,0.5-0.1,0.8-0.1c1,0.2,2.1,0,3.1,0.1c0.3,0,0.6,0.1,0.9,0.1c0.2,0,0.4,0,0.6,0c0.4,0,0.5,0.2,0.5,0.5c0,0.5-0.2,0.8-0.6,1
			c-0.8,0.5-1.6,0.8-2.5,1.1c-0.4,0.2-0.7,0.5-1.1,0.7c-0.7,0.4-1.3,0.8-2,1.2C4.3,42.7,4,43,3.6,43.2c0,0-0.1,0.1-0.1,0.2
			c0.1,0,0.1,0.1,0.2,0.1c0.5,0,0.9,0,1.4,0c1.3,0,2.7,0.1,4,0.1c0.2,0,0.5-0.1,0.7-0.1s0.4,0.1,0.7,0c0.1,0,0.4,0.1,0.5,0.3
			c0.1,0.2,0.1,0.4,0,0.6s-0.4,0.4-0.6,0.6c0,0-0.1,0.1-0.1,0c-0.3-0.2-0.6,0-0.8,0S9.1,44.9,9,44.9c-0.7,0.2-1.5,0.2-2.2,0
			c0,0-0.1,0-0.2,0c-1.1,0-2.2-0.1-3.4-0.1C2.8,44.9,2.5,44.8,2.1,44.7z"/>
		<path class="st0" d="M4.3,20.3c-0.2-0.1-0.4-0.1-0.6-0.1c-0.2,0-0.4-0.1-0.6-0.1c-0.2,0-0.3-0.1-0.5-0.2c-0.2-0.1-0.3-0.2-0.5-0.3
			c-0.3-0.1-0.6,0-0.5-0.4l-0.1-0.1c-0.6-0.3-0.8-0.9-0.9-1.5c-0.1-0.2-0.2-0.5-0.3-0.7s-0.2-0.4-0.2-0.7c0-0.4-0.1-0.9-0.1-1.3
			c0-0.4,0.1-0.8,0.5-1c0.3-0.2,0.5-0.6,0.8-0.8C1.5,13,1.8,12.9,2,12.8c0.7-0.3,1.4-0.3,2.1-0.5c0.3-0.1,0.7,0,1.1,0
			c1-0.2,1.8,0.3,2.6,0.7c0.5,0.3,0.9,0.8,1.3,1.3s0.4,1.1,0.6,1.6c0,0,0,0.1,0,0.2c0.4,1-0.1,1.8-0.7,2.5c-0.2,0.2-0.4,0.5-0.6,0.7
			c-0.2,0.3-0.5,0.5-0.8,0.6c-0.7,0.4-1.5,0.5-2.3,0.4C5,20.4,4.6,20.4,4.3,20.3 M7.2,14.4c-0.8-0.4-1.7-0.6-2.6-0.6
			c-0.2,0-0.5,0.1-0.7,0.1c-1,0.1-2,0.3-2.8,1c-0.2,0.2-0.3,0.2-0.3,0.5c0,0.2,0,0.5,0.3,0.5c0.1,0,0.1,0.1,0.1,0.1
			c0.1,0.4,0.2,0.7,0.6,0.9c0,0.2,0.1,0.3,0.2,0.4c0.2,0.2,0.3,0.4,0.4,0.6c0.1,0.4,0.4,0.5,0.8,0.6s0.9,0.1,1.2,0.3
			c0.8,0.3,1.5,0.2,2.2,0c0.6-0.1,1.1-0.5,1.6-1c0.6-0.6,0.6-1.3,0.2-2c-0.1-0.2-0.3-0.5-0.4-0.6C7.8,15,7.5,14.7,7.2,14.4z"/>
		<path class="st0" d="M7.9,71.9C7.7,72,7.5,72,7.3,72c-0.5,0.2-1,0.1-1.5,0.2c-0.4,0.1-0.9,0.1-1.3-0.1c-0.6-0.1-1.1-0.3-1.7-0.5
			c-0.5-0.2-0.9-0.6-1.3-1C1.3,70.3,1,70,0.9,69.7c-0.2-0.4-0.3-0.8-0.5-1.2c0.2-0.6-0.1-1.3,0.2-1.9c0.1-0.2,0.3-0.4,0.4-0.4
			c0.3,0,0.2,0.3,0.3,0.5c0.1,0.3,0,0.6,0,0.9c0,0.8,0.3,1.4,0.7,2c0.4,0.5,0.8,0.9,1.4,1.1c0.2,0.1,0.4,0.2,0.6,0.2
			c0.5,0.1,1.1,0.2,1.7,0.2c0.4,0,0.8-0.2,1.3-0.2c0.4,0,0.8-0.2,1.2-0.3c0.5-0.1,0.9-0.4,1.3-0.7c0.6-0.4,1.1-1,1.3-1.7
			c0.2-0.6,0.2-1.3-0.3-1.8c-0.1-0.1-0.1-0.2-0.2-0.3c-0.1-0.2-0.2-0.3-0.4-0.3c-0.4,0-0.5-0.4-0.3-0.7c0,0,0.1-0.1,0.2-0.1
			c0.3,0,0.6-0.1,0.8,0.1c0.6-0.1,0.8,0.4,1,0.8c0.2,0.5,0.4,1,0.4,1.5s-0.2,0.9-0.3,1.4c-0.1,0.6-0.4,1.1-0.8,1.5
			c-0.4,0.4-0.8,0.9-1.3,1.1C8.9,71.4,8.4,71.7,7.9,71.9z"/>
		<path class="st0" d="M10.1,28.2c-0.3,0.3-0.6,0.4-1,0.4c-0.7,0.1-1.4,0-2.1,0.1c-0.8,0.1-1.7,0-2.5,0.1c-0.3,0-0.6,0-0.9,0
			s-0.5,0-0.8,0c-0.2,0-0.5,0.1-0.7,0c-0.3-0.1-0.4,0-0.4,0.3c0,0.2,0,0.3,0,0.5c0,0.5,0,0.9-0.2,1.4c-0.1,0.3-0.2,0.6-0.2,0.8
			c0,0.2-0.1,0.3-0.3,0.3S0.6,32,0.6,31.8c-0.1-0.4-0.3-0.9,0-1.3c0.1-0.1,0.1-0.2,0.1-0.3c0-0.4,0-0.9,0-1.3
			c0.2-1.3,0.1-2.6,0.1-3.9c0-0.2,0-0.5,0.1-0.7c0-0.1,0.2-0.3,0.3-0.4c0.1-0.1,0.2-0.1,0.4-0.1s0.1,0.2,0.2,0.3
			c0,0.3,0.1,0.5,0.1,0.8c0,0.7,0,1.3,0,2c0,0.2,0,0.3,0.3,0.3c0,0,0,0,0.1,0c0.6,0,1.2,0,1.7,0.1c0.2,0,0.3-0.1,0.5,0
			c0.3,0,0.6,0.1,0.9,0.1c0.7,0,1.4,0,2-0.2h0.1c0.7,0,1.4,0,2.1-0.1c0.4,0,0.6,0.2,0.8,0.5C10.4,27.7,10.3,27.9,10.1,28.2
			C10.1,28.1,10.1,28.1,10.1,28.2z"/>
		<path class="st0" d="M5.6,58.5c0.5,0.1,1,0,1.5,0.2c0.1,0,0.2,0,0.4,0c1,0,1.9-0.1,2.9-0.1c0.2,0,0.2-0.1,0.2-0.2
			c0-0.6,0-1.3,0-1.9c0-0.4,0-0.7,0.1-1.1c0.1-0.3-0.1-0.7-0.1-1c0-0.4,0.2-0.7,0.7-0.7c0.1,0,0.2,0.1,0.3,0.2
			c0.2,0.5,0.3,0.9,0.3,1.4c-0.1,0.4-0.3,0.9,0,1.4c0,0.1,0,0.2,0,0.3c-0.1,0.4,0,0.8,0,1.2c0,0.1,0,0.2,0.1,0.3
			c0.2,0.4,0,1.1-0.4,1.3C11.2,60,10.9,60,10.4,60c-0.7,0-1.5,0-2.2,0c-1.4-0.1-2.7-0.1-4.1-0.1c-0.7,0-1.4-0.1-2.1-0.2
			c-0.3,0-0.6-0.2-0.9-0.2c0,0-0.1-0.1-0.2-0.2c0-0.3,0-0.6,0.2-0.8c0.2-0.2,0.4-0.2,0.7-0.1c0.6,0.1,1.2,0.2,1.8,0.2
			c0.2,0,0.5,0.1,0.7,0s0.4,0,0.7,0.1C5,58.6,5.2,58.5,5.6,58.5z"/>
		<path class="st0" d="M2.2,49.4c1.4,0.1,2.7,0.2,4.1,0.1s2.8,0,4.2-0.1c0.2,0,0.4,0,0.6,0.1c0.4,0.2,0.4,0.5,0.2,0.8
			c-0.3,0.5-0.8,0.5-1.3,0.5c-1,0.1-1.9,0-2.9,0c-0.2,0-0.4,0.1-0.7,0.1c-0.2,0-0.4-0.1-0.6-0.1c-0.6,0-1.2,0.1-1.8,0.1
			c-0.4,0-0.8-0.1-1.2-0.1c-0.3,0-0.6,0-0.8,0c-0.2,0-0.5-0.1-0.7-0.1c0,0-0.1,0-0.1-0.1C1,50.7,0.9,50.1,1,49.9
			c0.1-0.3,0.5-0.6,0.7-0.6C1.8,49.4,2,49.4,2.2,49.4z"/>
		<path class="st0" d="M6.3,36.1c0.1,0,0.1,0,0.2,0.1c-0.1,0-0.2,0.1-0.2,0.1c-0.1-0.1-0.2-0.2-0.4-0.3H6C6.1,36,6.1,36.1,6.3,36.1z
			"/>
		<path class="st0" d="M3.1,37.1c-0.1,0.1-0.2,0.2-0.2,0c0-0.1,0-0.1,0.1-0.2C3,36.9,3,37,3.1,37.1z"/>
		<path class="st0" d="M12.5,47c-0.2,0.1-0.2-0.1-0.2-0.2v-0.1C12.5,46.9,12.5,46.9,12.5,47z"/>
		<path class="st0" d="M9.6,46.2c0-0.1,0.1-0.1,0.1-0.2v0.1C9.7,46.2,9.7,46.2,9.6,46.2z"/>
		<path class="st0" d="M4.5,69.5L4.5,69.5L4.5,69.5z"/>
		<path class="st0" d="M11.1,45.2C11.2,45.2,11.2,45.2,11.1,45.2C11.2,45.2,11.2,45.2,11.1,45.2z"/>
	</g>
</g>
</svg>
