<?xml version="1.0" encoding="utf-8"?>
<!-- Generator: Adobe Illustrator 26.1.0, SVG Export Plug-In . SVG Version: 6.00 Build 0)  -->
<svg version="1.1" id="Layer_1" xmlns="http://www.w3.org/2000/svg" xmlns:xlink="http://www.w3.org/1999/xlink" x="0px" y="0px"
	 viewBox="0 0 78.8 14.1" style="enable-background:new 0 0 78.8 14.1;" xml:space="preserve">
<style type="text/css">
	.st0{fill:#D68E8E;}
</style>
<g>
	<path class="st0" d="M20,12.9c-0.8,0.3-1.6,0.4-2.4,0.3c-0.7,0-1.2-0.4-1.7-0.8c-0.2-0.2-0.5-0.4-0.7-0.6c0,0-0.1-0.1-0.1-0.2
		c-0.1-0.1-0.1-0.3-0.2-0.4c-0.6-0.7-0.9-1.5-0.8-2.5c0-0.5,0-1,0-1.5c0-1.3,0.3-2.4,0.8-3.6C15,3.3,15.3,3,15.4,2.7
		c0.2-0.7,0.8-0.9,1.4-1c0.5-0.2,1.1-0.3,1.6,0c0.3,0.1,0.7,0,1,0c0.7,0,1.2,0.3,1.6,0.8c0.7,0.7,0.9,1.6,1.2,2.4
		c0.2,0.7,0.3,1.3,0.3,2c0,0.3,0.1,0.6,0.1,0.9c0.1,1-0.3,1.9-0.7,2.8C21.4,11.5,20.8,12.2,20,12.9 M16.8,3.9
		c-0.6,0.7-0.6,1.6-0.7,2.5C15.9,7.2,16,8.1,15.9,9c-0.1,1,0.5,1.8,0.9,2.6c0.2,0.3,0.5,0.5,0.9,0.6c0.2,0.1,0.4-0.1,0.6-0.2
		c0.1,0,0.2-0.1,0.2-0.2c0.4-0.3,0.7-0.8,1.1-1.2c0.8-0.9,1.2-2,1.2-3.2c0-0.3-0.1-0.7,0.1-1c0.1-0.2,0-0.5,0-0.7
		c-0.1-0.3-0.1-0.7-0.2-1c-0.2-0.5-0.3-1-0.5-1.4c-0.3-0.5-0.8-0.7-1.2-0.4c-0.4,0.4-0.9,0.6-1.4,0.7c-0.2,0-0.3,0.1-0.5,0.1
		c0.1-0.1,0.2-0.3,0.2-0.4c0,0,0-0.1,0-0.2c0,0-0.1,0.1-0.1,0.1C16.9,3.2,17,3.6,16.8,3.9z"/>
	<path class="st0" d="M65.8,7.7C66,6.9,66,6.9,66.9,6.8c0.4,0,0.9,0.1,1.4-0.1c0.2-0.1,0.6,0.1,0.9,0.3c0.1,0.1,0.2,0.4,0.2,0.7
		c0.1,0.9,0,1.7-0.4,2.5c-0.2,0.5-0.2,1-0.5,1.4c-0.3,0.4-0.5,0.6-1,0.7c-0.5,0.1-1,0.2-1.6,0.3c-0.2,0-0.4,0-0.6,0
		c-1.2,0-2.2-0.4-2.8-1.5c-0.2-0.3-0.4-0.6-0.6-0.9c-0.1-0.2-0.2-0.5-0.2-0.8c-0.1-0.3-0.1-0.6-0.1-0.9c0-0.3-0.1-0.6-0.1-1
		c0-1,0.2-1.9,0.7-2.8c0.2-0.4,0.4-0.8,0.7-1.2c0.8-0.9,1.7-1.4,2.9-1.2c0.1,0,0.2,0.1,0.3,0.1c0.2,0.1,0.4,0.1,0.6,0.1
		c0.5,0,0.9,0.2,1.4,0.4c0.1,0,0.2,0.2,0.3,0.3c0.1,0.1,0.1,0.2-0.1,0.3c-0.5,0.3-1.1,0.3-1.6,0.1c-0.5-0.1-0.9-0.1-1.2,0
		c-0.6,0.3-1.3,0.4-1.5,1.3c-0.1,0.6-0.5,1.1-0.6,1.7c-0.1,0.5-0.1,1-0.1,1.5c0,0.1,0.1,0.2,0.1,0.3c-0.1,0.6,0.2,1.2,0.4,1.7
		c0.1,0.3,0.4,0.7,0.7,0.9c0.3,0.2,0.7,0.3,1,0c0.1-0.1,0.4,0,0.5-0.1c0.9-0.3,1.6-1.3,1.7-2.2c0-0.2,0.1-0.4,0.1-0.7
		c0-0.1-0.1-0.2-0.1-0.2c-0.1,0-0.2,0-0.3,0c-0.4,0-0.8,0.1-1.1-0.4C66,7.7,65.9,7.7,65.8,7.7z"/>
	<path class="st0" d="M72.8,11.6c-0.1-0.2-0.1-0.4-0.1-0.6c0-1.7,0-3.3,0-5c0-0.3,0-0.6-0.1-0.8c-0.1-0.2,0-0.4,0-0.7
		c0-0.3,0-0.6,0-0.9c-0.1-0.4,0-0.6,0.5-0.8c0.5-0.1,1.1,0,1.6,0.1C75,2.9,75.3,3,75.6,3c0.5,0.1,1.1,0.1,1.6,0.1
		c0.5,0.1,1,0.2,1.4,0.4c0.2,0.1,0.3,0.2,0.3,0.4c0,0.2,0,0.2-0.2,0.3c-0.3,0-0.6,0.2-0.9,0c-0.1-0.1-0.2,0-0.3,0
		c-0.5,0-1.1,0-1.6-0.2c-0.3-0.1-0.6-0.1-0.9,0c-0.2,0-0.3,0.3-0.4,0.4c0,0.1,0,0.2,0,0.3c0.2,0.5,0,0.9,0,1.4c0,0.5,0.1,1,0.1,1.5
		c0,0.1,0.1,0.1,0.2,0.2c0.2,0,0.3,0,0.5,0c0.8,0,1.5,0.1,2.3,0.3c0.3,0.1,0.7,0.1,1,0.3c0.3,0.2,0.3,0.5,0,0.6
		c-0.2,0.1-0.6,0.2-0.8,0.1C77.5,9,77.2,9,77,9c-0.7,0-1.3-0.1-2-0.1c-0.3,0-0.4,0.1-0.3,0.3c0.1,1.1,0.1,2.2,0.1,3.2
		c0,0.1,0.1,0.3,0.2,0.3c0.4,0,0.8,0.1,1-0.1c0.5-0.3,1-0.1,1.5,0.1c0.1,0.1,0.3,0.1,0.5,0.1c0.3,0.1,0.4,0.3,0.1,0.6
		c-0.2,0.2-0.4,0.4-0.8,0.4c-0.3,0-0.7,0.2-1.1,0.2c-0.7,0-1.3,0-2-0.1c-0.3-0.1-0.7-0.3-0.9-0.5c-0.2-0.2-0.5-0.4-0.3-0.8
		c0-0.1-0.1-0.4-0.2-0.5C72.7,11.9,72.7,11.7,72.8,11.6z"/>
	<path class="st0" d="M0.4,8.1C0.3,7.7,0.2,7.3,0.1,6.9C0,6.3-0.1,5.6,0.1,5c0.1-0.6,0.1-1.1,0.2-1.7c0.2-0.8,0.8-1.4,1.5-1.8
		C2.6,1,3.5,0.9,4.3,0.6c0.6-0.2,1.2-0.4,1.8-0.3C6.7,0.3,7.3,0.5,8,0.6c0.2,0.1,0.5,0.1,0.7,0.2C8.8,1,8.9,1.1,8.7,1.4
		C8.4,1.7,8.3,1.8,7.9,1.6c-0.3-0.1-0.7-0.1-1-0.2C6.2,1.2,5.6,1.4,5,1.7C4.4,1.9,3.8,2.2,3.3,2.5C2.8,2.6,2.5,2.9,2.2,3.2
		C2.1,3.3,2,3.4,2,3.5C1.9,4.1,1.9,4.7,1.4,5.2c0,0.1,0,0.2,0,0.2c0,0.5-0.2,1.1,0.1,1.6c0,0,0,0.1,0,0.1C1.5,7.7,1.6,8.1,1.9,8.5
		c0.2,0.3,0.3,0.7,0.4,1c0,0.3,0.1,0.6,0.3,0.8c0.3,0.5,0.7,1.1,1,1.5c0.4,0.5,0.8,0.8,1.6,0.8c1.3,0.1,2.2-0.8,3-1.6
		c0.3-0.3,0.4-0.4,0.7-0.2c0.4,0.3,0.4,0.5,0.2,1c-0.2,0.5-0.5,0.9-1.1,1.2c-0.7,0.4-1.5,0.8-2.4,0.7c-1.2-0.2-2.4-0.5-3.2-1.6
		c-0.3-0.4-0.7-0.8-1-1.3c-0.3-0.6-0.7-1.3-0.9-2C0.6,8.7,0.5,8.4,0.4,8.1z"/>
	<path class="st0" d="M55.8,3.7c-0.4,0.1-0.7,0.3-1.1,0.2c-0.6-0.2-1.3,0-1.9,0.1C52.6,4,52.4,4,52.1,4c-0.4,0-0.6,0.2-0.6,0.6
		c0,0.5,0,1-0.2,1.6c-0.1,0.2,0.1,0.5,0.1,0.8c0,0.3,0,0.6-0.1,0.9c0.3-0.3,0.6-0.1,0.9-0.1c0.4,0,0.8,0.1,1.2,0.1
		c0.3,0,0.5-0.1,0.8-0.1c0.3,0,0.6,0,0.8,0.1c0.3,0.1,0.3,0.4,0.1,0.7c-0.1,0.1-0.2,0.2-0.3,0.2c-0.4,0.1-0.8,0.3-1.3,0.2
		c-0.5-0.1-1,0-1.6,0c-0.1,0-0.3,0-0.4,0c-0.3,0-0.6-0.1-0.2,0.3c0.1,0.1,0,0.3,0,0.5c0,0.6,0.1,1.2,0.2,1.9
		c0.1,0.3,0.2,0.4,0.4,0.4c0.4,0,0.9,0.1,1.4-0.1c0.1,0,0.3,0,0.4,0.1c0.2,0.1,0.5,0.2,0.7,0.2c0.5,0,0.7,0.3,0.9,0.6
		c0.1,0.2,0,0.3-0.2,0.4c-0.2,0.1-0.5,0.2-0.6,0.1c-0.4-0.3-0.8-0.1-1.1-0.1c-0.4,0-0.8,0-1.2,0c-0.4,0-0.9-0.1-1.3,0.1
		c-0.2,0.1-0.8-0.3-0.9-0.6c-0.2-0.5-0.2-0.9-0.3-1.4c-0.1-1-0.1-1.9-0.1-2.9c0-0.3-0.1-0.6-0.1-1c0-0.3,0-0.6,0-0.9
		c0.2-0.8,0-1.7,0.1-2.5c0-0.2,0.2-0.4,0.2-0.5c0-0.3,0.3-0.1,0.4-0.2c0.9-0.3,1.8-0.4,2.7-0.4c0.4,0,0.8,0,1.2-0.1
		c0.4-0.1,1,0.1,1.4,0.2C56.1,3.1,56.2,3.3,55.8,3.7z"/>
	<path class="st0" d="M31.5,13.3c-0.3,0-0.5,0.1-0.7-0.1c-0.1-0.1-0.4,0-0.5,0c-0.5,0.1-1,0.1-1.5-0.3c-0.4-0.4-0.6-0.7-0.6-1.2
		c0-0.8-0.2-1.6-0.4-2.5c-0.1-0.5,0-1.1,0-1.6c0-0.5,0-1-0.2-1.5c0-0.1,0-0.1,0-0.2c0-0.2,0.1-0.4,0.1-0.6c-0.2-0.4-0.1-0.9-0.1-1.3
		c0-0.5,0.1-0.9,0.1-1.4c0.1-0.4,0.6-0.7,1-0.5C29,2.4,29.3,2.7,29.5,3c0,0.1,0.1,0.2,0.1,0.2c-0.2,0.6-0.1,1.2,0,1.8
		c0,0.5,0,1,0.1,1.5c0.1,1,0,2,0.1,3.1c0,0.2,0.1,0.4,0.1,0.6c0.1,0.5,0.2,1,0.3,1.5c0,0.3,0.2,0.4,0.5,0.5c0.9,0.2,1.9,0.3,2.8,0.3
		c0.3,0,0.7,0.3,0.7,0.5c0,0.3-0.3,0.5-0.6,0.5c-0.2,0-0.4,0.1-0.6,0.1C32.5,13.5,32,13.4,31.5,13.3z"/>
	<path class="st0" d="M39.8,11.6c-0.1-1-0.1-2-0.3-2.9c-0.1-0.5,0-1-0.1-1.5c-0.2-0.8-0.1-1.6-0.1-2.4c0-0.6,0.1-1.2,0.1-1.8
		c0-0.1,0.1-0.3,0.2-0.3c0.5-0.2,1.5,0.2,1.7,0.8c0,0.1,0,0.2,0,0.2c-0.3,1-0.1,2-0.1,3.1c0,0.6,0,1.3,0.1,1.9
		c0,0.3,0.1,0.5,0.1,0.8c0,0.4,0.1,0.7,0.1,1.1c0,0.4-0.1,0.8,0.1,1.2c0.1,0.1,0,0.3,0,0.4c-0.1,0.4,0.1,0.7,0.5,0.7
		c0.6,0.1,1.3,0.3,1.9,0c0.2-0.1,0.6,0.3,0.7,0.5c0,0.1,0,0.1,0,0.2C44.5,14,44,14.1,43.5,14c-0.7-0.1-1.4-0.2-2.1,0.1
		c-0.1,0-0.2,0-0.2,0c-0.7-0.2-1.2-0.8-1.2-1.6C39.9,12.2,39.8,11.9,39.8,11.6z"/>
	<path class="st0" d="M65.7,7.7c-0.1,0.2-0.3,0.3-0.5,0.5c0,0-0.2,0-0.2,0c0-0.1,0.1-0.1,0.1-0.2C65.3,7.9,65.5,7.8,65.7,7.7z"/>
	<path class="st0" d="M58.5,0c0,0-0.1,0.1-0.2,0.1c0,0,0-0.1,0-0.1C58.3,0,58.4,0,58.5,0z"/>
</g>
</svg>
