<?xml version="1.0" encoding="utf-8"?>
<!-- Generator: Adobe Illustrator 26.1.0, SVG Export Plug-In . SVG Version: 6.00 Build 0)  -->
<svg version="1.1" id="Layer_1" xmlns="http://www.w3.org/2000/svg" xmlns:xlink="http://www.w3.org/1999/xlink" x="0px" y="0px"
	 viewBox="0 0 14 71.7" style="enable-background:new 0 0 14 71.7;" xml:space="preserve">
<style type="text/css">
	.st0{fill:#D68E8E;}
</style>
<g>
	<path class="st0" d="M7.8,71.2c-0.7,0.1-1.4,0.1-2.1,0.2c-0.4,0.1-0.9,0-1.3,0.1c-1,0.2-2.1,0.1-3.1,0.1c-0.1,0-0.2,0-0.2,0
		c-0.6,0.2-1-0.1-1.1-0.7c0-0.4,0.3-1,0.8-1.1c0.3-0.1,0.4-0.3,0.4-0.5c0-0.4,0.1-0.7,0.2-1.1c0-0.1,0.1-0.3,0.1-0.4
		c0.1-0.4,0.4-0.7,0.7-1.1c0.7-1.1,1.9-1.6,3.1-2c0.6,0.1,1.1-0.2,1.6-0.2c0.2,0,0.4,0,0.6-0.1c0.5-0.2,0.9,0,1.4,0
		c0.1,0,0.2,0.1,0.3,0.1c0.1,0,0.2,0.1,0.3,0.1c0.8,0,1.4,0.4,2,0.8c0.4,0.3,0.7,0.7,0.9,1.1c0.3,0.5,0.5,1,1,1.4
		c0.3,0.2,0.2,0.6,0.3,0.9c0,0.2,0,0.4,0.3,0.5c0.2,0.1,0.3,0.3,0.2,0.6c-0.1,0.3-0.1,0.6-0.2,0.8c-0.1,0.3-0.4,0.4-0.7,0.6
		c-0.1,0-0.1,0-0.2-0.1c-0.2-0.1-0.4-0.2-0.6-0.2c-0.3,0-0.6,0.1-0.9,0.1c0,0-0.1,0-0.1,0c-0.6,0-1.1,0.1-1.7,0.1
		C9,71.1,8.4,71.2,7.8,71.2 M2.2,69c0,0.1,0,0.1,0,0.2c0,0.2-0.1,0.4-0.1,0.6c0.2,0,0.4,0.1,0.7,0c0.4,0,0.9,0.1,1.3-0.1
		c0.4,0.3,0.8-0.1,1.2,0.1c0.7-0.3,1.4,0,2.1-0.2c0.4-0.1,0.9-0.1,1.4,0c0.5,0,1,0.1,1.6-0.1c0.4-0.1,0.9-0.1,1.4-0.1
		c0.2,0,0.4-0.1,0.5-0.2c0.1-0.1-0.1-0.3-0.2-0.4c0,0,0-0.1,0-0.1c-0.2-0.6-0.6-1.1-1.1-1.6c-0.6-0.6-1.5-0.9-2.4-1
		c-1.2-0.1-2.3,0-3.5,0.4C3.8,67,2.7,67.6,2.2,69z"/>
	<path class="st0" d="M6.9,43.7c0.1-0.2,0.3-0.4,0.4-0.5c0.2-0.4,0.5-0.7,1-0.8c0.2,0,0.4-0.2,0.5-0.3c0.2,0,0.4,0.1,0.6,0.1
		c0.4,0,0.8,0,1.2,0.1c0.3,0.1,0.7,0.2,0.9,0.5c0.3,0.3,0.7,0.4,1,0.7c0.3,0.2,0.4,0.5,0.6,0.8c0.3,0.6,0.1,1.2,0,1.7
		c-0.1,0.7-0.6,1.1-1.3,1.1c-0.6,0-1.3,0-1.9,0.1c-1.7,0.3-3.3,0.1-5,0.2c-0.7,0-1.4,0-2.1,0.3c-0.2,0.1-0.3,0-0.4-0.2
		c-0.2-0.3-0.5-0.5-0.2-0.9c0-0.1,0-0.2,0-0.3C1.8,45.8,2,45.1,2,44.5c0-0.3,0.2-0.7,0.3-1c0.3-0.7,0.9-0.9,1.6-1
		c0.5,0,0.9,0,1.4,0.1c0.2,0,0.3,0.1,0.4,0.3c0.3,0.3,0.6,0.6,0.9,1c0,0,0.1,0.1,0.2,0.1C6.9,43.9,6.9,43.8,6.9,43.7 M9.8,43.9
		c-0.4-0.2-0.8-0.2-1.2-0.1c-0.3,0-0.5,0.1-0.8,0.4c-0.3,0.4-0.3,0.8-0.5,1.2c-0.1,0.4-0.1,0.4,0.3,0.4c0.8,0,1.5,0,2.3-0.1
		c0.7-0.1,1.4-0.2,2.1-0.2c0.1,0,0.1,0,0.2-0.1c0-0.1,0-0.1-0.1-0.2c-0.2-0.2-0.5-0.4-0.7-0.6C10.9,44.4,10.4,44.1,9.8,43.9 M3,45.7
		c0.1,0.1,0.2,0.1,0.2,0.2c0.3,0.1,0.6,0,0.8,0c0.6,0.1,1.2,0,1.8,0c0.1,0,0.2,0,0.3,0c0,0,0.1-0.1,0.1-0.1c-0.3-0.3-0.6-0.7-1-1
		c-0.5-0.4-1.2-0.3-1.8-0.1c-0.6,0.2-0.7,0.4-0.6,0.9C2.8,45.6,2.9,45.6,3,45.7z"/>
	<path class="st0" d="M8.4,26.7c-0.6,0-1.2,0.1-1.8,0c-0.5-0.1-0.9-0.1-1.4-0.2c-0.7-0.1-1.3-0.4-1.8-0.9c-0.3-0.3-0.5-0.7-0.5-1.2
		c0-0.2-0.1-0.3-0.1-0.4c-0.3-0.4-0.3-0.9-0.2-1.5c0.2-0.9,0.8-1.6,1.3-2.4c0.2-0.3,0.6-0.5,0.9-0.8c0,0,0.1,0,0.2,0
		c0.6,0,1.1-0.1,1.7-0.2c0.4-0.1,0.8,0.1,1.2,0.1c0.7-0.1,1.4,0.2,2.1,0.1c0.1,0,0.2,0.1,0.3,0.1c0.6,0.2,0.8,0.2,1.2-0.4
		c0.1-0.1,0.1-0.3,0.1-0.4c0-0.3,0.1-0.4,0.4-0.2c0.4,0.2,0.5,0.4,0.3,0.8c-0.1,0.3-0.3,0.7-0.5,1c-0.1,0.1-0.1,0.2,0,0.4
		c0.3,0.3,0.4,0.7,0.6,1c0.2,0.4,0.2,0.7,0.1,1.1c-0.1,0.5-0.2,1-0.4,1.4c-0.1,0.3-0.2,0.5-0.3,0.7c-0.3,1-1.1,1.3-2,1.6
		C9.3,26.6,8.8,26.7,8.4,26.7 M9.3,20.9C9.3,20.9,9.3,20.8,9.3,20.9c-0.7-0.2-1.4-0.3-2.1-0.3c-0.6,0-1.1,0.1-1.7,0.1
		c-0.4,0-0.6,0.1-0.9,0.4c-0.5,0.4-0.7,1-1.1,1.5c-0.1,0.1-0.1,0.2,0,0.4c0.2,0.2,0.1,0.5,0.2,0.8c0,0.2,0.1,0.4,0.2,0.5
		c0.4,0.4,0.9,0.7,1.5,0.8c0.7,0.1,1.3,0.2,2,0.2c0.2,0,0.5,0.2,0.7,0c0,0,0.1,0,0.2,0c0.6,0.2,1.1-0.1,1.7-0.2
		c0.3-0.1,0.6-0.4,0.9-0.6c0.1-0.1,0.1-0.1,0.2-0.2c-0.1,0-0.2,0-0.2,0c-0.1-0.1-0.3-0.2-0.4-0.3c-0.1-0.2-0.2-0.3-0.3-0.5
		c-0.1-0.4-0.4-0.8-0.2-1.3c0.1-0.2,0.1-0.4,0.1-0.6c0-0.1,0-0.2-0.1-0.2C9.9,21,9.7,20.9,9.3,20.9 M11.3,22.3
		c-0.1-0.1-0.1-0.3-0.2-0.4c0,0-0.1-0.1-0.1-0.1c0,0-0.1,0.1-0.1,0.1c-0.2,0.4-0.1,0.8,0.2,1.1c0.1,0.1,0.2,0.2,0.3,0.1
		c0.2-0.1,0-0.2,0-0.3C11.4,22.6,11.4,22.4,11.3,22.3z"/>
	<path class="st0" d="M8.9,55.3c-0.6,0-1.1-0.1-1.6-0.2C6.8,55,6.2,55,5.7,55c-0.4,0-0.8-0.1-1.2-0.2c-0.2,0-0.3,0-0.5,0
		c-0.4,0-0.9,0-1.3,0c-0.3,0-0.6-0.2-0.6-0.6c0-0.3,0-0.5,0.2-0.7c0,0,0.1-0.1,0.2-0.1c0.3,0,0.6,0.1,0.8,0c0.2-0.1,0.3-0.1,0.5-0.1
		c0.2,0,0.4,0,0.6,0c0.4,0.1,0.8,0.2,1.2,0.2c0.6,0,1.1,0.1,1.7,0.2C7.8,54,8.5,53.9,9.1,54c0.4,0,0.8,0.1,1.1,0.1
		c0,0,0.1,0,0.1,0.1c0.4,0.3,0.8,0.5,1.1,0.8c0.6,0.5,0.8,1.2,1.1,1.9c0.1,0.3,0.2,0.5,0.2,0.8c0,0.4-0.1,0.7-0.2,1.1
		c-0.1,0.5-0.4,0.8-0.8,1c-0.7,0.4-1.4,0.6-2.1,0.7c-0.7,0.1-1.5,0.1-2.2,0.2c-0.9,0.1-1.8,0-2.7,0.1c-0.6,0.1-1.2-0.1-1.8-0.2
		c-0.3-0.1-0.7-0.1-1-0.1c-0.2,0-0.3-0.1-0.3-0.3c-0.1-0.6,0.1-1,0.5-1.4c0.1-0.1,0.2-0.1,0.4-0.1c0.2,0,0.5,0.1,0.7,0.1
		c0.4,0.1,0.9,0.1,1.3,0.2C5.2,59,5.9,59,6.7,58.9c0.7-0.1,1.5,0,2.2-0.1c0.5-0.1,0.9-0.1,1.3-0.1c0.1,0,0.3-0.1,0.4-0.1
		c0.3-0.1,0.7-0.3,1-0.4c0.1,0,0.2-0.2,0.2-0.3c-0.1-1-0.9-1.8-1.7-2.2C9.7,55.6,9.3,55.4,8.9,55.3z"/>
	<path class="st0" d="M10.1,31.8c0.5,0.2,0.9,0.4,1.3,0.7c0.2,0.1,0.3,0.3,0.4,0.4c0.3,0.3,0.9,1.3,0.9,1.6c0,0.3,0,0.6-0.1,0.8
		c-0.3,0.5-0.3,1-0.8,1.4c-0.3,0.3-0.7,0.5-1.1,0.6c-0.5,0.2-1.1,0.3-1.6,0.4c-0.5,0.1-1,0-1.5,0.1c-1.4,0.1-2.9,0.1-4.3,0.1
		c-0.5,0-0.6-0.1-0.6-0.6c0-0.6,0.3-1,0.8-1.2c0.1,0,0.2,0,0.3,0c0.5,0,1,0.1,1.4,0.1c1-0.1,2,0,2.9-0.1c0.8-0.1,1.5-0.2,2.3-0.4
		c0.3-0.1,0.6-0.2,0.8-0.3c0.1-0.1,0.2-0.2,0.1-0.3c-0.2-0.4-0.4-0.8-0.9-1c-0.1-0.1-0.3-0.2-0.4-0.3c-0.7-0.4-1.4-0.8-2.1-1
		c-0.2-0.1-0.5-0.1-0.7-0.1c-1.4-0.2-2.7-0.2-4.1-0.2c-0.1,0-0.2,0-0.2,0.1c-0.5,0.1-0.8,0-1-0.5c-0.1-0.4,0.1-0.8,0.5-0.8
		c0.7,0,1.3-0.2,2-0.3c0.5-0.1,1-0.1,1.5,0.1C6.4,31,6.7,31,7,31c0.4,0,0.9,0.1,1.3,0.1c0.5,0.1,1,0.2,1.4,0.5
		C9.8,31.7,9.9,31.7,10.1,31.8z"/>
	<path class="st0" d="M6.3,13.6c0.7,0,1.4,0.1,2.1,0.1c0.4,0,0.8,0.2,1.2,0.1c0.6-0.1,1.2,0.1,1.8-0.1c0.4-0.1,0.5-0.5,0.4-0.8
		c-0.1-0.2-0.2-0.3-0.3-0.5c-0.3-0.3-0.6-0.6-0.9-0.9c-0.1-0.1-0.2-0.1-0.3-0.1c-0.3-0.1-0.6-0.2-1-0.3c-0.3-0.1-0.7-0.2-1-0.2
		c-0.1,0-0.2,0-0.3,0c-0.3-0.1-0.6-0.1-1-0.1c-0.4,0-0.8-0.1-1.3-0.2c-0.1,0-0.2,0-0.4,0c-0.6-0.1-1.1,0-1.7,0c-0.1,0-0.2,0-0.3,0
		C3.1,10.4,3,10.3,3,9.9c0-0.2-0.1-0.3-0.1-0.5c0-0.2,0.1-0.3,0.3-0.4C3.4,9.1,3.5,9,3.7,9c0.2,0,0.3-0.2,0.5,0c0,0,0.1,0,0.2,0
		C5.3,9,6.1,9,6.8,9.2c0.2,0,0.5,0,0.7,0c0.4,0,0.7,0.1,1,0.2C8.8,9.4,9,9.5,9.2,9.6c0.2,0.1,0.5,0.1,0.7,0.2c0.5,0.4,1.2,0.5,1.6,1
		c0.3,0.4,0.6,0.7,0.8,1.1c0.2,0.3,0.2,0.7,0.3,1c0,0.2,0,0.4-0.1,0.6c-0.1,0.2-0.2,0.5-0.3,0.7c-0.2,0.6-0.7,0.9-1.2,1
		c-1.2,0.3-2.4,0.2-3.7,0.1c-0.7,0-1.4,0-2.1-0.1c-0.6,0-1.2-0.1-1.8-0.1c-0.2,0-0.4-0.2-0.4-0.4c-0.1-0.4,0.1-0.8,0.4-1.1
		c0.1-0.1,0.2-0.1,0.3-0.1c0.5,0,1,0.1,1.5,0.2C5.5,13.7,5.9,13.6,6.3,13.6z"/>
	<path class="st0" d="M7.9,1.4c0.2,0.1,0.2,0.3,0.2,0.5c0,0.4-0.1,0.8,0.1,1.1c0,0.1-0.1,0.3-0.1,0.5c0,0.4,0,0.8,0,1.1
		C8.1,4.9,8.2,5,8.5,5c0.4,0,0.9-0.1,1.3-0.1c0.2,0,0.4-0.1,0.6-0.1c0.2,0,0.4-0.1,0.6-0.1c0,0,0.1-0.1,0.1-0.1
		c0.4,0.3,0.3-0.1,0.3-0.3c0-0.4,0-0.8,0-1.2c0-0.4-0.1-0.8-0.1-1.2c0-0.5-0.3-0.9-0.2-1.4c0-0.2,0.1-0.4,0.3-0.5
		c0.2-0.1,0.3,0.1,0.4,0.3C11.9,0.5,12,0.7,12,0.9c0.1,0.4,0.1,0.8,0.1,1.1c0.1,0.9,0.1,1.7,0.3,2.6c0.1,0.3,0,0.7-0.3,1.1
		c-0.3,0.3-0.6,0.5-1,0.5c-0.6,0-1.3,0.1-1.9,0.2c-0.1,0-0.2,0-0.3,0c-1.2,0-2.5,0.1-3.7,0.1c-0.3,0-0.7,0.2-1,0
		c-0.3,0.2-0.6,0-0.9,0c-0.1,0-0.3,0-0.4-0.1C2.8,6.3,2.7,6.1,2.7,5.9c-0.1-0.6-0.3-1.2,0-1.8c-0.1-1,0.2-2-0.2-2.9
		c0-0.1,0-0.2,0-0.3c0-0.2,0.1-0.5,0.3-0.5c0.2,0,0.3,0.2,0.4,0.4C3.4,1.4,3.5,2,3.5,2.6c0,0.5,0,1.1,0,1.6c0,0.4,0.2,0.7,0.6,0.7
		C5,5,6,5,7,4.9c0,0,0.1-0.1,0.1-0.1c0-0.1,0-0.1,0-0.2c0-0.6,0.1-1.2,0.2-1.8c0.1-0.4,0-0.8,0-1.1C7.3,1.2,7.5,1.2,7.9,1.4z"/>
	<path class="st0" d="M10.2,61.5c0,0.1,0,0.2,0,0.3c0,0,0,0.1-0.1,0.1c0,0,0-0.1,0-0.1C10.1,61.7,10.1,61.6,10.2,61.5z"/>
	<path class="st0" d="M13.1,64.4c0,0.1,0,0.1,0,0.2c0,0-0.1,0-0.1,0C13,64.5,13,64.4,13.1,64.4z"/>
	<path class="st0" d="M12.2,50.5C12.2,50.5,12.2,50.5,12.2,50.5C12.2,50.5,12.2,50.5,12.2,50.5z"/>
</g>
</svg>
