<?xml version="1.0" encoding="utf-8"?>
<!-- Generator: Adobe Illustrator 26.1.0, SVG Export Plug-In . SVG Version: 6.00 Build 0)  -->
<svg version="1.1" id="Layer_1" xmlns="http://www.w3.org/2000/svg" xmlns:xlink="http://www.w3.org/1999/xlink" x="0px" y="0px"
	 viewBox="0 0 12.8 68.8" style="enable-background:new 0 0 12.8 68.8;" xml:space="preserve">
<style type="text/css">
	.st0{fill:#D68E8E;}
</style>
<g>
	<path class="st0" d="M1.1,14.9c-0.1-0.4-0.1-0.7-0.2-1c0-0.2-0.1-0.4-0.1-0.6c0-0.3,0.1-0.6,0.1-0.9c0,0,0,0,0,0
		c0-0.7,0.5-1.1,1.1-1.2c0.1,0,0.1-0.1,0.2-0.1c0.7,0,1.5-0.2,2.2,0.1c0.7,0.3,1.5,0.5,1.9,1.2c0.1,0.1,0.2,0.3,0.3,0.4
		C6.8,12.9,7,13,7.2,12.8c0.4-0.4,1-0.5,1.4-0.8c0.7-0.5,1.5-0.8,2.1-1.3c0.4-0.3,0.8-0.6,1.3-0.7c0.2,0,0.4,0,0.5,0.1
		c0.1,0.1,0.3,0.3,0.1,0.5c0,0,0,0.1,0,0.1c0.1,0.5-0.3,0.7-0.7,0.9c-0.3,0.1-0.5,0.3-0.8,0.4c-0.9,0.5-1.8,1.1-2.7,1.6
		c-0.4,0.2-0.7,0.4-1.1,0.6C7,14.4,7,14.8,6.9,15.1c0,0.1-0.1,0.2-0.2,0.3c-0.1,0.1-0.2,0.1-0.2,0.2c0.1,0,0.2,0.1,0.3,0
		c0.3-0.1,0.5-0.1,0.8,0c0.3,0.1,0.7,0,1-0.1c0.4-0.1,0.8-0.2,1.1-0.2c0.5,0,1-0.2,1.6-0.2c0.5,0,0.5-0.1,1,0.2c0.1,0,0.2,0,0.2,0
		c0.1,0.1,0.3,0.2,0.3,0.4c0,0.1,0,0.3-0.3,0.4c-0.3,0.1-0.7,0.3-1,0.4c-0.3,0.1-0.6,0.2-0.9,0.2c-0.3,0-0.7,0.1-1,0.2
		c-0.4,0-0.7,0-1.1,0.1C7.6,17,6.7,17,5.8,17c-1.1,0.1-2.1,0.1-3.2,0.1c-0.5,0-0.9,0-1.4,0c-0.5,0-0.8-0.4-0.6-0.9
		c0.1-0.2,0.3-0.3,0.4-0.5c0.1-0.1,0.2-0.2,0.3-0.4c0-0.1-0.1-0.2-0.2-0.3C1.1,15,1.1,14.9,1.1,14.9 M2.9,12.7c-0.2,0-0.3,0-0.5,0
		c-0.5,0-0.6,0.1-0.6,0.6c0,0.2,0,0.4,0.1,0.6c0.2,0.4,0,0.9,0.3,1.4c0.1,0.2,0.3,0.4,0.5,0.4c0.5,0,1.1,0,1.6,0
		c0.3,0,0.6-0.1,0.8-0.1c0.3,0,0.5,0,0.8,0c0.1,0,0.3,0,0.4,0c-0.1-0.1-0.2-0.1-0.3-0.2c0,0,0-0.1,0-0.1C6,15.1,6,14.9,6,14.7
		c0-0.7-0.4-1.2-1.1-1.5c-0.3-0.2-0.7-0.4-1-0.5C3.6,12.6,3.3,12.5,2.9,12.7z"/>
	<path class="st0" d="M9,35.3c-0.4,0-0.8,0-1.2,0c-0.6,0-1.2,0-1.8,0.1c-1.2,0.3-2.4,0.2-3.7,0.2c-0.6,0-1.1,0.1-1.7-0.1
		c-0.2-0.1-0.4,0-0.5-0.3c-0.1-0.3,0-0.4,0.1-0.6c0-0.1,0.1-0.1,0.1-0.1c0.2,0,0.3-0.2,0.3-0.4c0-0.8,0.3-1.5,0.5-2.3
		c0.2-0.6,1-1.2,1.7-1.2c0.4,0,0.7-0.1,1.1,0c0.3,0.1,0.7,0.1,0.9,0.4c0.2,0.4,0.6,0.6,0.7,1c0.1,0.3,0.3,0.3,0.4,0
		c0.1-0.2,0.2-0.3,0.3-0.5c0.1-0.4,0.5-0.7,0.8-1c0.3-0.3,0.6-0.2,1-0.3c0.3-0.1,0.7-0.1,1-0.1c0,0,0,0,0.1,0
		c1.1-0.4,1.7,0.4,2.5,0.9c0.3,0.4,0.7,0.7,0.7,1.4c0,0.5-0.3,0.9-0.4,1.3c0,0.1-0.1,0.2-0.1,0.3c0,0.1,0.1,0.3,0.1,0.4
		c0,0.1-0.2,0.3-0.3,0.3c-0.2,0.1-0.4,0.2-0.7,0.2c-0.5,0.1-1.1,0.1-1.6,0.1C9.4,35.2,9.2,35.2,9,35.3 M8.1,33.8
		c0.3,0.1,0.5,0,0.8,0c0.8-0.1,1.6-0.2,2.3-0.3c0.3,0,0.4-0.2,0.2-0.5c-0.2-0.3-0.4-0.5-0.7-0.8c-0.5-0.5-1.1-0.7-1.8-0.7
		c-0.4,0-0.7,0.2-1.1,0.2c-0.4,0-0.6,0.2-0.8,0.5c-0.2,0.3-0.4,0.6-0.5,0.9c-0.1,0.1-0.1,0.3-0.2,0.4c-0.1,0.3,0,0.4,0.3,0.4
		C7.1,33.9,7.5,33.8,8.1,33.8 M3.5,34.1c0.4,0,0.8,0,1.2,0c0.4,0,0.4-0.1,0.3-0.4c-0.2-0.4-0.4-0.8-0.6-1.1
		c-0.1-0.1-0.2-0.2-0.4-0.3c-0.7-0.3-1.3-0.1-1.9,0.1c-0.1,0-0.2,0.2-0.3,0.3c-0.1,0.3-0.1,0.7-0.2,1c0,0.2,0,0.3,0.3,0.3
		c0.3,0,0.5,0,0.8,0C3,34.1,3.2,34.1,3.5,34.1z"/>
	<path class="st0" d="M1.3,63.7C1,63.4,0.8,63.2,0.6,63c-0.4-0.5-0.5-1.1-0.5-1.7c0-0.5,0-1-0.1-1.6c-0.1-0.4,0.1-0.9,0.3-1.4
		C0.4,57.7,1,57.4,1.4,57c0.2-0.2,0.5-0.1,0.7,0c0.1,0.1,0.2,0.1,0.2,0.2c0.1,0.2,0.4,0.3,0.3,0.5c-0.1,0.3-0.3,0.5-0.7,0.6
		c-0.2,0-0.4,0.1-0.6,0.2C1.1,58.7,0.9,59,1,59.3c0.2,0.4,0.1,0.9,0.1,1.4c0,0.7,0.2,1.2,0.7,1.7c0.4,0.4,0.9,0.7,1.4,0.9
		c0.6,0.2,1.3,0.5,2,0.5c0.4,0,0.8-0.2,1.3-0.2c0.6,0,1.2-0.2,1.8-0.4c0.6-0.2,1.1-0.5,1.7-0.7c0,0,0.1,0,0.1-0.1
		c0.3-0.4,0.7-0.8,1-1.2c0.4-0.4,0.3-0.9,0.2-1.3c-0.1-0.4-0.3-0.9-0.7-1.3c-0.2-0.2-0.4-0.3-0.7-0.4c-0.5-0.2-1-0.2-1.4-0.4
		c-0.1,0-0.2,0-0.4,0c-0.2,0-0.2,0.1-0.2,0.2c0.1,0.5-0.1,1-0.3,1.5C7.4,59.8,7,60,6.8,59.9c-0.2-0.1-0.2-0.4-0.2-0.5
		c0-0.2,0.1-0.4,0.1-0.6c0-0.3-0.1-0.5-0.3-0.8c-0.2-0.2-0.2-0.8,0-1c0.3-0.3,0.6-0.6,1-0.5c0.1,0,0.1,0,0.2-0.1
		c0.1-0.1,0.2-0.2,0.3,0c0,0,0.2,0,0.3,0c0.1,0,0.2-0.1,0.2,0c0.2,0.3,0.6,0.1,0.9,0.3c0.1,0,0.2,0,0.2,0c0.2,0.2,0.6-0.1,0.8,0.2
		c0.2,0.2,0.4,0.4,0.7,0.5c0.3,0.2,0.5,0.5,0.7,0.8c0.3,0.5,0.5,1.1,0.6,1.7c0,0.6-0.2,1.1-0.4,1.6c-0.3,0.6-0.8,1.1-1.3,1.6
		c-0.5,0.6-1.2,0.8-1.9,1.1c-0.4,0.2-0.9,0.4-1.3,0.5c-0.4,0.1-0.8,0.1-1.1,0.2c-0.4,0.1-0.9,0.1-1.3,0.1c-0.5,0-0.9,0-1.3-0.3
		c0,0-0.1,0-0.1,0c-0.4,0.1-0.7-0.2-1.1-0.3C2,64.2,1.7,63.9,1.3,63.7z"/>
	<path class="st0" d="M12.4,26.8c-0.2,0.2-0.3,0.3-0.6,0.3c-0.4,0-0.8,0.1-1.3,0.2c0,0-0.1,0-0.2,0c-1,0-1.9,0.1-2.9,0.1
		c-1,0-2.1,0.1-3.1,0.2c-0.4-0.2-0.9,0-1.4-0.1c-0.5-0.1-1,0-1.4,0c-0.3,0-0.4-0.1-0.5-0.6c0-0.2,0-0.5,0-0.7c0-0.7,0-1.4,0-2.1
		c0-0.4,0.1-0.7,0.3-1.1c0.1-0.2,0.3-0.3,0.4-0.3c0.1,0,0.4,0.5,0.3,0.6c-0.2,0.4-0.1,0.8,0,1.2c0.1,0.3,0,0.7,0,1
		c0,0.5,0,0.4,0.5,0.5c0.5,0,1,0.1,1.5,0.1c0.2,0,0.4,0.1,0.6-0.1c0,0,0.1,0,0.1,0c0.5,0.2,1.1-0.1,1.6,0c0.2,0,0.2-0.1,0.2-0.3
		c0-0.3,0-0.7,0-1c0-0.6,0.1-1.1,0.1-1.7c0-0.2,0.4-0.6,0.6-0.6c0,0,0.1,0,0.1,0.1c0.2,0.2,0.3,0.5,0.3,0.8c0,0.1,0,0.1,0,0.2
		c0,0.5-0.1,1.1-0.1,1.6c0,0.2-0.1,0.4-0.1,0.6c0,0.2,0.1,0.3,0.3,0.3c0.5,0,1,0.1,1.6-0.1c0.3-0.1,0.6,0,0.9,0
		c0.5,0,0.9-0.1,1.4-0.2c0.2-0.1,0.3-0.2,0.3-0.4c0.1-0.6-0.1-1.2-0.3-1.8c0-0.2-0.1-0.3-0.2-0.5c0-0.1-0.1-0.3,0-0.4
		c0.1-0.2,0.3-0.4,0.4-0.5c0.2,0,0.4,0.2,0.5,0.4c0.1,0.4,0.2,0.8,0.2,1.1c0,0.8,0,1.6,0,2.5C12.7,26.4,12.6,26.6,12.4,26.8z"/>
	<path class="st0" d="M6.5,4.6c-0.5,0-1,0-1.5,0c-0.7-0.1-1.3-0.1-2-0.1c-0.1,0-0.2,0-0.4,0c-0.2,0-0.4,0-0.4,0.4
		c0,0.5-0.2,1.1-0.4,1.6C1.9,6.7,1.8,7,1.8,7.3c0,0.6-0.3,0.9-0.8,1.1c-0.2,0.1-0.2,0-0.2-0.2c0-0.6,0-1.1,0-1.7
		c0-0.2,0-0.5,0.1-0.7c0.2-0.5,0.2-1.1,0.3-1.6c0.1-0.6,0-1.1,0.1-1.7c0-0.2,0.1-0.5-0.1-0.7c0,0,0-0.1,0-0.2C1.3,1.5,1.4,1.3,1.4,1
		c0.1-0.4,0.4-0.7,0.6-1c0.1-0.1,0.3,0,0.4,0.1C2.6,0.4,2.6,0.7,2.5,1c-0.2,0.6,0,1.2-0.1,1.8C2.5,2.8,2.6,3,2.7,3C3,3,3.2,3,3.4,3
		C3.7,3,4,3,4.3,3.1C4.5,3.2,4.7,3.1,5,3c0.2,0,0.5-0.1,0.7,0c0.3,0.1,0.5,0.1,0.7,0.1c0.3,0,0.5,0,0.8,0.1c0.2,0.1,0.4,0,0.6,0
		c0.2,0,0.4-0.1,0.5-0.1c0.6,0.1,1.1-0.2,1.6-0.3c0,0,0,0,0,0c0.6,0.1,1.2-0.2,1.8-0.2c0.3,0,0.6,0,0.7,0.2c0.1,0.3,0.2,0.6,0.1,0.9
		c-0.1,0.5-0.4,0.6-0.8,0.6c-0.3,0-0.7,0-1,0c-0.7,0-1.4,0-2,0.2c-0.1,0-0.2,0-0.4,0c-0.5,0-1-0.1-1.5,0.1C6.7,4.7,6.7,4.6,6.5,4.6z
		"/>
	<path class="st0" d="M11.3,39.8c0-0.3-0.1-0.6,0.1-0.8c0.1-0.1,0.2-0.2,0.4-0.3c0.1,0,0.2,0,0.3,0.2c0.2,0.8,0.1,1.6,0.1,2.4
		c0,0.6-0.1,1.2,0,1.7c0.1,0.3-0.5,0.8-0.8,0.9c-0.9,0.2-1.9,0.1-2.8,0.2c-0.6,0.1-1.1,0-1.7,0.1c-0.5,0.1-1,0.1-1.6,0.1
		c-0.4,0-0.8,0-1.2,0c-0.4,0-0.9,0-1.3,0c-0.4,0-0.9,0-1.3,0c-0.1,0-0.2,0-0.3,0c-0.3,0-0.5-0.1-0.4-0.4c0.1-0.4,0.4-0.7,0.7-1.1
		c0.1-0.1,0.2-0.1,0.3-0.1c0.4,0,0.9-0.1,1.3,0c0.6,0.1,1.2-0.1,1.8,0c0.6,0.1,1.2,0,1.9,0s1.2,0,1.9,0c0.2,0,0.5-0.1,0.7-0.1
		c0.1,0,0.3,0.1,0.4,0.1c0.2,0,0.3,0,0.5,0c0.2,0,0.5-0.1,0.7-0.1c0.2,0,0.4-0.2,0.4-0.4C11.2,41.4,11.3,40.6,11.3,39.8z"/>
	<path class="st0" d="M9.6,50.1c0.7-0.2,1.3,0,1.9-0.3c0.2-0.1,0.7,0.1,0.8,0.3c0.2,0.3,0.1,0.6-0.1,0.9c-0.2,0.3-0.5,0.3-0.8,0.4
		c-0.8,0.1-1.5,0.1-2.3,0.2c-0.6,0.1-1.2,0-1.8,0.1c-0.4,0-0.8,0.1-1.2,0.2c-0.1,0-0.2,0-0.3,0c-0.7,0-1.4,0.2-2,0.1
		c-0.8-0.1-1.6,0.1-2.3-0.1C0.8,51.7,0.8,51.5,1,51c0.1-0.2,0.3-0.3,0.5-0.5c0.1-0.1,0.2,0,0.3,0c0.9,0,1.7,0.1,2.6-0.1
		c0.1,0,0.2,0,0.3,0c0.6,0,1.3,0,1.9-0.1c0.5-0.1,1.1,0,1.6-0.1C8.6,50.2,9.1,50.1,9.6,50.1z"/>
	<path class="st0" d="M9.1,55.6c0-0.1,0-0.1,0-0.2c0,0,0.1,0,0.1,0C9.1,55.5,9.1,55.6,9.1,55.6z"/>
	<path class="st0" d="M10.5,42C10.5,42,10.6,42,10.5,42C10.6,42,10.6,42,10.5,42z"/>
	<path class="st0" d="M11.5,68.8C11.6,68.8,11.6,68.8,11.5,68.8C11.6,68.8,11.5,68.8,11.5,68.8z"/>
</g>
</svg>
