<?xml version="1.0" encoding="utf-8"?>
<!-- Generator: Adobe Illustrator 26.2.1, SVG Export Plug-In . SVG Version: 6.00 Build 0)  -->
<svg version="1.1" id="Layer_1" xmlns="http://www.w3.org/2000/svg" xmlns:xlink="http://www.w3.org/1999/xlink" x="0px" y="0px"
	 viewBox="0 0 65.5 18.1" style="enable-background:new 0 0 65.5 18.1;" xml:space="preserve">
<style type="text/css">
	.st0{fill:#D68E8E;}
</style>
<g>
	<g>
		<path class="st0" d="M48.7,2.9c0.5,0.2,0.6,0.5,0.7,0.9c0,0.1,0.1,0.1,0.1,0.2c-0.2,0.6-0.5,1.1-0.7,1.7c0,0.1-0.1,0.1-0.2,0.2
			C48.4,6.6,48.1,7.3,48,8c-0.2,1-0.4,2.1-0.8,3c0,0.1-0.2,0.2-0.1,0.3c0.1,1-0.5,1.9-0.7,2.8c-0.1,0.4-0.2,0.7-0.2,1
			c-0.1,0.5-0.3,0.9-0.8,1.1c-0.5,0.1-0.9-0.1-1.3-0.4c-0.5-0.5-0.7-0.9-0.4-1.6c0.1-0.2,0.1-0.5,0-0.7c-0.5-0.9-0.9-1.7-1.2-2.7
			c-0.4-1.2-0.8-2.3-1.4-3.4c-0.3-0.5-0.5-1.1-0.8-1.7c-0.1-0.2-0.2-0.4-0.3-0.5c-0.3-0.3-0.4-0.3-0.6,0.1c-0.3,1.1-0.8,2.2-0.9,3.4
			c-0.1,0.6-0.4,1.1-0.5,1.7c-0.1,0.4-0.1,0.8-0.2,1.1c0,0.2-0.1,0.3-0.2,0.5c0,0.1-0.1,0.2-0.1,0.3c-0.1,1-0.7,1.8-0.8,2.8
			c0,0.6-0.8,0.9-1.3,0.7c-0.6-0.2-0.8-0.5-0.8-1.1c0.1-0.6-0.3-1.1-0.5-1.6c-0.2-0.6-0.2-1.2-0.4-1.7c-0.2-0.7-0.4-1.5-0.7-2.2
			c-0.2-0.4-0.4-0.9-0.6-1.3c-0.1-0.2-0.1-0.5-0.2-0.7C31.7,6,31.3,5,31,4.1c-0.2-0.6-0.5-1.2-0.4-1.8c0-0.2,0.1-0.4,0.3-0.5
			c0.3-0.1,0.5-0.3,0.8-0.4s1,0.2,1,0.5c0,0.1,0,0.2-0.1,0.2c-0.4,0.3-0.2,0.6,0.1,0.9c0.1,0.1,0.2,0.2,0.2,0.3
			c-0.1,0.5,0.2,1,0.4,1.4C33.6,5.4,33.9,6.1,34,7c0,0.2,0.2,0.4,0.3,0.6c0.3,0.9,0.7,1.7,1,2.6c0,0.1,0.1,0.2,0.2,0.3
			c0.1-0.1,0.1-0.2,0.2-0.3c0.1-0.5,0.3-1,0.5-1.5c0.4-1.4,0.9-2.8,1.3-4.2c0.2-0.5,0.3-1.1,0.6-1.6c0.3-0.6,0.6-0.7,1.3-0.4
			s1.2,0.8,1.6,1.4c0.9,1.1,1.5,2.4,2.1,3.6c0.4,0.9,0.9,1.7,1.3,2.6c0.1,0.2,0.1,0.5,0.2,0.7c0,0.1,0.1,0.1,0.2,0.2
			c0-0.1,0.1-0.1,0.1-0.2c0.3-1.3,0.5-2.6,0.9-3.8c0.3-0.8,0.4-1.6,0.9-2.3c0.1-0.1,0.1-0.2,0.1-0.3c0-0.7,0.6-1,0.9-1.4
			c0.1,0,0.4,0,0.6,0C48.4,3,48.5,2.9,48.7,2.9z"/>
		<path class="st0" d="M11.7,7.9c0.1-0.5,0.2-1,0.3-1.4c0.1-1,0.4-2,0.9-2.8c0.3-0.5,0.7-0.9,1.1-1.4C14,2.1,14.3,2,14.5,2
			c0.9-0.1,1.8-0.4,2.7-0.3c0.5,0,0.8,0.2,1.2,0.3c0.6,0.1,1.2,0.3,1.9,0.3c0.6,0,1,0.3,1.5,0.6c1.3,0.8,2,2,2.3,3.4
			c0.2,0.6,0.1,1.2,0.2,1.8c0,0.3-0.1,0.6,0.1,0.9c0.1,0,0,0.2,0,0.3c-0.1,0.6-0.2,1.2-0.4,1.7c-0.2,0.5-0.3,1-0.6,1.5
			c-0.6,1-1.2,2-2,2.7c-0.4,0.3-0.7,0.8-1.2,1c-0.5,0.3-1.1,0.4-1.7,0.5c-0.2,0-0.3,0.1-0.5,0.1c-0.6,0.3-1.2,0.1-1.7-0.3
			c-0.3-0.2-0.6-0.4-1-0.5c-0.9-0.3-1.5-1.1-2-1.8c-0.9-1.2-1.3-2.7-1.7-4.1C11.5,9.5,11.7,8.7,11.7,7.9 M22,8.3c0-0.4,0-0.9,0-1.3
			s-0.1-0.8-0.2-1c-0.4-0.7-0.8-1.3-1.4-1.9c-0.7-0.7-1.5-1.1-2.5-1c-0.2,0-0.4,0.1-0.6,0.2c-0.3,0.3-0.6,0.3-1,0.1
			c-0.4-0.3-0.5-0.2-0.7,0.2c0,0.1-0.1,0.2-0.1,0.3c-0.7,0.8-1,1.7-1.1,2.7c-0.1,0.7-0.3,1.3-0.4,2c-0.1,0.6-0.2,1.1-0.1,1.7
			c0.1,0.5,0.3,1,0.3,1.5c0.1,0.7,0.5,1.2,0.7,1.8c0.3,0.9,0.8,1.4,1.7,1.8c0.4,0.2,0.7,0.3,1-0.1c0,0,0.3-0.3,0.5,0
			c0.3-0.2,0.8-0.1,1.1-0.5c0.1-0.2,0.3-0.3,0.4-0.4c0.8-0.5,1.2-1.2,1.6-2.1c0.2-0.4,0.2-0.8,0.3-1.2C21.8,10.3,22,9.4,22,8.3z"/>
		<path class="st0" d="M65.5,12.3c0,0.4,0,0.8,0,1.2c0,0.6,0,1.3-0.4,1.8c0,0.1-0.1,0.1-0.1,0.2c0,0.2,0.1,0.4-0.2,0.4
			c-0.3,0-0.7,0.1-0.8-0.3c-0.1-0.3-0.3-0.5-0.3-0.8c-0.1-0.6-0.1-1.3-0.2-1.9c-0.1-0.9-0.3-1.7-0.5-2.6c0-0.1-0.4-0.3-0.4-0.2
			c-0.3,0.3-0.6,0-1,0s-0.7,0-1.1,0c-0.2,0-0.4-0.1-0.5-0.1c-0.4-0.1-0.8-0.1-1.2-0.1c-0.1,0-0.3,0.1-0.3,0.2
			c-0.2,0.5-0.3,1-0.5,1.5c0,0.1-0.1,0.3-0.2,0.4c-0.3,0.3-0.3,0.7-0.3,1.1c0,0.3-0.2,0.6-0.3,0.9c-0.2,0.7-0.2,1.5-0.8,2
			c-0.1,0.2-0.3,0.3-0.4,0.5c-0.1,0.2-0.2,0.2-0.4,0s-0.5-0.2-0.8-0.3c-0.2-0.1-0.3-0.3-0.2-0.6c0.1-0.4,0.3-0.9,0.4-1.3
			c0.4-1.1,0.7-2.2,1.1-3.3c0.2-0.6,0.5-1.2,0.7-1.8c0.4-1.4,0.9-2.8,1.6-4.1c0.3-0.7,0.8-1.3,1.2-1.9C59.8,3.1,59.9,3,60,2.8
			c0.4-0.7,0.6-0.9,1.4-0.5c0.5,0.2,1,0.5,1.2,1c0.3,0.6,0.7,1.2,1,1.8c0.4,0.8,0.5,1.6,0.7,2.5c0,0.2,0.1,0.4,0.2,0.5
			c0.3,1,0.4,2.1,0.6,3.1C65.1,11.6,65.3,11.9,65.5,12.3 M60.8,5.1c-0.1,0.1-0.1,0.2-0.2,0.3c-0.5,1-1.1,2-1.5,3.1
			C59,8.8,59,8.8,59.3,8.8c0.4,0,0.9-0.1,1.2,0C61,9,61.5,8.9,62,8.9c0.3,0,0.3-0.2,0.4-0.5c0.1-0.8-0.3-1.4-0.3-2.1
			c-0.1-0.6-0.4-1.2-0.6-1.8c-0.1-0.4-0.2-0.3-0.4-0.1C61.1,4.5,61,4.8,60.8,5.1z"/>
		<path class="st0" d="M0.4,2.1C0.5,1.5,0.6,1,0.8,0.4C0.8,0.2,1,0,1.4,0c0.5,0.1,0.8,0.3,0.7,0.7c0,1.1-0.1,2.2-0.3,3.2
			C1.8,4.2,2,4.4,2,4.7c0,1.5,0,3.1,0,4.6c0,0.5-0.2,1.1-0.1,1.6c0.2,1.4,0,2.8,0.2,4.1c0.1,0.8,0.3,1.6,0.6,2.4
			c0.1,0.3,0,0.4-0.1,0.5c-0.3,0.3-1,0.3-1.5,0c-0.2-0.1-0.3-0.2-0.5-0.3c-0.2-0.2-0.4-0.4-0.4-0.8c0-1.5,0-3,0-4.5
			c0-0.3-0.1-0.7-0.1-1s0.2-0.5,0-0.8c-0.1-0.3,0-0.7,0.1-1c0.3-1.9,0.1-3.9,0.2-5.8C0.3,3.2,0.4,2.7,0.4,2.1z"/>
		<path class="st0" d="M33.3,9.6C33.3,9.7,33.3,9.7,33.3,9.6C33.3,9.7,33.2,9.7,33.3,9.6z"/>
	</g>
	<path class="st0" d="M74.9,9.5L74.9,9.5C74.9,9.6,74.9,9.6,74.9,9.5z"/>
</g>
</svg>
