<?xml version="1.0" encoding="utf-8"?>
<!-- Generator: Adobe Illustrator 26.1.0, SVG Export Plug-In . SVG Version: 6.00 Build 0)  -->
<svg version="1.1" id="Layer_1" xmlns="http://www.w3.org/2000/svg" xmlns:xlink="http://www.w3.org/1999/xlink" x="0px" y="0px"
	 viewBox="0 0 11.3 33.6" style="enable-background:new 0 0 11.3 33.6;" xml:space="preserve">
<style type="text/css">
	.st0{fill:#D68E8E;}
</style>
<g>
	<path class="st0" d="M2,7.5c-0.1,0-0.3,0-0.3,0C1.5,7.4,1.4,7.3,1.3,7.2C1.2,7,1.5,6.4,1.6,6.3C2,6.1,2.3,5.7,2.7,5.6
		c0.2-0.4,0.5-0.5,0.9-0.8c0.3-0.2,0.6-0.3,0.8-0.7C4.5,4.1,4.6,4,4.7,3.9C5,3.8,5.2,3.6,5.3,3.3c0-0.1,0.1-0.2,0.1-0.2
		C5.8,3,6.1,2.6,6.5,2.3c0.1-0.1,0.2-0.1,0.3-0.2c0,0,0.1-0.1,0.1-0.1c0,0-0.1-0.1-0.1-0.1c-0.1,0-0.2,0-0.3,0c-0.6,0-1.2,0-1.9,0
		c-0.3,0-0.6,0-1,0.1C3.3,2,3,1.7,2.7,2c0,0-0.1,0-0.1,0c-0.3-0.1-0.6-0.1-1,0C1.3,2,1.1,2,1,1.8C0.8,1.6,0.8,1.5,0.9,1.3
		c0.1-0.2,0-0.4,0-0.5c0-0.1,0-0.2,0.2-0.3c0.2,0,0.4-0.2,0.6-0.3c0.2-0.1,0.3-0.3,0.5-0.1c0,0,0.1,0,0.1,0c0.7,0,1.4,0.1,2,0.1
		c0.4,0,0.8,0.1,1.2,0.2c0.1,0,0.2-0.1,0.3-0.1c0.4,0,0.8-0.1,1.2,0.1c0,0,0.1,0,0.1,0c0.2,0,0.4-0.1,0.6-0.1c0.7,0,1.4,0,2.1-0.2
		c0.2,0,0.3,0,0.5,0.1c0.1,0,0.2,0,0.2,0c0.1,0,0.3-0.1,0.4-0.1c0.1,0.1,0.2,0.3,0.2,0.5c0,0.1,0,0.3-0.1,0.4
		c-0.2,0.4-0.3,0.8-0.9,0.8c-0.4,0-0.8,0.1-1.1,0.3C8.6,2.2,8.3,2.5,8,2.7C7.5,3.1,7,3.5,6.5,4C6,4.4,5.5,4.8,5,5.3
		C4.8,5.5,4.5,5.7,4.3,5.9C4.1,6,4.2,6,4.3,6c0.2,0,0.3,0.1,0.5,0.1c0.5-0.1,0.9-0.1,1.4,0c0.1,0,0.2,0,0.3,0C6.5,6.1,6.7,6,6.8,6
		C7.4,6.1,8,6,8.6,6C9,6,9.4,6.1,9.8,6c0.4-0.1,0.7-0.1,1.1-0.1c0.4,0,0.5,0.2,0.4,0.6c-0.1,0.2-0.2,0.5-0.3,0.7
		c-0.2,0.1-0.5,0.2-0.7,0.2c-0.3,0-0.5,0-0.8,0c-0.4,0-0.7,0.1-1.1,0.1C8,7.4,7.6,7.4,7.2,7.4c-0.5,0-1,0.1-1.5,0.1
		c-0.2,0-0.3,0.1-0.5-0.1c-0.1-0.1-0.3,0-0.4,0c-0.2,0-0.3,0.1-0.5,0.1c-0.3,0.1-0.6-0.1-0.9,0c-0.3,0-0.6-0.1-0.9-0.1
		C2.4,7.4,2.2,7.4,2,7.5z"/>
	<path class="st0" d="M6.6,15.1c-0.4,0.2-0.8,0.5-1.2,0.7c-0.4,0.2-0.8,0.3-1.3,0.5c-0.1,0-0.1,0.1-0.1,0.1c0,0.1,0,0.1,0.1,0.2
		c0,0,0.1,0.1,0.2,0.1c0.7,0,1.4,0.1,2.1,0.1c0.4,0,0.7-0.1,1.1,0.1c0.2,0.1,0.4-0.2,0.7,0c0.4-0.2,0.8-0.1,1.1-0.1
		c0.2,0,0.3-0.2,0.5,0c0.3,0.2,0.5,0.3,0.5,0.6c0,0.3-0.3,0.5-0.6,0.5c-0.5,0-1,0-1.5,0c-0.3,0-0.6-0.1-0.8,0.1
		c-0.5-0.2-1.1,0.1-1.7-0.1c-1.1-0.3-2.2-0.1-3.2-0.1c-0.1,0-0.2-0.1-0.4,0c-0.1,0-0.3,0-0.4,0c-0.1,0-0.3,0.1-0.4,0.1
		c-0.2-0.1-0.3-0.3-0.4-0.5c-0.1-0.2,0-0.5,0.1-0.7c0-0.1,0.2-0.2,0.3-0.3c0.4-0.3,0.8-0.4,1.3-0.6c0.4-0.2,0.8-0.3,1.3-0.5
		C4.1,15,4.5,14.8,5,14.6c0.5-0.2,0.9-0.4,1.3-0.7c0.3-0.2,0.6-0.4,1-0.5c0.3,0,0.5-0.2,0.8-0.3c0,0,0.1,0,0.1,0
		c0,0-0.1-0.1-0.1-0.1c-0.1,0-0.2,0-0.3,0c-0.5,0-1-0.1-1.5-0.2c-0.1,0-0.3,0-0.4,0c-0.3,0-0.5,0.1-0.8-0.1c0,0-0.1,0-0.2,0
		c-0.6,0.1-1.1,0-1.7,0c-0.3,0-0.5-0.1-0.8-0.1c-0.3,0-0.6,0-0.9,0c-0.3,0-0.4-0.2-0.6-0.3c-0.1-0.1,0-0.6,0.1-0.8
		c0.2-0.2,0.5-0.3,0.8-0.3c0.4,0.1,0.8,0.1,1.1,0.2c0.3,0,0.7,0.1,1,0.1c0.3,0,0.5,0,0.8,0c0.3,0,0.6,0,0.8,0
		c0.7,0.1,1.4,0.1,2.1,0.2c0.5,0.1,1,0,1.5,0c0.4,0,0.8,0,1.1,0.1c0.1,0,0.2,0.2,0.3,0.3c0,0.1,0,0.2,0,0.2c0,0.3,0.1,0.6-0.2,0.9
		c-0.2,0.2-0.4,0.4-0.7,0.4c-0.2,0-0.4,0.1-0.6,0.2c-0.5,0.2-1,0.3-1.5,0.6C7.4,14.7,7,14.9,6.6,15.1z"/>
	<path class="st0" d="M8.1,33.5c-0.4,0-0.8,0-1.2,0c-0.2,0-0.4,0.1-0.6,0.1c-0.2-0.1-0.4-0.1-0.6-0.1c-1,0.2-1.9,0-2.9,0.1
		c-0.3,0-0.5-0.1-0.8-0.1c-0.3,0-0.5,0-0.8-0.1c-0.2-0.1-0.5-0.1-0.7,0c-0.3,0.1-0.3-0.1-0.4-0.2C-0.1,33.2,0,33.1,0,32.9
		c0-0.2,0.1-0.3,0.2-0.5c0.1-0.3,0.3-0.3,0.5-0.3c0.4,0,0.7,0,1.1,0.1c0.4,0,0.8,0.1,1.2,0.2c0.3,0,0.6,0.1,0.8,0.1
		c0.6,0,1.3,0,1.9-0.1c0.4-0.1,0.8,0.1,1.2,0.1c0.1,0,0.2,0.1,0.3,0c0.3-0.2,0.7-0.1,1-0.2c0.4,0,0.7,0,1.1,0c0.2,0,0.4-0.1,0.6-0.1
		c0.3-0.1,0.5-0.4,0.4-0.8c0-0.1,0-0.3,0-0.4c0.1-0.6-0.1-1.1-0.2-1.6c-0.1-0.4,0-0.8,0.2-1.2c0.1-0.2,0.4-0.2,0.5-0.1
		c0.1,0.1,0.2,0.2,0.2,0.3c0,0.3,0.1,0.7,0.2,1c0.1,0.3,0.1,0.7,0.1,1c0,0.4,0.1,0.9-0.1,1.3c0,0.1,0,0.2,0.1,0.3
		c0.3,0.4,0,1.3-0.5,1.4c-0.2,0.1-0.5,0.1-0.7,0.1c-0.4,0-0.7,0-1.1,0.1C8.7,33.6,8.4,33.5,8.1,33.5z"/>
	<path class="st0" d="M6.5,22.1c0.7,0,1.3,0,1.9,0c0.5,0,1-0.1,1.4-0.3c0.4-0.1,0.8-0.1,0.9,0.2c0.2,0.4,0.1,1-0.3,1.1
		c-0.2,0.1-0.5,0.2-0.7,0.1c-0.3-0.1-0.6,0.1-0.9,0c-0.2,0-0.4,0.1-0.6,0.1c-0.4,0-0.7,0.1-1.1,0.1c-0.7,0-1.5,0-2.2-0.1
		c-1.1-0.1-2.2,0-3.4-0.1c-0.5,0-0.7-0.3-0.6-0.8c0.1-0.2,0-0.4,0.3-0.5C1.6,22,1.7,22,1.9,22c0.3,0,0.6,0,0.9,0
		c0.2,0,0.5,0,0.6,0.1c0.1,0.1,0.2-0.1,0.4,0C3.9,22.1,4,22,4.1,22c0.4,0.1,0.8,0.1,1.3,0c0.1,0,0.2,0,0.2,0
		C5.9,22.2,6.2,22.1,6.5,22.1z"/>
</g>
</svg>
