<?xml version="1.0" encoding="utf-8"?>
<!-- Generator: Adobe Illustrator 26.2.1, SVG Export Plug-In . SVG Version: 6.00 Build 0)  -->
<svg version="1.1" id="Layer_1" xmlns="http://www.w3.org/2000/svg" xmlns:xlink="http://www.w3.org/1999/xlink" x="0px" y="0px"
	 viewBox="0 0 142.5 13.7" style="enable-background:new 0 0 142.5 13.7;" xml:space="preserve">
<style type="text/css">
	.st0{fill:#D68E8E;}
</style>
<g>
	<g>
		<path class="st0" d="M13.1,5.1c0.3-0.7,0.6-1.4,0.8-2.1c0-0.2,0.1-0.5,0.3-0.6c0.2-0.3,0.2-0.6,0.4-0.9C14.9,1,15,0.4,15.6,0
			c0.2-0.1,0.8,0,1,0.2c0.3,0.2,0.3,0.4,0.1,0.8c-0.4,0.8-0.7,1.5-1,2.3C15.4,4,15.2,4.6,15,5.2c-0.1,0.3-0.2,0.5-0.3,0.8
			c-0.2,0.6-0.5,1.2-0.7,1.8c-0.1,0.3-0.3,0.6-0.3,0.9c0,0.4-0.1,0.7-0.2,1c-0.1,0.4-0.2,0.9-0.4,1.2c-0.2,0.4-0.4,0.9-0.9,1
			c-0.4,0.1-1.1-0.3-1.1-0.8c0-0.2,0-0.5,0-0.7c0-0.3-0.1-0.5-0.2-0.7c-0.4-0.3-0.4-0.8-0.5-1.2C10.3,7.7,10.1,7,10,6.2
			C9.9,5.5,9.8,4.8,9.7,4.1c0-0.1-0.1-0.2-0.1-0.3c0,0.1-0.1,0.2-0.1,0.3C9.4,4.8,9.2,5.6,8.9,6.4C8.7,6.8,8.6,7.2,8.5,7.5
			c-0.3,0.9-0.7,1.7-1,2.5c-0.2,0.7-0.8,1-1.3,1.5c-0.2,0.2-0.5,0.1-0.7,0C5,11.1,4.8,10.6,4.7,10C4.6,9.2,4.4,8.4,4.3,7.7
			C4.1,6.5,3.8,5.5,3.5,4.4C3.4,4,3.4,3.6,3.4,3.1C3.3,2.5,3.2,1.8,3,1.1c0-0.2,0.1-0.3,0.2-0.3c0.5-0.1,1.1,0.3,1.3,0.8
			c0.2,0.6,0.3,1.2,0.3,1.8c0,0.4,0.2,0.7,0.1,1.1C4.7,5,5,5.5,5.1,6c0.2,0.7,0.4,1.4,0.6,2.1c0.1,0.5,0.2,1,0.3,1.5l0.1,0.1
			l0.1-0.1c0.3-0.9,0.6-1.8,0.9-2.7c0.3-0.7,0.5-1.5,0.7-2.3c0.2-0.5,0.3-1,0.4-1.4c0.3-0.8,0.6-1.6,0.9-2.5C9.2,0.4,9.6,0.3,10,0.5
			s0.7,0.5,0.8,1c0,0.7,0.2,1.3,0.3,2c0.1,0.4,0.1,0.8,0.1,1.2c0,0.8,0.3,1.5,0.4,2.2c0.1,0.4,0.1,0.8,0.2,1.2
			c0,0.1,0.1,0.1,0.1,0.2L12,8.2c-0.1-0.5,0.2-1,0.4-1.5C12.7,6.2,12.9,5.7,13.1,5.1z"/>
		<path class="st0" d="M29.2,8.3c0,0.3,0.1,0.5,0.1,0.7c0,0.4,0,0.7,0.1,1.1c0.1,0.4-0.1,0.8-0.4,1.2c-0.1,0.1-0.2,0.2-0.2,0.1
			c-0.3-0.1-0.7,0-0.9-0.3c-0.2-0.2-0.3-0.3-0.2-0.6c0.1-0.3,0.1-0.6-0.1-0.9c-0.1-0.3,0-0.7,0-1s-0.1-0.4-0.4-0.4
			c-0.5,0-0.9,0-1.4-0.2c-0.3-0.2-0.9-0.1-1.3,0c-0.1,0-0.2,0.2-0.2,0.3c-0.2,0.6-0.4,1.3-0.5,1.9c-0.2,0.7-0.4,1.4-0.8,2
			c0,0.1,0,0.1-0.1,0.2c-0.1,0.1-1.2,0-1.2-0.1c-0.2-0.4-0.4-0.7-0.2-1.1c0.3-1.2,0.7-2.3,0.9-3.5c0.1-0.6,0.4-1.2,0.6-1.9
			c0.3-0.8,0.7-1.6,0.9-2.5c0.2-0.8,0.7-1.5,0.8-2.3c0-0.2,0.3-0.5,0.5-0.3c0.3,0.2,0.6,0,0.8-0.1c1.1-0.6,2.3,0.1,2.4,1.2
			c0.1,0.9,0.3,1.7,0.3,2.6c0,0.3,0,0.6,0,0.9s0.1,0.7,0.2,1c0,0.1,0,0.2,0,0.2C28.7,6.8,29,6.9,29.1,7c0.1,0.2,0.3,0.3,0.5,0.4
			c0.2,0.2,0.1,0.3,0,0.4C29.4,7.7,29.2,7.9,29.2,8.3 M25.5,4.6c-0.1,0.3-0.3,0.6-0.4,0.8c-0.1,0.3-0.2,0.7-0.4,1
			c-0.1,0.3-0.1,0.4,0.2,0.4c0.7,0,1.5,0,2.2,0c0.1,0,0.2,0,0.2-0.2c0-0.1,0-0.2,0-0.4c-0.1-0.7-0.3-1.3-0.4-2S26.7,2.7,26.6,2
			c0-0.1,0-0.1-0.1-0.1S26.4,2,26.3,2c-0.1,0.3-0.2,0.5-0.3,0.8C25.9,3.4,25.7,3.9,25.5,4.6z"/>
		<path class="st0" d="M58.1,11.3c0,0.1,0,0.1,0,0.1c-0.4,0.5-0.6,0.5-1.1,0c-0.3-0.3-0.4-0.6-0.5-1.1c-0.1-0.8-0.1-1.5-0.4-2.3V7.9
			C56,7.3,56,7.3,55.3,7.3c-0.3,0-0.5-0.1-0.8-0.1c-0.5,0-1,0.1-1.5,0.1c-0.4,0.1-0.5,0.2-0.4,0.7c0.1,0.4,0.1,0.8,0.1,1.2
			c0,0.8,0,1.6,0,2.4c0,0.5-0.2,0.7-0.6,0.9c-0.3,0.2-1.1-0.2-1.1-0.6c0-0.7-0.2-1.4-0.2-2.1c0-0.6,0.1-1.2,0.1-1.8
			c0-1.1-0.2-2.2-0.2-3.3c0-0.6-0.2-1.2-0.2-1.8s0-1.2,0-1.9c0-0.4,0.3-0.7,0.7-0.6c0.4,0.2,1,0.3,1.2,0.8c0.1,0.2,0.2,0.4,0,0.6
			c-0.1,0.2,0,0.5,0,0.7c0,0.3,0.1,0.6,0.1,0.9c-0.1,0.3-0.1,0.5,0,0.8s0,0.7-0.1,1.1c-0.1,0.7,0,1,0.6,1c0.9,0,1.8-0.1,2.8-0.1
			C56,6.1,56,6,56,5.9c-0.1-0.6,0.1-1.2,0-1.8c-0.1-0.5,0-1,0-1.4c0-0.5-0.1-1-0.1-1.5c0-0.2,0-0.2,0.2-0.2c0.7,0,1.1,0.4,1.3,1.1
			c0.1,0.7,0.1,1.4,0.3,2c0.2,0.9,0,1.9,0.1,2.8c0.1,1-0.1,2.1,0.6,3C58.3,10.3,58.5,10.8,58.1,11.3z"/>
		<path class="st0" d="M76.8,4.1c0,1.2,0,2.3,0,3.4c0,0.8,0.1,1.5,0.2,2.3c0,0.3,0,0.8-0.4,1c-0.3,0.2-0.7,0.2-1.1,0.1
			c-0.1-0.1-0.2-0.1-0.2-0.3c0-0.4,0-0.7-0.1-1.1c-0.1-0.4,0.1-0.8,0-1.3c0-0.3,0.1-0.5-0.1-0.8c-0.1-0.1,0-0.2,0-0.3
			c0.2-0.3,0.1-0.6,0.1-0.9s-0.1-0.5-0.1-0.8c0-0.2,0.2-0.5,0-0.7c0.2-0.4,0.2-0.8,0.1-1.3c-0.1-0.6,0.1-1.1,0-1.6
			c0-0.3,0-0.5,0.4-0.5c0.1,0,0.1,0,0.2,0C76,1.2,76.2,1,76.4,1.1c0.3,0.2,0.7,0.4,0.9,0.7c0.9,1,1.3,2.2,2.1,3.3
			c0.4,0.5,0.6,1,1.1,1.3c0.4,0.3,0.7,0.6,1.1,0.9C81.8,7.5,82,7.7,82.3,8c0.1,0.1,0.2,0.1,0.3,0.1c0-0.1,0.1-0.2,0.1-0.3
			c-0.2-0.5-0.2-1.1-0.2-1.6c0-0.4,0.1-0.7-0.1-1.1V4.9c0.2-0.2,0.1-0.4,0.1-0.6c0-0.5,0-1.1,0.1-1.6c0.1-0.3,0.1-0.7-0.1-1
			c-0.1-0.2,0-0.4,0.2-0.5c0.3-0.3,0.7-0.3,1-0.2c0.4,0.1,0.5,0.5,0.5,0.8c0,0.2,0,0.5,0,0.7s-0.3,0.4,0,0.6c-0.3,0.5-0.1,1-0.1,1.4
			s0,0.8-0.1,1.1c-0.1,0.3,0,0.8,0.1,1.1c0.2,0.6,0.1,1.2,0.1,1.8c0,0.4-0.1,0.8-0.1,1.2c0,0.3-0.2,0.4-0.5,0.4
			c-0.2,0-0.4,0-0.5-0.1c-0.3-0.2-0.7-0.3-0.9-0.6c-0.4-0.4-0.7-0.8-1.1-1.2c-0.5-0.5-1.1-1-1.6-1.5c-0.6-0.6-1.1-1.2-1.6-1.8
			C77.4,4.7,77.2,4.3,77,4C76.8,3.8,76.9,4,76.8,4.1 M83.4,5.9c0-0.1,0-0.1,0-0.2h-0.1C83.4,5.7,83.3,5.8,83.4,5.9z"/>
		<path class="st0" d="M137.3,5c0.4,0.9,1,1.4,1.7,2c0.3,0.2,0.6,0.5,0.8,0.7c0.1,0.1,0.3,0.2,0.4,0.3c0.1,0.1,0.2,0.2,0.2,0
			s0-0.5,0-0.7c0.1-0.9,0-1.8,0-2.7c0-0.7,0.2-1.3,0.2-2c0-0.5,0.1-1,0-1.5c-0.1-0.2,0-0.3,0.2-0.4c0.5-0.3,1.4,0,1.6,0.5
			c0.1,0.3,0.1,0.6,0.1,0.9c-0.1,0.5-0.1,1-0.2,1.5c-0.1,0.4-0.1,0.9-0.1,1.3c0,0.5-0.1,1,0,1.4c0.2,0.9,0,1.7-0.1,2.5
			c0,0.2,0,0.4-0.1,0.6c-0.1,0.7-0.5,0.8-1.2,0.6c-0.5-0.2-0.8-0.6-1.2-0.9c-0.6-0.6-1.2-1.2-1.8-1.8s-1.4-1.1-1.8-1.9
			c0-0.1-0.1-0.1-0.2-0.2c0,0.1-0.1,0.2-0.1,0.3c0.1,0.9-0.1,1.8,0,2.7c0,0.9,0,1.8,0,2.7c0,0.2-0.1,0.3-0.3,0.3c-0.1,0-0.2,0-0.4,0
			c-0.7,0-1.2-0.4-1.1-1.1c0.2-1.5,0.1-2.9,0.1-4.4c0-0.2,0.3-0.5,0-0.7c0.1-0.2,0.2-0.5,0-0.7c0.1-0.8,0.2-1.5,0.4-2.3
			c0.1-0.4,0.6-0.6,1-0.4s0.7,0.4,0.8,0.9C136.4,3.3,136.8,4.2,137.3,5z"/>
		<path class="st0" d="M125.3,7.7c-0.2,0.2-0.4,0.4-0.5,0.6c-0.3,0.6-0.7,1.1-1.4,1.2c-0.1,0-0.2,0.1-0.3,0.1
			c-0.5,0.3-1,0.2-1.5-0.1c-0.3-0.1-0.7-0.2-1-0.3c-1.2-0.5-2.3-1.2-2.9-2.5c-0.1-0.3-0.2-0.5-0.2-0.8c0.1-0.6,0-1.3,0.2-1.9
			s0.6-1.1,0.9-1.6c0.1-0.1,0.2-0.3,0.3-0.4c0.3-0.7,1-0.8,1.7-0.9c0.4,0,0.7-0.1,1.1,0.1c0.2,0.1,0.5-0.1,0.7-0.1s0.4,0.1,0.6,0.1
			c0.6,0,1.2,0.2,1.6,0.6c0.1,0.1,0.2,0.2,0.3,0.2c0.5,0.4,1,0.9,1.1,1.6c0,0.1,0,0.2,0,0.3s-0.1,0.3,0,0.3c0.2,0.5,0,1-0.2,1.5
			c-0.1,0.2-0.1,0.4-0.2,0.6C125.6,6.8,125.4,7.3,125.3,7.7 M123.7,6.7c0.1-0.2,0.2-0.4,0.2-0.6c0.1-0.5,0.2-0.9,0.3-1.4
			c0.2-1-0.2-1.9-1.2-2.3c-0.2-0.1-0.4-0.1-0.5-0.1c-0.7,0.3-1.3,0.6-2,0.8c-0.1,0-0.1,0.1-0.2,0.2c-0.4,0.7-0.9,1.2-1.1,2.1
			c-0.1,0.5-0.4,1-0.1,1.5c0.1,0.2,0.2,0.5,0.4,0.7c0.7,0.8,1.5,1.1,2.6,1c0.1,0,0.3-0.1,0.4-0.2C122.9,7.9,123.3,7.3,123.7,6.7z"/>
		<path class="st0" d="M97.2,5.3c0.8-0.1,1.3,0.2,1.6,0.8c0.1,0.1,0.1,0.2,0.1,0.3c0,0.9-0.2,1.6-0.9,2.3c-0.1,0.1-0.3,0.3-0.4,0.4
			c-0.1,0.1-0.2,0.1-0.2,0.2c0,0.8-0.7,0.9-1.1,1.1c-1.3,0.5-2.5,0.2-3.7-0.5c-0.2-0.1-0.4-0.4-0.5-0.6c-0.3-0.5-0.7-0.9-0.9-1.5
			c-0.1-0.5-0.1-0.9-0.1-1.4c0.1-0.5,0.2-1,0.2-1.5c0.1-0.6,0.1-1.1,0.4-1.6s0.5-0.9,0.9-1.3c0.6-0.6,1.3-1,2.1-1.1
			C94.8,0.9,95,1,95.1,1c0.5,0.1,1.1,0.2,1.6,0.5c0.3,0.1,0.4,0.4,0.5,0.6S97.1,2.4,97,2.4c-0.3,0-0.5,0-0.8-0.1s-0.5,0-0.8,0.1
			c-0.8,0.5-1.4,1.1-1.8,1.9c-0.3,0.5-0.5,1-0.5,1.6C93,6.5,93,7,92.9,7.6c-0.1,0.2,0,0.5,0.1,0.8s0.3,0.5,0.5,0.8
			c0.4,0.6,1.6,0.7,2.2,0.1c0.4-0.4,0.9-0.9,1.3-1.4c0.2-0.2,0.2-0.6,0.3-0.9c0-0.2-0.4-0.4-0.6-0.3c-0.5,0.3-0.9-0.2-1.3,0
			c-0.2,0-0.4-0.4-0.3-0.7c0-0.3,0.2-0.3,0.5-0.3C96.1,5.5,96.7,5.5,97.2,5.3z"/>
		<path class="st0" d="M42.3,8.4c0.5,0.7,0.3,1.3-0.1,1.9c-0.2,0.3-0.4,0.6-0.6,0.9c-0.5,0.7-1.2,0.9-1.9,1.1
			c-0.5,0.1-1,0.1-1.5,0.1c-0.3,0-0.6,0-0.8-0.1c-0.5-0.3-1-0.3-1.4-0.4c-0.3-0.1-0.4-0.2-0.5-0.4c0-0.2,0.3-0.7,0.5-0.7
			c0.4,0,0.7-0.1,1.1,0.1c0.4,0.2,0.7,0.2,1.2,0.2c0.5-0.1,1-0.2,1.4-0.5c0.6-0.5,1.1-1.1,1.2-1.9c0.1-0.5-0.3-0.9-0.6-1.2
			c-0.5-0.6-0.9-1.2-1.4-1.8c-0.7-0.8-0.6-1.6-0.4-2.5c0.1-0.3,0.4-0.5,0.1-0.8V2.3c0.4-0.3,0.5-0.9,1-1.1c0.3-0.1,0.6-0.3,0.9-0.4
			c0.2,0,0.5,0.1,0.8,0.1c0.4,0,0.8,0.1,1.3,0.1c0.1,0,0.3,0.1,0.4,0.1c0.2,0.2,0.3,0.4,0.4,0.6C43.2,1.8,43,2,42.8,2
			c-0.6,0.1-1.1,0.3-1.5,0.5c-0.5,0.3-0.7,0.9-0.8,1.4c-0.3,0.9-0.1,1.6,0.6,2.4c0.4,0.5,0.8,1.1,1.2,1.6C42.2,8,42.2,8.2,42.3,8.4
			 M39.7,10.8C39.7,10.8,39.8,10.8,39.7,10.8C39.8,10.8,39.8,10.8,39.7,10.8z"/>
		<path class="st0" d="M102.9,1.8c0.1-0.5,0.4-0.8,0.8-0.6s0.8,0.2,1.2,0.2c1,0,2,0,2.9-0.1c0.6-0.1,1.1-0.2,1.6-0.1
			c0.6,0.1,1.2,0.1,1.8,0.1c0.5-0.1,0.8,0.1,1,0.4c0.1,0.1,0.3,0.3,0.3,0.4c-0.1,0.2-0.2,0.4-0.4,0.4c-0.2,0.1-0.6,0.2-0.7,0.1
			c-0.4-0.2-0.8,0.1-1.1-0.1c-0.6-0.3-1.2,0-1.8,0c-0.2,0-0.2,0-0.2,0.2c0.1,0.4-0.1,0.8,0.1,1.1c0,0,0,0.1,0,0.2
			c0,0.8,0,1.7,0.1,2.5c0.1,0.7,0.1,1.5,0.4,2.2c0,0.1,0.1,0.3,0,0.4c-0.3,0.5,0,0.9,0.1,1.4c0,0.3-0.1,0.7-0.1,1l-0.1,0.1
			c-0.3-0.1-0.6,0.1-0.9-0.2c-0.4-0.4-0.6-0.8-0.6-1.4c0-0.9,0-1.8-0.1-2.7c0-0.9-0.2-1.6-0.2-2.3c-0.1-0.6-0.1-1.2-0.1-1.8
			s0-0.6-0.5-0.6c-1.1,0-2.1-0.3-3.1-0.5C103.1,2.1,103,1.9,102.9,1.8z"/>
		<path class="st0" d="M66.6,11.2c-0.3-0.9-0.4-1.8-0.4-2.7c0-0.6,0-1.2-0.1-1.8c-0.2-0.7,0-1.5-0.2-2.2c-0.1-0.2,0-0.5,0-0.8
			c0-0.7,0-1.4,0-2.1c0-0.3,0.3-0.9,0.6-1c0.4-0.1,0.7,0.1,1,0.4c0.2,0.2,0.3,0.3,0.2,0.7c-0.1,0.3,0.1,0.7,0.1,1
			c0.1,0.5-0.1,1.1,0.1,1.6c-0.2,0.5,0.2,1-0.1,1.5c-0.1,0.3-0.1,0.7,0.1,1.1c0.1,0.4,0,0.9,0.1,1.3c0,0.4,0,0.7,0,1.1
			c0,0.2,0.1,0.5,0.1,0.7c0.1,0.4-0.1,0.9,0,1.3c0,0.2-0.6,0.4-0.8,0.3C67,11.5,66.9,11.4,66.6,11.2z"/>
		<path class="st0" d="M0.1,13.5c0.1,0,0.2,0,0.3,0c-0.1,0.1-0.3,0.2-0.4,0.2S0.1,13.6,0.1,13.5z"/>
		<path class="st0" d="M104.5,11.2L104.5,11.2L104.5,11.2z"/>
	</g>
</g>
</svg>
